<svg width="187" height="70" viewBox="0 0 187 70" fill="none" xmlns="http://www.w3.org/2000/svg">
<g clip-path="url(#clip0)">
<path d="M64.1388 68.4659H64.0852L63.9043 69.3502H63.1271V59.9705H64.1388V63.8631H64.1923C64.441 63.5376 64.7662 63.2786 65.1391 63.1091C65.5119 62.9396 65.9209 62.8649 66.3296 62.8916C66.7358 62.8749 67.1405 62.9486 67.5148 63.1074C67.889 63.2661 68.2233 63.5059 68.4936 63.8095C69.0552 64.4688 69.3471 65.3159 69.311 66.1812C69.349 67.0613 69.0521 67.9231 68.4802 68.5932C68.2077 68.9025 67.8697 69.1472 67.4907 69.3094C67.1117 69.4717 66.7013 69.5474 66.2894 69.5311C65.8686 69.5609 65.4474 69.4779 65.0694 69.2906C64.6913 69.1034 64.3701 68.8187 64.1388 68.4659ZM66.2157 63.776C65.9218 63.7626 65.6287 63.816 65.3584 63.932C65.088 64.048 64.8474 64.2237 64.6546 64.446C64.2615 64.947 64.0596 65.5716 64.0852 66.208C64.058 66.8466 64.2599 67.474 64.6546 67.9768C64.8451 68.1983 65.0833 68.3737 65.3514 68.4898C65.6195 68.6059 65.9104 68.6595 66.2023 68.6468C66.4891 68.6584 66.7748 68.604 67.0373 68.4879C67.2998 68.3717 67.5322 68.1968 67.7165 67.9768C68.1081 67.4775 68.3099 66.8555 68.286 66.2214C68.3098 65.5935 68.1078 64.9778 67.7165 64.4862C67.5379 64.2602 67.3096 64.0785 67.0493 63.9553C66.7889 63.8321 66.5037 63.7707 66.2157 63.776Z" fill="#2F2F31"/>
<path d="M76.1922 63.059V66.7975C76.2429 67.5296 76.002 68.2521 75.5222 68.8074C75.2594 69.0665 74.9438 69.2659 74.5969 69.3919C74.25 69.518 73.8801 69.5677 73.5122 69.5377C73.157 69.5582 72.8014 69.5058 72.4673 69.3836C72.1331 69.2615 71.8275 69.0722 71.5693 68.8275C71.3298 68.5537 71.1472 68.235 71.0322 67.8899C70.9171 67.5448 70.872 67.1803 70.8993 66.8176V63.059H71.8909V66.7439C71.8772 67.2211 72.0156 67.6904 72.2861 68.0838C72.4292 68.2776 72.6193 68.4317 72.8386 68.5313C73.0579 68.631 73.299 68.673 73.539 68.6533C73.7811 68.6782 74.0256 68.6422 74.2503 68.5486C74.4749 68.455 74.6726 68.3068 74.8254 68.1173C75.0981 67.7249 75.2367 67.2549 75.2207 66.7774V63.059H76.1922Z" fill="#2F2F31"/>
<path d="M82.477 67.5814C82.4817 67.8518 82.4237 68.1195 82.3074 68.3637C82.1912 68.6078 82.0199 68.8216 81.807 68.9884C81.3307 69.3559 80.7399 69.5434 80.1388 69.5177C79.5166 69.5382 78.904 69.3598 78.3901 69.0085C78.1533 68.8333 77.9638 68.602 77.8386 68.3353C77.7135 68.0687 77.6566 67.775 77.6732 67.4809V67.2799H78.6514V67.4809C78.6491 67.6457 78.6847 67.8087 78.7556 67.9575C78.8265 68.1062 78.9307 68.2366 79.0601 68.3385C79.3543 68.5496 79.7099 68.6579 80.0718 68.6467C80.428 68.6703 80.7812 68.5683 81.0701 68.3586C81.1862 68.2606 81.2781 68.137 81.3386 67.9975C81.399 67.858 81.4264 67.7064 81.4184 67.5546C81.4312 67.4263 81.4101 67.297 81.3571 67.1794C81.3042 67.0618 81.2214 66.9602 81.117 66.8846C80.7813 66.6799 80.4148 66.5306 80.0316 66.4425C79.7234 66.3554 79.4889 66.2817 79.3616 66.2281C79.166 66.1647 78.9756 66.0863 78.7921 65.9936C78.6156 65.9121 78.4528 65.8036 78.3097 65.672C78.1955 65.5462 78.1047 65.401 78.0417 65.2432C77.9598 65.0554 77.9208 64.8517 77.9278 64.6469C77.9133 64.3922 77.9598 64.1377 78.0635 63.9046C78.1673 63.6715 78.3252 63.4666 78.5241 63.3069C78.9688 62.9665 79.519 62.7933 80.0785 62.8178C80.6511 62.7959 81.2138 62.9709 81.673 63.3136C81.8893 63.4742 82.0633 63.685 82.18 63.9277C82.2967 64.1705 82.3527 64.438 82.343 64.7072V64.8747H81.4051V64.7072C81.4117 64.5629 81.3821 64.4192 81.3189 64.2893C81.2557 64.1593 81.1609 64.0474 81.0433 63.9635C80.7774 63.7821 80.4604 63.6905 80.1388 63.7022C79.8463 63.6897 79.5562 63.7593 79.3013 63.9032C79.1985 63.9656 79.1144 64.0545 79.0578 64.1606C79.0013 64.2667 78.9743 64.3861 78.9797 64.5062C78.976 64.6234 79.0031 64.7396 79.0584 64.8431C79.1136 64.9465 79.1951 65.0337 79.2946 65.0958C79.663 65.2833 80.052 65.4272 80.4537 65.5246C81.0221 65.6518 81.5553 65.9035 82.0147 66.2616C82.187 66.432 82.3182 66.6394 82.3983 66.8681C82.4784 67.0968 82.5053 67.3408 82.477 67.5814Z" fill="#2F2F31"/>
<path d="M84.2521 61.6386C84.1863 61.5742 84.1345 61.497 84.0999 61.4117C84.0653 61.3264 84.0487 61.2349 84.0511 61.1429C84.0511 60.9652 84.1216 60.7948 84.2473 60.6691C84.3729 60.5435 84.5434 60.4729 84.721 60.4729C84.8131 60.4705 84.9046 60.4872 84.9899 60.5217C85.0752 60.5563 85.1524 60.6081 85.2168 60.6739C85.2838 60.7377 85.3368 60.8147 85.3726 60.9C85.4083 60.9853 85.426 61.0772 85.4245 61.1697C85.426 61.2622 85.4083 61.354 85.3726 61.4393C85.3368 61.5246 85.2838 61.6016 85.2168 61.6654C85.153 61.7324 85.076 61.7855 84.9907 61.8212C84.9054 61.8569 84.8135 61.8746 84.721 61.8731C84.6311 61.8676 84.5432 61.844 84.4627 61.8037C84.3821 61.7634 84.3104 61.7073 84.2521 61.6386ZM85.2235 69.377H84.2052V63.059H85.2235V69.377Z" fill="#2F2F31"/>
<path d="M87.2737 69.3636V63.0591H88.0509L88.2519 63.9703C88.4579 63.6575 88.733 63.3961 89.0559 63.2065C89.3777 63.007 89.7493 62.9025 90.1279 62.905C90.5231 62.8905 90.9167 62.9638 91.2803 63.1194C91.5769 63.2501 91.8252 63.4703 91.9904 63.7492C92.1445 64.0135 92.2553 64.3008 92.3187 64.6C92.3842 64.9377 92.4156 65.2812 92.4125 65.6251V69.3636H91.3942V65.6586C91.3942 64.3723 90.9587 63.7291 90.1011 63.7291C89.8442 63.7182 89.5884 63.7691 89.3553 63.8776C89.1221 63.986 88.9184 64.1487 88.7611 64.3522C88.407 64.896 88.24 65.5405 88.2854 66.1879V69.3569L87.2737 69.3636Z" fill="#2F2F31"/>
<path d="M100.03 66.4022H94.9985C94.9784 66.7052 95.0184 67.0091 95.1161 67.2965C95.2138 67.584 95.3674 67.8493 95.568 68.0772C95.9269 68.403 96.3806 68.6053 96.8628 68.6548C97.345 68.7042 97.8304 68.5981 98.2479 68.3519C98.4089 68.2417 98.5438 68.0976 98.6434 67.9298C98.7429 67.762 98.8046 67.5745 98.8241 67.3804H99.8291C99.8081 67.6914 99.7185 67.9938 99.5668 68.2661C99.415 68.5383 99.2049 68.7735 98.9514 68.9549C98.3995 69.3376 97.7401 69.5347 97.0687 69.5177C96.6487 69.5363 96.2295 69.4653 95.839 69.3093C95.4486 69.1534 95.0958 68.9161 94.8042 68.6132C94.2218 67.959 93.9188 67.1029 93.96 66.228C93.9309 65.3527 94.2377 64.4993 94.8176 63.8429C95.0943 63.5325 95.4356 63.2865 95.8176 63.1221C96.1996 62.9577 96.6129 62.879 97.0285 62.8915C97.4402 62.872 97.8511 62.9456 98.2304 63.1068C98.6097 63.268 98.9478 63.5128 99.2194 63.8228C99.7798 64.5109 100.066 65.3818 100.023 66.2682L100.03 66.4022ZM98.9916 65.6116C98.9651 65.104 98.7473 64.6252 98.3819 64.2717C98.2043 64.1001 97.9944 63.9655 97.7644 63.8758C97.5344 63.7861 97.2888 63.743 97.0419 63.7491C96.5351 63.7324 96.0419 63.9152 95.6685 64.2583C95.2808 64.6019 95.0408 65.0819 94.9985 65.5982L98.9916 65.6116Z" fill="#2F2F31"/>
<path d="M106.053 67.5814C106.058 67.8519 106 68.1198 105.884 68.364C105.768 68.6082 105.596 68.822 105.383 68.9884C104.905 69.3569 104.311 69.5444 103.708 69.5177C103.083 69.5367 102.468 69.356 101.953 69.0018C101.717 68.8259 101.529 68.5942 101.405 68.3276C101.281 68.061 101.225 67.7677 101.242 67.4742V67.2732H102.221V67.4742C102.216 67.6443 102.252 67.813 102.327 67.9659C102.402 68.1187 102.512 68.2512 102.649 68.3519C102.943 68.5648 103.299 68.6733 103.661 68.6601C104.015 68.685 104.367 68.5828 104.653 68.372C104.77 68.2743 104.863 68.1509 104.924 68.0115C104.986 67.8721 105.014 67.7203 105.008 67.568C105.019 67.4392 104.997 67.3096 104.943 67.1921C104.889 67.0746 104.805 66.9733 104.7 66.898C104.366 66.6943 104.002 66.5451 103.621 66.4558L102.911 66.2415C102.716 66.177 102.525 66.0986 102.341 66.007C102.165 65.9255 102.002 65.817 101.859 65.6854C101.747 65.5579 101.656 65.4131 101.591 65.2566C101.512 65.0678 101.473 64.8648 101.477 64.6603C101.462 64.4049 101.509 64.1497 101.614 63.9164C101.719 63.683 101.879 63.4786 102.08 63.3203C102.524 62.9788 103.075 62.8056 103.634 62.8312C104.205 62.8103 104.765 62.9853 105.222 63.327C105.439 63.4868 105.614 63.6974 105.731 63.9404C105.848 64.1833 105.903 64.4512 105.892 64.7206V64.8881H104.954V64.7206C104.961 64.5763 104.931 64.4326 104.868 64.3027C104.805 64.1727 104.71 64.0607 104.592 63.9769C104.326 63.7972 104.009 63.7058 103.688 63.7156C103.393 63.7022 103.101 63.7719 102.844 63.9166C102.741 63.979 102.657 64.0679 102.6 64.174C102.544 64.2801 102.517 64.3995 102.522 64.5196C102.518 64.6368 102.546 64.753 102.601 64.8565C102.656 64.9599 102.738 65.0471 102.837 65.1092C103.208 65.2951 103.599 65.439 104.003 65.538C104.569 65.6665 105.099 65.9182 105.557 66.275C105.734 66.4408 105.87 66.6446 105.956 66.871C106.042 67.0974 106.075 67.3403 106.053 67.5814Z" fill="#2F2F31"/>
<path d="M112.09 67.5814C112.095 67.8519 112.037 68.1198 111.921 68.364C111.805 68.6082 111.633 68.822 111.42 68.9884C110.941 69.3569 110.348 69.5444 109.745 69.5177C109.12 69.5367 108.505 69.356 107.989 69.0018C107.754 68.8259 107.566 68.5942 107.442 68.3276C107.318 68.061 107.262 67.7677 107.279 67.4742V67.2732H108.257V67.4742C108.253 67.6443 108.289 67.813 108.364 67.9659C108.438 68.1187 108.549 68.2512 108.686 68.3519C108.979 68.5648 109.336 68.6733 109.698 68.6601C110.052 68.685 110.404 68.5828 110.689 68.372C110.806 68.2743 110.899 68.1509 110.961 68.0115C111.023 67.8721 111.051 67.7203 111.045 67.568C111.057 67.439 111.035 67.309 110.981 67.1913C110.927 67.0735 110.843 66.9723 110.736 66.898C110.403 66.6943 110.038 66.5451 109.658 66.4558L108.947 66.2415C108.753 66.1759 108.562 66.0975 108.378 66.007C108.201 65.9255 108.039 65.817 107.896 65.6854C107.784 65.5579 107.693 65.4131 107.628 65.2566C107.549 65.0678 107.51 64.8648 107.514 64.6603C107.499 64.4049 107.546 64.1497 107.651 63.9164C107.756 63.683 107.916 63.4786 108.117 63.3203C108.561 62.9788 109.111 62.8056 109.671 62.8312C110.241 62.8103 110.802 62.9853 111.259 63.327C111.476 63.4868 111.651 63.6974 111.768 63.9404C111.884 64.1833 111.94 64.4512 111.929 64.7206V64.8881H110.991V64.7206C110.998 64.5763 110.968 64.4326 110.905 64.3027C110.842 64.1727 110.747 64.0607 110.629 63.9769C110.362 63.7972 110.046 63.7058 109.725 63.7156C109.43 63.7029 109.138 63.7725 108.88 63.9166C108.778 63.979 108.694 64.0679 108.637 64.174C108.58 64.2801 108.553 64.3995 108.559 64.5196C108.555 64.6368 108.582 64.753 108.638 64.8565C108.693 64.9599 108.774 65.0471 108.874 65.1092C109.245 65.2951 109.636 65.439 110.04 65.538C110.607 65.6677 111.14 65.9191 111.601 66.275C111.775 66.442 111.91 66.6462 111.994 66.8724C112.079 67.0986 112.112 67.3409 112.09 67.5814Z" fill="#2F2F31"/>
<path d="M121.938 67.5815C121.943 67.8519 121.886 68.1199 121.769 68.3641C121.653 68.6083 121.481 68.8221 121.268 68.9885C120.789 69.3559 120.196 69.5433 119.593 69.5177C118.968 69.5377 118.353 69.3569 117.838 69.0019C117.602 68.8259 117.414 68.5943 117.29 68.3277C117.166 68.061 117.11 67.7678 117.128 67.4743V67.2733H118.099V67.4743C118.097 67.6446 118.136 67.8129 118.211 67.9654C118.287 68.118 118.398 68.2504 118.535 68.352C118.826 68.5639 119.18 68.6724 119.54 68.6602C119.896 68.6849 120.249 68.5828 120.538 68.3721C120.654 68.274 120.746 68.1504 120.806 68.011C120.867 67.8715 120.894 67.7199 120.886 67.5681C120.899 67.4398 120.878 67.3104 120.825 67.1928C120.772 67.0753 120.689 66.9736 120.585 66.8981C120.249 66.6933 119.883 66.544 119.499 66.4559C119.191 66.3688 118.957 66.2951 118.829 66.2415C118.634 66.177 118.444 66.0987 118.26 66.007C118.083 65.9256 117.921 65.8171 117.777 65.6854C117.663 65.5597 117.572 65.4144 117.509 65.2566C117.431 65.0679 117.392 64.8648 117.396 64.6603C117.381 64.4049 117.428 64.1497 117.533 63.9164C117.638 63.6831 117.798 63.4786 117.999 63.3204C118.441 62.9799 118.989 62.8066 119.546 62.8313C120.119 62.8094 120.682 62.9844 121.141 63.3271C121.358 63.4869 121.533 63.6975 121.649 63.9404C121.766 64.1834 121.822 64.4513 121.811 64.7206V64.8881H120.873V64.7206C120.88 64.5755 120.85 64.431 120.785 64.3008C120.721 64.1707 120.624 64.0592 120.504 63.977C120.238 63.7955 119.922 63.704 119.6 63.7157C119.307 63.7032 119.017 63.7728 118.762 63.9167C118.66 63.9791 118.575 64.068 118.519 64.1741C118.462 64.2802 118.435 64.3995 118.441 64.5197C118.437 64.6369 118.464 64.7531 118.519 64.8565C118.575 64.96 118.656 65.0471 118.756 65.1092C119.127 65.2952 119.518 65.439 119.921 65.538C120.487 65.6666 121.018 65.9182 121.476 66.275C121.646 66.444 121.776 66.6492 121.856 66.8754C121.936 67.1016 121.964 67.343 121.938 67.5815Z" fill="#2F2F31"/>
<path d="M126.514 69.5311C126.08 69.544 125.648 69.468 125.245 69.3078C124.842 69.1477 124.476 68.9067 124.169 68.5998C123.572 67.9476 123.241 67.0955 123.241 66.2114C123.241 65.3272 123.572 64.4751 124.169 63.8229C124.476 63.5142 124.843 63.2721 125.248 63.1119C125.652 62.9516 126.086 62.8766 126.521 62.8916C126.95 62.8755 127.377 62.9488 127.776 63.1068C128.175 63.2648 128.537 63.5041 128.839 63.8095C129.42 64.4747 129.74 65.3281 129.74 66.2114C129.74 67.0946 129.42 67.948 128.839 68.6133C128.537 68.9198 128.174 69.1598 127.773 69.3179C127.373 69.4759 126.944 69.5486 126.514 69.5311ZM126.514 63.776C126.218 63.7649 125.924 63.8192 125.652 63.935C125.38 64.0509 125.136 64.2253 124.939 64.4459C124.54 64.944 124.323 65.5631 124.323 66.2013C124.323 66.8395 124.54 67.4586 124.939 67.9567C125.146 68.1696 125.394 68.3389 125.667 68.4545C125.94 68.5701 126.234 68.6296 126.531 68.6296C126.827 68.6296 127.121 68.5701 127.395 68.4545C127.668 68.3389 127.915 68.1696 128.122 67.9567C128.521 67.455 128.739 66.8326 128.739 66.1913C128.739 65.5499 128.521 64.9275 128.122 64.4258C127.914 64.2041 127.66 64.0309 127.377 63.9186C127.094 63.8063 126.791 63.7576 126.487 63.776H126.514Z" fill="#2F2F31"/>
<path d="M132.451 69.3637H131.433V59.9839H132.451V69.3637Z" fill="#2F2F31"/>
<path d="M139.7 63.059V66.7975C139.748 67.5292 139.507 68.2507 139.03 68.8074C138.771 69.0621 138.461 69.2589 138.12 69.3848C137.779 69.5107 137.416 69.5628 137.053 69.5377C136.698 69.559 136.342 69.507 136.008 69.3848C135.674 69.2626 135.368 69.0729 135.11 68.8275C134.864 68.557 134.675 68.2396 134.554 67.8943C134.433 67.5489 134.383 67.1827 134.407 66.8176V63.059H135.398V66.7439C135.388 67.2207 135.526 67.689 135.794 68.0838C135.938 68.2777 136.13 68.4317 136.35 68.5313C136.57 68.6309 136.812 68.6729 137.053 68.6533C137.295 68.677 137.539 68.6405 137.764 68.547C137.988 68.4534 138.186 68.3059 138.34 68.1173C138.61 67.7241 138.746 67.2542 138.728 66.7774V63.059H139.7Z" fill="#2F2F31"/>
<path d="M144.879 68.3385V69.2363C144.694 69.3349 144.495 69.4028 144.289 69.4373C144.088 69.4785 143.884 69.5031 143.679 69.511C143.429 69.5483 143.173 69.5263 142.932 69.4469C142.692 69.3675 142.473 69.2329 142.294 69.0538C142.115 68.8746 141.98 68.656 141.901 68.4155C141.822 68.1749 141.8 67.9191 141.837 67.6685V63.9032H140.785V63.059H141.931L142.226 61.2769H142.855V63.059H144.624V63.9032H142.855V67.3134C142.821 67.6575 142.893 68.0038 143.063 68.305C143.164 68.4036 143.285 68.4783 143.418 68.5235C143.552 68.5688 143.694 68.5834 143.834 68.5663C144.195 68.5734 144.553 68.4953 144.879 68.3385Z" fill="#2F2F31"/>
<path d="M146.111 61.6386C146.045 61.5742 145.993 61.497 145.959 61.4117C145.924 61.3264 145.908 61.2349 145.91 61.1429C145.91 60.9652 145.98 60.7948 146.106 60.6691C146.232 60.5435 146.402 60.4729 146.58 60.4729C146.672 60.4705 146.763 60.4872 146.849 60.5217C146.934 60.5563 147.011 60.6081 147.076 60.6739C147.143 60.7377 147.196 60.8147 147.231 60.9C147.267 60.9853 147.285 61.0772 147.283 61.1697C147.282 61.3557 147.207 61.5336 147.075 61.6652C146.944 61.7967 146.766 61.8714 146.58 61.8731C146.49 61.8676 146.402 61.844 146.321 61.8037C146.241 61.7634 146.169 61.7073 146.111 61.6386ZM147.082 69.377H146.057V63.059H147.076L147.082 69.377Z" fill="#2F2F31"/>
<path d="M152.142 69.5311C151.708 69.544 151.276 69.468 150.873 69.3078C150.47 69.1477 150.103 68.9067 149.797 68.5998C149.2 67.9476 148.869 67.0955 148.869 66.2114C148.869 65.3272 149.2 64.4751 149.797 63.8229C150.103 63.5142 150.471 63.2721 150.875 63.1119C151.28 62.9516 151.713 62.8766 152.148 62.8916C152.577 62.8755 153.005 62.9488 153.404 63.1068C153.803 63.2648 154.165 63.5041 154.466 63.8095C155.047 64.4747 155.368 65.3281 155.368 66.2114C155.368 67.0946 155.047 67.948 154.466 68.6133C154.164 68.9198 153.801 69.1598 153.401 69.3179C153.001 69.4759 152.572 69.5486 152.142 69.5311ZM152.142 63.776C151.846 63.7649 151.552 63.8192 151.279 63.935C151.007 64.0509 150.764 64.2253 150.567 64.4459C150.168 64.944 149.951 65.5631 149.951 66.2013C149.951 66.8395 150.168 67.4586 150.567 67.9567C150.774 68.1696 151.021 68.3389 151.294 68.4545C151.568 68.5701 151.862 68.6296 152.158 68.6296C152.455 68.6296 152.749 68.5701 153.022 68.4545C153.295 68.3389 153.543 68.1696 153.75 67.9567C154.149 67.455 154.367 66.8326 154.367 66.1913C154.367 65.5499 154.149 64.9275 153.75 64.4258C153.539 64.2005 153.28 64.0252 152.992 63.9127C152.705 63.8003 152.396 63.7536 152.088 63.776H152.142Z" fill="#2F2F31"/>
<path d="M156.925 69.3636V63.0591H157.702L157.903 63.9703C158.109 63.6575 158.384 63.3961 158.707 63.2065C159.029 63.007 159.4 62.9025 159.779 62.905C160.174 62.8905 160.568 62.9638 160.931 63.1194C161.228 63.2501 161.476 63.4703 161.641 63.7492C161.799 64.012 161.91 64.2997 161.97 64.6C162.035 64.9377 162.067 65.2812 162.063 65.6251V69.3636H161.045V65.6586C161.045 64.3723 160.616 63.7291 159.752 63.7291C159.495 63.7177 159.239 63.7683 159.006 63.8768C158.773 63.9853 158.569 64.1483 158.412 64.3522C158.056 64.8952 157.886 65.5398 157.93 66.1879V69.3569L156.925 69.3636Z" fill="#2F2F31"/>
<path d="M168.354 67.5814C168.359 67.8518 168.301 68.1195 168.185 68.3637C168.068 68.6078 167.897 68.8216 167.684 68.9884C167.208 69.3559 166.617 69.5434 166.016 69.5177C165.389 69.5377 164.771 69.3569 164.254 69.0018C164.018 68.8259 163.83 68.5942 163.706 68.3276C163.582 68.061 163.526 67.7677 163.544 67.4742V67.2732H164.522V67.4742C164.517 67.6443 164.554 67.813 164.628 67.9659C164.703 68.1187 164.814 68.2512 164.951 68.3519C165.244 68.5648 165.6 68.6733 165.962 68.6601C166.317 68.685 166.668 68.5828 166.954 68.372C167.071 68.2743 167.164 68.1509 167.225 68.0115C167.287 67.8721 167.316 67.7203 167.309 67.568C167.322 67.439 167.3 67.309 167.246 67.1913C167.192 67.0735 167.107 66.9723 167.001 66.898C166.667 66.6943 166.303 66.5451 165.922 66.4558L165.212 66.2415C165.017 66.1758 164.827 66.0975 164.642 66.007C164.466 65.9255 164.303 65.817 164.16 65.6854C164.048 65.5579 163.958 65.4131 163.892 65.2566C163.813 65.0678 163.775 64.8648 163.778 64.6603C163.763 64.4049 163.81 64.1497 163.915 63.9164C164.02 63.683 164.18 63.4786 164.381 63.3203C164.825 62.9788 165.376 62.8056 165.936 62.8312C166.506 62.8092 167.067 62.9843 167.523 63.327C167.741 63.4868 167.915 63.6974 168.032 63.9404C168.149 64.1833 168.204 64.4512 168.193 64.7206V64.8881H167.255V64.7206C167.262 64.5763 167.232 64.4326 167.169 64.3027C167.106 64.1727 167.011 64.0607 166.894 63.9769C166.628 63.7955 166.311 63.7039 165.989 63.7156C165.695 63.7029 165.402 63.7725 165.145 63.9166C165.042 63.979 164.958 64.0679 164.901 64.174C164.845 64.2801 164.818 64.3995 164.823 64.5196C164.82 64.6368 164.847 64.753 164.902 64.8565C164.957 64.9599 165.039 65.0471 165.138 65.1092C165.51 65.2951 165.901 65.439 166.304 65.538C166.872 65.6677 167.404 65.9191 167.865 66.2749C168.04 66.4414 168.175 66.6455 168.26 66.8719C168.345 67.0982 168.377 67.3408 168.354 67.5814Z" fill="#2F2F31"/>
<path d="M70.8854 39.3081V38.9128C70.8915 38.5365 70.7578 38.1713 70.5102 37.8878C70.3631 37.7375 70.185 37.6213 69.9882 37.5472C69.7915 37.4731 69.5809 37.443 69.3712 37.459C69.0212 37.4389 68.6773 37.5567 68.4131 37.7873C68.3111 37.8855 68.2296 38.003 68.1732 38.133C68.1169 38.2629 68.0868 38.4027 68.0849 38.5444C68.0849 38.8123 68.2724 39.0334 68.6476 39.2143C69.1887 39.4677 69.7516 39.6717 70.3293 39.824C70.9993 40.0049 71.4683 40.1523 71.8435 40.2863C72.3344 40.4807 72.8132 40.7044 73.2772 40.9563C73.7769 41.1941 74.2306 41.5185 74.6172 41.9144C75.4174 42.818 75.8584 43.9836 75.8567 45.1906C75.8755 45.9278 75.7232 46.6594 75.4117 47.3278C75.1001 47.9963 74.6378 48.5834 74.0611 49.043C72.7552 50.0705 71.1253 50.5979 69.465 50.5304C67.7483 50.5877 66.0597 50.0844 64.6545 49.0966C64.0144 48.6217 63.5018 47.9956 63.1628 47.2742C62.8237 46.5529 62.6687 45.7587 62.7116 44.9628V44.5675H67.1536V45.0901C67.1427 45.3366 67.1912 45.5821 67.295 45.8059C67.3987 46.0298 67.5547 46.2255 67.7499 46.3765C68.1764 46.6946 68.6987 46.8576 69.2305 46.8388C69.4727 46.8593 69.7165 46.83 69.9469 46.7528C70.1773 46.6756 70.3896 46.5521 70.5705 46.3899C70.7122 46.2637 70.8255 46.1088 70.9029 45.9356C70.9803 45.7623 71.02 45.5746 71.0194 45.3849C71.0249 45.1604 70.954 44.9408 70.8184 44.7618C70.6227 44.5352 70.3742 44.3603 70.0948 44.2526C69.8235 44.1184 69.5438 44.002 69.2573 43.9042L68.1519 43.5491C67.4819 43.328 66.8588 43.127 66.3898 42.9394C65.8543 42.7202 65.3406 42.451 64.8555 42.1355C64.3225 41.798 63.8898 41.3237 63.6027 40.762C63.3096 40.164 63.1626 39.505 63.1739 38.8391C63.1479 38.1484 63.2854 37.4612 63.5753 36.8337C63.8652 36.2061 64.2993 35.6559 64.8421 35.2279C66.0872 34.2907 67.6201 33.8169 69.1769 33.888C70.7512 33.8259 72.3002 34.2981 73.572 35.2279C74.1527 35.6745 74.6163 36.2553 74.9232 36.9204C75.2301 37.5856 75.3711 38.3152 75.3341 39.0468V39.3148L70.8854 39.3081Z" fill="#2F2F31"/>
<path d="M91.5546 50.0479L91.0588 48.594C90.4465 49.2238 89.7062 49.7147 88.8878 50.0337C88.0695 50.3527 87.1922 50.4924 86.3153 50.4432C85.2429 50.497 84.1714 50.3216 83.1721 49.9289C82.1728 49.5361 81.2687 48.9348 80.5199 48.1653C79.7838 47.3504 79.2156 46.3984 78.8477 45.3637C78.4798 44.3291 78.3195 43.2321 78.376 42.1354C78.343 41.045 78.5255 39.9589 78.913 38.9391C79.3004 37.9194 79.8852 36.9861 80.6338 36.1926C81.3883 35.3992 82.3032 34.7755 83.3174 34.3631C84.3317 33.9507 85.4222 33.759 86.5163 33.8008C87.4146 33.8091 88.3049 33.97 89.1493 34.2765C89.9874 34.5538 90.7227 35.0767 91.2598 35.7772L91.7556 34.3301H95.2462V50.0479H91.5546ZM86.9116 38.0887C86.423 38.0732 85.9377 38.1724 85.4944 38.3784C85.0511 38.5843 84.6622 38.8912 84.3589 39.2746C83.709 40.0614 83.3621 41.0547 83.3808 42.0751C83.3499 43.143 83.6883 44.1889 84.3388 45.0364C84.6464 45.4289 85.0436 45.742 85.497 45.9494C85.9505 46.1569 86.447 46.2528 86.9451 46.229C87.4495 46.2652 87.9552 46.1815 88.421 45.9847C88.8868 45.7879 89.2994 45.4836 89.625 45.0967C90.2362 44.2614 90.5456 43.2433 90.5027 42.2091C90.5343 41.1491 90.1902 40.1121 89.5312 39.2813C89.2172 38.8926 88.817 38.5825 88.3623 38.3755C87.9076 38.1685 87.4109 38.0703 86.9116 38.0887Z" fill="#2F2F31"/>
<path d="M110.046 45.137V49.3244C108.781 50.0875 107.335 50.497 105.858 50.5103C103.951 50.5103 102.611 50.0815 101.839 49.2239C101.01 48.1533 100.605 46.8155 100.7 45.4653V38.2495H98.3613V34.3301H101.041L101.832 29.9819H105.423V34.3301H109.443V38.2495H105.423V44.4469C105.423 45.6328 105.932 46.2224 106.937 46.2224C108.064 46.2113 109.157 45.83 110.046 45.137Z" fill="#2F2F31"/>
<path d="M123.278 44.889H128.189C128.156 45.7226 127.923 46.5361 127.51 47.2612C127.098 47.9863 126.517 48.6018 125.817 49.0563C124.355 49.9984 122.646 50.4857 120.907 50.4566C118.271 50.4566 116.261 49.7308 114.877 48.2792C113.492 46.8275 112.793 44.8176 112.78 42.2493C112.701 40.0474 113.487 37.9022 114.97 36.273C115.719 35.4837 116.629 34.8646 117.638 34.4577C118.648 34.0508 119.732 33.8656 120.819 33.9147C121.883 33.8627 122.945 34.0418 123.933 34.4396C124.921 34.8375 125.81 35.4447 126.541 36.2194C127.992 37.9097 128.74 40.0915 128.631 42.3163V43.0399H117.771C117.723 43.4936 117.771 43.9523 117.912 44.3863C118.053 44.8203 118.283 45.2198 118.588 45.559C119.216 46.1193 120.04 46.4084 120.88 46.363C122.32 46.3563 123.131 45.8739 123.278 44.889ZM120.799 38.0887C119.506 38.0887 118.635 38.7587 118.2 40.1589H123.278C123.219 39.5579 122.926 39.0042 122.462 38.617C121.998 38.2298 121.401 38.0401 120.799 38.0887Z" fill="#2F2F31"/>
<path d="M149.307 31.4291C148.915 31.0354 148.649 30.534 148.542 29.9886C148.436 29.4433 148.494 28.8786 148.71 28.3664C148.925 27.8542 149.288 27.4177 149.752 27.1125C150.217 26.8072 150.761 26.6469 151.317 26.6521C151.69 26.6487 152.06 26.7198 152.405 26.8613C152.75 27.0028 153.064 27.2119 153.327 27.4762C153.591 27.7329 153.802 28.0401 153.945 28.3796C154.089 28.7191 154.163 29.084 154.163 29.4526C154.163 29.8213 154.089 30.1862 153.945 30.5257C153.802 30.8652 153.591 31.1724 153.327 31.4291C153.064 31.6934 152.75 31.9024 152.405 32.044C152.06 32.1855 151.69 32.2566 151.317 32.2532C150.943 32.2637 150.571 32.1958 150.225 32.0539C149.878 31.912 149.566 31.6991 149.307 31.4291ZM153.628 50.048H148.938V34.3301H153.628V50.048Z" fill="#2F2F31"/>
<path d="M168.375 45.137V49.3244C167.111 50.0884 165.665 50.498 164.188 50.5103C162.28 50.5103 160.94 50.0815 160.168 49.2239C159.34 48.1533 158.934 46.8155 159.029 45.4653V38.2495H156.711V34.3301H159.391L160.174 29.9819H163.772V34.3301H167.792V38.2495H163.772V44.4469C163.772 45.6328 164.275 46.2224 165.286 46.2224C166.407 46.2084 167.492 45.8271 168.375 45.137Z" fill="#2F2F31"/>
<path d="M180.723 44.8891H185.634C185.6 45.7227 185.368 46.5361 184.955 47.2612C184.542 47.9863 183.962 48.6019 183.262 49.0564C181.8 49.9992 180.091 50.4866 178.351 50.4567C175.716 50.4567 173.706 49.7308 172.321 48.2792C170.937 46.8276 170.24 44.8176 170.231 42.2493C170.152 40.0475 170.938 37.9022 172.422 36.2731C173.171 35.4837 174.081 34.8647 175.09 34.4578C176.099 34.0509 177.184 33.8657 178.271 33.9147C179.333 33.8637 180.394 34.0433 181.381 34.4411C182.367 34.839 183.256 35.4456 183.986 36.2195C185.436 37.9097 186.184 40.0915 186.076 42.3163V43.0399H175.189C175.138 43.4933 175.184 43.9521 175.324 44.3863C175.464 44.8206 175.694 45.2202 175.999 45.5591C176.309 45.8369 176.67 46.051 177.062 46.189C177.454 46.3269 177.869 46.3861 178.284 46.363C179.738 46.3563 180.549 45.874 180.723 44.8891ZM178.217 38.0887C176.917 38.0887 176.053 38.7587 175.611 40.159H180.689C180.628 39.5598 180.336 39.0082 179.874 38.6216C179.412 38.2349 178.818 38.0437 178.217 38.0887Z" fill="#2F2F31"/>
<path d="M136.578 29.4928H131.901V50.0479H136.578V29.4928Z" fill="#2F2F31"/>
<path d="M144.892 29.4928H140.215V50.0479H144.892V29.4928Z" fill="#2F2F31"/>
<path d="M74.5233 19.0545C74.5432 19.7256 74.4057 20.3921 74.1218 21.0006C73.838 21.609 73.4156 22.1426 72.8885 22.5585C71.7024 23.4854 70.2253 23.9603 68.7212 23.8985C67.1507 23.9554 65.6047 23.4965 64.3194 22.592C63.7305 22.1502 63.2615 21.5682 62.9549 20.8989C62.6483 20.2296 62.514 19.4942 62.5641 18.7597V18.2907H64.9894V18.7597C64.9813 19.1831 65.0736 19.6024 65.2587 19.9832C65.4439 20.364 65.7167 20.6955 66.0547 20.9506C66.7885 21.4799 67.6761 21.753 68.5805 21.7277C69.4682 21.7844 70.3477 21.5284 71.0662 21.0042C71.356 20.7586 71.5854 20.4495 71.7364 20.1009C71.8875 19.7523 71.9562 19.3736 71.9372 18.9942C71.9532 18.6907 71.8937 18.388 71.7639 18.1132C71.6341 17.8384 71.4381 17.6001 71.1935 17.4197C70.3614 16.9175 69.4577 16.5448 68.5135 16.3143C67.7431 16.0999 67.1736 15.919 66.7515 15.7917C66.2657 15.6235 65.7913 15.4244 65.3311 15.1954C64.888 14.9985 64.4823 14.7265 64.1318 14.3914C63.8491 14.0799 63.6224 13.7217 63.4619 13.3328C63.2654 12.8597 63.1696 12.3509 63.1805 11.8388C63.1573 11.218 63.2784 10.6003 63.5341 10.0342C63.7899 9.46809 64.1733 8.96894 64.6544 8.57595C65.7628 7.7302 67.1343 7.30309 68.5269 7.36998C69.9525 7.3201 71.353 7.75464 72.4999 8.60275C73.0217 9.01052 73.4385 9.53693 73.7158 10.1382C73.9932 10.7395 74.123 11.3983 74.0945 12.0599V12.4887H71.7563V12.0599C71.7716 11.7016 71.6968 11.3453 71.5388 11.0234C71.3808 10.7015 71.1446 10.4244 70.8518 10.2174C70.191 9.75666 69.3991 9.52167 68.5939 9.54743C67.8611 9.5183 67.1348 9.69467 66.4969 10.0566C66.241 10.2121 66.0314 10.4333 65.89 10.6972C65.7486 10.9612 65.6805 11.2582 65.6929 11.5574C65.6765 11.8511 65.7417 12.1436 65.8812 12.4025C66.0208 12.6615 66.2292 12.8768 66.4835 13.0246C67.4045 13.4958 68.3784 13.8557 69.3845 14.0966C70.8007 14.4143 72.1282 15.0437 73.2704 15.9391C73.6955 16.3343 74.0282 16.8184 74.2448 17.3569C74.4613 17.8954 74.5564 18.475 74.5233 19.0545Z" fill="#2F2F31"/>
<path d="M78.1808 23.4966V7.78541H80.1238L80.6196 9.92267C81.1072 9.10958 81.8054 8.44322 82.6402 7.99393C83.4751 7.54464 84.4159 7.32909 85.3631 7.37002C87.6678 7.37002 89.1619 8.30354 89.8453 10.1706C90.3908 9.29556 91.1544 8.57737 92.0611 8.08641C92.9679 7.59546 93.9867 7.34859 95.0176 7.37002C95.9413 7.33509 96.8601 7.52114 97.6975 7.91271C98.3745 8.24909 98.9159 8.80707 99.2318 9.49387C99.5441 10.1472 99.7694 10.8387 99.9018 11.5507C100.019 12.3807 100.073 13.2183 100.063 14.0565V23.4966H97.53V13.9091C97.53 10.9477 96.4513 9.46038 94.3007 9.46038C93.7582 9.44568 93.2199 9.55941 92.7297 9.79227C92.2396 10.0251 91.8114 10.3705 91.48 10.8003C90.7053 11.887 90.3269 13.2067 90.4081 14.5389V23.4966H87.8353V13.8153C87.8353 10.9142 86.7433 9.46038 84.5725 9.46038C84.0005 9.45172 83.4365 9.59548 82.9384 9.87689C82.4404 10.1583 82.0262 10.5672 81.7385 11.0616C80.9794 12.4453 80.6264 14.0153 80.7201 15.5907V23.4966H78.1808Z" fill="#2F2F31"/>
<path d="M117.094 23.4966L116.732 20.964C116.151 21.8911 115.316 22.6327 114.327 23.1013C113.303 23.6081 112.174 23.8696 111.031 23.8651C109.982 23.9021 108.938 23.7103 107.971 23.3031C107.003 22.8958 106.136 22.2828 105.43 21.5067C103.985 19.8946 103.217 17.7878 103.286 15.6243C103.221 13.499 103.982 11.4312 105.41 9.85569C106.115 9.09472 106.977 8.4949 107.935 8.09716C108.894 7.69942 109.927 7.51311 110.964 7.55094C112.12 7.54857 113.262 7.79537 114.314 8.27452C115.329 8.722 116.2 9.44067 116.833 10.3515L117.329 7.78543H119.211V23.4966H117.094ZM111.219 9.76189C110.477 9.74331 109.741 9.89208 109.064 10.1971C108.388 10.5022 107.789 10.9557 107.313 11.5239C106.307 12.6639 105.762 14.1378 105.785 15.6578C105.75 17.21 106.295 18.7196 107.313 19.8921C107.808 20.4681 108.426 20.9255 109.122 21.2305C109.818 21.5354 110.573 21.6802 111.332 21.6541C112.098 21.6893 112.861 21.5488 113.564 21.2434C114.266 20.9379 114.89 20.4757 115.386 19.8921C116.394 18.6641 116.92 17.1114 116.866 15.5238C116.892 14.7664 116.768 14.0114 116.501 13.302C116.234 12.5927 115.83 11.9429 115.312 11.39C114.784 10.844 114.146 10.4166 113.44 10.1359C112.735 9.85522 111.977 9.72773 111.219 9.76189Z" fill="#2F2F31"/>
<path d="M131.854 10.1571C131.042 10.0343 130.213 10.0962 129.429 10.338C128.799 10.5309 128.235 10.8951 127.801 11.3899C127.374 11.9071 127.045 12.4973 126.829 13.1319C126.582 13.8097 126.411 14.5131 126.32 15.2289C126.228 15.9758 126.184 16.7276 126.186 17.4801V23.5099H123.647V7.78538H125.529L126.085 11.209C126.943 8.4442 128.866 7.21366 131.854 7.51738V10.1571Z" fill="#2F2F31"/>
<path d="M145.179 20.897V23.1347C144.721 23.3793 144.225 23.5468 143.712 23.6305C143.21 23.746 142.699 23.8133 142.184 23.8315C139.129 23.8315 137.602 22.3151 137.602 19.2823V9.90255H134.969V7.7854H137.829L138.56 3.3501H140.141V7.7988H144.556V9.90255H140.141V18.3913C140.057 19.2479 140.234 20.1099 140.65 20.8635C140.899 21.1147 141.203 21.3056 141.537 21.4217C141.872 21.5379 142.228 21.5761 142.58 21.5335C143.484 21.5278 144.374 21.3098 145.179 20.897Z" fill="#2F2F31"/>
<path d="M37.4381 20.2L43.153 18.1901C43.3709 18.1122 43.5516 17.9554 43.6595 17.7507C43.7674 17.5461 43.7947 17.3084 43.7359 17.0846L43.6957 16.9171C43.6957 16.7831 43.622 16.6424 43.5818 16.5084C42.2111 11.7809 39.2971 7.64836 35.3042 4.76981C31.3114 1.89126 26.4698 0.432429 21.5514 0.625929C16.6329 0.819429 11.9209 2.65412 8.16657 5.83745C4.41225 9.02078 1.83184 13.3695 0.836791 18.1901C0.834867 18.2034 0.834867 18.217 0.836791 18.2303L0.742994 18.371L0.669295 18.5519C0.485668 19.4227 0.382503 20.3086 0.361102 21.1983C0.322623 23.1047 0.670196 24.9991 1.38291 26.7677C2.09562 28.5362 3.15874 30.1423 4.50831 31.4893C4.83856 33.5745 5.54214 35.5831 6.58526 37.4186L0.709494 39.4822C0.490914 39.5574 0.308776 39.7124 0.199475 39.9161C0.0901739 40.1198 0.0617588 40.3572 0.119908 40.581L0.166807 40.7485C0.166807 40.8892 0.233805 41.0232 0.274004 41.1639C1.64792 45.8898 4.56392 50.02 8.55744 52.8964C12.551 55.7728 17.3923 57.23 22.31 57.0358C27.2278 56.8416 31.9391 55.0072 35.6933 51.8248C39.4476 48.6423 42.0288 44.2951 43.0257 39.4755V39.442L43.1128 39.3013L43.153 39.1338C43.3378 38.2633 43.4387 37.3771 43.4545 36.4874C43.4963 34.6107 43.1622 32.7447 42.4718 30.9992C41.7814 29.2537 40.7488 27.664 39.4346 26.3237C39.1528 24.1767 38.4759 22.1005 37.4381 20.2ZM36.8887 41.2912C36.8764 41.8997 36.8046 42.5056 36.6743 43.1001C36.6743 43.1403 36.6743 43.1872 36.6743 43.2274C33.8043 45.0988 30.3949 45.9659 26.9796 45.693C30.8848 44.5336 34.271 42.0633 36.5671 38.6983C36.7947 39.5434 36.903 40.4161 36.8887 41.2912ZM16.7489 3.26952C21.8491 1.78781 27.3275 2.37084 32.0016 4.89279C36.6757 7.41474 40.1708 11.6734 41.7327 16.7496L31.77 20.2335C30.3081 17.2076 28.0257 14.653 25.1828 12.8608C22.34 11.0686 19.0509 10.1109 15.6904 10.0967C12.1502 10.0954 8.69372 11.1728 5.78128 13.1853C5.66958 13.2216 5.56356 13.2734 5.46639 13.3394C4.90857 13.7394 4.37603 14.1734 3.87182 14.6392C5.04478 11.9103 6.80797 9.47531 9.03456 7.50937C11.2611 5.54344 13.8958 4.09544 16.7489 3.26952ZM7.27534 18.9271C7.06067 18.1004 6.95924 17.2485 6.97385 16.3945C6.9829 15.7559 7.06153 15.1201 7.20835 14.4985V14.4449C9.93467 12.6651 13.1558 11.797 16.4072 11.9659C12.6775 13.213 9.4661 15.661 7.27534 18.9271ZM2.21696 21.2385C2.22927 20.5639 2.29875 19.8915 2.42465 19.2286C3.18677 18.0402 4.10126 16.9568 5.14479 16.0059C5.14479 16.1131 5.14479 16.227 5.14479 16.3409C5.11169 17.9334 5.41297 19.5151 6.02917 20.9839C4.90267 23.2091 4.26099 25.6479 4.14652 28.1394C2.8271 26.0841 2.15492 23.6801 2.21696 21.2385ZM6.12297 28.7423C6.12796 24.6801 7.69162 20.7747 10.4915 17.8314C13.2913 14.8882 17.1139 13.1317 21.1708 12.924C23.2336 13.6865 25.1192 14.8616 26.7124 16.3776C28.3056 17.8936 29.5728 19.7186 30.4367 21.741C30.5083 21.9056 30.6262 22.0459 30.7761 22.1446C30.926 22.2434 31.1014 22.2964 31.2809 22.2971C31.3858 22.2956 31.4898 22.2776 31.5891 22.2435L35.676 20.8164C37.0593 23.2005 37.7959 25.9045 37.8129 28.6608C37.8299 31.4171 37.1267 34.13 35.7729 36.531C34.4191 38.9319 32.4616 40.9376 30.0944 42.3496C27.7271 43.7615 25.0322 44.5306 22.2763 44.5808C20.301 43.7964 18.5001 42.6297 16.9767 41.1477C15.4533 39.6657 14.2375 37.8976 13.399 35.9447C13.3056 35.7311 13.135 35.5606 12.9214 35.4674C12.7077 35.3743 12.4667 35.3652 12.2466 35.4422L8.34732 36.8492C6.88484 34.3984 6.11598 31.5963 6.12297 28.7423ZM27.0935 54.4162C21.9959 55.8991 16.5195 55.3163 11.8482 52.7938C7.17683 50.2713 3.68583 46.0118 2.12986 40.9361L12.0925 37.4521C13.9118 41.2444 17.0124 44.272 20.8469 46.0005C24.6814 47.729 29.0033 48.0472 33.0497 46.8989C34.8849 46.3673 36.6207 45.539 38.1884 44.4468C38.3058 44.4111 38.4166 44.3568 38.5167 44.286C39.0414 43.9029 39.5446 43.4914 40.0242 43.0532C38.8425 45.7851 37.0699 48.221 34.834 50.1858C32.5982 52.1506 29.9546 53.5954 27.0935 54.4162ZM41.6456 36.4472C41.6297 37.1216 41.5602 37.7937 41.4379 38.4571C40.682 39.6502 39.7694 40.7363 38.7244 41.6864C38.7244 41.5725 38.7244 41.4654 38.7244 41.3515C38.7547 39.7657 38.4535 38.1911 37.84 36.7286C38.957 34.5029 39.5939 32.0674 39.7093 29.5798C41.0194 31.6272 41.6932 34.017 41.6456 36.4472Z" fill="url(#paint0_linear)"/>
</g>
<defs>
<linearGradient id="paint0_linear" x1="21.1239" y1="-6.57925" x2="22.6984" y2="62.6302" gradientUnits="userSpaceOnUse">
<stop stop-color="#BBD141"/>
<stop offset="1" stop-color="#2DAC54"/>
</linearGradient>
<clipPath id="clip0">
<rect width="186.229" height="70" fill="white"/>
</clipPath>
</defs>
</svg>
