<svg width="12" height="20" viewBox="0 0 12 20" fill="none" xmlns="http://www.w3.org/2000/svg">
<path fill-rule="evenodd" clip-rule="evenodd" d="M6.00356 10.3218C7.06116 10.3214 8.0949 10.0184 8.97406 9.45108C9.85323 8.88374 10.5383 8.07754 10.9428 7.13443C11.3472 6.19132 11.4528 5.15365 11.2462 4.15264C11.0395 3.15162 10.53 2.23221 9.78197 1.51066C9.03395 0.78911 8.08102 0.297828 7.0437 0.0989341C6.00638 -0.0999598 4.93124 0.00246623 3.95423 0.393261C2.97722 0.784055 2.14222 1.44567 1.55481 2.29444C0.967405 3.14321 0.653967 4.14103 0.654134 5.16171C0.655781 6.53022 1.22 7.84218 2.22293 8.80962C3.22586 9.77705 4.58556 10.3209 6.00356 10.3218ZM6.00356 3.02447C6.4414 3.02463 6.86936 3.15007 7.23334 3.38493C7.59732 3.61979 7.88098 3.95353 8.04845 4.34395C8.21593 4.73437 8.2597 5.16395 8.17424 5.57838C8.08879 5.99281 7.87793 6.37348 7.56833 6.67228C7.25873 6.97107 6.86429 7.17457 6.43488 7.25704C6.00546 7.33952 5.56035 7.29727 5.15581 7.13564C4.75127 6.97401 4.40546 6.70025 4.16211 6.34897C3.91875 5.9977 3.78878 5.58468 3.78861 5.16212C3.78911 4.59533 4.02263 4.05189 4.43791 3.65111C4.85318 3.25033 5.41628 3.02496 6.00356 3.02447ZM8.16757 14.5325C9.26803 14.2905 10.3182 13.8708 11.2738 13.2911C11.6235 13.0764 11.8708 12.7369 11.9618 12.3467C12.0527 11.9565 11.9799 11.5474 11.7592 11.2089C11.5384 10.8704 11.1878 10.63 10.7839 10.5403C10.3801 10.4506 9.95584 10.5189 9.60402 10.7303C8.52429 11.3818 7.27653 11.7272 6.00314 11.7272C4.72975 11.7272 3.482 11.3818 2.40226 10.7303C2.05039 10.5166 1.62499 10.4466 1.21964 10.5356C0.814282 10.6247 0.462176 10.8655 0.24078 11.205C0.0193848 11.5446 -0.053166 11.9552 0.0390887 12.3464C0.131343 12.7376 0.380846 13.0774 0.73271 13.2911C1.68834 13.8705 2.73841 14.2902 3.83871 14.5325L0.84831 17.4182C0.554477 17.7019 0.389475 18.0867 0.389604 18.4879C0.389732 18.889 0.55498 19.2737 0.848995 19.5573C1.14301 19.8409 1.54171 20.0001 1.95738 20C2.37305 19.9999 2.77165 19.8404 3.06548 19.5566L6.00293 16.7209L8.94281 19.5566C9.23823 19.8326 9.63422 19.9854 10.0453 19.9822C10.4565 19.9789 10.8498 19.8198 11.1405 19.5391C11.4311 19.2585 11.5959 18.8789 11.5991 18.4821C11.6023 18.0853 11.4438 17.7032 11.1578 17.4182L8.16757 14.5325Z" fill="#C251C0"/>
</svg>
