<svg width="23" height="13" viewBox="0 0 23 13" fill="none" xmlns="http://www.w3.org/2000/svg">
<path fill-rule="evenodd" clip-rule="evenodd" d="M11.2533 12.9454H12.6279C12.6279 12.9454 13.0432 12.9001 13.2554 12.6737C13.4505 12.4658 13.4443 12.0755 13.4443 12.0755C13.4443 12.0755 13.4175 10.248 14.2733 9.97865C15.1175 9.7135 16.2014 11.7449 17.3499 12.5263C18.2186 13.1173 18.8785 12.988 18.8785 12.988L21.9501 12.9454C21.9501 12.9454 23.5569 12.8471 22.7949 11.5957C22.7325 11.4933 22.3507 10.6699 20.5111 8.97763C18.585 7.20661 18.8432 7.49305 21.1632 4.42944C22.576 2.56361 23.1408 1.42484 22.964 0.937113C22.7959 0.47235 21.7565 0.594994 21.7565 0.594994L18.2982 0.616287C18.1448 0.598264 17.9895 0.625405 17.8516 0.694323C17.7203 0.789464 17.6153 0.915944 17.5465 1.06202C17.1883 1.98272 16.7613 2.8757 16.2692 3.73355C14.7293 6.32418 14.1133 6.46146 13.8617 6.30039C13.2761 5.9252 13.4224 4.79428 13.4224 3.99061C13.4224 1.47956 13.8066 0.432737 12.6739 0.161754C12.298 0.0718227 12.0211 0.0125822 11.0596 0.00270884C9.82557 -0.00918682 8.78137 0.00651533 8.19036 0.293677C7.79707 0.484007 7.49334 0.909754 7.67834 0.934378C7.90644 0.964355 8.42446 1.07261 8.69878 1.44256C9.05329 1.92029 9.0408 2.99304 9.0408 2.99304C9.0408 2.99304 9.24489 5.94864 8.56516 6.31574C8.099 6.56757 7.45961 6.05403 6.08658 3.70286C5.62063 2.88506 5.20836 2.03836 4.85234 1.16801C4.78898 1.02025 4.69129 0.889408 4.56722 0.786157C4.40644 0.680525 4.22573 0.608253 4.03599 0.573701L0.749473 0.594875C0.749473 0.594875 0.256303 0.608555 0.0751461 0.820893C-0.0860825 1.01039 0.0623006 1.40093 0.0623006 1.40093C0.0623006 1.40093 2.635 7.3647 5.54864 10.3703C8.22037 13.126 11.2536 12.9452 11.2536 12.9452L11.2533 12.9454Z" fill="#C251C0"/>
</svg>
