<svg width="24" height="15" viewBox="0 0 24 15" fill="none" xmlns="http://www.w3.org/2000/svg">
<path fill-rule="evenodd" clip-rule="evenodd" d="M23.5844 2.41269C23.4493 1.86273 23.1272 1.36394 22.6626 0.9852C22.1979 0.606457 21.6135 0.366447 20.9902 0.298314C18.0143 0.000144154 15.0029 -0.00116599 12.0036 0.000144167C9.0044 -0.00116599 5.99194 0.000144154 3.01624 0.298096C2.39304 0.366241 1.80882 0.606289 1.3443 0.985068C0.879794 1.36385 0.557923 1.86266 0.423169 2.41258C0.00450444 4.04318 0 5.82161 0 7.50003C0 9.17845 0 10.9572 0.417569 12.5878C0.552556 13.1377 0.874617 13.6365 1.33927 14.0152C1.80392 14.3939 2.38823 14.6339 3.01149 14.702C5.98707 14.9998 8.99953 15.0014 11.9985 14.9998C14.9973 15.0014 18.0095 14.9998 20.9852 14.7017C21.6086 14.6337 22.193 14.3938 22.6577 14.015C23.1224 13.6363 23.4445 13.1375 23.5795 12.5875C23.9973 10.9572 24 9.17834 24 7.4997C24 5.82106 24.0021 4.04318 23.5844 2.41269ZM9.48284 10.4338V4.46658L15.8278 7.44959L9.48284 10.4338Z" fill="#C251C0"/>
</svg>
