<svg width="380" height="535" viewBox="0 0 380 535" fill="none" xmlns="http://www.w3.org/2000/svg">
<path d="M190 535C294.947 535 380 496.993 380 450.154C380 403.315 294.947 365.309 190 365.309C85.0527 365.309 0 403.315 0 450.154C0 496.993 85.0527 535 190 535Z" fill="#F4F4F4"/>
<path d="M321.785 238.977C308.032 225.728 279.993 250.887 263.837 268.017C256.36 275.913 251.286 282.069 251.286 282.069C248.749 284.478 246.613 286.619 244.877 288.626C243.942 289.697 243.008 290.768 242.207 291.704L265.172 300.804C272.382 296.522 280.127 291.838 285.067 288.492C306.564 274.039 334.737 251.556 321.785 238.977Z" fill="#738693"/>
<path d="M299.888 256.106C299.487 255.571 298.819 255.571 298.285 255.972C296.817 257.177 267.042 280.463 250.885 295.183L253.155 296.12C269.578 281.265 299.22 257.98 299.621 257.712C300.155 257.311 300.288 256.641 299.888 256.106Z" fill="white"/>
<path d="M258.63 254.367C257.295 257.579 256.36 260.523 255.425 263.065C254.758 265.073 254.224 266.813 253.957 268.285L272.115 275.511C277.857 267.348 287.203 253.965 292.01 246.07C305.629 224.122 322.052 191.87 304.961 185.848C286.936 179.424 271.848 213.951 264.104 236.3C260.633 246.739 258.63 254.367 258.63 254.367Z" fill="#B6E6AE"/>
<path d="M263.837 272.165C271.314 253.296 292.544 212.479 292.677 212.078C292.945 211.542 292.811 210.873 292.143 210.605C291.609 210.338 290.942 210.472 290.675 211.141C289.74 213.014 269.178 252.493 261.701 271.362L263.837 272.165Z" fill="white"/>
<path d="M281.328 19.7696V436.504C281.328 449.619 275.453 458.184 268.51 455.909L173.176 424.192C170.64 423.389 168.236 420.311 166.634 416.162C165.032 412.014 163.964 406.795 163.964 401.442V54.832C163.964 43.9921 168.103 33.8213 173.176 32.0816L268.51 0.364805C270.513 -0.304325 272.516 -0.0366733 274.252 1.03394C278.391 3.57663 281.328 10.5356 281.328 19.7696Z" fill="#353535"/>
<path d="M163.83 143.291H163.563C161.827 143.559 160.492 140.748 160.492 137.135V104.883C160.492 101.27 161.827 97.924 163.563 97.5225H163.83V143.291Z" fill="#464646"/>
<path d="M281.328 111.708H281.595C283.598 111.306 285.2 108.095 285.2 104.481V72.6308C285.2 69.0175 283.598 66.4748 281.595 66.8762L281.328 67.0101V111.708Z" fill="#464646"/>
<path d="M163.83 195.349H163.563C161.827 195.483 160.492 192.539 160.492 188.926V156.673C160.492 153.06 161.827 149.848 163.563 149.581H163.83V195.349Z" fill="#464646"/>
<path d="M274.919 20.3049V435.969C274.919 441.723 272.382 445.47 269.311 444.534L172.642 414.021C170.907 413.486 169.438 410.809 168.904 407.464C168.637 406.393 168.637 405.189 168.637 403.984V52.2893C168.637 47.4716 170.506 42.9215 172.776 42.2524L269.445 11.74C270.246 11.4724 270.914 11.6062 271.581 11.8739C273.451 12.8106 274.919 16.0225 274.919 20.3049Z" fill="white"/>
<path d="M265.573 74.6381L220.176 84.8089C219.775 84.9427 219.508 84.4074 219.508 83.7383C219.508 83.0692 219.775 82.4 220.176 82.4L265.573 71.9616C265.973 71.8278 266.24 72.3631 266.24 73.166C266.24 73.8352 265.973 74.5043 265.573 74.6381Z" fill="#C8D6EB"/>
<path d="M265.573 85.8796L220.176 95.3812C219.775 95.5151 219.508 94.9798 219.508 94.3106C219.508 93.6415 219.775 92.9724 220.176 92.9724L265.573 83.3369C265.973 83.2031 266.24 83.7384 266.24 84.5413C266.24 85.2105 265.973 85.8796 265.573 85.8796Z" fill="#C8D6EB"/>
<path d="M265.573 97.1208L220.176 105.82C219.775 105.953 219.508 105.418 219.508 104.749C219.508 104.08 219.775 103.411 220.176 103.411L265.573 94.4443C265.973 94.3105 266.24 94.8458 266.24 95.6487C266.24 96.4517 265.973 97.1208 265.573 97.1208Z" fill="#C8D6EB"/>
<path d="M265.573 108.496L220.176 116.526C219.775 116.526 219.508 116.124 219.508 115.321C219.508 114.652 219.775 113.983 220.176 113.983L265.573 105.82C265.973 105.686 266.24 106.355 266.24 107.024C266.24 107.693 265.973 108.362 265.573 108.496Z" fill="#C8D6EB"/>
<path d="M265.573 119.738L220.176 126.964C219.775 126.964 219.508 126.563 219.508 125.76C219.508 125.091 219.775 124.422 220.176 124.422L265.573 117.061C265.973 117.061 266.24 117.597 266.24 118.266C266.24 118.935 265.973 119.604 265.573 119.738Z" fill="#C8D6EB"/>
<path d="M265.573 130.979L220.176 137.402C219.775 137.402 219.508 136.867 219.508 136.198C219.508 135.529 219.775 134.86 220.176 134.86L265.573 128.168C265.973 128.168 266.24 128.704 266.24 129.373C266.24 130.31 265.973 130.979 265.573 130.979Z" fill="#C8D6EB"/>
<path d="M207.091 142.488L182.656 145.834C179.318 146.235 176.781 141.016 176.781 134.191V101.002C176.781 94.1769 179.452 87.887 182.656 87.0841L207.091 81.3296C210.696 80.5266 213.633 85.7458 213.633 92.9724V128.303C213.633 135.663 210.696 142.087 207.091 142.488Z" fill="#C8D6EB"/>
<path d="M178.918 133.12L208.025 128.169C208.292 127.232 208.426 126.161 208.426 124.689C208.559 119.47 207.758 111.307 207.358 106.087C207.358 105.552 207.224 104.883 207.224 104.481C207.224 103.678 207.091 102.875 207.091 102.34C207.091 98.0577 205.221 99.2622 205.221 99.2622C202.15 105.953 198.812 97.6563 196.81 101.002C196.81 101.002 196.008 102.474 193.605 107.158C191.335 111.976 187.463 115.455 184.125 118.935C179.986 123.351 178.784 127.232 178.651 129.775C178.517 131.916 178.918 133.12 178.918 133.12Z" fill="#536193"/>
<path d="M178.918 133.12L208.025 128.169C208.292 127.232 208.426 126.161 208.426 124.689L178.651 129.908C178.517 131.916 178.918 133.12 178.918 133.12Z" fill="#3E466A"/>
<path d="M196.409 103.679C196.409 103.679 195.875 101.136 194.673 102.206C193.472 103.277 193.605 107.158 193.605 107.158C193.605 107.158 194.406 110.637 196.409 103.679Z" fill="white"/>
<path d="M196.81 115.455C197.077 115.455 197.344 114.92 197.344 114.384C197.344 108.362 195.475 105.552 195.475 105.418C195.207 105.15 194.94 105.284 194.807 105.686C194.673 106.087 194.673 106.756 194.807 107.024C194.807 107.158 196.409 109.567 196.409 114.518C196.276 115.187 196.543 115.589 196.81 115.455Z" fill="white"/>
<path d="M190.668 108.898C190.801 108.898 190.935 108.764 190.935 108.63C191.602 107.426 193.338 106.756 194.273 106.756C194.54 106.756 194.807 106.221 194.807 105.686C194.807 105.15 194.673 104.749 194.406 104.749C194.139 104.749 191.469 105.017 190.401 107.292C190.267 107.693 190.134 108.362 190.401 108.63C190.401 108.898 190.534 108.898 190.668 108.898Z" fill="white"/>
<path d="M194.94 107.292L195.207 105.15L194.673 104.214C194.94 103.544 197.344 98.1913 199.48 97.7899C200.148 97.656 200.548 98.0575 201.082 98.7267C201.483 99.5296 201.616 100.734 201.483 101.938C201.216 103.946 200.014 105.686 198.412 106.355C197.344 106.89 196.543 107.158 196.009 107.158C195.207 107.425 194.94 107.292 194.94 107.292ZM195.608 105.15C196.142 105.15 196.943 104.883 198.145 104.214C199.48 103.544 200.148 102.34 200.281 101.403C200.281 101.002 200.281 100.734 200.148 100.466C199.881 100.065 199.747 99.9311 199.347 99.9311C198.145 100.199 196.409 103.411 195.608 105.15Z" fill="white"/>
<path d="M194.139 106.489L194.54 104.481C193.605 103.812 192.67 101.537 192.67 99.9311C192.67 99.5296 192.804 99.1282 193.205 98.7267C193.472 98.459 193.739 98.5929 193.739 98.7267C194.273 99.3958 194.406 102.072 194.406 103.678L195.474 103.544C195.474 103.009 195.474 98.459 194.406 96.9869C194.139 96.5855 193.605 96.184 192.938 96.8531C191.869 97.6561 191.736 99.262 191.602 100.065C191.602 102.741 192.938 105.552 194.139 106.489Z" fill="white"/>
<path d="M204.954 128.704L205.889 128.57C204.954 126.697 204.153 123.619 204.287 119.069C204.42 113.046 206.156 108.63 207.491 106.221C207.491 105.686 207.358 105.017 207.358 104.615C206.023 107.024 203.753 111.976 203.619 119.202C203.352 123.485 204.02 126.563 204.954 128.704Z" fill="#3E466A"/>
<path d="M194.139 110.637C194.406 110.637 194.54 110.236 194.54 109.834C194.54 109.299 194.406 108.764 194.139 108.764L192.27 108.228C192.003 108.095 191.736 108.496 191.736 109.031C191.736 109.567 191.869 110.102 192.137 110.102L194.139 110.637C194.139 110.771 194.139 110.771 194.139 110.637Z" fill="white"/>
<path d="M192.403 113.18C192.671 113.18 192.804 112.779 192.804 112.377C192.804 111.842 192.671 111.307 192.403 111.307L190.534 110.771C190.267 110.637 190 111.039 190 111.574C190 112.109 190.134 112.645 190.401 112.645L192.403 113.18C192.27 113.314 192.27 113.314 192.403 113.18Z" fill="white"/>
<path d="M190.534 115.723C190.801 115.723 190.935 115.322 190.935 114.92C190.935 114.385 190.801 113.85 190.534 113.85L188.798 113.314C188.531 113.18 188.264 113.582 188.264 114.117C188.264 114.652 188.398 115.188 188.665 115.188L190.534 115.723C190.534 115.723 190.401 115.723 190.534 115.723Z" fill="white"/>
<path d="M188.531 117.998C188.798 117.998 188.932 117.596 188.932 117.195C188.932 116.659 188.798 116.124 188.531 116.124L186.796 115.589C186.529 115.455 186.261 115.856 186.261 116.392C186.261 116.927 186.395 117.462 186.662 117.462L188.531 117.998Z" fill="white"/>
<path d="M186.529 120.005C186.796 120.005 186.929 119.604 186.929 119.202C186.929 118.667 186.796 118.131 186.529 118.131L184.793 117.596C184.526 117.462 184.259 117.864 184.259 118.399C184.259 118.934 184.392 119.47 184.659 119.47L186.529 120.005C186.395 120.005 186.395 120.005 186.529 120.005Z" fill="white"/>
<path d="M187.997 186.115L184.926 189.595L185.461 182.636L183.057 177.952L186.395 176.614L187.997 170.19L189.466 176.48L192.804 177.149L190.401 182.368L190.935 189.193L187.997 186.115Z" fill="#D1764F"/>
<path d="M203.619 185.045L200.548 188.658L201.082 181.431L198.545 176.614L202.017 175.275L203.619 168.718L205.221 175.008L208.827 175.811L206.156 181.164L206.824 188.257L203.619 185.045Z" fill="#D1764F"/>
<path d="M220.176 183.974L216.838 187.587L217.505 180.227L214.835 175.275L218.574 173.937L220.176 167.112L221.912 173.669L225.65 174.339L222.846 179.826L223.514 187.186L220.176 183.974Z" fill="#D1764F"/>
<path d="M237.667 182.77L234.195 186.517L234.863 178.889L232.059 173.803L235.931 172.465L237.667 165.506L239.403 172.197L243.408 172.867L240.471 178.487L241.138 185.981L237.667 182.77Z" fill="#D1764F"/>
<path d="M255.025 181.431L251.42 185.446L252.087 177.684L249.15 172.465L253.156 170.993L255.025 163.766L256.894 170.591L261.167 171.394L258.096 177.149L258.763 184.911L255.025 181.431Z" fill="#C8D6EB"/>
<path d="M254.891 195.483L185.06 198.829C180.119 199.096 176.247 190.933 176.247 180.762C176.247 170.591 180.119 161.759 185.06 161.224L254.891 153.462C261.167 152.793 266.24 161.759 266.24 173.536C266.24 185.312 261.033 195.082 254.891 195.483ZM185.06 163.097C180.654 163.632 177.048 171.528 177.048 180.762C177.048 189.996 180.654 197.357 185.06 197.089L254.891 193.476C260.499 193.208 265.172 184.375 265.172 173.669C265.172 163.097 260.499 154.934 254.891 155.603L185.06 163.097Z" fill="#C8D6EB"/>
<path d="M274.919 20.3049V42.2524L168.503 70.8912V52.2893C168.503 47.4716 170.373 42.9215 172.642 42.2524L269.311 11.74C270.113 11.4724 270.78 11.6062 271.448 11.8739C273.451 12.8106 274.919 16.0225 274.919 20.3049Z" fill="#C8D6EB"/>
<path d="M246.079 38.9065L190.801 54.698C188.264 55.3671 186.128 51.7538 186.128 46.4008V44.7949C186.128 39.5757 188.131 34.4903 190.801 33.6873L246.079 16.0223C249.15 15.0855 251.687 18.9665 251.687 24.8548V26.5945C251.687 32.4829 249.15 37.9698 246.079 38.9065Z" fill="#353535"/>
<path d="M233.261 32.6168L196.81 43.5905C196.142 43.7244 195.608 42.9214 195.608 41.5832V41.1817C195.608 39.8434 196.142 38.639 196.81 38.3713L233.261 27.1299C233.928 26.8623 234.596 27.9329 234.596 29.2712V29.6726C234.596 31.1447 233.928 32.483 233.261 32.6168Z" fill="#464646"/>
<path d="M244.744 26.1932C244.744 28.0668 243.943 29.8065 243.008 30.0742C242.073 30.3418 241.272 29.1374 241.272 27.2638C241.272 25.3902 242.073 23.6505 243.008 23.3829C243.943 23.1152 244.744 24.3196 244.744 26.1932Z" fill="#464646"/>
<path d="M265.573 219.036L220.176 219.706C219.775 219.706 219.508 219.17 219.508 218.501C219.508 217.832 219.775 217.297 220.176 217.297L265.573 216.494C265.973 216.494 266.24 217.029 266.24 217.832C266.24 218.501 265.973 219.036 265.573 219.036Z" fill="#C8D6EB"/>
<path d="M265.573 230.278L220.176 230.144C219.775 230.144 219.508 229.609 219.508 228.94C219.508 228.271 219.775 227.735 220.176 227.735H265.573C265.973 227.735 266.24 228.271 266.24 229.074C266.24 229.743 265.973 230.278 265.573 230.278Z" fill="#C8D6EB"/>
<path d="M265.573 241.519L220.176 240.583C219.775 240.583 219.508 240.047 219.508 239.378C219.508 238.709 219.775 238.174 220.176 238.174L265.573 238.843C265.973 238.843 266.24 239.512 266.24 240.181C266.24 240.984 265.973 241.519 265.573 241.519Z" fill="#C8D6EB"/>
<path d="M265.573 252.895L220.176 251.289C219.775 251.289 219.508 250.753 219.508 249.95C219.508 249.281 219.775 248.746 220.176 248.746L265.573 250.218C265.973 250.218 266.24 250.887 266.24 251.556C266.24 252.225 265.973 252.895 265.573 252.895Z" fill="#C8D6EB"/>
<path d="M265.573 264.136L220.176 261.727C219.775 261.727 219.508 261.192 219.508 260.389C219.508 259.72 219.775 259.184 220.176 259.184L265.573 261.459C265.973 261.459 266.24 262.128 266.24 262.798C266.24 263.601 265.973 264.136 265.573 264.136Z" fill="#C8D6EB"/>
<path d="M265.573 275.377L220.176 272.166C219.775 272.166 219.508 271.496 219.508 270.827C219.508 270.158 219.775 269.623 220.176 269.623L265.573 272.567C265.973 272.567 266.24 273.236 266.24 273.905C266.24 274.842 265.973 275.377 265.573 275.377Z" fill="#C8D6EB"/>
<path d="M207.091 274.574L182.656 272.701C179.318 272.433 176.781 266.678 176.781 259.853V226.664C176.781 219.839 179.452 214.085 182.656 214.085L207.091 213.55C210.696 213.416 213.633 219.304 213.633 226.664V261.861C213.633 269.087 210.696 274.842 207.091 274.574Z" fill="#C8D6EB"/>
<path d="M178.918 259.185L208.025 260.389C208.292 259.586 208.426 258.382 208.426 257.043C208.559 251.824 207.758 243.527 207.358 238.308C207.358 237.639 207.224 237.103 207.224 236.568C207.224 235.631 207.091 234.962 207.091 234.427C207.091 230.144 205.221 230.947 205.221 230.947C202.15 236.969 198.812 228.003 196.81 230.947C196.81 230.947 196.008 232.152 193.605 236.434C191.335 240.717 187.463 243.527 184.125 246.203C179.986 249.817 178.784 253.43 178.651 255.839C178.517 257.846 178.918 259.185 178.918 259.185Z" fill="#536193"/>
<path d="M178.918 259.184L208.025 260.389C208.292 259.586 208.426 258.381 208.426 257.043L178.651 255.972C178.517 257.846 178.918 259.184 178.918 259.184Z" fill="#3E466A"/>
<path d="M196.409 233.49C196.409 233.49 195.875 230.813 194.673 231.75C193.472 232.553 193.605 236.568 193.605 236.568C193.605 236.568 194.406 240.047 196.409 233.49Z" fill="white"/>
<path d="M196.81 245.266C197.077 245.266 197.344 244.865 197.344 244.33C197.344 238.307 195.475 235.096 195.475 234.962C195.207 234.56 194.94 234.694 194.807 235.096C194.673 235.497 194.673 236.166 194.807 236.434C194.807 236.568 196.409 239.244 196.409 244.33C196.276 244.865 196.543 245.266 196.81 245.266Z" fill="white"/>
<path d="M190.668 237.505C190.801 237.505 190.935 237.371 190.935 237.237C191.602 236.166 193.338 235.899 194.273 236.032C194.54 236.032 194.807 235.631 194.807 235.096C194.807 234.56 194.673 234.025 194.406 234.025C194.139 234.025 191.469 233.757 190.401 235.765C190.267 236.166 190.134 236.702 190.401 237.103C190.401 237.371 190.534 237.505 190.668 237.505Z" fill="white"/>
<path d="M194.94 236.702L195.207 234.56L194.673 233.49C194.94 232.955 197.344 228.003 199.48 228.003C200.148 228.003 200.548 228.404 201.082 229.341C201.483 230.278 201.616 231.482 201.483 232.553C201.216 234.427 200.014 235.899 198.412 236.434C197.344 236.702 196.543 236.835 196.009 236.835C195.207 236.969 194.94 236.835 194.94 236.702ZM195.608 234.694C196.142 234.694 196.943 234.694 198.145 234.427C199.48 234.025 200.148 232.954 200.281 232.018C200.281 231.616 200.281 231.349 200.148 230.947C199.881 230.546 199.747 230.278 199.347 230.278C198.145 230.278 196.409 233.222 195.608 234.694Z" fill="white"/>
<path d="M194.139 235.765L194.54 233.758C193.605 232.821 192.67 230.412 192.67 228.94C192.67 228.538 192.804 228.137 193.205 227.869C193.472 227.735 193.739 227.869 193.739 228.003C194.273 228.806 194.406 231.483 194.406 233.089H195.474C195.474 232.553 195.474 228.003 194.406 226.263C194.139 225.862 193.605 225.327 192.938 225.728C191.869 226.397 191.736 227.869 191.602 228.672C191.602 231.483 192.938 234.561 194.139 235.765Z" fill="white"/>
<path d="M204.954 260.255H205.889C204.954 258.114 204.153 254.902 204.287 250.352C204.42 244.33 206.156 240.315 207.491 238.174C207.491 237.505 207.358 236.969 207.358 236.434C206.023 238.575 203.753 242.991 203.619 250.218C203.352 254.768 204.02 257.98 204.954 260.255Z" fill="#3E466A"/>
<path d="M194.139 239.913C194.406 239.913 194.54 239.646 194.54 239.111C194.54 238.575 194.406 238.04 194.139 237.906L192.27 236.969C192.003 236.835 191.736 237.103 191.736 237.638C191.736 238.174 191.869 238.709 192.137 238.843L194.139 239.913Z" fill="white"/>
<path d="M192.403 242.188C192.671 242.188 192.804 241.921 192.804 241.386C192.804 240.85 192.671 240.315 192.403 240.181L190.534 239.244C190.267 239.11 190 239.378 190 239.913C190 240.449 190.134 240.984 190.401 241.118L192.403 242.188C192.27 242.188 192.27 242.188 192.403 242.188Z" fill="white"/>
<path d="M190.534 244.196C190.801 244.196 190.935 243.928 190.935 243.393C190.935 242.858 190.801 242.322 190.534 242.188L188.798 241.252C188.531 241.118 188.264 241.385 188.264 241.921C188.264 242.456 188.398 242.991 188.665 243.125L190.534 244.196C190.534 244.196 190.401 244.196 190.534 244.196Z" fill="white"/>
<path d="M188.531 246.069C188.798 246.069 188.932 245.802 188.932 245.266C188.932 244.731 188.798 244.196 188.531 244.062L186.796 243.125C186.529 242.991 186.261 243.259 186.261 243.794C186.261 244.329 186.395 244.865 186.662 244.999L188.531 246.069Z" fill="white"/>
<path d="M186.529 247.675C186.796 247.675 186.929 247.408 186.929 247.006C186.929 246.471 186.796 245.936 186.529 245.802L184.793 244.865C184.526 244.731 184.259 244.999 184.259 245.534C184.259 246.069 184.392 246.605 184.659 246.739L186.529 247.675C186.395 247.675 186.395 247.675 186.529 247.675Z" fill="white"/>
<path d="M187.997 314.053L184.926 316.997L185.461 310.172L183.057 304.953L186.395 304.284L187.997 298.128L189.466 304.685L192.804 306.157L190.401 310.841L190.935 317.8L187.997 314.053Z" fill="#D1764F"/>
<path d="M203.619 316.328L200.548 319.272L201.082 312.18L198.545 306.827L202.017 306.291L203.619 300.001L205.221 306.693L208.827 308.165L206.156 312.983L206.824 320.209L203.619 316.328Z" fill="#D1764F"/>
<path d="M220.176 318.737L216.838 321.681L217.505 314.455L214.835 308.968L218.574 308.432L220.176 301.875L221.912 308.834L225.65 310.306L222.846 315.257L223.514 322.618L220.176 318.737Z" fill="#D1764F"/>
<path d="M237.667 321.146L234.195 324.224L234.863 316.863L232.059 311.109L235.931 310.574L237.667 303.882L239.403 310.975L243.408 312.581L240.471 317.666L241.138 325.294L237.667 321.146Z" fill="#D1764F"/>
<path d="M255.025 323.689L251.42 326.767L252.087 319.138L249.15 313.384L253.156 312.715L255.025 305.89L256.894 313.25L261.167 314.856L258.096 319.941L258.763 327.837L255.025 323.689Z" fill="#C8D6EB"/>
<path d="M254.891 337.606L185.06 326.231C180.119 325.428 176.247 316.462 176.247 306.291C176.247 296.12 180.119 288.225 185.06 288.626L254.891 295.719C261.167 296.388 266.24 306.425 266.24 318.202C266.24 329.845 261.033 338.543 254.891 337.606ZM185.06 290.5C180.654 290.098 177.048 297.191 177.048 306.425C177.048 315.659 180.654 323.689 185.06 324.491L254.891 335.733C260.499 336.67 265.172 328.774 265.172 318.202C265.172 307.629 260.499 298.529 254.891 297.86L185.06 290.5Z" fill="#C8D6EB"/>
<path d="M197.477 387.925L211.897 391.672V369.859L197.477 366.647V387.925Z" fill="#D1764F"/>
<path d="M197.077 369.055L212.432 372.535V368.922L197.077 365.442V369.055Z" fill="#D1764F"/>
<path d="M197.477 371.063L211.897 374.409V372.401L197.477 369.189V371.063Z" fill="#BC694B"/>
<path d="M204.02 389.665L205.221 389.932V367.316L204.02 367.048V389.665Z" fill="white"/>
<path d="M205.221 372.669L204.02 372.401V389.665L205.221 389.932V372.669Z" fill="#F0F0F0"/>
<path d="M205.221 370.929L204.02 370.662V372.534L205.221 372.802V370.929Z" fill="#C8D6EB"/>
<path d="M191.335 369.591L204.287 360.892L199.747 340.417L187.063 349.517L191.335 369.591Z" fill="#D1764F"/>
<path d="M187.196 352.193L200.682 342.558L199.881 339.079L186.395 348.848L187.196 352.193Z" fill="#D1764F"/>
<path d="M187.997 353.666L200.682 344.699L200.281 342.826L187.597 351.926L187.997 353.666Z" fill="#BC694B"/>
<path d="M197.21 365.71L198.278 364.907L193.739 343.628L192.537 344.431L197.21 365.71Z" fill="white"/>
<path d="M194.807 348.714L193.605 349.517L197.21 365.71L198.278 364.907L194.807 348.714Z" fill="#F0F0F0"/>
<path d="M194.406 346.974L193.338 347.777L193.739 349.651L194.807 348.848L194.406 346.974Z" fill="#C8D6EB"/>
<path d="M204.821 405.456C204.821 407.598 205.622 409.471 206.69 409.739C207.758 410.006 208.693 408.534 208.693 406.527C208.693 404.386 207.758 402.512 206.69 402.244C205.755 401.977 204.821 403.449 204.821 405.456Z" fill="#353535"/>
<path d="M194.54 402.646C194.54 404.654 195.341 406.661 196.409 406.929C197.477 407.196 198.278 405.858 198.278 403.717C198.278 401.709 197.477 399.702 196.409 399.434C195.341 399.167 194.54 400.639 194.54 402.646Z" fill="#353535"/>
<path d="M215.369 358.885C215.236 358.617 215.102 358.483 214.968 358.483L186.929 352.729L186.529 349.517C186.529 349.115 186.262 348.714 186.128 348.714L183.191 348.179V350.052L185.727 350.588L186.128 353.666C186.128 353.666 186.128 353.666 186.128 353.799L186.929 360.089L187.063 361.026L188.131 368.922L188.398 370.795L189.466 378.423L189.733 380.297L190.668 387.256V387.39L191.469 393.412C191.869 396.49 193.338 399.033 194.807 399.434L209.628 403.583C209.895 403.717 210.162 403.315 210.162 402.78C210.162 402.244 209.895 401.709 209.628 401.709L194.807 397.694C193.605 397.427 192.671 395.553 192.27 393.278L191.602 388.327L212.432 393.68C212.699 393.68 212.832 393.412 212.966 393.01L213.5 386.319L213.633 384.446L214.167 376.818L214.301 374.944L214.835 366.914C214.835 366.781 214.968 366.647 214.968 366.379C214.968 366.245 214.968 366.245 214.968 366.111L215.503 359.688C215.503 359.42 215.503 359.152 215.369 358.885ZM212.165 391.672L191.602 386.453L190.935 381.635V381.501L190.801 380.698L212.565 386.052L212.165 391.672ZM212.699 384.178L190.534 378.825L189.466 371.197L213.233 376.684L212.699 384.178ZM213.366 374.676L189.199 369.189L188.131 361.561L213.9 367.182L213.366 374.676ZM214.034 365.175L187.864 359.554L187.196 354.736L214.434 360.357L214.034 365.175Z" fill="#353535"/>
<path d="M180.52 348.58C180.52 349.115 180.787 349.517 180.921 349.651L184.125 350.32V348.446L180.921 347.777C180.654 347.643 180.52 348.045 180.52 348.58Z" fill="#464646"/>
<path d="M172.776 68.616V86.9502C172.776 97.6562 168.637 107.292 163.83 108.362C159.023 109.299 155.151 101.671 155.151 91.2326V73.4337L163.029 68.0807L172.776 68.616Z" fill="#92D069"/>
<path d="M155.018 73.4338L172.776 68.6161L189.333 36.4978L170.64 42.3861L155.018 73.4338Z" fill="#A2E079"/>
<path d="M191.602 63.5307V82.4002C191.602 93.5078 187.196 103.411 181.989 104.481C176.915 105.552 172.776 97.6564 172.776 86.9503V68.6161L184.392 59.9174L191.602 63.5307Z" fill="#B8E8AC"/>
<path d="M172.776 68.616L191.602 63.5306L209.227 30.2079L189.332 36.4977L172.776 68.616Z" fill="#CBF7BF"/>
<path d="M211.63 58.0437V77.5823C211.63 88.9575 206.957 99.2621 201.483 100.467C196.008 101.537 191.602 93.5076 191.602 82.4001V63.5306L201.883 54.9657L211.63 58.0437Z" fill="#92D069"/>
<path d="M191.602 63.5306L211.63 58.0437L230.457 23.5166L209.227 30.2079L191.602 63.5306Z" fill="#A2E079"/>
<path d="M233.127 52.2893V72.497C233.127 84.2737 228.187 94.9798 222.179 96.1842C216.304 97.3887 211.63 88.9576 211.63 77.5824V58.0438L222.045 48.676L233.127 52.2893Z" fill="#B8E8AC"/>
<path d="M211.63 58.0439L233.127 52.2893L253.289 16.2901L230.457 23.5167L211.63 58.0439Z" fill="#CBF7BF"/>
<path d="M256.093 46.1333V67.0101C256.093 79.1883 250.752 90.2959 244.477 91.6341C238.201 92.9724 233.261 84.2737 233.261 72.497V52.2893L246.746 44.5273L256.093 46.1333Z" fill="#92D069"/>
<path d="M233.127 52.2892L256.093 46.1332L273.985 15.0855C273.05 12.0075 271.047 10.6693 268.777 11.4722L267.709 11.7399L253.289 16.29L233.127 52.2892Z" fill="#A2E079"/>
<path d="M149.543 201.505H169.705C171.174 201.505 172.375 202.71 172.375 204.182V215.156V215.959V222.917C172.375 223.051 172.242 223.185 172.242 223.185C172.108 223.185 171.975 223.185 171.975 223.185L167.435 218.635H149.677C148.208 218.635 147.006 217.431 147.006 215.959V204.182C146.873 202.71 148.075 201.505 149.543 201.505Z" fill="#92D069"/>
<path d="M163.963 206.457L163.563 207.394H159.29C159.157 207.394 159.023 207.528 159.023 207.661C159.023 207.795 159.157 207.929 159.29 207.929H163.296L162.895 209H161.16C161.026 209 160.892 209.133 160.892 209.267C160.892 209.401 161.026 209.535 161.16 209.535H162.762L162.495 210.07C162.495 210.204 162.361 210.338 162.228 210.338C162.094 210.472 161.961 210.472 161.961 210.472H156.486C156.353 210.472 156.353 210.472 156.219 210.338C156.086 210.204 156.086 210.204 155.952 210.07L155.685 209.535H159.958C160.091 209.535 160.225 209.401 160.225 209.267C160.225 209.133 160.091 209 159.958 209H155.418L155.018 207.929H156.753C156.887 207.929 157.02 207.795 157.02 207.661C157.02 207.528 156.887 207.394 156.753 207.394H154.751L154.483 206.725L154.35 206.591L163.963 206.457ZM158.356 207.394H157.955C157.822 207.394 157.688 207.528 157.688 207.661C157.688 207.795 157.822 207.929 157.955 207.929H158.356C158.489 207.929 158.623 207.795 158.623 207.661C158.623 207.528 158.489 207.394 158.356 207.394ZM162.895 213.416H163.029C163.296 213.416 163.563 213.148 163.563 212.881C163.563 212.613 163.296 212.345 163.029 212.345H161.293H156.62L156.353 211.676H161.827C162.094 211.676 162.495 211.542 162.762 211.409C163.029 211.275 163.162 211.007 163.296 210.739L164.765 206.858C164.765 206.725 164.898 206.591 164.898 206.457C164.898 206.323 164.898 206.055 164.765 205.922C164.631 205.788 164.498 205.654 164.364 205.52C164.23 205.52 164.097 205.386 163.963 205.386H154.617C154.483 205.386 154.35 205.386 154.216 205.386L153.682 203.914C153.549 203.78 153.415 203.647 153.282 203.647H151.413C151.145 203.647 150.878 203.914 150.878 204.182C150.878 204.45 151.145 204.717 151.413 204.717H153.015L153.816 206.725L153.949 206.992L154.884 209.401L155.285 210.606L155.952 212.479C155.685 212.613 155.552 212.747 155.418 212.881C155.151 213.148 154.884 213.684 154.884 214.085C154.884 214.62 155.018 215.022 155.418 215.289C155.685 215.557 156.219 215.825 156.62 215.825C157.154 215.825 157.554 215.691 157.822 215.289C158.089 215.022 158.356 214.487 158.356 214.085C158.356 213.817 158.356 213.55 158.222 213.282H160.091C159.958 213.55 159.958 213.817 159.958 214.085C159.958 214.62 160.091 215.022 160.492 215.289C160.759 215.557 161.293 215.825 161.694 215.825C162.228 215.825 162.628 215.691 162.895 215.289C163.162 215.022 163.429 214.487 163.429 214.085C163.162 213.817 163.029 213.55 162.895 213.416ZM161.961 213.55C162.094 213.684 162.228 213.817 162.228 214.085C162.228 214.353 162.094 214.487 161.961 214.62C161.827 214.754 161.694 214.888 161.427 214.888C161.16 214.888 161.026 214.754 160.892 214.62C160.759 214.487 160.625 214.353 160.625 214.085C160.625 213.817 160.759 213.684 160.892 213.55C161.026 213.416 161.16 213.282 161.427 213.282C161.56 213.416 161.827 213.416 161.961 213.55ZM157.02 213.55C157.154 213.684 157.154 213.817 157.154 214.085C157.154 214.353 157.02 214.487 156.887 214.62C156.753 214.754 156.62 214.888 156.353 214.888C156.086 214.888 155.952 214.754 155.819 214.62C155.685 214.487 155.552 214.353 155.552 214.085C155.552 213.817 155.685 213.684 155.819 213.55C155.952 213.416 156.086 213.282 156.353 213.282C156.62 213.416 156.753 213.416 157.02 213.55Z" fill="white"/>
<path d="M117.498 366.111L114.294 368.788L118.033 374.542L121.104 371.866L117.498 366.111Z" fill="#E0B182"/>
<path d="M117.632 394.081L104.28 373.07C104.413 372.669 104.814 372.401 105.214 372C106.95 370.795 110.155 369.457 112.024 368.654C112.291 368.52 112.425 368.52 112.692 368.386C112.959 368.253 113.226 368.119 113.493 367.985C114.961 367.048 115.496 368.52 115.496 368.52C114.828 372 119.368 372.401 119.234 374.409C119.234 374.409 119.234 375.345 118.7 377.888C118.299 380.565 119.101 383.91 119.635 386.988C120.302 390.869 119.635 392.609 118.834 393.412C118.299 394.081 117.632 394.081 117.632 394.081Z" fill="#87A1B2"/>
<path d="M117.632 394.081L104.28 373.07C104.413 372.669 104.814 372.401 105.214 372L118.834 393.412C118.299 394.081 117.632 394.081 117.632 394.081Z" fill="#738693"/>
<path d="M118.7 375.345C118.7 375.345 119.902 375.078 120.035 376.148C120.302 377.219 118.833 378.022 118.833 378.022C118.833 378.022 117.365 378.289 118.7 375.345Z" fill="white"/>
<path d="M114.427 377.754C114.294 377.62 114.427 377.352 114.561 377.219C116.697 375.881 118.567 376.416 118.7 376.55C118.967 376.684 119.101 376.817 118.967 377.085C118.834 377.352 118.7 377.486 118.433 377.352C118.299 377.352 116.697 376.817 114.961 378.021C114.828 378.021 114.561 378.021 114.427 377.754Z" fill="white"/>
<path d="M119.902 380.431C119.902 380.297 119.768 380.297 119.902 380.163C120.035 379.494 119.234 378.156 118.834 377.487C118.7 377.353 118.7 377.085 118.967 376.951C119.101 376.818 119.368 376.818 119.501 377.085C119.635 377.353 120.97 379.093 120.836 380.431C120.836 380.699 120.569 380.832 120.302 380.832C120.035 380.565 119.902 380.565 119.902 380.431Z" fill="white"/>
<path d="M117.632 376.55C117.365 376.149 117.098 375.613 116.697 374.81C116.163 373.606 116.163 372.401 116.697 371.866C116.964 371.465 117.498 371.331 118.033 371.465C118.567 371.598 118.967 371.866 119.234 372.268C120.169 373.74 119.635 376.55 119.501 376.818L118.967 376.684L118.3 377.353C118.166 377.219 118.033 376.951 117.632 376.55ZM118.433 372.535C118.3 372.268 118.033 372.134 117.899 372.134C117.765 372.134 117.632 372.134 117.498 372.268C117.231 372.535 117.231 373.338 117.632 374.409C118.033 375.346 118.433 376.015 118.7 376.282C118.7 375.346 118.967 373.472 118.433 372.535Z" fill="white"/>
<path d="M118.833 377.62L119.368 376.817C120.169 377.353 121.37 377.353 121.904 377.085C122.038 376.951 122.172 376.817 122.038 376.416C121.904 376.148 121.771 376.014 121.771 376.014C121.237 375.881 120.302 376.282 119.768 376.684L119.234 375.881C119.368 375.747 120.97 374.676 122.038 375.078C122.305 375.211 122.706 375.479 122.839 376.014C123.106 376.951 122.706 377.353 122.439 377.62C121.504 378.423 119.902 378.156 118.833 377.62Z" fill="white"/>
<path d="M105.748 375.345L105.348 374.676C106.416 374.81 107.885 374.676 109.354 373.606C111.356 372.134 112.024 369.992 112.157 368.788C112.424 368.654 112.558 368.654 112.825 368.52C112.692 369.859 112.157 372.401 109.754 374.141C108.285 375.212 106.817 375.345 105.748 375.345Z" fill="#738693"/>
<path d="M117.365 378.423C117.231 378.289 117.231 378.022 117.365 377.888C117.498 377.754 117.765 377.754 117.899 377.888L119.101 378.958C119.234 379.092 119.234 379.36 119.101 379.493C118.967 379.627 118.7 379.627 118.566 379.493L117.365 378.423C117.498 378.423 117.498 378.557 117.365 378.423Z" fill="white"/>
<path d="M117.498 380.297C117.365 380.163 117.365 379.895 117.498 379.762C117.632 379.628 117.899 379.628 118.032 379.762L119.234 380.832C119.368 380.966 119.368 381.233 119.234 381.367C119.101 381.501 118.834 381.501 118.7 381.367L117.498 380.297Z" fill="white"/>
<path d="M117.632 382.036C117.498 381.903 117.498 381.635 117.632 381.501C117.765 381.368 118.032 381.368 118.166 381.501L119.368 382.571C119.501 382.705 119.501 382.973 119.368 383.107C119.234 383.24 118.967 383.24 118.834 383.107L117.632 382.036Z" fill="white"/>
<path d="M117.765 383.91C117.632 383.776 117.632 383.509 117.765 383.375C117.899 383.241 118.166 383.241 118.299 383.375L119.501 384.445C119.635 384.579 119.635 384.846 119.501 384.98C119.368 385.114 119.101 385.114 118.967 384.98L117.765 383.91C117.899 383.91 117.899 383.91 117.765 383.91Z" fill="white"/>
<path d="M118.299 385.784C118.166 385.65 118.166 385.382 118.299 385.249C118.433 385.115 118.7 385.115 118.833 385.249L120.035 386.319C120.169 386.452 120.169 386.72 120.035 386.854C119.902 386.988 119.635 386.988 119.501 386.854L118.299 385.784C118.299 385.784 118.299 385.917 118.299 385.784Z" fill="white"/>
<path d="M155.685 328.774V328.908C155.685 328.908 155.552 329.175 155.285 329.577C153.682 332.655 146.472 345.636 137.66 357.814C136.325 359.554 135.123 361.294 133.788 363.033C133.254 363.836 132.586 364.505 132.052 365.175C129.515 368.386 127.245 370.26 124.842 371.866C124.575 372 124.308 372.267 124.041 372.401C123.507 372.669 122.973 373.07 122.439 373.338C122.172 373.472 121.905 373.606 121.637 373.739C121.637 373.739 117.632 369.591 115.763 365.442C115.763 365.442 116.297 364.639 117.098 363.167C117.231 362.9 117.498 362.632 117.632 362.364C118.166 361.427 118.834 360.357 119.635 359.152C122.839 353.799 127.245 346.439 128.848 342.959C130.049 340.417 131.385 337.606 132.987 334.93C133.254 334.395 133.654 333.859 133.921 333.324L134.055 333.19C136.191 329.711 138.595 326.231 141.132 323.822L135.39 290.098L134.99 287.957L147.674 283.541L148.342 283.273L151.413 282.202C151.413 282.202 151.68 283.273 152.08 285.28C152.08 285.548 152.214 285.816 152.214 285.95C153.682 294.514 157.421 316.194 155.685 328.774Z" fill="#4F5D94"/>
<path d="M124.709 371.866C124.442 372 124.174 372.267 123.907 372.401L118.967 365.978L118.567 365.442L116.964 363.435C117.098 363.167 117.365 362.9 117.498 362.632L118.967 364.639L119.368 365.175L124.709 371.866Z" fill="#3C4567"/>
<path d="M155.685 328.774V328.908C155.685 328.908 155.552 329.175 155.285 329.577C152.481 329.041 150.211 327.569 150.077 327.569C149.944 327.435 149.81 327.168 149.944 327.034C150.077 326.9 150.344 326.766 150.478 326.9C150.611 326.766 152.881 328.238 155.685 328.774Z" fill="#3C4567"/>
<path d="M144.202 324.893C144.202 324.893 137.793 331.317 119.501 364.907C119.368 365.175 119.234 365.576 118.967 365.844L118.566 365.308C118.7 365.041 118.833 364.639 119.1 364.372C136.058 333.19 142.6 325.696 143.668 324.625C142.2 319.138 137.66 290.767 137.393 289.563C137.393 289.429 137.526 289.161 137.66 289.161C137.793 289.161 138.06 289.295 138.06 289.429C138.06 289.697 142.867 319.54 144.336 324.491C144.336 324.759 144.336 324.893 144.202 324.893Z" fill="#3C4567"/>
<path d="M137.66 357.814C135.791 360.357 133.921 362.9 131.919 365.175C131.518 359.956 130.583 342.826 132.72 334.93C132.987 333.993 133.254 333.19 133.654 332.521L133.788 333.19L137.66 357.814Z" fill="#3C4567"/>
<path d="M114.027 273.771C114.027 273.771 113.092 282.871 115.095 287.823C117.098 292.908 143.668 290.232 150.478 285.682C153.282 283.808 147.407 266.679 147.407 266.679L114.027 273.771Z" fill="#3C4567"/>
<path d="M151.947 285.816C151.546 285.682 151.145 285.682 150.745 285.548C150.077 285.28 149.543 285.013 149.009 284.745C148.475 284.344 147.941 283.942 147.407 283.407C144.469 280.463 143.668 275.913 143.535 275.779C143.535 275.645 143.668 275.377 143.802 275.377C143.935 275.377 144.202 275.511 144.202 275.645C144.202 275.645 145.137 280.329 148.074 283.139C148.475 283.541 148.876 283.808 149.276 284.076C149.81 284.477 150.344 284.745 150.878 284.879C151.145 285.013 151.413 285.013 151.68 285.013C151.813 285.28 151.947 285.548 151.947 285.816Z" fill="#3C4567"/>
<path d="M135.524 288.359C135.524 288.492 135.39 288.76 135.257 288.76C135.123 288.76 134.856 288.626 134.856 288.492C134.856 287.288 134.722 285.95 134.589 284.745C134.589 284.478 134.589 284.344 134.589 284.076C134.322 279.928 133.921 275.913 133.788 272.969C133.788 272.701 133.788 272.567 133.788 272.299C133.788 271.63 133.654 271.095 133.654 270.694C133.921 270.694 134.055 270.56 134.322 270.56C134.322 271.095 134.455 271.63 134.455 272.166C134.455 272.433 134.455 272.567 134.455 272.835C134.722 275.645 134.99 279.66 135.257 283.808C135.257 284.076 135.257 284.21 135.257 284.478C135.39 285.816 135.524 287.02 135.524 288.359Z" fill="#3C4567"/>
<path d="M136.592 283.942C136.458 283.942 136.058 284.21 135.39 284.344C135.123 284.344 134.989 284.477 134.722 284.477C134.455 284.477 134.322 284.611 134.055 284.611C133.654 284.611 133.254 284.611 132.853 284.477C132.453 284.344 132.186 283.942 132.052 283.407C131.785 282.068 131.251 276.849 130.984 273.102C130.984 272.834 130.984 272.701 130.984 272.433C130.984 271.898 130.85 271.362 130.85 270.827C131.117 270.827 131.251 270.827 131.518 270.693C131.518 271.095 131.651 271.764 131.651 272.299C131.651 272.567 131.651 272.701 131.651 272.968C132.052 276.715 132.586 281.935 132.72 283.139C132.72 283.407 132.853 283.541 133.12 283.674C133.521 283.808 134.055 283.808 134.589 283.674C134.856 283.674 134.989 283.541 135.257 283.541C135.657 283.407 135.924 283.273 136.191 283.139C136.325 283.005 136.592 283.139 136.592 283.273C136.859 283.674 136.725 283.942 136.592 283.942Z" fill="#3639D9"/>
<path d="M125.109 378.156L125.91 383.509H132.72L133.12 377.888L125.109 378.156Z" fill="#E0B182"/>
<path d="M133.788 285.28V377.219L133.654 378.691H123.507C123.373 378.022 123.106 376.951 122.839 375.613C122.706 375.345 122.706 374.944 122.572 374.676C121.237 369.056 118.967 359.42 118.567 351.123C118.032 339.212 118.166 323.822 118.166 323.822C116.964 314.99 115.228 295.853 114.294 285.95C114.294 285.682 114.294 285.548 114.294 285.28C114.027 281.935 113.76 279.927 113.76 279.927C115.362 279.258 118.299 279.66 121.504 280.596C121.771 280.596 121.905 280.73 122.172 280.73C127.913 282.47 133.788 285.28 133.788 285.28Z" fill="#4F5D94"/>
<path d="M133.788 374.676V375.613H122.839C122.706 375.345 122.706 374.944 122.572 374.676H133.788Z" fill="#3C4567"/>
<path d="M133.788 325.83V326.766C132.586 327.034 131.251 327.168 129.916 327.168C127.512 327.168 125.51 326.766 125.376 326.766C125.109 326.766 124.976 326.499 124.976 326.231C124.976 325.964 125.243 325.83 125.51 325.83C125.643 325.964 130.583 326.766 133.788 325.83Z" fill="#3C4567"/>
<path d="M124.575 375.613H123.907C123.907 375.345 123.774 374.944 123.774 374.676C122.839 369.859 121.237 361.026 120.436 355.272C119.234 347.242 119.768 324.893 119.768 323.956C118.834 316.328 117.098 289.964 116.964 289.697C116.964 289.563 117.098 289.295 117.231 289.295C117.365 289.295 117.632 289.429 117.632 289.563C117.632 289.831 119.501 316.194 120.436 323.822C120.436 324.09 119.902 346.974 120.97 355.004C121.771 360.758 123.507 369.859 124.308 374.542C124.442 374.944 124.575 375.345 124.575 375.613Z" fill="#3C4567"/>
<path d="M135.257 392.609C135.257 393.01 135.257 393.278 135.257 393.412C135.257 393.813 135.257 394.215 135.257 394.215H119.768C119.768 394.215 119.635 393.68 119.768 392.743C119.902 391.137 120.436 388.728 122.572 386.988C125.51 384.713 124.308 385.249 124.976 384.178C125.109 384.044 125.51 382.304 125.643 382.171C126.177 381.1 126.578 380.565 129.382 380.565C132.987 380.565 133.387 382.304 133.788 383.241C133.921 383.643 134.188 384.446 134.455 385.382C134.589 385.784 134.589 386.185 134.723 386.587C134.99 387.657 135.123 388.728 135.257 389.665C135.257 390.869 135.257 391.806 135.257 392.609Z" fill="#87A1B2"/>
<path d="M135.256 392.609C135.256 393.01 135.256 393.278 135.256 393.412C134.455 392.877 133.921 392.207 133.654 391.404C132.72 388.862 134.188 385.65 134.188 385.516C134.322 385.918 134.322 386.319 134.455 386.721C134.055 387.791 133.654 389.531 134.322 391.003C134.455 391.672 134.856 392.207 135.256 392.609Z" fill="#738693"/>
<path d="M135.257 392.743C135.257 393.679 135.123 394.214 135.123 394.214H119.768C119.768 394.214 119.635 393.679 119.768 392.743H135.257Z" fill="#738693"/>
<path d="M127.646 382.973H127.512C127.112 382.84 123.64 381.234 123.373 379.494C123.373 379.226 123.373 378.691 123.907 378.156C124.441 377.754 124.842 377.754 125.109 377.754C126.711 378.156 127.779 381.635 128.047 382.304C128.047 382.438 128.047 382.706 127.913 382.706C127.913 382.973 127.779 382.973 127.646 382.973ZM124.842 378.691C124.708 378.691 124.709 378.691 124.575 378.825C124.308 379.092 124.308 379.226 124.308 379.36C124.441 380.029 125.777 380.966 126.978 381.635C126.311 380.297 125.51 378.959 124.842 378.691Z" fill="white"/>
<path d="M128.447 382.973C128.313 382.973 128.18 382.973 128.18 382.84C128.046 382.706 128.046 382.572 128.046 382.438C128.313 381.769 129.382 378.289 130.984 377.888C131.251 377.754 131.785 377.754 132.186 378.289C132.72 378.691 132.72 379.226 132.72 379.628C132.453 381.234 128.981 382.84 128.58 383.107C128.58 382.973 128.447 382.973 128.447 382.973ZM131.251 378.691C131.251 378.691 131.117 378.691 131.251 378.691C130.583 378.825 129.782 380.297 129.248 381.635C130.45 380.966 131.785 380.029 131.918 379.36C131.918 379.226 131.918 379.092 131.651 378.825C131.384 378.691 131.384 378.691 131.251 378.691Z" fill="white"/>
<path d="M128.046 381.769C128.046 381.769 127.379 381.368 127.245 382.438C127.245 383.24 127.779 383.374 128.046 383.24C128.046 383.24 128.581 383.374 128.714 382.973C128.981 382.572 128.848 381.368 128.046 381.769Z" fill="white"/>
<path d="M124.842 384.444C124.709 384.444 124.709 384.444 124.575 384.311C124.442 384.177 124.308 383.909 124.442 383.642C125.777 381.769 127.913 382.17 128.047 382.17C128.314 382.17 128.447 382.438 128.447 382.705C128.447 382.973 128.18 383.107 127.913 383.107C127.78 383.107 126.177 382.839 125.243 384.177C125.109 384.311 124.976 384.444 124.842 384.444Z" fill="white"/>
<path d="M131.518 384.847C131.384 384.847 131.251 384.713 131.117 384.58C130.45 382.974 127.913 382.572 127.913 382.572C127.646 382.572 127.512 382.304 127.512 382.037C127.512 381.769 127.779 381.635 128.046 381.635C128.18 381.635 130.984 382.037 131.919 384.044C132.052 384.312 131.919 384.58 131.651 384.58C131.651 384.847 131.651 384.847 131.518 384.847Z" fill="white"/>
<path d="M129.782 385.516C129.782 385.516 129.649 385.516 129.782 385.516C127.78 384.981 126.177 385.382 126.177 385.382C125.91 385.382 125.643 385.248 125.643 385.115C125.643 384.847 125.777 384.579 125.91 384.579C126.044 384.579 127.78 384.044 129.916 384.713C130.183 384.713 130.316 384.981 130.183 385.248C130.183 385.382 129.916 385.516 129.782 385.516Z" fill="white"/>
<path d="M129.115 386.854C129.115 386.854 128.981 386.854 129.115 386.854C127.112 386.319 125.51 386.72 125.51 386.72C125.243 386.72 124.976 386.587 124.976 386.453C124.976 386.185 125.109 385.918 125.243 385.918C125.376 385.918 127.112 385.383 129.248 386.051C129.515 386.051 129.649 386.319 129.515 386.587C129.515 386.854 129.248 386.854 129.115 386.854Z" fill="white"/>
<path d="M128.313 388.46C126.311 387.925 124.708 388.326 124.708 388.326C124.441 388.326 124.174 388.192 124.174 388.059C124.174 387.791 124.308 387.524 124.441 387.524C124.575 387.524 126.311 386.989 128.447 387.657C128.714 387.657 128.848 387.925 128.714 388.192C128.714 388.326 128.581 388.46 128.313 388.46Z" fill="white"/>
<path d="M124.174 275.779C124.174 275.913 123.64 278.322 122.305 280.864C121.504 282.336 120.302 283.809 118.834 284.745C117.498 285.548 116.03 285.95 114.427 286.084C114.427 285.816 114.427 285.682 114.427 285.414C115.896 285.414 117.231 285.013 118.433 284.21C119.768 283.273 120.836 282.069 121.637 280.731C123.106 278.322 123.507 275.779 123.507 275.779C123.507 275.645 123.774 275.511 123.907 275.511C124.041 275.378 124.174 275.511 124.174 275.779Z" fill="#3639D9"/>
<path d="M169.572 243.661C169.572 245.267 167.836 247.408 165.299 249.683C165.165 249.817 164.898 249.95 164.765 250.084C161.961 252.493 158.356 254.902 155.285 256.642C152.347 258.381 148.075 260.255 144.203 260.79C140.464 261.326 136.992 260.523 134.856 257.043C134.589 256.642 134.322 256.24 134.189 255.839C130.717 248.478 132.72 236.166 132.72 236.166L141.532 220.375C147.808 225.996 146.205 240.716 148.475 242.322C148.475 242.322 148.609 242.322 148.609 242.456C148.876 242.59 149.276 242.724 149.677 242.724C152.214 242.991 156.62 240.315 161.16 239.111C161.427 239.111 161.694 238.977 161.827 238.977C162.094 238.977 162.228 238.843 162.495 238.843C166.367 238.174 169.438 240.181 169.572 243.661Z" fill="#D1764F"/>
<path d="M165.165 249.683C165.032 249.816 164.765 249.95 164.631 250.084C162.762 248.344 161.56 245.936 161.026 242.991C160.759 241.653 160.759 240.315 160.759 239.11C161.026 239.11 161.293 238.977 161.427 238.977C161.427 240.047 161.427 241.519 161.56 242.858C162.361 245.802 163.429 248.077 165.165 249.683Z" fill="#BC694B"/>
<path d="M149.543 242.724C147.941 243.794 145.671 245.534 144.603 247.408C144.603 247.541 144.47 247.541 144.336 247.541H144.202C144.069 247.408 143.935 247.274 144.069 247.006C144.87 245.668 146.205 244.33 147.541 243.259C146.072 243.527 144.603 244.062 144.603 244.062H144.47C144.336 244.062 144.202 243.928 144.202 243.794C144.069 243.66 144.203 243.393 144.47 243.393C144.603 243.393 146.739 242.59 148.742 242.322C148.742 242.59 149.143 242.724 149.543 242.724Z" fill="#BC694B"/>
<path d="M144.069 260.79C140.33 261.325 136.859 260.522 134.723 257.043C134.455 256.642 134.188 256.24 134.055 255.839C135.39 255.437 137.927 255.036 141.265 256.909C143.268 258.247 143.935 259.72 144.069 260.79Z" fill="#BC694B"/>
<path d="M176.514 232.018C176.514 232.018 173.31 242.991 167.569 244.33L164.898 240.984C164.765 240.984 170.372 232.553 176.514 232.018Z" fill="#FFD9AF"/>
<path d="M164.631 243.661L165.032 243.928C165.299 244.062 165.566 244.062 165.699 243.794C167.569 242.189 176.648 234.025 178.117 232.419C178.25 232.285 178.384 232.018 178.25 231.884L176.781 225.193C176.781 225.059 176.648 224.925 176.514 224.791L175.847 224.39L177.316 231.616L164.631 243.661Z" fill="#464646"/>
<path d="M164.631 243.527L163.029 236.969C163.029 236.702 163.163 236.3 163.43 236.033L175.714 224.657C175.981 224.39 176.248 224.39 176.381 224.657L177.983 231.215C177.983 231.482 177.85 231.884 177.583 232.152L165.299 243.527C164.898 243.794 164.631 243.794 164.631 243.527Z" fill="#353535"/>
<path d="M166.767 240.449L165.566 235.631C165.566 235.363 165.699 234.962 165.966 234.694L175.046 226.263C175.313 225.996 175.58 225.996 175.713 226.263L176.915 231.081C176.915 231.349 176.781 231.75 176.514 232.018L167.435 240.449C167.168 240.716 166.901 240.716 166.767 240.449Z" fill="#464646"/>
<path d="M165.165 239.913C164.765 240.314 164.364 240.314 164.231 239.913C164.097 239.511 164.364 238.842 164.765 238.441C165.165 238.04 165.566 238.04 165.699 238.441C165.833 238.842 165.566 239.511 165.165 239.913Z" fill="#464646"/>
<path d="M165.566 234.159C165.566 234.159 164.498 231.616 166.1 230.412C167.702 229.207 171.04 228.806 171.04 228.806C172.375 229.877 170.105 231.081 167.301 232.285L165.566 234.159Z" fill="#FFD9AF"/>
<path d="M171.04 239.111C171.04 239.111 172.776 239.914 173.31 238.977C173.844 238.04 172.909 235.631 172.509 234.694C172.108 233.891 171.708 236.033 171.841 236.969C171.975 237.505 171.975 238.442 171.975 238.442L171.04 239.111Z" fill="#FFD9AF"/>
<path d="M173.31 236.835C173.31 236.835 175.046 237.638 175.713 236.434C176.381 235.229 175.179 232.419 174.645 231.482C174.111 230.545 173.577 232.954 173.844 234.159C174.111 235.229 173.844 235.765 173.844 235.765L173.31 236.835Z" fill="#FFD9AF"/>
<path d="M174.512 235.631C174.512 235.631 176.114 236.3 176.648 235.229C177.182 234.159 176.114 231.616 175.713 230.813C175.313 230.01 174.779 232.152 175.046 233.088C175.313 234.025 175.046 234.56 175.046 234.56L174.512 235.631Z" fill="#FFD9AF"/>
<path d="M172.108 238.575C172.108 238.575 173.844 239.378 174.512 238.174C175.179 236.969 173.978 234.159 173.443 233.222C172.909 232.285 172.375 234.694 172.642 235.899C172.909 236.969 172.642 237.505 172.642 237.505L172.108 238.575Z" fill="#FFD9AF"/>
<path d="M113.626 281.667L112.825 286.886C112.825 286.886 122.572 289.027 128.714 287.555C134.856 285.949 149.677 284.477 152.214 284.344L150.611 277.518C150.478 277.385 131.518 283.407 113.626 281.667Z" fill="white"/>
<path d="M134.456 217.163C134.456 217.163 138.061 209.802 130.45 205.788C125.109 202.977 114.694 202.442 111.624 208.999C108.686 215.022 115.362 220.241 115.362 220.241C115.362 220.241 129.248 223.051 134.456 217.163Z" fill="#BC694B"/>
<path d="M121.904 208.598C121.904 208.598 115.228 209.535 117.632 213.014C118.967 214.888 126.044 215.959 126.044 215.959C126.044 215.959 127.512 209.535 121.904 208.598Z" fill="#353535"/>
<path d="M149.677 275.645C149.677 275.645 125.109 283.942 114.561 279.794C114.561 279.794 111.223 278.723 109.888 272.299C109.888 272.032 109.754 271.898 109.754 271.63C109.22 268.418 109.086 264.002 110.021 257.846C111.089 250.486 109.621 246.738 108.953 239.378C108.953 239.11 108.953 238.843 108.819 238.575C108.686 237.772 108.686 236.969 108.552 236.032C107.885 226.263 104.814 222.248 109.621 219.304C114.427 216.36 120.836 214.219 120.836 214.219C120.836 214.219 126.177 215.958 130.049 214.219C130.049 214.219 135.791 217.029 140.197 218.635C144.603 220.241 143.134 232.018 144.603 238.709C145.938 245.4 148.342 250.887 150.478 261.995C152.481 272.165 149.677 275.645 149.677 275.645Z" fill="#D1764F"/>
<path d="M150.211 260.924C150.077 260.924 149.81 260.79 149.81 260.656C149.543 257.846 147.407 250.619 146.205 246.337C145.938 245.534 145.805 244.731 145.538 244.196C144.603 240.984 143.535 233.49 143.535 233.088C143.535 232.954 143.668 232.687 143.802 232.687C143.935 232.687 144.202 232.821 144.202 232.954C144.202 233.088 145.271 240.716 146.205 243.928C146.339 244.463 146.606 245.133 146.873 246.069C148.208 250.352 150.344 257.578 150.478 260.523C150.611 260.79 150.478 260.924 150.211 260.924Z" fill="#BC694B"/>
<path d="M150.878 272.165C150.878 272.165 151.947 275.377 150.478 277.519C150.478 277.519 128.447 285.147 113.626 281.667C113.626 281.667 112.291 280.061 111.89 276.716C111.89 276.849 129.649 281.266 150.878 272.165Z" fill="#BC694B"/>
<path d="M128.046 224.39C132.186 224.39 133.387 220.776 133.387 220.642C133.387 220.509 133.387 220.375 133.254 220.241C133.12 220.241 132.987 220.241 132.853 220.375C132.853 220.509 131.651 223.988 127.512 223.72C123.373 223.453 117.899 220.642 117.899 220.642C117.765 220.509 117.632 220.642 117.498 220.776C117.365 220.91 117.498 221.044 117.632 221.178C117.899 221.312 123.106 223.988 127.512 224.256C127.779 224.39 127.913 224.39 128.046 224.39Z" fill="#BC694B"/>
<path d="M142.734 256.24C142.734 256.24 145.538 264.939 144.47 269.757C144.47 269.757 135.123 275.377 121.237 272.567C121.237 272.567 120.436 264.002 119.902 258.381C120.035 258.515 134.188 256.106 142.734 256.24Z" fill="#BC694B"/>
<path d="M126.444 262.932C126.578 262.932 126.578 262.798 126.711 262.798C127.512 244.196 122.439 216.36 122.305 216.092C122.305 215.959 122.172 215.959 122.038 215.959C121.905 215.959 121.905 216.092 121.905 216.226C121.905 216.494 127.112 244.33 126.444 262.932C126.311 262.932 126.311 262.932 126.444 262.932Z" fill="white"/>
<path d="M138.862 261.727C138.995 261.727 139.129 261.593 139.129 261.46C138.461 238.977 130.85 216.093 130.717 215.825C130.717 215.691 130.583 215.691 130.45 215.691C130.316 215.691 130.316 215.825 130.316 215.959C130.45 216.226 137.927 238.977 138.595 261.46C138.728 261.593 138.728 261.727 138.862 261.727Z" fill="white"/>
<path d="M137.794 217.431C137.794 217.431 139.262 231.482 133.788 240.984C126.444 253.697 110.021 257.712 110.021 257.712C110.021 257.712 109.22 255.571 110.021 252.627C110.021 252.627 125.243 249.817 131.652 236.969C136.859 226.531 134.322 216.226 134.322 216.226C134.322 216.226 136.592 216.226 137.794 217.431Z" fill="#353535"/>
<path d="M125.109 252.493C125.243 252.493 125.242 252.493 125.376 252.493C125.91 252.493 126.311 252.359 126.711 252.359C126.978 252.359 127.245 252.225 127.512 252.225C127.913 252.092 128.313 251.958 128.581 251.824C128.848 251.69 129.115 251.69 129.382 251.556C132.987 249.95 135.924 246.872 137.259 243.259C137.393 242.991 137.393 242.724 137.526 242.456C137.66 241.921 137.793 241.519 137.927 240.984C137.927 240.716 138.06 240.449 138.06 240.181C138.06 239.78 138.194 239.244 138.194 238.843C138.194 238.709 138.194 238.709 138.194 238.575C138.194 234.025 131.651 231.349 131.651 231.349L129.916 234.427L129.515 235.096L126.444 240.583L121.237 243.928L120.569 244.33L117.498 246.337C117.498 246.337 120.569 252.761 125.109 252.493Z" fill="#353535"/>
<g opacity="0.5">
<g opacity="0.5">
<g opacity="0.5">
<g opacity="0.5">
<g opacity="0.5">
<path opacity="0.5" d="M126.845 252.225C127.112 252.225 127.379 252.091 127.646 252.091C126.444 248.612 123.507 245.802 121.37 243.928L120.703 244.33C122.706 246.069 125.51 249.014 126.845 252.225Z" fill="#464646"/>
</g>
</g>
</g>
</g>
</g>
<g opacity="0.5">
<g opacity="0.5">
<g opacity="0.5">
<g opacity="0.5">
<path opacity="0.5" d="M132.186 237.906C134.188 239.646 136.191 240.716 137.927 240.984C137.927 240.716 138.06 240.449 138.06 240.181C134.722 239.78 131.651 236.568 129.916 234.427L129.515 235.096C130.183 235.899 131.117 236.969 132.186 237.906Z" fill="#464646"/>
</g>
</g>
</g>
</g>
<path d="M131.651 231.349C131.651 231.349 136.859 234.025 133.921 238.709C130.984 243.259 125.777 248.88 122.572 249.147C119.368 249.415 117.498 246.471 117.498 246.471L131.651 231.349Z" fill="#464646"/>
<g opacity="0.5">
<g opacity="0.5">
<g opacity="0.5">
<g opacity="0.5">
<g opacity="0.5">
<path opacity="0.5" d="M128.581 251.69C128.848 251.556 129.115 251.556 129.382 251.422C129.382 249.816 129.916 247.809 131.518 245.936C133.254 244.062 135.524 243.259 137.393 243.125C137.526 242.858 137.526 242.59 137.66 242.322C135.657 242.456 132.987 243.125 130.984 245.4C129.115 247.675 128.581 249.95 128.581 251.69Z" fill="#464646"/>
</g>
</g>
</g>
</g>
</g>
<path d="M129.782 213.014L129.248 215.289C128.981 215.423 128.581 215.557 128.314 215.691C123.373 218.501 119.501 214.486 119.635 214.219L121.771 205.119L128.848 211.944L129.782 213.014Z" fill="#FFD9AF"/>
<path opacity="0.36" d="M129.782 213.014L129.248 215.423C128.981 215.557 128.581 215.691 128.313 215.825C125.109 213.683 123.507 209.535 123.507 209.535L128.848 212.211L129.782 213.014Z" fill="#7D634B"/>
<path d="M120.569 196.286C120.569 196.286 118.166 194.413 119.368 192.138C120.569 189.863 122.973 190.532 122.973 190.532C122.973 190.532 122.973 187.989 125.109 187.32C127.112 186.651 128.447 188.524 128.447 188.524C128.447 188.524 129.382 186.115 131.518 186.383C133.654 186.651 133.521 188.658 133.521 188.658C133.521 188.658 135.524 186.918 137.66 188.257C139.796 189.595 138.194 191.602 138.194 191.602C138.194 191.602 140.197 192.138 139.396 194.145C138.995 195.216 137.26 195.751 137.26 195.751L120.569 196.286Z" fill="#353535"/>
<path d="M121.637 195.617C121.637 195.617 120.035 195.349 119.234 197.357C118.433 199.364 119.768 200.301 119.768 200.301C119.768 200.301 118.433 201.505 118.967 203.111C119.635 204.717 121.237 204.182 121.237 204.182C121.237 204.182 119.501 205.788 120.703 207.126C122.038 208.464 124.308 205.52 124.308 205.52L121.637 195.617Z" fill="#353535"/>
<path d="M135.257 193.877C135.257 193.877 140.731 195.885 136.992 199.364C136.992 199.364 134.723 195.483 135.257 193.877Z" fill="#353535"/>
<path d="M135.524 197.892C135.524 197.892 137.393 197.624 137.927 199.097C138.461 200.569 136.992 201.372 136.992 201.372C136.992 201.372 137.927 202.308 137.259 203.914C136.592 205.52 135.524 205.119 135.524 205.119C135.524 205.119 136.592 206.189 135.257 207.528C133.921 208.866 132.319 206.457 132.319 206.457L135.524 197.892Z" fill="#353535"/>
<path opacity="0.36" d="M134.723 203.245C134.723 203.245 136.458 201.907 136.859 203.647C137.259 205.386 136.058 208.464 134.055 207.528L134.723 203.245Z" fill="#7D634B"/>
<path d="M135.257 209.133C135.257 209.133 134.189 213.951 129.248 212.88C124.308 211.81 121.771 207.126 121.638 206.858L121.771 205.788L122.706 200.435L123.106 197.624C123.106 197.624 123.64 192.405 128.581 192.539C132.186 192.673 135.39 194.011 136.725 196.152C137.126 196.955 137.393 197.892 137.259 198.963L136.325 204.048L136.058 205.252L135.257 209.133Z" fill="#FFD9AF"/>
<path d="M130.583 208.866C130.984 208.866 131.251 208.866 131.251 208.866C131.385 208.866 131.385 208.732 131.385 208.732C131.385 208.598 131.251 208.598 131.251 208.598C131.251 208.598 130.717 208.732 130.183 208.464C130.049 208.464 130.049 208.464 130.049 208.464C130.049 208.598 130.049 208.598 130.049 208.598C130.183 208.732 130.45 208.866 130.583 208.866Z" fill="#353535"/>
<path d="M133.521 205.788C133.521 205.788 130.85 205.788 128.848 204.717C128.848 204.717 128.848 207.795 131.384 207.795C133.12 207.661 133.521 205.788 133.521 205.788Z" fill="white"/>
<path d="M132.052 204.583C131.652 204.449 131.117 204.182 130.85 203.914C130.717 203.914 130.717 203.78 130.85 203.646C130.85 203.513 130.984 203.513 131.117 203.646C131.785 204.048 132.586 204.449 132.853 204.316C132.853 202.442 131.919 202.174 131.919 202.174C131.785 202.174 131.785 202.041 131.785 201.907L132.186 200.301C132.186 200.167 132.319 200.167 132.453 200.167C132.586 200.167 132.586 200.301 132.586 200.435L132.319 201.907C132.586 202.174 133.254 202.71 133.387 204.449C133.387 204.717 133.254 204.851 133.12 204.851C132.72 204.717 132.319 204.717 132.052 204.583Z" fill="#353535"/>
<path d="M130.583 199.363C131.651 199.096 131.518 197.49 130.45 197.49C129.515 197.49 128.313 197.49 127.646 198.293C126.444 199.631 129.382 199.631 130.583 199.363Z" fill="#353535"/>
<path d="M133.387 200.167C132.586 199.632 133.254 198.294 134.188 198.561C134.989 198.829 136.058 199.364 136.325 200.301C136.859 201.907 134.322 200.836 133.387 200.167Z" fill="#353535"/>
<path d="M123.373 202.175C123.24 201.372 122.839 200.435 121.371 199.9C121.237 199.498 120.97 198.829 121.104 197.758C121.237 196.688 121.104 195.617 121.771 194.546C121.771 194.546 123.373 192.405 128.447 192.539C132.052 192.673 135.257 194.011 136.592 196.152C136.458 196.286 136.458 196.42 136.325 196.554C135.123 197.624 133.12 196.955 131.118 195.885C129.115 194.814 126.978 195.751 126.978 195.751C127.245 195.885 127.379 196.152 127.379 196.688C127.379 197.089 127.245 197.357 127.112 197.624C126.845 198.026 126.578 198.427 126.177 198.427C126.177 198.427 126.711 199.632 125.91 200.301C125.243 200.97 124.842 200.97 124.842 200.97C124.842 200.97 125.376 202.041 124.709 202.71C124.442 203.245 123.373 202.175 123.373 202.175Z" fill="#353535"/>
<g opacity="0.8">
<g opacity="0.8">
<g opacity="0.8">
<g opacity="0.8">
<g opacity="0.8">
<g opacity="0.8">
<g opacity="0.8">
<g opacity="0.8">
<g opacity="0.8">
<path opacity="0.8" d="M129.515 203.244C129.382 203.646 128.714 203.779 127.779 203.512C126.845 203.378 126.177 202.843 126.311 202.576C126.444 202.174 127.112 202.04 128.046 202.308C128.848 202.442 129.515 202.843 129.515 203.244Z" fill="#6C370D"/>
</g>
</g>
</g>
</g>
</g>
</g>
</g>
</g>
</g>
<g opacity="0.8">
<g opacity="0.8">
<g opacity="0.8">
<g opacity="0.8">
<g opacity="0.8">
<g opacity="0.8">
<g opacity="0.8">
<g opacity="0.8">
<g opacity="0.8">
<path opacity="0.8" d="M135.924 205.252C135.791 205.252 135.657 205.252 135.524 205.118C134.589 204.984 133.921 204.449 134.055 204.182C134.188 203.781 134.856 203.647 135.791 203.914C135.924 203.914 136.058 203.914 136.191 204.048L135.924 205.252Z" fill="#6C370D"/>
</g>
</g>
</g>
</g>
</g>
</g>
</g>
</g>
</g>
<path d="M123.507 205.253C123.507 205.253 122.572 206.59 121.504 206.858L121.637 205.788C121.637 205.788 122.439 205.921 123.507 205.253Z" fill="#353535"/>
<path d="M123.373 201.639C123.373 201.639 122.038 198.561 120.169 200.301C118.7 201.773 119.902 206.591 122.572 205.654L123.373 201.639Z" fill="#FFD9AF"/>
<path d="M120.703 204.449C120.703 204.717 120.836 204.985 121.103 204.985C121.37 204.985 121.637 204.851 121.637 204.583C121.637 204.316 121.504 204.048 121.237 204.048C120.97 204.048 120.703 204.182 120.703 204.449Z" fill="white"/>
<path d="M122.305 204.851C122.438 204.851 122.572 204.851 122.572 204.717C122.839 202.442 121.103 201.238 121.103 201.238C120.97 201.238 120.836 201.238 120.836 201.238C120.836 201.371 120.836 201.505 120.836 201.505C120.836 201.505 122.438 202.576 122.171 204.583C122.171 204.717 122.305 204.851 122.305 204.851Z" fill="#353535"/>
<path d="M120.703 203.245C121.103 203.111 121.637 202.977 121.905 203.111C122.038 203.111 122.172 203.111 122.172 202.977C122.172 202.843 122.172 202.71 122.038 202.71C121.504 202.442 120.703 202.843 120.569 202.843C120.436 202.843 120.436 202.977 120.436 203.111C120.703 203.245 120.703 203.245 120.703 203.245Z" fill="#353535"/>
<path d="M129.782 201.237C129.649 201.772 129.382 202.04 129.115 202.04C128.848 202.04 128.714 201.505 128.714 201.104C128.848 200.568 129.115 200.301 129.382 200.301C129.782 200.301 129.916 200.702 129.782 201.237Z" fill="#353535"/>
<path d="M134.722 202.174C134.589 202.709 134.322 202.977 134.055 202.977C133.788 202.977 133.654 202.441 133.654 202.04C133.788 201.505 134.055 201.238 134.322 201.238C134.722 201.104 134.856 201.639 134.722 202.174Z" fill="#353535"/>
<path d="M118.032 213.416C118.032 213.416 125.109 216.494 126.444 216.494C126.444 216.494 124.575 218.234 121.771 218.501C118.032 218.903 111.757 218.1 111.757 218.1C111.757 218.1 113.626 214.219 118.032 213.416Z" fill="#BC694B"/>
<path d="M129.782 212.88C129.782 212.88 129.782 215.825 126.444 216.494C126.444 216.494 127.112 218.635 129.916 218.234C132.72 217.832 134.322 216.226 134.322 216.226C134.322 216.226 132.052 212.88 129.782 212.88Z" fill="#BC694B"/>
<path d="M121.103 271.898C121.103 271.898 109.888 273.771 102.01 269.221C97.6038 266.679 94.2658 261.861 94.9334 253.564C94.9334 253.43 94.9334 253.296 94.9334 253.162C96.8027 230.545 108.419 220.375 108.419 220.375C112.825 219.304 117.632 220.375 110.956 249.147C108.953 260.79 120.169 261.727 120.169 261.727L121.103 271.898Z" fill="#D1764F"/>
<path d="M110.689 251.824C110.422 251.69 110.288 251.556 110.288 251.422C110.288 251.289 114.828 237.371 114.828 230.01C114.828 229.876 114.962 229.609 115.229 229.609C115.362 229.609 115.629 229.743 115.629 230.01C115.496 237.505 111.089 251.422 110.956 251.556C110.956 251.69 110.822 251.824 110.689 251.824Z" fill="#BC694B"/>
<path d="M114.694 235.765C114.427 235.631 114.294 235.497 114.427 235.229L116.43 231.884C116.564 231.75 116.697 231.616 116.964 231.75C117.098 231.884 117.231 232.018 117.098 232.285L115.095 235.631C114.961 235.765 114.828 235.765 114.694 235.765Z" fill="#BC694B"/>
<path d="M118.7 272.701C118.567 272.701 118.433 272.567 118.433 272.433C117.098 269.355 117.498 260.79 117.498 260.389C117.498 260.255 117.632 259.987 117.899 259.987C118.032 259.987 118.299 260.121 118.299 260.389C118.299 260.522 118.032 269.221 119.234 272.032C119.368 272.165 119.234 272.433 119.101 272.433C118.834 272.567 118.834 272.701 118.7 272.701Z" fill="#BC694B"/>
<path d="M121.237 272.165C121.103 272.165 118.7 272.968 115.496 272.968C113.76 272.968 111.89 272.834 109.888 272.165C109.888 271.898 109.754 271.764 109.754 271.496C109.888 271.496 109.888 271.496 110.021 271.496C115.763 273.102 120.97 271.496 120.97 271.496C121.103 271.496 121.37 271.496 121.37 271.764C121.504 271.898 121.37 272.165 121.237 272.165Z" fill="#BC694B"/>
<path d="M117.899 260.79C117.765 260.79 117.632 260.79 117.498 260.79C116.03 260.656 113.76 259.987 111.89 257.444C111.757 257.311 111.757 257.043 112.024 256.909C112.157 256.775 112.425 256.775 112.558 257.043C115.896 261.593 120.169 259.72 120.169 259.72C120.302 259.586 120.569 259.72 120.569 259.853C120.703 259.987 120.569 260.255 120.436 260.255C120.302 260.389 119.368 260.79 117.899 260.79Z" fill="#BC694B"/>
<path d="M102.144 269.221C97.7373 266.679 94.3993 261.861 95.0669 253.564C98.1379 256.909 103.078 263.467 102.144 269.221Z" fill="#BC694B"/>
<path d="M291.609 475.313C291.609 475.313 293.612 477.053 294.013 477.588C294.413 478.124 295.615 481.871 295.615 481.871C295.348 482.406 294.413 483.209 293.612 483.343L292.01 481.202C292.01 481.202 291.209 484.949 290.274 486.153C289.206 487.625 283.331 489.365 282.396 488.83C282.396 488.83 281.328 486.689 283.197 485.484C286.669 483.209 286.669 478.659 286.669 478.659C286.135 475.849 289.072 473.841 291.609 475.313Z" fill="#353535"/>
<path d="M278.391 371.732C278.391 371.331 268.911 413.754 269.178 425.129C269.445 432.222 282.663 464.875 286.536 478.659C287.337 481.336 291.342 478.258 291.075 475.447C289.473 462.199 289.607 455.24 283.865 426.601C282.931 422.185 298.953 382.037 297.751 372.669C296.416 363.301 283.331 358.216 278.391 371.732Z" fill="#FFD9AF"/>
<path d="M297.751 372.669C296.55 363.301 283.465 358.216 278.391 371.732C278.391 371.331 269.846 409.739 269.178 423.255C273.451 420.043 279.059 421.783 283.999 424.326C286.002 414.557 298.82 381.1 297.751 372.669Z" fill="#E0B182"/>
<path d="M305.228 478.124C305.228 478.124 306.564 480.533 306.697 481.068C306.831 481.603 306.697 485.618 306.697 485.618C306.297 486.019 305.095 486.421 304.294 486.153L303.493 483.611C303.493 483.611 302.291 486.153 301.089 486.956C299.621 487.893 294.28 489.231 293.345 488.696C293.345 488.696 292.143 486.287 294.146 485.35C299.086 482.808 299.487 479.328 299.487 479.328C299.888 476.652 303.359 475.849 305.228 478.124Z" fill="#353535"/>
<path d="M287.737 374.409C287.604 378.156 288.271 417.367 291.609 428.207C293.746 434.898 298.152 467.15 299.621 478.124C300.155 482.139 304.561 482.139 304.828 478.258C306.03 464.072 310.569 444.266 305.362 426.735C304.027 422.452 310.035 377.487 306.297 368.922C302.692 360.491 288.004 360.758 287.737 374.409Z" fill="#FFD9AF"/>
<path d="M305.228 423.924C305.362 412.817 309.768 376.684 306.43 369.055C302.692 360.491 288.004 360.892 287.737 374.408C287.604 377.754 288.138 411.344 290.808 425.129C295.081 422.72 300.422 422.586 305.228 423.924Z" fill="#E0B182"/>
<path d="M278.791 367.048L278.391 370.929C278.391 370.929 271.448 388.46 268.51 416.965C275.854 414.958 289.74 421.783 310.436 418.839C310.436 418.839 318.581 382.438 304.427 366.245C290.141 349.918 279.593 358.483 278.791 367.048Z" fill="#B6E6AE"/>
<path d="M278.791 370.795C278.791 370.795 278.257 376.282 287.604 377.219C297.084 378.156 306.43 371.33 306.163 369.323C306.03 367.316 278.791 370.795 278.791 370.795Z" fill="#92D069"/>
<path d="M302.024 368.119C302.024 368.119 312.839 386.051 306.163 418.17" stroke="white" stroke-width="0.4986" stroke-miterlimit="10" stroke-linecap="round"/>
<path d="M240.471 356.877C240.337 356.877 236.465 356.609 235.798 356.877C235.13 357.011 233.528 357.814 233.127 358.082C232.059 358.617 233.127 359.42 233.928 359.286C235.13 359.152 235.531 359.018 235.931 359.018C236.198 359.018 236.465 359.152 236.599 359.152C236.198 359.554 234.329 360.758 232.994 361.293C232.193 361.561 231.525 361.829 230.457 362.096C229.923 362.23 230.056 362.899 230.59 363.033C230.991 363.167 232.326 363.167 233.528 362.632C234.062 362.498 234.463 362.23 234.863 362.096C234.863 362.096 233.795 362.765 233.394 363.033C232.727 363.301 231.926 363.435 230.858 363.836C230.323 363.97 230.457 364.639 231.125 364.639C231.258 364.639 231.525 364.639 231.926 364.639C231.659 364.907 231.926 365.308 232.326 365.308C232.593 365.308 232.994 365.308 233.528 365.174C233.528 365.308 233.795 365.442 233.928 365.442C237.934 365.442 240.337 363.301 242.474 362.766C246.079 359.42 243.008 357.279 240.471 356.877Z" fill="#EBAE75"/>
<path d="M286.669 328.373C283.999 326.901 279.326 326.365 275.72 331.584C272.115 336.804 270.513 348.982 266.641 353.13C264.371 355.539 243.408 356.342 241.94 357.011C241.005 357.547 241.539 362.097 241.806 363.034C242.474 364.907 265.039 365.844 271.181 363.435C277.456 360.892 292.544 331.718 286.669 328.373Z" fill="#92D069"/>
<path d="M277.99 305.354C278.124 303.481 278.124 300.269 280.394 297.592C282.664 294.916 291.476 292.105 296.016 295.317C301.623 299.198 299.888 302.945 306.831 305.756C313.907 308.566 311.771 311.778 309.768 314.99C307.765 318.202 308.433 318.737 311.771 322.083C314.976 325.428 319.382 333.859 311.771 338.677C304.16 343.495 287.737 340.283 281.195 333.993C274.652 327.703 282.397 323.421 280.527 319.674C278.658 315.927 276.522 316.729 276.522 312.715C276.522 309.637 277.723 308.165 277.99 305.354Z" fill="#422F1F"/>
<path d="M292.143 323.956C292.143 323.956 277.189 326.499 276.655 331.049C276.388 332.923 279.058 336.803 278.391 338.811C277.456 341.621 275.854 343.361 278.791 350.186C281.195 355.673 277.056 367.048 277.189 368.52C277.59 373.606 285.735 374.542 288.939 374.409C293.612 374.275 307.098 371.331 307.098 368.253C307.098 365.71 300.822 360.223 300.288 355.807C299.621 351.391 311.103 333.725 308.834 329.845C304.561 322.35 292.143 323.956 292.143 323.956Z" fill="#B6E6AE"/>
<path d="M294.547 312.313C294.547 312.313 294.814 316.194 296.016 319.272C297.217 322.35 298.419 323.287 299.888 324.492C301.356 325.83 294.146 333.458 287.737 335.465C287.737 335.465 283.064 329.711 285.2 326.633C287.337 323.421 289.073 323.153 288.271 318.871C287.604 315.124 287.203 313.116 287.203 313.116L294.547 312.313Z" fill="#FFD9AF"/>
<path d="M284.533 314.321C284.533 316.194 283.732 317.666 282.93 317.666C282.129 317.666 281.328 316.194 281.328 314.321C281.328 313.116 281.729 312.046 282.129 311.51C282.263 311.243 282.129 311.109 281.996 311.376C281.462 312.046 281.061 313.116 281.061 314.454C281.061 316.462 281.862 318.068 282.93 318.068C283.999 318.068 284.8 316.462 284.8 314.454C284.8 313.384 284.666 312.581 284.266 311.912L284.132 312.046C284.399 312.581 284.533 313.384 284.533 314.321Z" fill="white"/>
<path d="M294.547 312.313C294.547 312.313 293.479 320.209 286.135 319.674C282.396 319.406 280.527 311.778 281.996 309.771C281.996 309.771 281.328 305.89 281.996 302.678C282.663 299.466 288.939 297.86 294.013 299.332C294.013 299.332 295.481 300.67 294.947 306.96C294.947 306.96 295.882 305.89 297.351 306.693C298.419 307.362 298.552 308.7 298.152 310.172C297.618 311.912 295.882 313.25 294.547 312.313Z" fill="#FFD9AF"/>
<path opacity="0.36" d="M295.081 311.778L295.615 310.306L294.68 309.904C294.68 309.904 295.348 307.094 296.817 308.165C298.018 308.968 296.55 312.313 295.081 311.778Z" fill="#7D634B"/>
<path d="M297.351 314.321C297.351 316.194 296.55 317.666 295.749 317.666C294.947 317.666 294.146 316.194 294.146 314.321C294.146 313.116 294.547 312.046 294.947 311.51C295.081 311.243 294.947 311.109 294.814 311.376C294.28 312.046 293.879 313.116 293.879 314.454C293.879 316.462 294.68 318.068 295.749 318.068C296.817 318.068 297.618 316.462 297.618 314.454C297.618 313.384 297.484 312.581 297.084 311.912L296.95 312.046C297.217 312.581 297.351 313.384 297.351 314.321Z" fill="white"/>
<path d="M283.999 314.722C283.999 314.722 284.533 313.518 288.405 313.919C288.004 316.059 284.399 316.996 283.999 314.722Z" fill="#CD7D58"/>
<path d="M283.999 314.722C283.999 314.722 286.402 314.722 288.405 313.919L283.999 314.722Z" fill="#CD7D58"/>
<path d="M283.999 314.722C285.468 314.454 286.936 314.187 288.405 313.919C287.737 314.32 287.07 314.588 286.269 314.722C285.601 314.856 284.8 314.856 283.999 314.722Z" fill="#CD7D58"/>
<path d="M281.862 309.77C281.862 310.172 282.397 310.172 282.931 310.038C283.465 310.038 283.999 309.904 283.865 309.503C283.865 309.101 283.331 308.968 282.797 308.968C282.263 309.101 281.862 309.369 281.862 309.77Z" fill="#353535"/>
<path d="M280.661 308.298C280.661 308.298 281.996 307.228 282.263 307.228C282.664 307.228 283.999 307.763 283.999 307.495C284.132 307.361 284.266 306.96 284.266 306.96C284.266 306.96 282.397 306.559 281.996 306.693C281.729 306.826 280.794 307.763 280.661 308.298Z" fill="#353535"/>
<path d="M287.07 309.235C287.07 309.636 287.604 309.636 288.138 309.503C288.672 309.503 289.206 309.369 289.072 308.968C289.072 308.566 288.538 308.432 288.004 308.432C287.47 308.566 286.936 308.968 287.07 309.235Z" fill="#353535"/>
<path d="M290.274 307.094C290.274 307.094 288.538 306.425 288.138 306.559C287.737 306.692 286.268 307.361 286.135 307.227C286.001 307.094 285.734 306.692 285.734 306.692C285.734 306.692 287.871 306.024 288.271 306.024C288.805 306.024 290.141 306.692 290.274 307.094Z" fill="#353535"/>
<path opacity="0.36" d="M284.8 312.714C284.8 312.714 286.135 312.714 286.001 312.313C286.001 311.912 283.197 311.51 283.064 311.778C282.93 312.045 284.132 312.581 284.8 312.714Z" fill="#7D634B"/>
<path opacity="0.36" d="M284.533 307.362C284.533 307.362 284.933 308.968 284.666 309.637C284.533 310.172 283.331 311.51 283.197 311.778C283.197 312.046 284.533 312.715 284.666 312.715C284.8 312.715 282.663 312.447 282.797 311.778C282.797 311.109 284.399 309.503 284.399 309.235C284.533 308.968 284.533 307.362 284.533 307.362Z" fill="#7D634B"/>
<path d="M292.143 300.135C286.001 300.804 283.197 306.693 278.658 306.693C275.854 301.741 284.399 289.429 294.547 299.065C299.22 303.481 294.947 306.826 294.947 306.826L293.879 310.44C293.879 310.44 294.013 307.763 293.078 306.693C290.408 303.615 292.143 300.135 292.143 300.135Z" fill="#422F1F"/>
<path d="M292.678 390.735C292.678 391.003 292.41 391.271 292.143 391.271C291.876 391.271 291.609 391.003 291.609 390.735C292.01 382.84 293.879 378.29 296.016 376.416C296.95 375.613 298.018 375.212 299.087 375.345C300.155 375.479 301.089 376.014 302.024 376.951C304.16 379.226 305.763 383.91 305.228 390.066C305.228 390.334 304.961 390.602 304.694 390.602C304.427 390.602 304.16 390.334 304.16 390.066C304.561 384.312 303.226 379.895 301.223 377.754C300.555 377.085 299.754 376.55 298.953 376.55C298.152 376.416 297.484 376.684 296.683 377.353C294.68 378.825 293.078 383.107 292.678 390.735Z" fill="#353535"/>
<path d="M287.07 389.798C287.07 389.798 286.536 389.798 286.269 390.735C286.135 391.538 284.132 422.051 284.132 422.051C284.132 422.051 283.732 423.79 286.402 423.79C294.547 423.79 302.692 423.79 310.836 423.79C313.507 423.79 313.106 422.051 313.106 422.051C313.106 422.051 311.103 391.672 310.97 390.735C310.836 389.932 310.169 389.798 310.169 389.798C302.692 389.798 294.814 389.798 287.07 389.798Z" fill="#BC694B"/>
<path d="M290.408 389.798C290.408 389.798 289.874 389.798 289.607 390.735C289.473 391.538 287.47 422.051 287.47 422.051C287.47 422.051 287.07 423.79 289.74 423.79C297.885 423.79 306.03 423.79 314.174 423.79C316.845 423.79 316.444 422.051 316.444 422.051C316.444 422.051 314.441 391.672 314.308 390.735C314.174 389.932 313.507 389.798 313.507 389.798C305.896 389.798 298.152 389.798 290.408 389.798Z" fill="#D1764F"/>
<path d="M310.302 391.539C310.302 391.806 310.035 392.074 309.768 392.074C309.501 392.074 309.234 391.806 309.234 391.539C309.101 383.91 307.632 379.494 305.763 377.754C305.095 377.085 304.294 376.818 303.626 376.818C302.825 376.951 302.024 377.353 301.356 378.156C299.22 380.431 297.484 385.249 297.751 391.539C297.751 391.806 297.484 392.074 297.217 392.074C296.95 392.074 296.683 391.806 296.683 391.539C296.416 384.981 298.152 379.762 300.555 377.353C301.49 376.416 302.425 375.881 303.493 375.747C304.561 375.613 305.629 376.015 306.564 376.951C308.566 378.959 310.169 383.509 310.302 391.539Z" fill="#353535"/>
<path d="M306.564 371.197C306.43 371.197 302.692 372.133 302.158 372.535C301.623 372.936 300.288 374.141 300.021 374.542C299.22 375.345 300.422 375.747 301.089 375.479C302.158 375.078 302.558 374.676 302.959 374.676C303.226 374.676 303.493 374.676 303.626 374.676C303.359 375.211 302.024 376.951 300.822 377.754C300.155 378.289 299.621 378.691 298.686 379.36C298.285 379.628 298.553 380.297 299.087 380.163C299.487 380.163 300.822 379.761 301.757 378.958C302.158 378.691 302.558 378.289 302.959 378.022C302.959 378.022 302.158 378.958 301.757 379.36C301.223 379.895 300.555 380.297 299.621 380.966C299.22 381.233 299.487 381.769 300.021 381.635C300.155 381.635 300.422 381.501 300.822 381.367C300.689 381.635 300.956 382.036 301.356 381.903C301.623 381.903 302.024 381.635 302.425 381.501C302.558 381.635 302.692 381.635 302.959 381.635C305.362 381.1 309.368 377.754 310.302 376.416C312.706 371.999 309.234 370.929 306.564 371.197Z" fill="#EBAE75"/>
<path d="M303.359 326.098C300.956 328.105 298.819 332.12 302.291 337.473C305.763 342.826 315.643 348.313 318.18 353.398C319.649 356.476 306.163 369.457 306.163 371.197C306.163 372.803 308.7 376.951 309.635 377.353C311.37 378.156 330.197 359.822 330.197 353.264C330.063 346.573 308.433 321.815 303.359 326.098Z" fill="#B6E6AE"/>
<path d="M230.59 373.873C230.59 374.141 230.323 374.274 230.056 374.274C229.789 374.274 229.656 374.007 229.656 373.739C230.056 366.78 231.658 362.765 233.528 361.026C234.329 360.223 235.264 359.955 236.198 360.089C237.133 360.223 237.934 360.624 238.735 361.427C240.604 363.435 242.073 367.583 241.673 372.936C241.673 373.204 241.405 373.338 241.138 373.338C240.871 373.338 240.738 373.07 240.738 372.802C241.138 367.717 239.937 363.702 238.067 361.963C237.4 361.293 236.732 360.892 236.065 360.892C235.397 360.758 234.729 361.026 234.062 361.695C232.46 363.301 230.991 367.182 230.59 373.873Z" fill="#353535"/>
<path d="M225.65 373.07C225.65 373.07 225.116 373.07 224.982 373.873C224.849 374.676 223.113 401.575 223.113 401.575C223.113 401.575 222.713 403.047 225.116 403.047C232.326 403.047 239.536 403.047 246.746 403.047C249.15 403.047 248.749 401.575 248.749 401.575C248.749 401.575 247.013 374.542 246.88 373.873C246.746 373.07 246.212 373.07 246.212 373.07C239.403 373.07 232.593 373.07 225.65 373.07Z" fill="#BC694B"/>
<path d="M228.588 373.07C228.588 373.07 228.053 373.07 227.92 373.873C227.786 374.676 226.051 401.575 226.051 401.575C226.051 401.575 225.65 403.047 228.053 403.047C235.264 403.047 242.474 403.047 249.684 403.047C252.087 403.047 251.687 401.575 251.687 401.575C251.687 401.575 249.951 374.542 249.817 373.873C249.684 373.07 249.15 373.07 249.15 373.07C242.34 373.07 235.531 373.07 228.588 373.07Z" fill="#D1764F"/>
<path d="M246.212 374.543C246.212 374.81 246.079 374.944 245.812 374.944C245.545 374.944 245.411 374.81 245.411 374.543C245.278 367.717 243.942 363.97 242.34 362.364C241.673 361.695 241.005 361.561 240.337 361.561C239.67 361.695 239.002 362.097 238.335 362.766C236.465 364.773 234.997 369.056 235.13 374.676C235.13 374.944 234.997 375.078 234.73 375.212C234.462 375.212 234.329 375.078 234.195 374.81C233.928 368.922 235.531 364.372 237.533 362.231C238.335 361.428 239.269 360.892 240.07 360.759C241.005 360.625 241.94 361.026 242.741 361.829C244.744 363.435 246.079 367.584 246.212 374.543Z" fill="#353535"/>
<path d="M138.194 493.916C138.194 498.064 134.856 501.276 130.85 501.276C126.711 501.276 123.507 497.93 123.507 493.916C123.507 489.767 126.845 486.555 130.85 486.555C134.989 486.421 138.194 489.767 138.194 493.916Z" fill="#353535"/>
<path d="M127.913 493.112L130.45 486.421C130.583 486.019 130.984 485.886 131.251 485.886H140.063C140.865 485.886 141.265 486.822 140.731 487.492L132.853 496.056C132.186 496.726 131.118 496.993 130.316 496.726L129.515 496.458C128.18 495.923 127.512 494.317 127.913 493.112Z" fill="#C4C4C4"/>
<path d="M130.851 495.655C131.785 495.655 132.586 494.852 132.586 493.915C132.586 492.978 131.785 492.175 130.851 492.175C129.916 492.175 129.115 492.978 129.115 493.915C129.115 494.852 129.916 495.655 130.851 495.655Z" fill="#353535"/>
<path d="M180.921 493.916C180.921 498.064 184.259 501.276 188.264 501.276C192.403 501.276 195.608 497.93 195.608 493.916C195.608 489.767 192.27 486.555 188.264 486.555C184.259 486.421 180.921 489.767 180.921 493.916Z" fill="#353535"/>
<path d="M191.202 493.112L188.665 486.421C188.531 486.019 188.131 485.886 187.864 485.886H179.051C178.25 485.886 177.85 486.822 178.384 487.492L186.262 496.056C186.929 496.726 187.997 496.993 188.798 496.726L189.6 496.458C191.068 495.923 191.736 494.317 191.202 493.112Z" fill="#C4C4C4"/>
<path d="M188.398 495.655C189.333 495.655 190.134 494.852 190.134 493.915C190.134 492.978 189.333 492.175 188.398 492.175C187.463 492.175 186.662 492.978 186.662 493.915C186.662 494.852 187.463 495.655 188.398 495.655Z" fill="#353535"/>
<path d="M111.623 425.263C111.223 425.263 110.822 424.995 110.555 424.593C108.018 418.839 103.879 409.337 103.212 408.133C102.143 407.33 93.7316 404.252 86.1209 401.843C85.7204 401.709 85.3198 401.308 85.3198 400.772C85.3198 400.237 85.5869 399.836 86.1209 399.702L99.6065 395.286C99.8736 395.286 100.007 395.152 100.274 395.286C101.609 395.687 112.959 398.765 115.496 401.04C117.498 402.914 123.24 414.958 124.308 417.233C124.575 417.768 124.308 418.437 123.774 418.705C123.24 418.973 122.572 418.705 122.305 418.17C119.768 412.817 115.228 403.717 113.893 402.512C112.425 401.04 104.68 398.631 99.8736 397.293L89.8595 400.505C96.8026 402.78 104.146 405.456 104.814 406.527C105.748 407.731 111.356 420.846 112.558 423.523C112.825 424.058 112.558 424.727 112.024 424.995C111.89 425.129 111.757 425.263 111.623 425.263Z" fill="#92D069"/>
<path d="M108.686 419.641L120.97 412.013L216.037 416.697L218.173 422.586L108.686 419.641Z" fill="#92D069"/>
<path d="M218.173 423.791L108.686 420.846C108.152 420.846 107.618 420.445 107.484 419.91C107.351 419.374 107.618 418.839 108.018 418.571L120.302 410.943C120.569 410.809 120.703 410.809 120.97 410.809L216.037 415.493C216.571 415.493 216.971 415.895 217.105 416.296L219.241 422.185C219.375 422.586 219.375 422.988 219.108 423.389C218.974 423.657 218.573 423.791 218.173 423.791ZM112.825 418.438L216.304 421.248L215.102 417.902L121.237 413.218L112.825 418.438Z" fill="#92D069"/>
<path d="M107.751 419.909L122.172 467.418C122.572 468.89 123.907 469.827 125.376 469.693L204.954 467.284C206.423 467.284 207.758 466.213 208.025 464.741L218.173 422.586L107.751 419.909Z" fill="#92D069"/>
<path d="M129.115 439.716C134.322 450.422 145.671 452.563 156.486 452.028C179.719 450.823 200.014 441.723 213.633 422.452L128.981 420.311C127.78 420.311 127.112 428.474 127.112 429.545C126.845 433.024 127.646 436.638 129.115 439.716Z" fill="#B6E6AE"/>
<path d="M204.821 493.648C203.886 489.767 201.884 485.886 200.415 483.878C199.614 482.808 198.412 481.737 195.475 481.737H129.515C128.447 481.737 126.578 481.603 125.777 480.399C124.976 479.328 125.51 477.588 125.91 476.384C127.913 471.432 129.649 468.221 129.649 468.221L127.112 468.488C126.978 468.622 125.91 470.496 123.907 475.715C122.973 478.258 122.973 480.265 123.907 481.737C124.976 483.209 126.845 484.012 129.382 484.012H132.853V485.484C132.853 486.421 133.654 487.09 134.456 487.09H135.657C136.592 487.09 137.259 486.287 137.259 485.484V484.012H180.787V485.484C180.787 486.421 181.588 487.09 182.389 487.09H183.591C184.526 487.09 185.193 486.287 185.193 485.484V484.012H194.807C196.81 484.012 197.477 484.681 197.878 485.35C199.213 487.224 201.082 490.837 201.883 494.317C202.017 495.12 202.017 495.655 201.75 496.056C201.216 496.859 199.614 496.993 199.213 496.993C183.992 497.395 151.012 497.127 133.254 496.993C128.047 496.993 124.041 496.993 122.172 496.993C119.501 496.993 117.498 496.19 116.564 494.852C115.629 493.514 115.629 491.506 116.697 489.097C118.834 483.878 124.976 468.221 124.976 468.221L122.973 467.418C122.973 467.418 116.831 483.075 114.694 488.294C113.092 492.175 113.893 494.718 114.828 496.056C116.163 498.064 118.834 499.134 122.305 499.134C123.507 499.134 125.643 499.134 128.581 499.134V500.606C128.581 501.543 129.382 502.212 130.183 502.212H131.385C132.319 502.212 132.987 501.409 132.987 500.606V499.536C133.12 499.402 133.12 499.268 133.254 499.268C143.401 499.268 158.356 499.402 172.242 499.402C175.98 499.402 179.719 499.402 183.191 499.402V500.74C183.191 501.677 183.992 502.346 184.793 502.346H185.995C186.929 502.346 187.597 501.543 187.597 500.74V499.402C192.003 499.402 195.875 499.268 199.08 499.268C200.148 499.268 202.151 499.001 203.352 497.528C204.954 496.324 205.088 495.12 204.821 493.648Z" fill="#92D069"/>
<path d="M136.592 496.859L140.464 483.209H181.588L183.858 496.859H136.592Z" fill="#B6E6AE"/>
<path d="M125.91 519.209C130.717 519.209 134.589 515.328 134.589 510.51C134.589 505.692 130.717 501.811 125.91 501.811C121.103 501.811 117.231 505.692 117.231 510.51C117.231 515.328 121.103 519.209 125.91 519.209Z" fill="#353535"/>
<path d="M122.572 509.573L125.509 501.677C125.643 501.276 126.044 501.008 126.578 501.008H136.859C137.793 501.008 138.327 502.079 137.66 502.882L128.313 512.919C127.512 513.722 126.311 514.123 125.242 513.722L124.308 513.454C122.706 512.785 121.904 511.045 122.572 509.573Z" fill="#C4C4C4"/>
<path d="M127.913 510.51C127.913 511.58 126.978 512.517 125.91 512.517C124.842 512.517 123.907 511.58 123.907 510.51C123.907 509.439 124.842 508.502 125.91 508.502C127.112 508.502 127.913 509.305 127.913 510.51Z" fill="#353535"/>
<path d="M192.136 519.209C196.943 519.209 200.815 515.328 200.815 510.51C200.815 505.692 196.943 501.811 192.136 501.811C187.33 501.811 183.458 505.692 183.458 510.51C183.458 515.328 187.33 519.209 192.136 519.209Z" fill="#353535"/>
<path d="M195.608 509.573L192.671 501.677C192.537 501.276 192.137 501.008 191.602 501.008H181.321C180.387 501.008 179.853 502.079 180.52 502.882L189.867 512.919C190.668 513.722 191.869 514.123 192.938 513.722L193.872 513.454C195.341 512.785 196.142 511.045 195.608 509.573Z" fill="#C4C4C4"/>
<path d="M190.134 510.51C190.134 511.58 191.068 512.517 192.136 512.517C193.205 512.517 194.139 511.58 194.139 510.51C194.139 509.439 193.205 508.502 192.136 508.502C191.068 508.502 190.134 509.305 190.134 510.51Z" fill="#353535"/>
<path d="M136.325 405.323V420.713L172.776 421.783V403.717L136.325 405.323Z" fill="#BA6345"/>
<path d="M172.776 403.717V421.783L190.267 422.318V406.795L172.776 403.717Z" fill="#D1764F"/>
<path d="M135.257 402.378L173.711 400.772V405.858L135.257 407.464V402.378Z" fill="#E28164"/>
<path d="M173.711 405.858L191.469 408.936V404.118L173.711 400.772V405.858Z" fill="#F48C67"/>
<path d="M77.5755 475.447C78.3767 483.878 85.5868 496.324 88.2572 503.283C89.0583 505.29 92.9304 504.22 92.5299 502.079C91.0611 494.718 89.993 479.864 89.3254 472.235C88.5242 463.269 76.7744 467.284 77.5755 475.447Z" fill="#FFD9AF"/>
<path d="M88.3907 503.283C88.3907 503.283 87.5896 505.558 88.9248 508.77C88.6577 508.904 88.9248 509.975 89.3253 510.108C89.8594 510.376 93.7315 510.242 94.5326 509.707C94.6662 509.439 94.5326 509.038 94.5326 509.038C94.5326 509.038 95.4673 509.439 98.2712 508.904C101.075 508.369 102.544 507.566 103.612 506.897C103.879 506.629 103.746 505.96 103.345 506.094C103.345 506.094 103.078 504.22 101.476 504.22C98.1377 504.488 95.7343 503.149 94.1321 502.079C93.331 501.544 92.3963 501.142 91.9957 501.142C90.6605 501.008 88.9248 501.811 88.3907 503.283Z" fill="#353535"/>
<path d="M87.8567 503.417C87.8567 503.417 88.7913 505.023 90.6606 504.621C92.5299 504.22 92.6634 503.015 92.2629 501.142C91.8623 499.134 85.9874 500.473 87.8567 503.417Z" fill="#E0B182"/>
<path d="M49.8034 414.556C49.8034 414.556 61.9538 436.504 65.9594 445.47C69.9651 454.437 75.0389 476.652 75.0389 476.652C75.0389 476.652 85.0529 478.793 90.2602 474.109C90.2602 474.109 88.5245 450.69 85.7205 440.251C82.9166 429.679 71.9679 403.984 71.9679 403.984C67.8287 394.616 45.3973 405.322 49.8034 414.556Z" fill="#4F5D94"/>
<path d="M59.8174 431.82C59.9509 431.686 60.752 427.805 63.2889 423.523C65.4253 419.776 70.6326 416.831 71.1666 417.233C72.1013 418.036 64.3571 423.79 62.8884 427.939C62.8884 427.939 71.5672 421.649 72.1013 422.452C72.6354 423.255 63.1554 428.474 59.8174 431.82Z" fill="#3C4567"/>
<path d="M58.4821 360.491C60.4849 369.725 63.5559 382.17 70.499 388.193C77.442 394.215 92.2628 397.56 93.064 397.56C94.6662 397.962 96.5355 389.129 95.2003 388.193C93.8651 387.122 82.1153 382.438 80.1125 380.431C76.3739 376.817 77.9761 354.87 73.7035 350.052C69.4308 345.234 56.2122 349.651 58.4821 360.491Z" fill="#738693"/>
<path d="M96.0015 389.665C96.0015 389.665 101.209 394.081 101.609 395.152C102.01 396.222 101.743 398.23 101.342 398.765C100.942 399.3 97.7373 400.906 96.5356 399.969C95.3339 399.166 93.5981 397.159 93.5981 397.159L94.1322 395.018C94.1322 395.018 93.7316 396.49 90.5271 394.482C87.4562 392.743 93.064 386.721 96.0015 389.665Z" fill="#E0B182"/>
<path d="M23.0991 469.158C16.8237 474.912 11.0823 488.027 7.07664 494.317C5.87495 496.19 9.07945 498.599 10.5482 496.993C15.622 491.373 26.8377 481.737 32.5791 476.786C39.3887 470.763 29.1076 463.671 23.0991 469.158Z" fill="#FFD9AF"/>
<path d="M7.7443 493.647C7.7443 493.647 5.34092 494.183 3.47163 497.127C3.20459 496.993 2.40347 497.662 2.53699 498.198C2.67051 498.733 4.80684 502.078 5.74148 502.346C6.14205 502.346 6.27557 501.945 6.27557 501.945C6.27557 501.945 6.54261 503.015 8.4119 505.023C10.4147 507.03 11.8834 507.833 13.0851 508.368C13.4857 508.502 13.8863 507.967 13.6192 507.699C13.6192 507.699 15.0879 506.495 14.1533 505.157C12.1505 502.48 12.017 499.803 11.8834 497.796C11.8834 496.859 11.7499 495.922 11.4829 495.387C10.9488 494.317 9.34654 493.38 7.7443 493.647Z" fill="#353535"/>
<path d="M7.3437 493.38C7.3437 493.38 6.54257 494.986 7.87778 496.324C9.21299 497.663 10.2812 497.261 11.7499 495.789C13.2186 494.317 8.81243 490.034 7.3437 493.38Z" fill="#E0B182"/>
<path d="M36.8517 406.393C36.8517 406.393 38.5875 438.645 34.9824 447.076C31.3773 455.507 22.0309 469.291 22.0309 469.291C22.0309 469.291 24.5678 477.321 34.0477 478.391C34.0477 478.391 48.3345 468.221 53.9423 452.964C59.5502 437.574 64.2234 420.712 61.9536 408.267C60.8854 401.174 38.721 396.088 36.8517 406.393Z" fill="#4F5D94"/>
<path d="M41.1245 406.125C41.1245 406.125 41.3915 432.891 40.0563 443.329C38.8546 453.366 23.3662 471.968 23.3662 471.968" stroke="white" stroke-width="0.4986" stroke-miterlimit="10"/>
<path d="M72.9024 350.722C75.4393 355.673 70.8995 374.409 70.8995 382.572C70.8995 389.263 71.9677 400.371 73.0359 404.52C73.3029 405.59 72.7688 406.795 71.8342 407.33C67.9621 409.605 62.8883 410.809 59.8173 411.077C47.6669 412.281 41.9255 410.14 39.1216 409.07C37.6529 408.534 36.7182 406.928 36.9853 405.456C37.6529 401.308 39.2551 391.405 37.7864 382.171C35.9171 370.126 32.7126 353.666 38.3205 348.714C43.9284 343.629 54.4765 340.551 54.4765 340.551C54.4765 340.551 69.8314 344.699 72.9024 350.722Z" fill="white"/>
<path d="M57.1469 335.332C57.1469 335.332 54.4765 334.93 50.7379 330.246C48.3346 327.168 44.863 313.518 55.6782 311.377C66.4934 309.235 69.5644 316.596 70.0985 321.414C70.6325 326.231 65.2917 330.112 62.8883 331.852C60.3514 333.458 57.1469 335.332 57.1469 335.332Z" fill="#353535"/>
<path d="M54.4765 329.845C54.4765 329.845 54.2095 333.993 52.8742 337.205C51.6726 340.417 50.3374 341.487 48.7351 342.826C47.1329 344.164 54.8771 352.461 61.8201 354.469C61.8201 354.469 66.7604 348.313 64.4906 344.967C62.2207 341.621 60.3514 341.22 61.1525 336.67C61.8201 332.655 62.3542 330.514 62.3542 330.514L54.4765 329.845Z" fill="#FFD9AF"/>
<path d="M54.4765 329.844C54.4765 329.844 54.0759 332.922 55.4111 334.261C56.6128 335.599 58.8827 338.811 63.9565 338.409C70.766 337.874 68.0956 327.168 68.0956 327.168C68.0956 327.168 68.7632 323.019 68.0956 319.674C67.428 316.328 60.752 314.454 55.2776 316.194C55.2776 316.194 53.6754 317.666 54.343 324.357C54.343 324.357 53.2748 323.153 51.8061 323.956C50.6044 324.625 50.4709 326.097 50.8714 327.569C51.1385 329.309 53.0078 330.781 54.4765 329.844Z" fill="#FFD9AF"/>
<path opacity="0.36" d="M53.9425 329.176L53.4084 327.57L54.4766 327.168C54.4766 327.168 53.8089 324.224 52.2067 325.295C50.738 326.231 52.2067 329.845 53.9425 329.176Z" fill="#7D634B"/>
<path d="M54.6101 326.767C54.6101 326.767 53.9425 330.915 54.076 332.789C54.2095 334.662 55.9453 340.417 64.4906 339.881C72.9024 339.346 69.8315 330.246 68.4962 329.577C68.4962 330.246 68.2292 331.183 67.6951 331.584C67.2946 330.781 66.3599 330.112 65.0247 330.38C63.823 329.711 62.4878 330.112 61.0191 331.049L59.9509 331.718C57.2805 331.049 55.9453 329.309 55.6783 326.767H54.6101Z" fill="#353535"/>
<path d="M61.9536 332.12C61.9536 332.12 66.3598 332.12 66.4933 332.387C66.6268 332.655 65.9592 333.324 64.2235 333.324C62.4877 333.324 61.9536 332.12 61.9536 332.12Z" fill="white"/>
<path d="M61.6866 331.986C61.9537 331.852 61.9537 331.986 61.9537 331.852H62.0872H62.3542H63.0219H64.2235C64.6241 331.852 65.0247 331.852 65.4252 331.986C65.6923 331.986 65.8258 331.986 66.0928 332.12H66.2263C66.3599 332.12 66.3599 332.253 66.3599 332.387C66.3599 332.521 66.2263 332.655 66.2263 332.655C65.5587 333.19 64.6241 333.323 63.823 333.323C63.4224 333.323 63.0218 333.19 62.6213 333.056C62.4878 332.922 62.2207 332.788 62.0872 332.655C61.9537 332.521 61.9537 332.521 61.8202 332.387L61.6866 332.253V332.12C61.6866 332.253 61.6866 331.986 61.6866 331.986ZM62.0872 332.12C62.0872 332.12 62.0872 331.852 62.0872 331.986V332.12C62.2207 332.253 62.3542 332.253 62.3542 332.387C62.4878 332.521 62.6213 332.655 62.7548 332.788C63.1554 332.922 63.4224 333.056 63.823 333.056C64.6241 333.056 65.5587 333.056 66.0928 332.521C66.0928 332.521 66.2263 332.387 66.2263 332.253H66.0928C65.9593 332.253 65.6923 332.253 65.4252 332.12C65.0247 332.12 64.6241 332.12 64.2235 332.12H63.0219H62.3542H62.0872C61.8202 332.253 62.0872 332.253 62.0872 332.12Z" fill="#CD7D58"/>
<path d="M62.4878 326.499C62.4878 326.9 61.9537 326.9 61.4196 326.9C60.8855 326.9 60.3514 326.766 60.3514 326.365C60.3514 325.963 60.8855 325.696 61.5531 325.83C62.0872 325.83 62.4878 326.231 62.4878 326.499Z" fill="#353535"/>
<path d="M58.4822 324.758C58.4822 324.758 60.2179 324.223 60.752 324.223C61.2861 324.223 63.4224 324.625 63.556 324.357C63.6895 324.089 63.823 323.421 63.823 323.421C63.823 323.421 61.0191 323.153 60.485 323.287C59.9509 323.554 58.6157 324.357 58.4822 324.758Z" fill="#353535"/>
<path d="M67.9621 327.034C67.9621 327.435 67.4281 327.435 66.894 327.435C66.3599 327.435 65.8258 327.302 65.8258 326.9C65.8258 326.499 66.3599 326.231 67.0275 326.365C67.5616 326.365 67.9621 326.633 67.9621 327.034Z" fill="#353535"/>
<path d="M68.7632 325.695C68.7632 325.695 67.962 324.759 67.695 324.759C67.2944 324.625 65.5587 324.893 65.4251 324.625C65.2916 324.357 65.2916 323.689 65.2916 323.689C65.2916 323.689 67.695 323.822 68.0956 324.09C68.4961 324.224 68.7632 325.16 68.7632 325.695Z" fill="#353535"/>
<path opacity="0.36" d="M64.8911 330.246C64.8911 330.246 63.5559 330.246 63.5559 329.844C63.5559 329.443 66.4934 329.042 66.6269 329.309C66.7604 329.577 65.5587 330.112 64.8911 330.246Z" fill="#7D634B"/>
<path opacity="0.36" d="M65.1582 324.492C65.1582 324.492 64.7577 326.231 65.0247 326.901C65.2917 327.57 66.4934 328.908 66.4934 329.176C66.4934 329.443 65.0247 330.246 64.8912 330.246C64.7576 330.246 67.0275 329.979 66.894 329.309C66.894 328.64 65.1582 326.901 65.1582 326.633C65.1582 326.231 65.1582 324.492 65.1582 324.492Z" fill="#7D634B"/>
<path d="M55.2776 327.302C55.6781 327.034 56.4793 324.491 55.6781 322.082C55.0105 319.941 56.7463 318.335 57.948 318.202C59.2832 318.068 63.8229 319.272 65.5587 319.138C69.4308 318.603 72.3682 317.532 72.3682 316.863C72.3682 316.194 69.5643 316.863 69.5643 316.863C69.5643 316.863 73.837 315.793 73.4364 312.179C73.4364 312.179 70.2319 312.447 67.2944 311.376C64.357 310.44 57.4139 309.235 53.8088 311.912C51.4055 313.651 49.6697 319.54 52.8742 322.484C54.3429 323.956 54.4764 327.837 55.2776 327.302Z" fill="#353535"/>
<path d="M65.2917 350.855C65.2917 350.855 63.4224 387.524 63.823 391.003C64.2236 394.483 63.556 407.731 71.9678 410.274C71.9678 410.274 68.2292 391.137 68.7633 379.628C69.2973 368.119 65.2917 350.855 65.2917 350.855Z" fill="#C8D6EB"/>
<path d="M62.6213 342.558C62.6213 342.558 66.2264 354.067 65.9594 369.056C65.8258 384.044 65.1582 414.69 76.2405 414.021C76.2405 414.021 71.5672 395.152 71.8343 388.327C72.1013 381.502 75.8399 356.208 74.5047 351.926C72.5019 345.636 62.6213 342.558 62.6213 342.558Z" fill="#87A1B2"/>
<path d="M49.937 342.023C49.937 342.023 57.4141 353.666 59.8175 373.472C61.0192 382.973 59.684 397.828 58.2153 407.464C56.613 418.437 35.1162 418.437 33.6474 415.627C32.3122 412.683 38.4542 394.483 36.4514 384.044C34.5821 373.606 33.3804 356.744 35.6502 351.123C38.0536 345.502 49.937 342.023 49.937 342.023Z" fill="#87A1B2"/>
<path d="M39.1217 361.829C39.1217 361.829 42.7267 379.494 42.3262 388.862C41.9256 398.23 38.8546 417.099 38.8546 417.099" stroke="white" stroke-width="0.4986" stroke-miterlimit="10" stroke-linecap="round" stroke-linejoin="round"/>
<path d="M36.5848 352.461C36.1842 353.532 35.7837 355.138 35.6501 357.145C37.653 372.535 46.3318 389.799 59.5504 396.089C59.9509 391.137 60.218 385.784 60.218 381.1C51.2721 372.268 44.4625 360.625 39.2552 349.25C38.0535 350.186 37.1189 351.257 36.5848 352.461Z" fill="#738693"/>
<path d="M88.6579 392.743C88.6579 392.743 95.3339 394.348 96.135 395.285C96.9361 396.222 98.2713 399.3 98.1378 399.969C98.0043 400.638 94.5328 401.977 93.064 401.843C91.5953 401.575 89.9931 400.772 89.9931 400.772C90.2601 399.969 90.1266 399.3 89.3255 399.032C88.5243 398.765 87.5897 399.166 85.9874 399.969C82.5159 401.441 84.6522 391.404 88.6579 392.743Z" fill="#FFD9AF"/>
<path d="M35.5166 360.624C37.2524 370.528 49.9369 385.248 55.2777 389.932C59.9509 393.947 83.4506 400.906 84.3852 401.04C86.7886 401.575 89.8596 392.876 87.9903 391.806C86.121 390.735 65.2917 381.1 63.0219 378.557C60.752 376.014 52.4737 353.665 46.5988 348.58C40.8574 343.361 33.5138 349.517 35.5166 360.624Z" fill="#87A1B2"/>
</svg>
