<svg width="431" height="417" viewBox="0 0 431 417" fill="none" xmlns="http://www.w3.org/2000/svg">
<path d="M430.9 167.732C430.9 181.09 429.3 194.448 426.3 206.81C426.1 207.707 425.9 208.604 425.6 209.502C407.2 281.777 342.2 335.21 264.9 335.21C187.6 335.21 122.7 281.777 104.3 209.502C104.1 208.604 103.8 207.707 103.6 206.81C100.6 194.349 99 181.09 99 167.732C99 165.638 99 163.644 99.1 161.65C102.3 71.9296 175.3 0.252563 264.8 0.252563C356.6 0.252563 430.9 75.2193 430.9 167.732Z" fill="#F4F4F4"/>
<path d="M67.6999 231.234C36.8999 218.573 27.4999 249.976 38.4999 275.098C48.9999 298.824 102.4 374.987 109.4 411.872L119.2 408.782C128.2 355.846 107.2 247.483 67.6999 231.234Z" fill="#B8E8AC"/>
<path d="M115.6 409.878C115.2 331.024 52.9999 241.402 52.7999 241.103C52.3999 240.505 51.4999 240.405 50.7999 240.804C50.0999 241.203 49.8999 241.901 50.1999 242.499C50.3999 242.798 112.7 332.519 112.7 410.775L115.6 409.878Z" fill="white"/>
<path d="M23 294.736C-6.10004 291.646 -4.50004 317.964 12.1 334.911C25.8 348.968 78.4 386.75 102.6 414.065L115.5 409.978C102.1 365.915 57.3 298.425 23 294.736Z" fill="#738693"/>
<path d="M110.7 411.374C82.6999 354.949 13.8999 305.702 13.5999 305.503C13.0999 305.204 12.3999 305.204 11.8999 305.702C11.3999 306.101 11.4999 306.799 11.8999 307.098C12.0999 307.297 80.4999 356.145 108.3 412.071L110.7 411.374Z" fill="white"/>
<path d="M245.4 41.2251H88.7C74.3 41.2251 62.6 52.9885 62.6 67.2442V390.638C62.6 404.993 74.4 416.657 88.7 416.657H245.5C259.9 416.657 271.6 404.894 271.6 390.638V67.2442C271.6 52.9885 259.8 41.2251 245.4 41.2251Z" fill="#2D2D2D"/>
<path d="M254 41.2251H97.3C82.9 41.2251 71.2 52.9885 71.2 67.2442V390.638C71.2 404.993 83 416.657 97.3 416.657H254.1C268.5 416.657 280.2 404.894 280.2 390.638V67.2442C280.2 52.9885 268.4 41.2251 254 41.2251Z" fill="#444444"/>
<path d="M254 45.4121C266.1 45.4121 276 55.2814 276 67.3438V390.738C276 402.8 266.1 412.669 254 412.669H97.2999C85.1999 412.669 75.2999 402.8 75.2999 390.738V67.2441C75.2999 55.1817 85.1999 45.3124 97.2999 45.3124L254 45.4121Z" fill="#444444"/>
<path d="M254 53.6864C261.5 53.6864 267.7 59.8671 267.7 67.3439V390.738C267.7 398.215 261.5 404.395 254 404.395H97.3C89.8 404.395 83.6 398.215 83.6 390.738V67.2442C83.6 59.7674 89.8 53.5867 97.3 53.5867L254 53.6864Z" fill="white"/>
<path d="M175.7 66.0479H222.5C225.8 66.0479 228.5 63.3562 228.5 60.0665V57.7736C229.3 55.3811 231.6 53.5866 234.2 53.5866L228.5 51.4931V49.3997H175.6H122.7V51.5928L117 53.6863C119.7 53.6863 121.9 55.3811 122.7 57.8733V60.1662C122.7 63.4559 125.4 66.1476 128.7 66.1476H175.7V66.0479Z" fill="#444444"/>
<path d="M187.5 57.8733C188.4 57.8733 189.1 57.1754 189.1 56.2782C189.1 55.381 188.4 54.6832 187.5 54.6832H157C156.1 54.6832 155.4 55.381 155.4 56.2782C155.4 57.1754 156.1 57.8733 157 57.8733H187.5ZM193 54.5835C192.1 54.5835 191.4 55.2813 191.4 56.1785C191.4 57.0757 192.1 57.7736 193 57.7736H194.4C195.3 57.7736 196 57.0757 196 56.1785C196 55.2813 195.3 54.5835 194.4 54.5835H193Z" fill="#2D2D2D"/>
<path d="M103.1 381.068H114.1C114.6 381.068 115.1 381.267 115.5 381.666C115.9 382.065 116.1 382.464 116.1 383.062V394.227C116.1 394.526 116.1 394.725 115.7 394.825C115.1 395.124 115.1 394.825 114.9 394.526C114.7 394.227 114.1 393.13 113.1 392.433C112.6 392.034 112 391.735 111.3 391.735H110.4V392.433C110.4 392.831 110.2 393.23 109.9 393.529C109.6 393.828 109.2 394.028 108.8 394.028H102.8C102.3 394.028 101.9 394.227 101.5 394.526C100.8 395.024 100.4 395.722 100.2 396.021V396.121C100 396.52 99.9 396.62 99.4 396.42C99 396.221 99 396.121 99 395.822C98.9 393.13 99 390.239 99 387.548C99 387.149 99.2 386.75 99.5 386.451C99.8 386.152 100.2 385.953 100.6 385.953H101.2V383.161C101.2 382.663 101.4 382.164 101.8 381.766C102.1 381.267 102.6 381.068 103.1 381.068ZM112.6 387.947H113.3C113.5 387.947 113.7 387.747 113.7 387.548C113.7 387.348 113.5 387.149 113.3 387.149H112.6C112.4 387.149 112.2 387.348 112.2 387.548C112.2 387.847 112.3 387.947 112.6 387.947ZM111.1 387.249H105C104.8 387.249 104.6 387.448 104.6 387.647C104.6 387.847 104.8 388.046 105 388.046H111.1C111.3 388.046 111.5 387.847 111.5 387.647C111.5 387.448 111.3 387.249 111.1 387.249ZM104.7 384.358H104C103.8 384.358 103.6 384.557 103.6 384.756C103.6 384.956 103.8 385.155 104 385.155H104.7C104.9 385.155 105.1 384.956 105.1 384.756C105 384.557 104.9 384.358 104.7 384.358ZM106.1 385.055H113.2C113.4 385.055 113.6 384.856 113.6 384.657C113.6 384.457 113.4 384.258 113.2 384.258H106.1C105.9 384.258 105.7 384.457 105.7 384.657C105.7 384.956 105.9 385.055 106.1 385.055ZM109.1 391.735H103.1C102.6 391.735 102.1 391.535 101.7 391.137C101.3 390.738 101.1 390.339 101.1 389.741V386.95H100.5C100.4 386.95 100.3 386.95 100.2 387.049C100.1 387.149 100.1 387.249 100.1 387.348V393.928C100.3 393.729 100.4 393.629 100.6 393.529C101.2 393.13 101.8 392.831 102.6 392.831H108.6C108.7 392.831 108.8 392.831 108.9 392.732C109 392.632 109 392.532 109 392.433L109.1 391.735ZM114.1 382.264H103.1C102.9 382.264 102.7 382.364 102.6 382.464C102.5 382.563 102.4 382.763 102.4 382.962V386.351V389.741C102.4 389.94 102.5 390.14 102.6 390.239C102.7 390.339 102.9 390.439 103.1 390.439H109.7H111.2C112.2 390.439 113.1 390.838 113.8 391.336C114.2 391.635 114.5 391.934 114.8 392.233V382.862C114.8 382.663 114.7 382.464 114.6 382.364C114.5 382.364 114.3 382.264 114.1 382.264Z" fill="#444444"/>
<path d="M153.7 375.485C154.9 375.485 156.1 375.984 156.9 376.781C157.7 377.579 158.2 378.775 158.2 379.971C158.2 381.267 157.7 382.364 156.9 383.161C156.1 383.959 155 384.457 153.7 384.457C152.5 384.457 151.3 383.959 150.5 383.161C149.7 382.364 149.2 381.168 149.2 379.971C149.2 378.775 149.7 377.579 150.5 376.781C151.4 376.083 152.5 375.485 153.7 375.485ZM158.8 391.735V391.336C158.8 389.94 158.2 388.744 157.4 387.847C156.5 386.95 155.2 386.351 153.8 386.351C152.4 386.351 151.2 386.95 150.2 387.847C149.3 388.744 148.7 390.04 148.7 391.436V391.834V395.024C148.7 395.124 148.7 395.124 148.8 395.224C148.8 395.224 148.9 395.324 149 395.324H158.5C158.6 395.324 158.6 395.323 158.7 395.224C158.7 395.224 158.8 395.124 158.8 395.024V391.735ZM160 391.635V394.825C160 395.224 159.8 395.623 159.6 395.922C159.3 396.221 159 396.32 158.5 396.32H149C148.6 396.32 148.2 396.121 147.9 395.922C147.6 395.623 147.5 395.224 147.5 394.825V391.635V391.236C147.5 389.541 148.2 387.946 149.3 386.85C150.4 385.753 152 385.055 153.7 385.055C155.4 385.055 157 385.753 158.1 386.85C159.2 387.946 159.9 389.541 159.9 391.236V391.635H160ZM156.1 377.778C155.5 377.18 154.7 376.781 153.8 376.781C152.9 376.781 152.1 377.18 151.5 377.778C150.9 378.376 150.5 379.174 150.5 380.071C150.5 380.968 150.9 381.766 151.5 382.364C152.1 382.962 152.9 383.361 153.8 383.361C154.7 383.361 155.5 382.962 156.1 382.464C156.7 381.865 157.1 381.068 157.1 380.171C157 379.174 156.6 378.277 156.1 377.778Z" fill="#444444"/>
<path d="M202.1 381.666C202.5 381.766 202.9 381.965 203.2 382.164C203.6 382.364 203.9 382.663 204.2 382.862L205.5 382.164H205.6C205.8 382.065 206.1 382.065 206.3 382.065C206.5 382.164 206.7 382.264 206.9 382.463L208.1 384.457C208.2 384.657 208.3 384.956 208.2 385.155C208.1 385.354 208 385.554 207.8 385.753L206.5 386.451C206.5 386.551 206.5 386.65 206.6 386.85C206.6 387.149 206.7 387.448 206.7 387.747C206.7 388.046 206.7 388.345 206.6 388.644C206.6 388.744 206.6 388.943 206.5 389.043L207.8 389.741C208 389.841 208.2 390.04 208.2 390.339C208.3 390.538 208.2 390.837 208.1 391.037L206.9 393.031C206.8 393.23 206.6 393.429 206.3 393.429C206.1 393.529 205.8 393.429 205.6 393.33L204.3 392.632C204 392.931 203.6 393.13 203.3 393.33C202.9 393.529 202.6 393.728 202.2 393.828V395.323C202.2 395.623 202.1 395.822 201.9 396.021C201.7 396.221 201.5 396.32 201.2 396.32H198.9C198.6 396.32 198.4 396.221 198.2 396.021L198.1 395.922C198 395.722 197.9 395.523 197.9 395.323V393.828C197.5 393.728 197.1 393.529 196.8 393.33C196.4 393.13 196.1 392.831 195.8 392.632L194.5 393.33H194.4C194.2 393.429 193.9 393.429 193.7 393.429C193.5 393.33 193.3 393.23 193.1 393.031L191.9 391.037C191.8 390.837 191.7 390.538 191.8 390.339C191.9 390.14 192 389.94 192.2 389.741L193.5 389.043C193.5 388.943 193.5 388.744 193.4 388.644C193.4 388.345 193.3 388.046 193.3 387.747C193.3 387.448 193.3 387.149 193.4 386.85C193.4 386.75 193.4 386.551 193.5 386.451L192.2 385.753C192 385.654 191.8 385.454 191.8 385.155C191.7 384.956 191.8 384.657 191.9 384.457L193.1 382.463C193.2 382.264 193.4 382.065 193.7 382.065C193.9 381.965 194.2 382.065 194.4 382.164L195.7 382.862C196 382.563 196.4 382.364 196.7 382.164C197.1 381.965 197.4 381.766 197.8 381.666V380.171C197.8 379.872 197.9 379.672 198.1 379.473C198.3 379.273 198.5 379.174 198.8 379.174H201.1C201.4 379.174 201.6 379.273 201.8 379.473L201.9 379.572C202 379.772 202.1 379.971 202.1 380.171V381.666ZM202.6 383.261C202.2 383.062 201.8 382.862 201.4 382.763C201.1 382.663 200.9 382.463 200.9 382.164V380.47H199.1V382.164C199.1 382.463 198.9 382.663 198.6 382.763C198.1 382.862 197.7 383.062 197.3 383.261C196.9 383.46 196.5 383.759 196.2 384.059C196 384.258 195.7 384.358 195.4 384.158L194 383.361L193.1 384.856L194.5 385.654C194.8 385.753 194.9 386.052 194.8 386.351C194.7 386.551 194.7 386.85 194.7 387.049C194.7 387.249 194.7 387.548 194.7 387.747C194.7 387.946 194.7 388.246 194.7 388.445C194.7 388.644 194.8 388.943 194.8 389.143C194.9 389.442 194.8 389.741 194.5 389.841L193.1 390.638L194 392.133L195.4 391.336C195.6 391.236 195.9 391.236 196.2 391.436C196.5 391.735 196.9 392.034 197.3 392.333C197.7 392.532 198.1 392.732 198.5 392.831C198.8 392.931 199 393.13 199 393.429V395.124H200.8V393.529C200.8 393.23 201 393.031 201.3 392.931C201.8 392.831 202.2 392.632 202.6 392.432C203 392.233 203.4 391.934 203.7 391.635C203.9 391.436 204.2 391.336 204.5 391.535L205.9 392.333L206.8 390.837L205.4 390.04C205.1 389.94 205 389.641 205.1 389.342C205.2 389.143 205.2 388.844 205.2 388.644C205.2 388.445 205.2 388.146 205.2 387.946C205.2 387.747 205.2 387.448 205.2 387.249C205.2 387.049 205.1 386.75 205.1 386.551C205 386.252 205.1 385.953 205.4 385.853L206.8 385.055L205.9 383.56L204.5 384.358C204.3 384.457 204 384.457 203.7 384.258C203.4 383.759 203 383.46 202.6 383.261ZM200 384.457C199.1 384.457 198.3 384.856 197.7 385.354C197.1 385.953 196.7 386.75 196.7 387.747C196.7 388.644 197.1 389.442 197.7 390.14C198.3 390.738 199.1 391.136 200.1 391.136C201 391.136 201.9 390.738 202.5 390.14C203.1 389.541 203.5 388.744 203.5 387.747C203.5 386.85 203.1 385.953 202.5 385.354C201.7 384.856 200.9 384.457 200 384.457ZM201.5 386.351C201.1 385.953 200.6 385.753 200 385.753C199.4 385.753 198.9 385.953 198.6 386.351C198.2 386.75 198 387.249 198 387.847C198 388.445 198.2 388.943 198.6 389.342C199 389.741 199.5 389.94 200.1 389.94C200.7 389.94 201.2 389.741 201.6 389.342C202 388.943 202.2 388.445 202.2 387.847C202.1 387.249 201.8 386.75 201.5 386.351Z" fill="#444444"/>
<path d="M250.8 385.753C251.9 386.85 252.4 388.245 252.4 389.641C252.4 391.037 251.9 392.432 250.8 393.529C249.7 394.626 248.3 395.124 246.9 395.124C245.7 395.124 244.5 394.725 243.5 393.928L241.2 396.221C241 396.42 240.6 396.42 240.3 396.221C240.1 396.021 240.1 395.623 240.3 395.324L242.6 393.031C241.8 392.034 241.4 390.837 241.4 389.641C241.4 388.245 241.9 386.85 243 385.753C244.1 384.657 245.5 384.158 246.9 384.158C248.3 384.158 249.7 384.657 250.8 385.753ZM243.8 392.632C244.7 393.429 245.7 393.928 246.8 393.928C247.9 393.928 249 393.529 249.8 392.732C250.6 391.934 251.1 390.837 251.1 389.741C251.1 388.644 250.7 387.548 249.9 386.75C249.1 385.953 248 385.554 246.9 385.554C245.8 385.554 244.7 385.953 243.9 386.75C243.1 387.548 242.6 388.644 242.6 389.741C242.6 390.738 243 391.735 243.8 392.632Z" fill="#444444"/>
<path d="M115.6 384.657C117.4 384.657 118.9 383.161 118.9 381.367C118.9 379.573 117.4 378.077 115.6 378.077C113.8 378.077 112.3 379.573 112.3 381.367C112.3 383.161 113.7 384.657 115.6 384.657Z" fill="#D1764F"/>
<path d="M116.3 382.962V379.573H115.8C115.7 379.772 115.6 379.872 115.4 380.071C115.2 380.171 115.1 380.27 114.9 380.37V381.068C115.2 380.968 115.5 380.769 115.7 380.569V382.962H116.3Z" fill="white"/>
<path d="M255.4 60.5649C255.7 60.5649 256 60.3655 256 59.9668C256 59.6677 255.8 59.3687 255.4 59.3687H243.3C243 59.3687 242.7 59.568 242.7 59.9668C242.7 60.2659 242.9 60.5649 243.3 60.5649H255.4ZM255.4 68.5401C255.7 68.5401 256 68.3407 256 67.942C256 67.6429 255.8 67.3438 255.4 67.3438H243.3C243 67.3438 242.7 67.5432 242.7 67.942C242.7 68.241 242.9 68.5401 243.3 68.5401H255.4ZM255.4 64.5525C255.7 64.5525 256 64.3531 256 63.9544C256 63.6553 255.8 63.3562 255.4 63.3562H243.3C243 63.3562 242.7 63.5556 242.7 63.9544C242.7 64.2535 242.9 64.5525 243.3 64.5525H255.4Z" fill="#444444"/>
<path d="M110.4 61.1631H103.3V66.8454H110.4C110.6 66.8454 110.7 66.7458 110.8 66.6461C110.9 66.5464 111 66.4467 111 66.2473V61.6616C111 61.4622 110.9 61.3625 110.8 61.2628C110.7 61.2628 110.6 61.1631 110.4 61.1631ZM97.1 60.0665H110.4C110.9 60.0665 111.3 60.2659 111.6 60.565C111.9 60.864 112.1 61.2628 112.1 61.7613V66.347C112.1 66.8454 111.9 67.2442 111.6 67.5433C111.3 67.8423 110.9 68.0417 110.4 68.0417H97.1C96.7 68.0417 96.3 67.8423 96 67.5433C95.7 67.2442 95.5 66.8454 95.5 66.347V61.7613C95.5 61.2628 95.7 60.864 96 60.565C96.2 60.2659 96.6 60.0665 97.1 60.0665Z" fill="#444444"/>
<path d="M110.9 348.669C110.9 355.547 116.6 361.229 123.5 361.229H267.8V365.616V368.507H115.8C108.9 368.507 103.2 362.825 103.2 355.946V119.282V110.908C103.2 105.425 106.8 100.74 111.8 99.0452C111.2 100.441 110.9 102.036 110.9 103.731V117.687V138.622V348.669Z" fill="#F2F2F2"/>
<path d="M323.3 91.1697H123.5C116.6 91.1697 110.9 96.852 110.9 103.731V348.768C110.9 355.647 116.6 361.329 123.5 361.329H323.3C330.2 361.329 335.9 355.647 335.9 348.768V103.631C335.9 96.7523 330.2 91.1697 323.3 91.1697Z" fill="white"/>
<path d="M323.3 91.1697H123.5C116.6 91.1697 110.9 96.852 110.9 103.731V138.622H335.9V103.731C335.9 96.7523 330.2 91.1697 323.3 91.1697Z" fill="#87A1B2"/>
<path d="M319.1 152.579H127.7C126.1 152.579 124.7 153.875 124.7 155.569V287.559C124.7 289.154 126 290.549 127.7 290.549H319.1C320.7 290.549 322.1 289.253 322.1 287.559V155.569C322.1 153.875 320.7 152.579 319.1 152.579Z" fill="#F9E7D8"/>
<path d="M295.2 348.768C304.5 348.768 312.2 341.192 312.2 331.821C312.2 322.45 304.6 314.874 295.2 314.874C285.9 314.874 278.2 322.45 278.2 331.821C278.2 341.192 285.8 348.768 295.2 348.768Z" fill="#93ACBA"/>
<path d="M295.2 320.058C297 320.058 298.7 320.755 299.9 321.952C301.1 323.148 301.8 324.743 301.8 326.637C301.8 328.432 301.1 330.126 299.9 331.323H299.8C298.6 332.519 297 333.217 295.2 333.217C293.4 333.217 291.7 332.519 290.5 331.323C289.3 330.126 288.6 328.531 288.6 326.637C288.6 324.843 289.3 323.148 290.5 321.952C291.7 320.855 293.4 320.058 295.2 320.058ZM286 343.584C288.5 345.578 291.7 346.675 295.2 346.675C298.7 346.675 301.8 345.479 304.4 343.584V342.986C304.4 340.494 303.4 338.201 301.8 336.606V336.506C300.1 334.812 297.8 333.815 295.3 333.815C292.8 333.815 290.5 334.812 288.8 336.506C287.1 338.201 286.1 340.494 286.1 342.986L286 343.584Z" fill="white"/>
<path d="M266.9 316.07H135.8C135.1 316.07 134.6 316.569 134.6 317.266V318.662C134.6 319.36 135.1 319.858 135.8 319.858H266.9C267.6 319.858 268.1 319.36 268.1 318.662V317.266C268.1 316.569 267.6 316.07 266.9 316.07Z" fill="#93ACBA"/>
<path d="M266.9 328.432H181C180.3 328.432 179.8 328.93 179.8 329.628V331.024C179.8 331.721 180.3 332.22 181 332.22H266.9C267.6 332.22 268.1 331.721 268.1 331.024V329.628C268.1 328.93 267.6 328.432 266.9 328.432Z" fill="#93ACBA"/>
<path d="M170.2 328.432H159.5C158.8 328.432 158.3 328.93 158.3 329.628V331.024C158.3 331.721 158.8 332.22 159.5 332.22H170.2C170.9 332.22 171.4 331.721 171.4 331.024V329.628C171.4 328.93 170.8 328.432 170.2 328.432Z" fill="#93ACBA"/>
<path d="M200.8 341.292H245.4C246.1 341.292 246.6 341.79 246.6 342.488V343.883C246.6 344.581 246.1 345.08 245.4 345.08H200.8C200.1 345.08 199.6 344.581 199.6 343.883V342.488C199.6 341.89 200.1 341.292 200.8 341.292Z" fill="#93ACBA"/>
<path d="M256.2 341.292H266.9C267.6 341.292 268.1 341.79 268.1 342.488V343.883C268.1 344.581 267.6 345.08 266.9 345.08H256.2C255.5 345.08 255 344.581 255 343.883V342.488C255 341.89 255.5 341.292 256.2 341.292Z" fill="#93ACBA"/>
<path d="M270.4 152.579V290.45H264.8V248.879L243.5 270.113L263.9 290.45H258.6L240.9 272.705L223.1 290.45H217.8L238.2 270.113L216.9 248.879V290.45H211.3V152.579H216.9V184.778L238.2 163.544L227.2 152.579H232.5L240.9 160.953L249.3 152.579H254.6L243.6 163.544L264.9 184.778V152.579H270.4ZM217 238.013L238.3 216.779L217 195.545V238.013ZM264.8 195.645L243.5 216.879L264.8 238.112V195.645ZM217 190.062V190.361L240.9 214.187L264.8 190.361V190.062L240.9 166.236L217 190.062ZM217 243.296V243.595L240.9 267.421L264.8 243.595V243.296L240.9 219.47L217 243.296Z" fill="#F1C8B3"/>
<path d="M234 243.396L239.2 241.701C239.2 241.701 274.4 255.06 278.5 258.25C282.6 261.44 283.5 262.437 287.8 268.518C291.3 273.602 298.8 287.559 301.2 292.144H137.3H131.8C150 272.705 168.7 242.599 197 242C206 241.801 215.3 242.1 215.3 242.1L234 243.396Z" fill="#92D069"/>
<path d="M269.9 292.144H263.5C266.2 284.867 267.7 272.406 267.7 282.076C267.7 286.861 268.7 290.051 269.9 292.144ZM176.2 292.144H143.4C142.5 284.568 143.9 277.191 153.8 284.07C170.8 295.933 186.4 258.549 184 268.717C182.5 274.798 178.9 284.967 176.2 292.144Z" fill="#428E55"/>
<path d="M252 246.686C250.2 256.755 242.4 264.73 231.3 265.926C230.9 265.926 230.5 266.026 230.2 266.026C229.8 266.125 229.4 266.125 229.1 266.225C215.4 267.72 204.3 258.15 202.8 244.692L202.5 242C209.5 242 215.5 242.2 215.5 242.2L234.2 243.496L239.4 241.801C239.2 241.701 244.9 243.895 252 246.686Z" fill="white"/>
<path d="M262 201.427C262 201.427 261.9 205.115 264.9 208.903C267.9 212.692 266.1 218.773 264.8 221.564C263.5 224.355 257.3 225.552 257.3 225.552C257.3 225.552 257.3 231.633 252 235.919C246.7 240.106 237.5 237.415 237.5 237.415L217 239.708C217 239.708 211.9 240.306 208.5 240.605C205.2 241.004 198.6 237.614 196.1 236.119C193.6 234.524 193 228.144 193 228.144C193 228.144 184 226.25 182.2 222.063C180.4 217.876 184.9 208.206 184.1 201.526L262 201.427Z" fill="#444444"/>
<path d="M255.5 185.078C255.7 185.078 256 185.078 256.2 185.078C260.5 185.476 264.2 188.866 264.7 193.352C265.4 198.536 261.7 203.321 256.5 204.019C251.3 204.716 246.5 201.028 245.8 195.844C245.4 192.853 246.5 189.962 248.5 187.969C248.6 190.76 249.4 194.149 253 194.149L252.3 188.666C252 186.373 254 185.177 255.5 185.078Z" fill="#E0B289"/>
<path d="M187.1 192.654C186.9 192.754 186.6 192.754 186.4 192.853C182.3 194.249 179.5 198.237 179.9 202.723C180.4 207.907 185 211.794 190.3 211.296C195.5 210.798 199.4 206.212 198.9 200.928C198.6 197.938 196.9 195.346 194.5 193.751C195.1 196.542 195 200.031 191.5 200.729L191 195.246C190.8 193.252 188.6 192.455 187.1 192.654Z" fill="#E0B289"/>
<path d="M239.4 228.343C240 233.228 240.6 238.611 240.9 242.1C241.8 249.776 237.1 255.658 229.9 256.455C229.6 256.455 229.2 256.555 228.9 256.555C228.6 256.655 228.2 256.655 227.9 256.755C220.7 257.552 214.9 252.767 214 245.191C213.6 241.701 213 236.318 212.5 231.433C214.6 228.642 219.8 224.654 225.1 222.561C230.8 223.358 236.8 226.05 239.4 228.343Z" fill="#E0B289"/>
<path d="M216.1 143.008C234 141.015 250.2 153.974 252.2 171.719L254.9 195.445L255.5 201.128C255.8 203.52 255.8 206.012 255.5 208.305C246.9 242 208 246.387 192.2 215.383C191.4 213.19 190.9 210.798 190.6 208.405L190 202.723L187.3 178.996C185.3 161.252 198.3 145.002 216.1 143.008Z" fill="#FFD9AF"/>
<path d="M231.7 145.102C242.6 149.389 250.9 159.358 252.3 171.719L253.4 181.389L245.7 180.093C245.7 180.093 239.9 173.314 229.7 176.803C219.4 180.392 204.8 185.078 200.9 186.473C196.9 187.869 193.4 193.252 195.9 203.221C198.4 213.19 202.7 235.62 226.8 236.119C214 237.514 200.3 230.835 192.4 215.383C191.6 213.19 191.1 210.798 190.8 208.405L190.2 202.723L187.5 178.996C186.3 168.629 190.2 158.859 197.2 152.08C200.1 150.685 202.7 149.688 204.6 149.189C210.2 147.594 222.2 146.099 231.7 145.102Z" fill="#E0B289"/>
<path d="M232.3 211.296C233 215.882 229.8 220.168 225.2 220.866C220.6 221.564 216.3 218.374 215.6 213.788C215.5 212.991 216 212.293 216.8 212.093L230.6 210C231.4 210 232.2 210.498 232.3 211.296Z" fill="white"/>
<path d="M230.2 218.274C228.9 219.67 227.2 220.567 225.2 220.866C223.6 221.066 222 220.866 220.6 220.268C221 218.474 222.7 216.879 224.9 216.48C227 216.081 229.1 216.879 230.2 218.274Z" fill="white"/>
<path d="M216.6 212.193L229.6 210.199C230 211.595 229.6 213.19 228.7 213.589C227.6 214.187 218.2 215.284 217.4 214.685C217 214.486 216.8 213.29 216.6 212.193Z" fill="white"/>
<path d="M204.7 207.109C207.1 206.81 209.2 208.405 209.5 210.797C209.8 213.19 208.2 215.284 205.8 215.583C203.4 215.882 201.3 214.287 201 211.894C200.7 209.601 202.4 207.408 204.7 207.109Z" fill="#E0B289"/>
<path d="M241.4 202.324C243.8 202.025 245.9 203.62 246.2 206.012C246.5 208.405 244.9 210.499 242.5 210.798C240.1 211.097 238 209.502 237.7 207.109C237.3 204.717 239 202.623 241.4 202.324Z" fill="#E0B289"/>
<path d="M241.4 187.071C242 187.271 242.7 186.972 242.9 186.374C243.1 185.775 242.8 185.078 242.2 184.878C239 183.682 234.8 183.881 232 186.074C231.5 186.473 231.4 187.271 231.8 187.769C232.2 188.268 233 188.367 233.5 187.969C235.8 186.174 238.9 186.174 241.4 187.071Z" fill="#00030C"/>
<path d="M202.2 202.125C202.1 201.327 202.3 200.529 202.8 199.931C203.3 199.333 204 198.934 204.8 198.835C205.6 198.735 206.4 198.934 207 199.433C207.6 199.931 208 200.629 208.1 201.427C208.2 202.125 208.8 202.523 209.4 202.523C210.1 202.424 210.5 201.825 210.5 201.227C210.3 199.832 209.6 198.536 208.5 197.638C207.4 196.741 206 196.343 204.5 196.542C203.1 196.741 201.8 197.439 200.9 198.536C200.4 199.134 200.1 199.732 199.9 200.43C199.7 200.529 199.5 200.529 199.2 200.33C199 200.23 198.8 200.33 198.7 200.43C198.6 200.629 198.7 200.829 198.8 200.928C199.1 201.128 199.5 201.128 199.7 201.128C199.4 201.227 199.1 201.227 198.7 201.128C198.5 201.028 198.3 201.128 198.3 201.327C198.2 201.526 198.3 201.726 198.5 201.726C199 201.925 199.4 201.825 199.7 201.825C199.4 202.025 199.1 202.125 198.7 202.125C198.5 202.125 198.4 202.324 198.4 202.424C198.4 202.623 198.6 202.723 198.7 202.723C199.1 202.723 199.5 202.623 199.8 202.523C199.9 203.121 200.5 203.52 201.1 203.42C201.8 203.321 202.3 202.723 202.2 202.125Z" fill="#00030C"/>
<path d="M200 191.657C202.3 190.261 205.3 189.564 207.9 190.76C208.5 191.059 209.2 190.76 209.5 190.162C209.8 189.564 209.5 188.866 208.9 188.567C205.7 187.071 201.6 187.769 198.7 189.663C198.1 190.062 198 190.76 198.3 191.358C198.7 191.856 199.5 192.056 200 191.657Z" fill="#00030C"/>
<path d="M254.8 194.149C253.3 194.349 251.1 192.255 250.9 190.261C250.7 188.268 250.4 186.074 250.4 186.074L254.6 182.884L258.5 185.676C253.8 185.576 254.3 190.062 254.8 194.149ZM192.3 192.554C192.3 192.554 192.5 194.747 192.8 196.741C193 198.735 191.4 201.227 189.9 201.327C189.6 198.735 189.3 192.654 185.3 193.452L190.1 190.76L192.3 192.554Z" fill="#444444"/>
<path d="M241.6 197.738C241.5 196.941 241.1 196.243 240.5 195.744C239.9 195.246 239.1 195.047 238.3 195.146C237.5 195.246 236.8 195.645 236.3 196.243C235.8 196.841 235.6 197.638 235.7 198.436C235.8 199.134 235.3 199.732 234.6 199.732C233.9 199.832 233.3 199.333 233.3 198.635C233.1 197.24 233.6 195.844 234.4 194.648C235.3 193.551 236.6 192.853 238 192.654C239.4 192.455 240.8 192.953 242 193.751C242.6 194.249 243 194.747 243.4 195.445C243.6 195.445 243.9 195.445 244.1 195.246C244.2 195.146 244.5 195.146 244.6 195.246C244.7 195.346 244.7 195.645 244.6 195.744C244.3 196.043 244 196.143 243.7 196.143C244 196.143 244.4 196.143 244.7 195.944C244.9 195.844 245.1 195.944 245.2 196.043C245.3 196.243 245.2 196.442 245.1 196.542C244.7 196.841 244.3 196.841 243.9 196.841C244.2 196.941 244.6 196.941 245 196.841C245.2 196.841 245.4 196.941 245.4 197.14C245.4 197.339 245.3 197.539 245.1 197.539C244.7 197.638 244.3 197.638 244 197.539C244 198.137 243.5 198.635 242.9 198.735C242.3 198.835 241.7 198.336 241.6 197.738Z" fill="#00030C"/>
<path d="M241.6 144.105C261 141.114 264.1 159.058 259.3 185.875C255.8 184.38 253.1 185.277 250.4 186.074C250.4 186.074 239.5 178.996 234.7 165.738C234.7 165.738 224.3 175.707 213.2 178.797C202.1 181.887 191.5 184.878 192.3 192.554C189.5 193.053 185.6 191.956 182.4 195.445C182.4 195.445 171.7 172.417 171.3 165.04C169.9 136.03 224.1 112.204 241.6 144.105Z" fill="#444444"/>
<path d="M171.4 161.85C171.5 160.454 171.8 159.058 172.1 157.663C184.2 160.654 217.2 165.439 223.4 129.849C228.7 131.145 233.5 133.837 237.4 138.124C234.3 146.797 227.9 156.965 214.4 163.545C196.4 172.517 180.3 166.735 171.4 161.85Z" fill="#838383"/>
<path d="M261.3 165.439C261.4 171.32 260.7 178.299 259.3 185.875C255.8 184.38 253.1 185.277 250.4 186.074C250.4 186.074 239.5 178.996 234.7 165.738C234.7 165.738 224.3 175.707 213.2 178.797C202.1 181.887 191.5 184.878 192.3 192.554C189.5 193.053 185.6 191.956 182.4 195.445C182.4 195.445 175.9 181.389 172.8 171.719C216.8 183.881 236 158.859 236 158.859C245.8 170.224 255 168.828 261.3 165.439Z" fill="#444444"/>
<path d="M157.7 292.144C157.1 291.746 156.6 291.247 156.4 290.849C155.9 289.852 153.7 232.929 153.7 232.331C153.8 231.732 153.1 231.234 153.1 231.234C153.1 231.234 142 232.231 137.8 229.141C137.8 229.141 136.5 229.639 136.5 230.038C136.4 230.337 134.3 264.431 131.9 292.045H157.7V292.144Z" fill="#FFD9AF"/>
<path d="M157.7 292.144C157.1 291.746 156.6 291.247 156.4 290.849C155.9 289.852 153.7 232.929 153.7 232.331C153.8 231.732 153.1 231.234 153.1 231.234C153.1 231.234 142 232.231 137.8 229.141C137.8 229.141 136.5 229.639 136.5 230.038C136.5 230.137 136.4 231.932 136.2 234.923C137.7 234.424 139.5 234.225 141.5 234.723C146.3 236.019 148.2 240.106 148.9 247.384C149.5 253.664 152.8 282.774 154.1 291.945H157.7V292.144Z" fill="#E0B289"/>
<path d="M164 218.374C166.5 213.29 170.4 210.399 172 209.502C174 208.305 167.7 201.626 162.6 208.704C162.6 208.704 159.1 210.997 157.8 209.701C156.5 208.405 160.5 184.38 161 181.788C161.4 179.196 158.5 178.199 157.5 178.697C156.5 179.196 155.9 182.984 154.8 187.769C153.7 192.554 152.5 197.938 151.9 198.237C151.4 198.635 150.3 198.336 149.9 195.445C149.5 192.554 147.7 176.803 146.6 175.806C145.5 174.71 142.8 175.408 142.4 177.9C142 180.292 144.2 195.047 144.1 198.037L144.3 201.227C144.3 201.227 139.6 200.829 138.4 206.012C138.4 206.012 133.3 205.514 132.7 210.499C132.1 215.483 132.1 226.05 136.4 230.137C140.3 233.627 146.6 235.222 151.9 234.025C160.2 232.032 160.7 225.352 164 218.374Z" fill="#FFD9AF"/>
<path d="M132.6 221.265C133.1 224.854 134.2 228.243 136.2 230.137C140.1 233.627 146.4 235.222 151.7 234.025C158.3 232.53 160 228.044 162.1 222.76L132.6 221.265ZM132.6 221.265L162.1 222.76C158.6 229.938 147.9 230.436 145.7 224.455C143.5 218.573 148.8 217.477 148.8 217.477C151.5 218.374 155.3 217.676 155.9 216.779C156.5 215.882 155.4 215.782 155.4 215.782C151.2 216.58 147.1 211.595 146.6 210C146.1 208.405 145.4 209.701 145.4 209.701L144.1 218.274C142.7 223.658 137.8 220.966 137.8 220.966C135.8 224.256 132.7 221.265 132.6 221.265Z" fill="#E0B289"/>
<path d="M298.5 292.144C298.5 292.144 296.1 252.069 295.7 251.172C295.4 250.275 290.8 241.801 290.2 239.807C289.8 238.511 290.5 231.832 290.9 226.349L305.7 235.222L314.2 231.633C314.1 234.723 313.9 238.81 313.9 240.704C313.8 243.994 311.6 249.078 311.4 250.275C311.2 251.571 316.9 292.144 316.9 292.144H298.5Z" fill="#FFD9AF"/>
<path d="M290.2 236.717C290.3 233.926 290.7 229.938 290.9 226.349L305.7 235.222L314.2 231.633C314.1 234.723 313.9 238.81 313.9 240.704C313.8 243.994 311.6 249.078 311.4 250.275C311.2 251.571 316.9 292.144 316.9 292.144H309.4C307.6 271.01 307.6 255.957 306.3 253.265C306 252.568 305.4 252.069 305.6 251.471C305.8 250.972 307.2 249.078 306.6 248.081C306 247.085 294 235.919 292.8 235.521C292.2 235.421 291.1 236.019 290.2 236.717Z" fill="#E0B289"/>
<path d="M287.1 218.075L282.9 222.262C282 223.159 282 224.555 282.9 225.452L305.4 247.882C306.3 248.779 307.7 248.779 308.6 247.882L312.8 243.695C313.7 242.798 313.7 241.402 312.8 240.505L290.3 218.075C289.4 217.277 288 217.277 287.1 218.075Z" fill="#444444"/>
<path d="M309.2 247.384L312.8 243.795C313.7 242.898 313.7 241.502 312.8 240.605L295.5 223.259L291.9 226.848C291 227.745 291 229.141 291.9 230.038L309.2 247.384Z" fill="#00030C"/>
<path d="M264.8 212.791C264.8 213.29 265.3 213.788 265.9 213.589C266.1 213.489 266.3 213.389 266.4 213.19C266.6 212.891 266.8 212.592 267 212.293C267.5 211.595 268 210.897 268.5 210.199C270 208.206 271.5 206.212 273 204.218C275.3 201.227 277.6 198.237 279.8 195.246C280 195.047 280 194.747 279.9 194.448C279.8 194.149 279.6 194.05 279.3 193.95L275.4 193.252C275.1 193.152 274.8 193.252 274.7 193.551L263.1 207.009C262.9 207.209 262.9 207.508 263 207.807C263.3 208.704 263.7 209.502 264 210.399C264.2 210.897 264.4 211.396 264.6 211.994C264.7 212.193 264.8 212.492 264.8 212.791Z" fill="white"/>
<path d="M277.1 198.835C278 197.638 278.9 196.442 279.9 195.246C280.1 195.047 280.1 194.747 280 194.448C279.9 194.149 279.7 194.05 279.4 193.95L275.5 193.252C275.2 193.152 274.9 193.252 274.8 193.551L271.5 197.339C271.3 197.539 271.3 197.838 271.4 198.137L272.7 201.925C272.8 202.224 273 202.424 273.3 202.424C273.6 202.424 273.8 202.424 274 202.224C275 201.028 276.1 199.931 277.1 198.835Z" fill="#D7E4F4"/>
<path d="M260.2 222.162C259.3 223.059 261.4 226.449 264.7 229.838C268.1 233.228 271.5 235.222 272.4 234.324L287.4 221.265L280.3 214.187L273.2 207.109L260.2 222.162Z" fill="#4E5C93"/>
<path d="M266.6 231.533C269.3 233.826 271.7 235.022 272.5 234.324L278.6 228.941C276.7 226.848 274.5 224.654 274.5 224.654L269.3 223.358C269.2 223.458 271.5 225.95 266.6 231.533Z" fill="#3B446A"/>
<path d="M262.2 214.586C260.9 215.882 263.9 220.866 268.8 225.851C273.8 230.835 278.8 233.726 280.1 232.43L302.1 213.29L291.7 202.922L281.3 192.554L262.2 214.586Z" fill="white"/>
<path d="M271 227.844C275.2 231.533 279 233.527 280.1 232.43L302.1 213.29L297.6 208.804L281.1 225.253C278 228.443 274.3 228.841 271 227.844Z" fill="#D7E4F4"/>
<path d="M281.3 192.654C281.3 192.654 294 177.9 300.3 144.404L327.7 167.133L350.5 194.448C316.9 200.729 302.1 213.389 302.1 213.389C300.8 214.685 295.1 211.097 289.4 205.414C283.7 199.632 280.1 193.95 281.3 192.654Z" fill="#4E5C93"/>
<path d="M325.5 165.339L327.7 167.133L350.5 194.448C316.9 200.729 302.1 213.39 302.1 213.39C301.3 214.187 298.8 213.09 295.7 210.798L316.2 190.361C326.7 179.894 315.5 162.149 315.5 162.149C315.5 162.149 319.6 163.345 325.5 165.339Z" fill="#3B446A"/>
<path d="M301.5 141.912C297 146.398 304.9 161.451 319.1 175.607C333.3 189.763 348.5 197.638 352.9 193.152C357.4 188.666 349.5 173.613 335.3 159.457C321.1 145.401 305.9 137.525 301.5 141.912Z" fill="white"/>
<path d="M304.5 144.205C301 147.694 308.5 160.853 321.2 173.613C334 186.374 347.2 193.85 350.7 190.261C354.2 186.772 346.7 173.613 334 160.853C321.2 148.093 308 140.616 304.5 144.205Z" fill="#444444"/>
<path d="M303.6 147.295C304.1 152.878 310.9 163.345 321.2 173.514C331.4 183.682 341.9 190.561 347.5 191.059C347 185.476 340.1 175.009 329.9 164.841C319.7 154.672 309.2 147.893 303.6 147.295Z" fill="#2D2D2D"/>
<path d="M326.5 178.498L331.8 171.32L327.6 167.133L323.5 163.046L316.3 168.33C317.8 170.024 319.5 171.819 321.3 173.613C323 175.308 324.7 177.003 326.5 178.498Z" fill="white"/>
<path d="M323.4 163.046C322.7 163.744 324 166.236 326.3 168.529C328.6 170.822 331 172.118 331.8 171.42C332.5 170.722 331.2 168.23 328.9 165.937C326.6 163.644 324.1 162.348 323.4 163.046Z" fill="#444444"/>
<path d="M308.9 229.739C308.9 229.739 310.2 228.642 311.3 228.841C312.4 229.041 313.9 230.735 314.2 231.533C314.6 232.331 313.3 237.614 312.4 239.01C311.5 240.405 309.4 242.1 308.6 242.499C307.8 242.798 306.5 241.901 306.4 240.505C306.3 239.109 306.4 237.813 307.9 236.119C309.1 234.524 308.9 229.739 308.9 229.739Z" fill="#FFD9AF"/>
<path d="M304.4 227.346C304.4 227.346 305.8 226.15 307 226.449C308.2 226.648 309.8 228.542 310.2 229.34C310.6 230.137 309.2 235.919 308.2 237.514C307.2 239.11 304.9 240.904 304.1 241.303C303.2 241.701 301.8 240.705 301.7 239.209C301.6 237.714 301.7 236.218 303.3 234.424C304.7 232.43 304.4 227.346 304.4 227.346Z" fill="#FFD9AF"/>
<path d="M299.2 224.555C299.2 224.555 300.4 223.159 301.5 223.159C302.7 223.159 304.6 224.654 305.1 225.352C305.6 226.05 305.4 232.031 304.7 233.726C304 235.421 302.1 237.614 301.3 238.212C300.5 238.711 299 238.013 298.6 236.617C298.2 235.222 298.1 233.726 299.3 231.633C300.5 229.539 299.2 224.555 299.2 224.555Z" fill="#FFD9AF"/>
<path d="M293.5 221.265C293.5 221.265 295.4 219.77 296.9 220.268C298.4 220.767 299 221.963 300.1 223.159C301.1 224.355 300.1 228.542 299.6 229.838C299.1 231.134 296.7 231.334 295.7 230.237C294.7 229.141 294.5 226.947 294.8 225.352C295.1 223.658 294.5 222.063 293.5 221.265Z" fill="#FFD9AF"/>
<path d="M298.9 221.763C299.3 222.162 299.6 222.661 300.1 223.259C301.1 224.455 300.1 228.642 299.6 229.938C299.2 230.935 297.6 231.334 296.4 230.835C297.7 230.536 298.5 229.639 298.6 229.041C298.8 228.343 299 226.748 299.2 224.256C299.4 223.259 299.2 222.362 298.9 221.763Z" fill="#E0B289"/>
<path d="M179.3 96.2539C178.4 96.2539 177.6 97.0514 177.6 97.9486V131.644C177.6 132.541 178.4 133.339 179.3 133.339C180.2 133.339 181 132.541 181 131.644V97.9486C181 97.0514 180.2 96.2539 179.3 96.2539Z" fill="white"/>
<path d="M139.8 110.31C140.2 110.31 140.5 110.011 140.5 109.612C140.5 109.214 140.2 108.915 139.8 108.915H123.9C123.5 108.915 123.2 109.214 123.2 109.612C123.2 110.011 123.5 110.31 123.9 110.31H139.8ZM139.8 120.778C140.2 120.778 140.5 120.479 140.5 120.08C140.5 119.681 140.2 119.382 139.8 119.382H123.9C123.5 119.382 123.2 119.681 123.2 120.08C123.2 120.479 123.5 120.778 123.9 120.778H139.8ZM139.8 115.594C140.2 115.594 140.5 115.295 140.5 114.896C140.5 114.497 140.2 114.198 139.8 114.198H123.9C123.5 114.198 123.2 114.497 123.2 114.896C123.2 115.295 123.5 115.594 123.9 115.594H139.8Z" fill="white"/>
<path d="M165.7 104.827H153.8C151 104.827 148.6 107.12 148.6 110.011V121.874C148.6 124.666 150.9 127.058 153.8 127.058H165.7C168.5 127.058 170.9 124.765 170.9 121.874V110.011C170.8 107.12 168.5 104.827 165.7 104.827ZM159.7 121.874C156.4 121.874 153.7 119.183 153.7 115.893C153.7 112.603 156.4 109.911 159.7 109.911C163 109.911 165.7 112.603 165.7 115.893C165.7 119.183 163 121.874 159.7 121.874Z" fill="white"/>
<path d="M322.9 110.31C323.3 110.31 323.6 110.011 323.6 109.612C323.6 109.214 323.3 108.915 322.9 108.915H190.3C189.9 108.915 189.6 109.214 189.6 109.612C189.6 110.011 189.9 110.31 190.3 110.31H322.9ZM322.9 120.778C323.3 120.778 323.6 120.479 323.6 120.08C323.6 119.681 323.3 119.382 322.9 119.382H190.3C189.9 119.382 189.6 119.681 189.6 120.08C189.6 120.479 189.9 120.778 190.3 120.778H322.9ZM322.9 115.594C323.3 115.594 323.6 115.295 323.6 114.896C323.6 114.497 323.3 114.198 322.9 114.198H190.3C189.9 114.198 189.6 114.497 189.6 114.896C189.6 115.295 189.9 115.594 190.3 115.594H322.9Z" fill="white"/>
<path d="M226.1 201.626C226.1 201.626 228.2 203.52 229.1 204.816C230 206.112 227.9 207.308 226.8 207.308C225.7 207.308 225.3 205.315 225.1 203.819C224.9 202.424 225.3 200.928 226.1 201.626Z" fill="#F8CAB0"/>
<path d="M376.5 170.323L395 167.632C395.3 167.632 395.5 167.632 395.8 167.831C396 168.031 396.1 168.23 396.1 168.529L396.2 180.691C396.2 180.99 396.1 181.19 395.9 181.389C395.7 181.588 395.4 181.688 395.1 181.588L370.9 178C370.5 177.9 370.2 177.601 370.1 177.202L369.3 173.115L354.3 171.719C353.8 171.719 353.5 171.32 353.4 170.822C353.4 170.323 353.7 169.925 354.1 169.825L374.3 164.641C374.6 164.541 374.8 164.641 375 164.741C375.2 164.841 375.4 165.14 375.4 165.339L376.5 170.323Z" fill="white"/>
<path d="M336.4 126.46L342.6 108.815C342.7 108.516 342.7 108.316 342.5 108.017C342.4 107.818 342.1 107.619 341.9 107.519L329.9 105.126C329.6 105.027 329.4 105.126 329.1 105.326C328.9 105.525 328.7 105.724 328.7 106.023L327.7 130.447C327.7 130.846 327.9 131.245 328.3 131.345L332.2 132.84L330.7 147.794C330.7 148.292 330.9 148.691 331.4 148.79C331.9 148.89 332.3 148.691 332.5 148.292L341.5 129.55C341.6 129.351 341.6 129.052 341.5 128.753C341.4 128.454 341.2 128.354 341 128.254L336.4 126.46Z" fill="white"/>
<path d="M370.7 135.332L396.1 117.687C396.5 117.388 396.7 117.089 396.8 116.79C396.9 116.491 396.8 116.192 396.5 116.092L383.9 109.911C383.6 109.812 383.2 109.712 382.7 109.911C382.2 110.011 381.8 110.31 381.5 110.609L355.8 137.326C355.4 137.825 355.3 138.223 355.6 138.522L358.9 141.314L342.2 157.364C341.7 157.862 341.6 158.46 342.1 158.66C342.5 158.959 343.3 158.859 344 158.46L374 140.317C374.4 140.117 374.7 139.818 374.8 139.519C374.9 139.22 374.9 138.921 374.7 138.722L370.7 135.332Z" fill="white"/>
<path d="M286.2 227.246C283.5 225.552 281 226.947 281.4 229.24C281.9 231.533 286.2 232.53 287.2 237.913C288.2 243.197 292.8 252.368 297 253.365C301.2 254.362 302.9 248.879 301.8 245.29C300.7 241.701 286.2 227.246 286.2 227.246Z" fill="#FFD9AF"/>
<path d="M43.1999 124.466H118.9C124.3 124.466 128.7 128.852 128.7 134.236V174.411V177.401V203.022C128.7 203.52 128.4 203.819 128 204.019C127.6 204.218 127.1 204.118 126.8 203.819L110.1 187.171H43.1999C37.7999 187.171 33.3999 182.785 33.3999 177.401V134.236C33.4999 128.852 37.8999 124.466 43.1999 124.466Z" fill="#D1764F"/>
<path d="M74.2999 146.996C72.3999 148.79 71.2999 151.482 70.8999 153.875C70.8999 153.974 70.8999 153.974 70.8999 154.074V166.934C70.8999 167.233 70.9999 167.432 71.1999 167.632C71.9999 168.529 73.0999 169.426 74.2999 170.124C75.4999 170.822 76.7999 171.42 78.0999 171.42H84.3999H91.2999C93.6999 171.42 95.6999 169.725 96.0999 167.432C96.0999 167.233 96.2999 167.034 96.4999 166.934C98.1999 166.136 98.3999 163.844 98.0999 162.149C98.0999 162.149 98.0999 162.149 98.0999 162.049C97.9999 161.75 98.0999 161.551 98.3999 161.351C100.4 159.856 99.9999 156.965 99.0999 154.971C99.0999 154.971 99.0999 154.971 99.0999 154.871C98.9999 154.672 98.9999 154.572 98.9999 154.373C99.1999 153.675 99.2999 152.977 99.2999 152.28C99.2999 151.482 99.0999 150.685 98.5999 150.086C98.0999 149.588 97.4999 149.289 96.8999 149.089C96.2999 148.89 95.6999 148.89 95.0999 148.89H87.8999C86.6999 148.89 85.6999 148.591 85.1999 147.395C84.5999 145.899 85.2999 143.307 85.6999 141.712C85.9999 140.815 86.1999 139.818 86.1999 138.821C86.1999 137.426 85.8999 135.93 85.1999 134.634C84.9999 134.335 84.7999 133.937 84.4999 133.638C84.1999 133.339 83.8999 133.039 83.5999 132.84C83.4999 132.74 83.3999 132.74 83.1999 132.74H82.0999C81.5999 132.74 81.0999 133.139 81.0999 133.737C81.0999 135.831 80.8999 138.024 80.3999 140.018C79.6999 142.51 78.3999 144.504 75.9999 145.8C75.1999 146.198 74.6999 146.597 74.2999 146.996ZM68.6999 168.728V149.787C68.6999 149.488 68.5999 149.289 68.4999 149.089C68.3999 148.99 68.3999 148.89 68.2999 148.89C67.9999 148.591 67.6999 148.491 67.2999 148.491H61.2999C60.9999 148.491 60.6999 148.591 60.3999 148.79C60.3999 148.79 60.3999 148.79 60.2999 148.89C60.0999 149.089 59.8999 149.488 59.8999 149.787V168.728C59.8999 169.127 59.9999 169.426 60.2999 169.725C60.5999 170.024 60.8999 170.124 61.2999 170.124H67.2999C67.5999 170.124 67.8999 170.024 68.1999 169.825C68.1999 169.825 68.1999 169.825 68.2999 169.725C68.3999 169.626 68.3999 169.626 68.4999 169.526C68.5999 169.227 68.6999 169.027 68.6999 168.728Z" fill="white"/>
</svg>
