<svg width="1920" height="228" viewBox="0 0 1920 228" fill="none" xmlns="http://www.w3.org/2000/svg">
<path d="M-1.5 99.5H133.5L171.5 56.5L198.5 85H386L406.5 109L459 31.5L513 109H713L821 220L894 145.5L919.5 168H1145L1221 85L1256 117L1346.5 6L1450 99.5H1724.5L1750 68L1773.5 99.5H1921.5" stroke="#BBD141" stroke-width="2" stroke-linejoin="round"/>
<circle cx="171" cy="58" r="4" fill="white" stroke="#BBD141" stroke-width="2"/>
<circle cx="406" cy="108" r="4" fill="white" stroke="#BBD141" stroke-width="2"/>
<circle cx="894" cy="145" r="4" fill="white" stroke="#BBD141" stroke-width="2"/>
<circle cx="1221" cy="85" r="4" fill="white" stroke="#BBD141" stroke-width="2"/>
<circle cx="1750" cy="69" r="4" fill="white" stroke="#BBD141" stroke-width="2"/>
<circle cx="459" cy="32" r="7" fill="white" stroke="#BBD141" stroke-width="2"/>
<circle cx="1347" cy="8" r="7" fill="white" stroke="#BBD141" stroke-width="2"/>
<circle cx="821" cy="220" r="7" fill="white" stroke="#BBD141" stroke-width="2"/>
</svg>
