<svg width="160" height="200" viewBox="0 0 160 200" fill="none" xmlns="http://www.w3.org/2000/svg">
<ellipse cx="80" cy="100" rx="80" ry="100" fill="#F4F4F4"/>
<path d="M99.4 190.1V190L99.5 187.7L101.4 144.4L80 158.2L58.9 143.9L59.8 167.5L59.9 170.9L60.8 194.3L60.9 196.6V197.1C67 199 73.4 200 80 200C86.5 200 92.8 199 98.9 197.2L99.1 192.6L99.4 190.1Z" fill="#E6E7E8"/>
<path d="M45.6 155.1C41.3 158.6 37 162 34.3 163.9C32.6 165.1 28.3 166.8 23 169.9C33.2 183 46.3 192.6 61 197.1L58.9 143.9C59 143.9 52.3 149.6 45.6 155.1Z" fill="#126828"/>
<path d="M126.1 163.9C119.2 159.1 101.4 144.4 101.4 144.4L99.1 197.2C113.9 192.7 127.1 183.1 137.4 169.9C132.1 166.8 127.8 165.1 126.1 163.9Z" fill="#126828"/>
<path d="M101.4 144.4C101.4 144.4 89.4 176 79.9 175.9C70.3 175.8 59 143.9 59 143.9C59.3 143.3 59.7 142.7 60 142.1C64.8 131.9 64.3 112.2 64.3 112.2H95.8C95.8 112.2 95.4 131.9 100.1 142.1C100.5 142.9 100.9 143.7 101.4 144.4Z" fill="#FF9267"/>
<path d="M100.1 142.1C96.5 144.7 92.9 146.7 89.8 148.2C86.9 150.3 83.4 151.3 80 151.3C76.6 151.3 73.1 150.3 70.2 148.2C67.1 146.7 63.5 144.6 59.9 142.1C64.7 131.9 64.2 112.2 64.2 112.2H95.7C95.8 112.2 95.3 131.9 100.1 142.1Z" fill="#F87948"/>
<path d="M51.3 88.6999C51.3 88.6999 47.8 69.6999 42.2 72.4999C36.6 75.2999 36.4 97.9999 51.3 104.1V88.6999Z" fill="#FF9267"/>
<path d="M47.7999 95.1999C47.7999 94.0999 47.7 92.8999 47.5 91.4999C47.3 90.0999 47 88.5999 46.6 86.9999C45.7 83.7999 44.4 81.1999 43.2 79.3999C42.6 78.4999 42.1999 77.7999 41.7999 77.2999C41.3999 76.7999 41.2 76.5999 41.2 76.5999C41.2 76.5999 41.7 77.7999 42.4 79.7999C42.9 81.1999 43.5 82.8999 44.1 84.7999C44 84.7999 43.8999 84.8999 43.7999 84.8999C43.3999 85.0999 42.9 85.3999 42.5 85.8999C42.1 86.3999 41.7 86.9999 41.5 87.5999C41 88.9999 41.3 90.2999 41.6 91.1999C41.8 91.5999 41.9 91.8999 42.1 92.1999C42.2 92.3999 42.2999 92.4999 42.2999 92.4999C42.2999 92.4999 42.2999 92.3999 42.2999 92.0999C42.2999 91.8999 42.4 91.4999 42.4 91.0999C42.5 90.2999 42.7 89.1999 43.1 88.1999C43.3 87.6999 43.5 87.1999 43.7 86.6999C43.9 86.2999 44.2 85.8999 44.4 85.4999C44.6 86.0999 44.8 86.7999 45 87.3999C45.4 88.8999 45.8 90.3999 46.2 91.6999C46.5 92.9999 46.8 94.1999 47 95.2999C47.2 96.2999 47.4 97.1999 47.5 97.6999C47.6 98.2999 47.7 98.5999 47.7 98.5999C47.7 98.5999 47.6999 98.2999 47.7999 97.6999C47.7999 97.1999 47.7999 96.2999 47.7999 95.1999Z" fill="#EE5C1D"/>
<path d="M108.7 88.6999C108.7 88.6999 112.2 69.6999 117.8 72.4999C123.4 75.2999 123.6 97.9999 108.7 104.1V88.6999Z" fill="#FF9267"/>
<path d="M112.2 95.1999C112.2 94.0999 112.3 92.8999 112.5 91.4999C112.7 90.0999 113 88.5999 113.4 86.9999C114.3 83.7999 115.6 81.1999 116.8 79.3999C117.4 78.4999 117.8 77.7999 118.2 77.2999C118.6 76.7999 118.8 76.5999 118.8 76.5999C118.8 76.5999 118.3 77.7999 117.6 79.7999C117.1 81.1999 116.5 82.8999 115.9 84.7999C116 84.7999 116.1 84.8999 116.2 84.8999C116.6 85.0999 117.1 85.3999 117.5 85.8999C117.9 86.3999 118.3 86.9999 118.5 87.5999C119 88.9999 118.7 90.2999 118.4 91.1999C118.2 91.5999 118.1 91.8999 117.9 92.1999C117.8 92.3999 117.7 92.4999 117.7 92.4999C117.7 92.4999 117.7 92.3999 117.7 92.0999C117.7 91.8999 117.6 91.4999 117.6 91.0999C117.5 90.2999 117.3 89.1999 116.9 88.1999C116.7 87.6999 116.5 87.1999 116.3 86.6999C116.1 86.2999 115.8 85.8999 115.6 85.4999C115.4 86.0999 115.2 86.7999 115 87.3999C114.6 88.8999 114.2 90.3999 113.8 91.6999C113.5 92.9999 113.2 94.1999 113 95.2999C112.8 96.2999 112.6 97.1999 112.5 97.6999C112.4 98.2999 112.3 98.5999 112.3 98.5999C112.3 98.5999 112.3 98.2999 112.2 97.6999C112.2 97.1999 112.2 96.2999 112.2 95.1999Z" fill="#EE5C1D"/>
<path d="M109.9 111.3C108.9 119 105.3 125 100.9 129.5C97.6 132.9 93.8 135.6 90.4 137.5C89.3 138.1 88.2 138.7 87.2 139.2C85.2 140.6 82.8 141.4 80.5 141.5C80.3 141.5 80.2 141.5 80 141.5C77.5 141.5 75 140.7 72.8 139.2C64.6 135.2 52.1 126.6 50.1 111.2C48.6 100 48.6 85.7 48.9 73.9C49.1 66.7 49.5 60.4 49.7 56.4C49.9 53.3 50 51.5 50 51.5C50 51.5 53.9 46.4 60.3 41.9C65.4 38.3 72.2 35 79.9 35C86.6 35 92.7 37.5 97.5 40.6C105.1 45.4 109.8 51.5 109.8 51.5C109.8 51.5 113 88.2 109.9 111.3Z" fill="#FFBA83"/>
<path d="M103.9 97C104.6 97.1 105.6 97.3 105.7 98.1C105.8 98.9 105.1 99.3 104.4 99.5C102.5 100.2 100.5 100.8 98.5 101.2C97 101.6 94.1 102.6 92.6 102.1C91.1 101.6 92.2 99.9 93 99.3C95.9 97.1 100.4 96.5 103.9 97Z" fill="#FFDBB6"/>
<path d="M56.1 97C55.4 97.1 54.4 97.3 54.3 98.1C54.2 98.9 54.9 99.3 55.6 99.5C57.5 100.2 59.5 100.8 61.5 101.2C63 101.6 65.9 102.6 67.4 102.1C68.9 101.6 67.8 99.9 67 99.3C64.1 97.1 59.7 96.5 56.1 97Z" fill="#FFDBB6"/>
<path d="M109.9 111.3C108.9 119 105.3 125 100.9 129.5C97.6 132.9 93.8 135.6 90.4 137.5C89.3 138.1 88.2 138.7 87.2 139.2C85.2 140.6 82.8 141.4 80.5 141.5C87.9 138 97.8 132.5 102.6 121.6C108 109.1 110.1 87 106.9 73.8C105.3 74.3 103.4 74.8 102.1 73.7C101 72.8 100.8 71.3 100.8 70C100.7 66.2 101 62.5 102.1 58.9C91.4 60.9 80.5 62.9 69.6 62.1C62.7 61.5 55.7 59.8 49.8 56.5C50 53.4 50.1 51.6 50.1 51.6C50.1 51.6 54 46.5 60.4 42C72.8 40.2 85.3 39.4 97.6 40.7C105.2 45.5 109.9 51.6 109.9 51.6C109.9 51.6 113 88.2 109.9 111.3Z" fill="#FF9267"/>
<path d="M84.2 122.3C80.7 120.9 76.5 120.9 73 122.5C73.7 123.7 74.5 125 75.5 126C76.5 126.9 77.8 127.6 79.1 127.4C80.1 127.2 81.1 126.6 81.8 125.9C82.9 124.9 83.6 123.4 84.2 122.3Z" fill="#FFDBB6"/>
<path d="M86.4 102.7C85.9 101.4 84.6 100.5 83.3 100C82.3 100.6 80.9 101.3 79.9 101.9C78.8 101.4 77.6 100.8 76.5 100.2C75.2 100.8 74.2 101.9 73.6 103.2C75.4 104.8 77.4 106 79.6 107.1C81.7 106.3 84.8 104.4 86.4 102.7Z" fill="#FF9267"/>
<path d="M79.2 98.5C78.5 98.8 77.8 99.2 77.3 99.8C78.1 100.2 79 100.7 79.7 101.1C80.6 100.6 81.7 100 82.5 99.5C81.7 98.9 80.2 98.1 79.2 98.5Z" fill="#FFDBB6"/>
<path d="M76.1 103.9C75.9 103.7 75.7 103.6 75.5 103.3C75.4 103.1 75.3 102.8 75.5 102.5C75.7 102.3 76.1 102.2 76.3 102.3C76.6 102.4 76.8 102.7 77 102.9C77.6 103.6 78.3 104.5 78.6 105.3C77.8 105.2 76.9 104.4 76.1 103.9Z" fill="#893412"/>
<path d="M83.9 103.9C84.1 103.7 84.3 103.6 84.5 103.3C84.6 103.1 84.7 102.8 84.5 102.5C84.3 102.3 83.9 102.2 83.7 102.3C83.4 102.4 83.2 102.7 83 102.9C82.4 103.6 81.7 104.5 81.4 105.3C82.2 105.2 83.2 104.4 83.9 103.9Z" fill="#893412"/>
<path d="M105.7 86.5999C103.6 84.1999 100.2 82.7999 96.9 82.9999C93.5 83.1999 90.3 84.9999 88.6 87.5999C90 84.2999 93 81.6 96.8 80.9C98.8 80.6 101.1 81.0999 102.8 82.1999C104.4 83.2999 105.2 84.7999 105.7 86.5999Z" fill="#642308"/>
<path d="M97.6001 91.8C99.4226 91.8 100.9 89.6062 100.9 86.9C100.9 84.1938 99.4226 82 97.6001 82C95.7775 82 94.3 84.1938 94.3 86.9C94.3 89.6062 95.7775 91.8 97.6001 91.8Z" fill="#642308"/>
<path d="M104.3 86.4001C102.3 85.7001 99.8 86.2001 98.1 87.6001C99 88.2001 100.1 88.6001 101.2 88.4001C102.3 88.2001 103.6 87.2001 104.3 86.4001Z" fill="white"/>
<path d="M56.6 86.5999C58.7 84.1999 62.1 82.7999 65.4 82.9999C68.8 83.1999 72 84.9999 73.7 87.5999C72.3 84.2999 69.3 81.6 65.5 80.9C63.5 80.6 61.2 81.0999 59.5 82.1999C57.9 83.2999 57.1 84.7999 56.6 86.5999Z" fill="#642308"/>
<path d="M61.4 86.9C61.4 89.6 62.9 91.8 64.7 91.8C66.5 91.8 68 89.6 68 86.9C68 84.2 66.5 82 64.7 82C62.9 82 61.4 84.2 61.4 86.9Z" fill="#642308"/>
<path d="M64.4 87.1C66.4 86.4 68.9 86.9 70.6 88.3C69.7 88.9 68.6 89.3 67.5 89.1C66.4 88.9 65.1 87.9 64.4 87.1Z" fill="white"/>
<path d="M90.8 69.4999C90.4 69.0999 90 68.6999 89.5 68.5999C88.8 68.4999 88.1 69.1999 87.8 69.8999C87 71.8999 88 74.1999 89.7 75.4999C91.4 76.7999 93.5 77.2999 95.6 77.5999C98 77.8999 100.5 77.9999 102.9 77.8999C103.6 77.8999 107.2 77.2999 106.5 75.9999C106.1 75.1999 103.5 75.3999 102.8 75.3999C98.4 75.3999 93.8 72.7999 90.8 69.4999Z" fill="#893412"/>
<path d="M70.6 78.2C71.1 78.4 71.6 78.7 72.2 78.5C72.9 78.3 73.2 77.4 73.2 76.7C73.1 74.6 71.2 72.8 69.2 72.3C67.1 71.8 65 72.2 62.9 72.8C60.6 73.5 58.3 74.4 56.1 75.5C55.5 75.8 52.4 77.8 53.6 78.7C54.3 79.3 56.5 78 57.2 77.7C61.4 76 66.6 76.5 70.6 78.2Z" fill="#893412"/>
<path d="M93.9 108.8C93.9 108.8 93.6 109.1 93.1 109.6C92.8 109.9 92.5 110.2 92.1 110.5C91.7 110.8 91.2 111.3 90.6 111.6C90 112 89.4 112.4 88.7 112.8C88 113.2 87.2 113.6 86.4 114C84.7 114.7 82.8 115.3 80.6 115.6C78.5 115.9 76.4 115.9 74.6 115.7C73.7 115.6 72.8 115.5 72 115.3C71.2 115.1 70.5 114.9 69.8 114.7C69.1 114.5 68.6 114.2 68.1 114C67.6 113.8 67.2 113.6 66.8 113.4C66.1 113 65.8 112.8 65.8 112.8C65.8 112.8 66.2 112.9 67 113C67.4 113.1 67.8 113.1 68.4 113.2C68.9 113.3 69.5 113.4 70.2 113.4C70.9 113.5 71.6 113.5 72.3 113.5C73.1 113.5 73.9 113.5 74.7 113.5C76.4 113.4 78.3 113.3 80.2 113C82.1 112.7 84 112.3 85.6 111.9C86.4 111.7 87.2 111.4 87.9 111.2C88.6 111 89.3 110.7 89.9 110.5C90.5 110.3 91.1 110 91.5 109.8C92 109.6 92.4 109.4 92.7 109.2C93.5 109 93.9 108.8 93.9 108.8Z" fill="#FF9267"/>
<path d="M97 110.8C97 110.8 96.9 110.9 96.7 110.9C96.5 111 96.2 111.1 95.8 111.1C95 111.2 93.8 111 92.9 110.1C92 109.3 91.6 108.1 91.6 107.3C91.6 106.9 91.6 106.6 91.7 106.4C91.8 106.2 91.8 106.1 91.8 106.1C91.8 106.1 92.2 106.5 92.7 106.9C93.2 107.3 93.9 107.8 94.5 108.3C95.1 108.8 95.6 109.5 96.1 110C96.6 110.4 97 110.8 97 110.8Z" fill="#FF9267"/>
<path d="M109.9 62.2C110.2 70.1 110.5 78 110.8 85.9C113 78.1 115.3 74.1 117.8 73.9C119.8 74.2 120.7 77.1 120.7 82.7C126.8 71.2 126.7 29.8 104.4 23.3C104 21.1 104.6 19.2 106 17.7C103.9 18.2 102.3 19.9 101.3 22.6C100.2 19.4 100.8 14.8 103.1 9C97.8 13.6 95.4 17.9 96.1 21.9C79.1 19.4 66.2 21.3 57.5 27.6C34 46.1 30.6 71 47.4 102.6C45.3 81.6 53.8 68.2 72.8 62.4C71.2 65.4 68.9 67.9 65.7 69.8C83.9 66.9 98 60.6 108.1 51.1C107 56.4 103.6 60.8 97.9 64.4C102.5 64.2 106.5 63.6 109.9 62.2Z" fill="#A87C4F"/>
<path d="M109.9 62.1999C110.2 70.0999 110.5 77.9999 110.8 85.8999C113 78.0999 115.3 74.0999 117.8 73.8999C119.8 74.1999 120.7 77.0999 120.7 82.6999C125 74.6999 126.2 51.9999 119 36.8999C121.6 46.6999 119.8 56.0999 113.6 65.0999C115.2 54.8999 114.2 47.5999 110.4 42.8999C100.7 53.4999 89.7 59.7999 77.4 62.1999C79.1 60.0999 80.2 57.9999 80.6 55.7999C65.5 55.3999 53.4 60.9999 44.3 72.5999C41.5 67.2999 39.8 60.2999 39.4 51.6999C34.4 66.1999 37.1 83.0999 47.4 102.5C45.3 81.4999 53.8 68.0999 72.8 62.2999C71.2 65.2999 68.9 67.7999 65.7 69.6999C83.9 66.7999 98 60.4999 108.1 50.9999C107 56.2999 103.6 60.6999 97.9 64.2999C102.5 64.1999 106.5 63.5999 109.9 62.1999Z" fill="#72553B"/>
<path d="M87.6 29.9001C73.6 25.0001 59 36.1001 54.3 46.6001C59.9 41.6001 66 38.1001 72.6 36.4001C69.2 38.2001 66.6 40.9001 64.9 44.4001C74.7 37.7001 83.6 34.2001 91.7 34.2001C88.2 31.8001 84.2 31.3001 79.7 32.7001C82.2 30.4001 84.9 29.5001 87.6 29.9001Z" fill="#D6A478"/>
<path d="M61 98.4001C52.3 98.4001 45.2 92.9001 45.2 86.0001C45.2 79.2001 52.3 73.6001 61 73.6001C69.7 73.6001 76.8 79.1001 76.8 86.0001C76.8 92.9001 69.7 98.4001 61 98.4001ZM61 75.2001C53.1 75.2001 46.7 80.1001 46.7 86.0001C46.7 91.9001 53.1 96.8001 61 96.8001C68.9 96.8001 75.3 91.9001 75.3 86.0001C75.3 80.1001 68.9 75.2001 61 75.2001Z" fill="#231F20"/>
<path d="M98.5 98.6999C89.8 98.6999 82.7 93.1999 82.7 86.2999C82.7 79.4999 89.8 73.8999 98.5 73.8999C107.2 73.8999 114.3 79.3999 114.3 86.2999C114.4 93.0999 107.2 98.6999 98.5 98.6999ZM98.5 75.4999C90.6 75.4999 84.2 80.2999 84.2 86.2999C84.2 92.2999 90.6 97.0999 98.5 97.0999C106.4 97.0999 112.8 92.1999 112.8 86.2999C112.8 80.3999 106.4 75.4999 98.5 75.4999Z" fill="#231F20"/>
<path d="M83 85.3H76.1V86.8H83V85.3Z" fill="#231F20"/>
<path d="M114.5 155C107.8 149.5 101.2 143.9 101.2 143.9L99.1 197.1C104.4 195.5 109.4 193.3 114.2 190.4C117.1 183 119.6 175.1 120.5 171.7C121.7 166.7 119 162.2 114.5 155Z" fill="#00A14B"/>
<path d="M45.6 155.1C41.1 162.3 38.4 166.7 39.7 171.8C40.5 175.2 43.1 183 45.9 190.3C50.7 193.2 55.8 195.4 61.1 197.1L59 143.9C59 143.9 52.3 149.6 45.6 155.1Z" fill="#00A14B"/>
</svg>
