<svg width="160" height="200" viewBox="0 0 160 200" fill="none" xmlns="http://www.w3.org/2000/svg">
<ellipse cx="80" cy="100" rx="80" ry="100" fill="#F4F4F4"/>
<path d="M110.4 107.119H43.8V147.419H110.4V107.119Z" fill="#3C2516"/>
<path fill-rule="evenodd" clip-rule="evenodd" d="M39.8 177.119V177.019C39.9 167.119 38.8 157.819 38.8 157.819L38.2 151.519C37.7 151.719 37.2 151.919 36.7 152.119C33.1 153.619 30 155.519 27.4 157.519C24 160.119 21.6 163.119 19.6 166.419C25.4 174.019 32 180.519 39.3 185.719C39.4 184.619 39.5 183.619 39.6 182.519C39.6 180.819 39.8 178.919 39.8 177.119Z" fill="#FEBF97"/>
<path fill-rule="evenodd" clip-rule="evenodd" d="M131.7 157.719C129.2 155.719 126.2 154.019 122.5 152.319C122.5 152.319 122.5 152.319 122.4 152.319C121.8 152.019 121.3 151.819 120.8 151.619L120.3 157.919C120.3 157.919 119.2 167.219 119.2 177.219C119.2 177.319 119.2 177.519 119.2 177.619C119.2 179.319 119.3 181.019 119.4 182.719C119.5 184.119 119.6 185.419 119.8 186.719C127.3 181.619 134.1 175.119 139.9 167.619C137.9 163.719 135.2 160.519 131.7 157.719Z" fill="#FEBF97"/>
<path fill-rule="evenodd" clip-rule="evenodd" d="M133 166.619C133 179.819 110 196.319 80.5 196.319C51 196.319 26 179.919 26 166.619C26 160.019 31.8 154.119 41.4 149.719C47.8 146.819 65.5 142.719 65.5 140.019C65.5 139.319 65.5 137.619 65.5 135.519C65.6 129.519 65.7 120.019 65.7 120.019H92.6C92.6 120.019 92.8 123.419 92.9 127.319C93.1 132.419 93.5 138.819 93.5 140.419C93.6 143.419 111.1 146.919 117.4 149.819C127.1 154.019 133 160.119 133 166.619Z" fill="#FEBF97"/>
<path fill-rule="evenodd" clip-rule="evenodd" d="M112.5 79.619C121.3 70.819 122.5 84.119 120.1 90.419C116.2 101.119 107.8 103.119 97.6 101.419L112.5 79.619Z" fill="#FE966C"/>
<path fill-rule="evenodd" clip-rule="evenodd" d="M46.5 79.619C37.7 70.819 36.5 84.119 38.9 90.419C42.7 101.119 51.1 103.119 61.4 101.419L46.5 79.619Z" fill="#FE966C"/>
<path fill-rule="evenodd" clip-rule="evenodd" d="M93.1 127.219C86.9 138.619 77.1 144.619 70.5 141.319C68.7 140.419 66.8 138.419 65.7 135.919V135.519C65.8 129.519 65.9 120.019 65.9 120.019H92.7999C92.6999 119.919 92.9 123.219 93.1 127.219Z" fill="#FE966C"/>
<path fill-rule="evenodd" clip-rule="evenodd" d="M113.3 86.619C113.3 111.119 90.8 131.019 79.4 131.019C68.2 131.019 45.5 111.119 45.5 86.619C45.5 62.119 47.9 38.019 79.4 38.019C110.9 38.019 113.3 62.119 113.3 86.619Z" fill="#FEBF97"/>
<path fill-rule="evenodd" clip-rule="evenodd" d="M84.1 101.019C84.1 102.419 82 103.519 79.4 103.519C76.8 103.519 74.7 102.419 74.7 101.019C74.7 99.7191 76.8 100.119 79.4 100.119C82 100.119 84.1 99.7191 84.1 101.019Z" fill="#FE966C"/>
<path fill-rule="evenodd" clip-rule="evenodd" d="M79.5 108.319C75 108.419 72 110.419 68.5 111.019C71.2 114.219 73.4 117.319 78.5 118.719C78.8 118.719 79.1 118.719 79.5 118.619C79.8 118.619 80.2 118.719 80.6 118.719C85.7 117.219 87.7 114.319 90.4 111.019C86.7 110.619 84 108.319 79.5 108.319Z" fill="#C62037"/>
<path fill-rule="evenodd" clip-rule="evenodd" d="M79.7 113.419C74.6 113.419 68.6 111.219 68.6 111.219C70.5 115.119 74.4 119.219 79.3 119.219C79.4 119.219 79.6 119.219 79.7 119.219C84.5 119.319 89.5 114.319 90.2 111.019C90.3 111.119 84.9 113.419 79.7 113.419Z" fill="#E61F34"/>
<path fill-rule="evenodd" clip-rule="evenodd" d="M109.4 76.3193C107.5 73.0193 104.7 70.3193 101 69.0193C97.4 67.8193 93.6 69.1193 89.9 68.7193C87.4 68.4193 87.2 72.4193 89.5 72.6193C92.9 73.0193 96 72.0193 99.3 72.5193C102.8 73.0193 106.2 74.6193 109 76.8193C109.4 77.2193 109.6 76.5193 109.4 76.3193Z" fill="#54311F"/>
<path fill-rule="evenodd" clip-rule="evenodd" d="M87.4 89.0192C89.5 81.1192 98.2 73.5192 106 77.7192C110.9 80.3192 109.7 86.2192 106.6 88.5192C101.7 92.4192 94.8 91.9192 89.2 89.9192L87.4 89.0192Z" fill="#353636"/>
<path fill-rule="evenodd" clip-rule="evenodd" d="M89.1 89.2192C93.4 95.8192 105 94.1192 106.3 89.0192C106.7 87.2192 106 85.1192 105.4 84.7192L89.1 89.2192Z" fill="#353636"/>
<path fill-rule="evenodd" clip-rule="evenodd" d="M107.1 86.5192C106.3 91.8192 99.9 93.4192 95.1 92.6192C92.3 92.2192 88.2 89.4192 88.2 89.4192C88.8 87.1192 90.3 84.8192 92.4 83.1192C92.1 83.9192 91.9 84.8192 91.9 85.7192C91.9 89.2192 94.8 92.2192 98.4 92.2192C102 92.2192 104.9 89.3192 104.9 85.7192C104.9 83.3192 103.6 81.3192 101.8 80.2192C105.4 80.8192 107.7 83.5192 107.1 86.5192Z" fill="#E8EDEF"/>
<path fill-rule="evenodd" clip-rule="evenodd" d="M104.7 85.8193C104.7 89.3193 101.8 92.3193 98.2 92.3193C94.7 92.3193 91.7 89.4193 91.7 85.8193C91.7 84.9193 91.8999 84.0193 92.2999 83.2193C93.4999 82.1193 95 81.2193 96.6 80.8193C98.4 80.3193 100 80.1193 101.5 80.3193C103.5 81.4193 104.7 83.4193 104.7 85.8193Z" fill="#679898"/>
<path fill-rule="evenodd" clip-rule="evenodd" d="M49.1 75.5194C51.5 72.5194 54.5 70.1194 58.4 69.3194C62.1 68.6194 65.8 70.4194 69.4 70.4194C71.9 70.4194 71.7 74.5194 69.2 74.4194C65.8 74.3194 62.8 72.9194 59.5 73.1194C56 73.2194 52.4 74.2194 49.4 76.1194C49.1 76.4194 49.1 75.8194 49.1 75.5194Z" fill="#54311F"/>
<path fill-rule="evenodd" clip-rule="evenodd" d="M71.1 89.0193C69.1 81.1193 60.3 73.6193 52.6 77.7193C47.7 80.3193 48.8 86.2193 52 88.5193C56.9 92.4193 63.8 91.9193 69.4 89.9193L71.1 89.0193Z" fill="#353636"/>
<path fill-rule="evenodd" clip-rule="evenodd" d="M69.5 89.2192C65.2 95.8192 53.5 94.1192 52.3 89.0192C51.9 87.2192 52.6 85.1192 53.2 84.7192L69.5 89.2192Z" fill="#353636"/>
<path fill-rule="evenodd" clip-rule="evenodd" d="M70.2 89.5193C70.2 89.5193 66.2001 92.2193 63.3001 92.7193C58.5001 93.4193 52.1001 91.8193 51.3001 86.6193C50.8001 83.6193 53.1001 80.8193 56.8001 80.3193C54.9001 81.4193 53.6001 83.4193 53.6001 85.8193C53.6001 89.3193 56.5001 92.3193 60.1001 92.3193C63.6001 92.3193 66.6001 89.4193 66.6001 85.8193C66.6001 84.9193 66.4001 83.9193 66.1001 83.2193C68.1001 85.0193 69.8 87.3193 70.2 89.5193Z" fill="#E8EDEF"/>
<path fill-rule="evenodd" clip-rule="evenodd" d="M66.7 85.8193C66.7 89.3193 63.8 92.3193 60.2 92.3193C56.6 92.3193 53.7 89.4193 53.7 85.8193C53.7 83.4193 54.9 81.4193 56.9 80.3193C58.4 80.1193 60 80.3193 61.8 80.8193C63.3 81.3193 64.7 82.1193 66.1 83.2193C66.5 84.0193 66.7 84.8193 66.7 85.8193Z" fill="#679898"/>
<path fill-rule="evenodd" clip-rule="evenodd" d="M63.7 85.8193C63.7 87.8193 62.2 89.3193 60.2 89.3193C58.2 89.3193 56.7 87.8193 56.7 85.8193C56.7 83.8193 58.2 82.3193 60.2 82.3193C62.2 82.3193 63.7 83.9193 63.7 85.8193Z" fill="#4E4E4E"/>
<path fill-rule="evenodd" clip-rule="evenodd" d="M101.8 85.8193C101.8 87.8193 100.3 89.3193 98.3 89.3193C96.3 89.3193 94.8 87.8193 94.8 85.8193C94.8 83.8193 96.3 82.3193 98.3 82.3193C100.3 82.3193 101.8 83.9193 101.8 85.8193Z" fill="#4E4E4E"/>
<path fill-rule="evenodd" clip-rule="evenodd" d="M67.5001 86.819C67.2001 87.719 65.6001 87.919 64.0001 87.419C62.3001 86.819 61.2001 85.719 61.5001 84.819C61.8001 83.919 63.4001 83.719 65.0001 84.219C66.7001 84.819 67.8001 85.919 67.5001 86.819Z" fill="white"/>
<path fill-rule="evenodd" clip-rule="evenodd" d="M105.2 86.7194C104.9 87.6194 103.3 87.8194 101.7 87.3194C100 86.7194 98.9 85.6194 99.2 84.7194C99.5 83.8194 101.1 83.6194 102.7 84.1194C104.4 84.7194 105.5 85.9194 105.2 86.7194Z" fill="white"/>
<path fill-rule="evenodd" clip-rule="evenodd" d="M99.8 196.319C114.7 192.019 128.5 181.819 141.2 165.619C129.1 154.619 115.7 147.619 101.3 144.619C102 166.619 90.7 190.919 80.5 196.419C69 189.319 55.9 162.319 56.6 144.619C39.3 149.719 26.4 156.519 18 164.819C26.9 176.219 35.1 184.019 42.8 188.319C60.5 199.319 79.5 202.019 99.8 196.319Z" fill="#1F1F1F"/>
<path fill-rule="evenodd" clip-rule="evenodd" d="M93.5 140.419C83 143.619 73.7 143.419 65.5 140.019C65.5 138.519 65.5 137.019 65.5 135.519C74.5 138.519 83.8 138.419 93.3 135.319C93.4 137.119 93.5 138.819 93.5 140.419Z" fill="#1F1F1F"/>
<path fill-rule="evenodd" clip-rule="evenodd" d="M104.7 112.819C113.5 90.7192 110.2 69.2192 94.7 48.4192C86.5 58.0192 74.9 63.5192 60 64.8192C45 74.4192 43 90.4192 54.2 112.919C52 130.019 54.6 144.619 62.3 156.619C39.8 153.419 18.8 135.619 28.4 113.119C31 107.019 32.4 99.6192 32.9 90.9192C37 43.4192 58.5 23.2192 97.3 30.4192C115.2 38.7192 123.5 59.7192 122.3 93.5192C122.6 101.319 123.7 107.219 125.7 111.219C135 134.819 125 149.819 95.7 156.319C101.7 149.119 104.7 134.619 104.7 112.819Z" fill="#5D3824"/>
<path fill-rule="evenodd" clip-rule="evenodd" d="M79.8 33.4194C75.6 40.9194 78 46.0194 82.5 51.8194C74.2 62.0194 57.5 53.1194 46.9 70.9194C43.3 60.0194 52.8 35.5194 79.8 33.4194Z" fill="#6F432A"/>
<path fill-rule="evenodd" clip-rule="evenodd" d="M111.8 52.1191C110.8 56.4191 108.2 57.4191 104.5 58.1191C107.7 63.3191 112 72.5191 111.1 77.4191C116.4 74.5191 121.2 62.1191 111.8 52.1191Z" fill="#6F432A"/>
<path fill-rule="evenodd" clip-rule="evenodd" d="M58.5 149.419C59.6 151.919 60.9 154.319 62.4 156.619C39.9 153.419 18.9 135.619 28.5 113.119C29.4 111.019 30.2 108.719 30.8 106.219C31.5 109.219 32.3 112.119 33.2 114.819C34.2 108.219 36.9 102.319 41.3 97.019C38.6 110.719 37.9 121.519 39.3 129.419C40.6 131.819 42.1 134.119 43.6 136.219C43.1 128.219 44.3 121.519 47 116.419C45.5 128.919 47.7 138.919 53.7 146.419C55.1 147.619 56.8 148.619 58.5 149.419ZM123.9 120.819C120.1 118.819 117.8 116.219 116.9 113.119C115.7 120.819 116.5 128.219 119.5 135.519C119.3 135.919 119.1 136.219 118.8 136.619C115.8 134.319 114 130.819 113.6 125.919C114.5 133.519 113.4 139.919 110.4 144.919C108.8 146.019 107 147.519 99.8 149.619C97.7 154.519 98.2 153.719 95.9 156.519C125.1 150.019 135.1 135.019 125.9 111.419C124.4 108.419 123.4 104.319 122.9 99.219C120 107.019 120.5 114.319 123.9 120.819Z" fill="#3C2516"/>
<path fill-rule="evenodd" clip-rule="evenodd" d="M54.1999 97.6191C54.5999 97.6191 54.8999 97.8191 54.8999 98.2191C54.8999 98.6191 54.6999 98.9191 54.2999 98.9191C53.8999 98.9191 53.5999 98.7191 53.5999 98.3191C53.4999 97.9191 53.7999 97.6191 54.1999 97.6191Z" fill="#FE966C"/>
<path fill-rule="evenodd" clip-rule="evenodd" d="M59.9 97.7192C60.3 97.7192 60.7 98.0192 60.8 98.4192C60.8 98.8192 60.5 99.2192 60.1 99.3192C59.7 99.3192 59.3 99.0192 59.2 98.6192C59.2 98.1192 59.5 97.7192 59.9 97.7192Z" fill="#FE966C"/>
<path fill-rule="evenodd" clip-rule="evenodd" d="M66.4 97.8193C66.8 97.8193 67.1 98.0193 67.1 98.4193C67.1 98.8193 66.9 99.1193 66.5 99.1193C66.1 99.1193 65.8 98.9193 65.8 98.5193C65.7 98.2193 66 97.9193 66.4 97.8193Z" fill="#FE966C"/>
<path fill-rule="evenodd" clip-rule="evenodd" d="M57.2 101.319C57.5 101.319 57.8 101.519 57.9 101.919C57.9 102.219 57.7 102.519 57.3 102.519C57 102.519 56.7 102.319 56.7 102.019C56.6 101.619 56.9 101.319 57.2 101.319Z" fill="#FE966C"/>
<path fill-rule="evenodd" clip-rule="evenodd" d="M63.1 102.019C63.4 102.019 63.7 102.219 63.7 102.519C63.7 102.819 63.5 103.119 63.2 103.119C62.9 103.119 62.6 102.919 62.6 102.619C62.6 102.219 62.8 102.019 63.1 102.019Z" fill="#FE966C"/>
<path fill-rule="evenodd" clip-rule="evenodd" d="M105 97.1191C104.6 97.1191 104.3 97.3191 104.3 97.7191C104.3 98.1191 104.5 98.4191 104.9 98.4191C105.3 98.4191 105.6 98.2191 105.6 97.8191C105.6 97.5191 105.3 97.1191 105 97.1191Z" fill="#FE966C"/>
<path fill-rule="evenodd" clip-rule="evenodd" d="M99.2001 97.2192C98.8001 97.2192 98.4 97.5192 98.3 97.9192C98.3 98.3192 98.6001 98.7192 99.0001 98.8192C99.4001 98.8192 99.8001 98.5192 99.9001 98.1192C99.9001 97.7192 99.6001 97.3192 99.2001 97.2192Z" fill="#FE966C"/>
<path fill-rule="evenodd" clip-rule="evenodd" d="M92.7 97.3193C92.3 97.3193 92 97.5193 92 97.9193C92 98.3193 92.2 98.6193 92.6 98.6193C93 98.6193 93.3 98.4193 93.3 98.0193C93.3 97.7193 93.1 97.4193 92.7 97.3193Z" fill="#FE966C"/>
<path fill-rule="evenodd" clip-rule="evenodd" d="M101.9 100.819C101.6 100.819 101.3 101.019 101.2 101.419C101.2 101.719 101.4 102.019 101.7 102.019C102.1 102.019 102.3 101.819 102.4 101.519C102.5 101.219 102.2 100.919 101.9 100.819Z" fill="#FE966C"/>
<path fill-rule="evenodd" clip-rule="evenodd" d="M96 101.519C95.7 101.519 95.4 101.719 95.4 102.019C95.4 102.319 95.6 102.619 95.9 102.619C96.2 102.619 96.5 102.419 96.5 102.119C96.5 101.819 96.3 101.519 96 101.519Z" fill="#FE966C"/>
<path fill-rule="evenodd" clip-rule="evenodd" d="M79.3 141.819C80.2 141.819 81 141.119 81 140.119C81 139.219 80.2 138.419 79.3 138.419C78.4 138.419 77.6 139.119 77.6 140.119C77.6 141.119 78.4 141.819 79.3 141.819Z" fill="#CBCBCB"/>
<path fill-rule="evenodd" clip-rule="evenodd" d="M80.7999 139.119C80.9999 139.419 81.1 139.719 81.1 140.119C81.1 141.019 80.3 141.819 79.4 141.819C78.5 141.819 77.8 141.219 77.7 140.319C78 140.719 78.5 141.019 79.1 141.019C80 141.019 80.7999 140.319 80.7999 139.319C80.7999 139.319 80.7999 139.219 80.7999 139.119Z" fill="#989798"/>
<path fill-rule="evenodd" clip-rule="evenodd" d="M78.9 138.919C79.3 138.719 79.6999 138.719 79.7999 138.919C79.7999 139.119 79.4999 139.519 79.0999 139.619C78.6999 139.819 78.2999 139.819 78.1999 139.519C78.0999 139.319 78.4 139.019 78.9 138.919Z" fill="white"/>
</svg>
