<svg width="160" height="200" viewBox="0 0 160 200" fill="none" xmlns="http://www.w3.org/2000/svg">
<ellipse cx="80" cy="100" rx="80" ry="100" fill="#F4F4F4"/>
<path d="M117.5 85.7H53V150.7H117.5V85.7Z" fill="#E4C38A"/>
<path fill-rule="evenodd" clip-rule="evenodd" d="M101.8 140.5C81.8 150.2 63.8 138.9 63.8 138.9C61.2 156.1 64.6 180.6 69 198.9C72.6 199.6 76.2 199.9 79.9 199.9C84.7 199.9 89.2 199.4 93.6 198.4C99.2 181 102.4 161.2 101.8 140.5Z" fill="#E2EDF1"/>
<path fill-rule="evenodd" clip-rule="evenodd" d="M94 111.2L81.2 111.5L68.4 111.8C68.4 111.8 77.6 131.4 57.1 138.8C71.3 155.4 100.5 148.2 106.8 137.6C86.2 131.3 94 111.2 94 111.2Z" fill="#F3A06F"/>
<path fill-rule="evenodd" clip-rule="evenodd" d="M93 115.9L68.5 112C68.5 112 73.1 121.6 68.3 130.6C89.6 126.9 93 115.9 93 115.9Z" fill="#D47F50"/>
<path fill-rule="evenodd" clip-rule="evenodd" d="M63.1 138.4C63.1 138.4 60.8 167.6 61.5 172.8C62.2 177.9 67.1 183.3 70 184.2C76.1 185.1 79.2 177.1 91.2 183.7C96.4 186.6 102.2 176.5 103.1 172.4C104.2 154.2 101.7 146.7 101.9 138.5C80.9 153.5 63.1 138.4 63.1 138.4Z" fill="white"/>
<path fill-rule="evenodd" clip-rule="evenodd" d="M106.1 80.3C104.9 86 107 91.3 110.9 92.1C114.7 92.9 118.8 88.8 120 83.1C121.2 77.4 119.1 72.1 115.3 71.3C111.4 70.5 107.4 74.5 106.1 80.3Z" fill="#F3A06F"/>
<path fill-rule="evenodd" clip-rule="evenodd" d="M58.8 80.3C60 86 57.9 91.3 54 92.1C50.2 92.9 46.1 88.8 44.9 83.1C43.7 77.2 45.9 72 49.7 71.2C53.5 70.5 57.6 74.5 58.8 80.3Z" fill="#F3A06F"/>
<path fill-rule="evenodd" clip-rule="evenodd" d="M82.4 27.6001C65.8 27.6001 50.3 41.1001 50.3 57.6001L52.4 88.8001C52.4 88.8001 52.4 96.4001 59.9 105C66.4 112.5 75 122 82.5 122C89.9 122 98.3 112.5 105 105C112 97.4001 112.5 88.8001 112.5 88.8001L114.6 57.6001C114.6 41.0001 99.1 27.6001 82.4 27.6001Z" fill="#FEB886"/>
<path fill-rule="evenodd" clip-rule="evenodd" d="M79.6 96.3999C81.1 96.4999 84.4 96.3999 85.7 96.0999C87.5 95.6999 84.7 92.9999 82.5 92.8999C81.1 92.8999 77 95.8999 79.6 96.3999Z" fill="#FE8F6A"/>
<path fill-rule="evenodd" clip-rule="evenodd" d="M87.9 69.3001C88.6 68.3001 95.4 67.4001 100.4 66.8001C101.3 66.7001 106.9 66.6001 110.1 68.9001C107.7 68.3001 104.8 68.1001 99.8 69.1001C96.7 69.7001 90.2 71.8001 89 71.9001C88 71.8001 87.1 70.4001 87.9 69.3001Z" fill="#CF6C37"/>
<path fill-rule="evenodd" clip-rule="evenodd" d="M77 69.3001C76.3 68.3001 69.5 67.4001 64.5 66.8001C63.6 66.7001 58 66.6001 54.8 68.9001C57.2 68.3001 60.1 68.1001 65.1 69.1001C68.2 69.7001 74.7 71.8001 75.9 71.9001C76.9 71.8001 77.8 70.4001 77 69.3001Z" fill="#CF6C37"/>
<path fill-rule="evenodd" clip-rule="evenodd" d="M93 102.2C93 102.2 90.7 103 89.1 103C85 102 80.7 102 75.8 103C74.3 103 71.9 102.2 71.9 102.2C77.5 109.7 87.6 109.1 93 102.2Z" fill="#ED5852"/>
<path fill-rule="evenodd" clip-rule="evenodd" d="M72 102.2C73.2 103.6 75.7 111.5 82.5 111.5C88 111.5 90.5 106.7 92.8 102.2C91.6 103.7 88.3 105.5 82.8 105.4C79.7 105.2 75.8 106.3 72 102.2Z" fill="#E3494B"/>
<path fill-rule="evenodd" clip-rule="evenodd" d="M136.6 148.3C131.5 147.8 122.6 144.4 114.6 141C109.8 139 105.4 136.6 102.2 135.2C99.3 133.8 97.6 132.3 97.6 132.3C97.9 134.2 97.8 137.1 97.5 139.1C94.2 156.4 90.2 177.6 88.6 199.3C112 196.1 132.3 179.8 144.6 156.6C143.3 152.6 140.9 149.9 136.6 148.3Z" fill="#96000A"/>
<path fill-rule="evenodd" clip-rule="evenodd" d="M63.2 135.4C63.2 135.4 61.7 136 59 136.9C52 139.3 37.6 144.2 22.6 148.3C18.5 149.8 16.3 152.2 15 155.6C27.8 180.3 49.3 197.2 74.1 199.5C69.7 173.5 60.9 138 63.2 135.4Z" fill="#96000A"/>
<path fill-rule="evenodd" clip-rule="evenodd" d="M64.8 197.9C55.4 195.9 45.6 190.6 35.2 182C42.5 174.8 32.2 165.4 27.6 151.7C19.8 128.6 28.6 128.7 31.1 107.5C32.9 92.4 42.9 93.9 43.6 65.2C43.6 35.8 57.8 21 86.2 21C90.1 21.4 92.9 22.8 94.3 25.4C101.9 24.9 108.5 29.3 113.9 38.6C119.8 48.1 122.4 62.3 121.6 81.2C120.5 91 121.4 99.2 124.5 105.6C140.6 128.5 121.7 137.7 124.7 153.5C127.3 163.7 130.1 172.1 127 180C120.2 187.2 110.1 193.1 96.7 197.7C121.9 175.5 88 163.4 96.7 136.1C101.3 121.7 112.4 105.4 113 81.9C113.5 66.8 109.2 57.8 100.2 54.9C95.6 52.5 93.5 49 93.9 44.3C85.7 59.3 71.6 69.6 51.6 75C51.3 87 54.9 98 62.4 107.9C69 120.5 68.5 134.1 61 148.7C52.2 162.8 53.4 179.2 64.8 197.9Z" fill="#FEE9C3"/>
<path fill-rule="evenodd" clip-rule="evenodd" d="M46.8 190.4C48.3 191.3 49.9 192.2 51.7 193.1C44.9 181 44.4 166.3 49.9 149C56.8 133.2 56.7 116.1 49.4 97.5C46.8 82 48.8 69.3 55.4 59.3C45.1 76.1 42.9 95.5 49.1 116.6C51.5 128.4 49.9 140.9 44.5 154.1C39.4 166.2 40.1 178.3 46.8 190.4Z" fill="#F1D5A4"/>
<path fill-rule="evenodd" clip-rule="evenodd" d="M41.9 110.1C41.6 121.5 40.2 132.7 37.5 143.9C44 134.3 45.5 123.1 41.9 110.1Z" fill="#F1D5A4"/>
<path fill-rule="evenodd" clip-rule="evenodd" d="M35.9 120.7C29.1 133.4 29.1 147 36.2 161.3C32 147.7 31.9 134.1 35.9 120.7Z" fill="#F1D5A4"/>
<path fill-rule="evenodd" clip-rule="evenodd" d="M118.5 187C114.8 189.5 111.7 191.4 109 192.6C125 166.1 85.2 157.4 109.8 118.9C102.8 135.5 103.2 149 111 159.3C121.4 168.2 123.9 177.5 118.5 187Z" fill="#F1D5A4"/>
<path fill-rule="evenodd" clip-rule="evenodd" d="M117.4 114.4C111.8 124.8 110.1 134.3 112.2 143C108.3 134.7 110 123.1 117.4 108.2C119.6 104.9 119.6 100.6 117.4 95.3999C121.2 101.2 121.2 107.6 117.4 114.4Z" fill="#F1D5A4"/>
<path fill-rule="evenodd" clip-rule="evenodd" d="M124.3 132.6C115.8 146.8 115.4 157.3 123.1 164.2C118.9 154.5 119.3 144 124.3 132.6Z" fill="#F1D5A4"/>
<path fill-rule="evenodd" clip-rule="evenodd" d="M82 27C78.6 34.2 81.2 38.8 85.6 43.9C78.6 53.8 62.5 46.6 53.9 63.8C49.8 53.9 57.1 30.7 82 27Z" fill="#FFF2DA"/>
<path fill-rule="evenodd" clip-rule="evenodd" d="M106.8 40C107.2 44.1 105.2 45.7 102.2 47.5C106.6 51 113.1 57.9 113.9 62.4C117.6 58.3 118 45.9 106.8 40Z" fill="#FFF2DA"/>
<path d="M106.6 76.4999C106.6 76.4999 101.3 72.1999 96.7 73.5999C92.1 74.9999 89.8 78.0999 88.9 80.3999C88.9 80.3999 89.5 79.7999 91.9 80.4999C94.2 81.2999 101.6 83.1999 106.6 76.4999Z" fill="white"/>
<path d="M94.3 74.4997C94.3 74.4997 91.8 78.6998 96 81.1998C96.6 81.1998 99.7 81.4997 100.7 80.3997C101.7 79.2997 103.6 76.2997 100.1 73.5997C97.7 73.3997 96.3 73.3997 94.3 74.4997Z" fill="#366666"/>
<path d="M100.1 77.4999C100 78.6999 99 79.4999 97.7 79.4999C96.5 79.3999 95.6 78.4 95.6 77.2C95.7 76 96.7 75.2 98 75.2C99.3 75.3 100.1 76.3999 100.1 77.4999Z" fill="#312116"/>
<path d="M96.3 76.7999C96.3 77.2999 95.9 77.5999 95.4 77.5999C94.9 77.5999 94.6 77.1999 94.6 76.6999C94.6 76.1999 95 75.8999 95.5 75.8999C96 75.8999 96.4 76.2999 96.3 76.7999Z" fill="white"/>
<path opacity="0.5" d="M94.5 78.7999C94.5 78.7999 97.8 81.9999 101.1 78.5999C100 80.1999 97.8 82.4999 94.5 78.7999Z" fill="white"/>
<path opacity="0.7" d="M88.8 80.3999C90.1 78.0999 95.7 70.8999 105.2 77.8999C105.6 77.2999 106.1 76.5999 106.1 76.5999C106.1 76.5999 94.3 67.0999 88.8 80.3999Z" fill="#C1C4C9"/>
<path d="M88.8 80.3998C89.4 78.6998 90.4 77.1998 91.6 75.9998C92.9 74.6998 94.5 73.9998 96.4 73.6998C98.2 73.3998 100 73.6998 101.7 74.1998C103.4 74.6998 105 75.4998 106.6 76.3998L106.8 76.4998L106.7 76.6998C105.9 78.1998 104.7 79.4998 103.2 80.1998C101.8 81.0998 100.1 81.3998 98.5 81.5998C96.9 81.6998 95.2 81.5998 93.6 81.1998C92.7 80.9998 92 80.6998 91.2 80.4998C90.5 80.1998 89.6 80.0998 88.8 80.3998ZM88.8 80.3998C89.6 80.0998 90.5 80.0998 91.2 80.2998C92 80.4998 92.8 80.7998 93.6 80.8998C95.2 81.1998 96.9 81.2998 98.4 81.1998C100 80.9998 101.6 80.6998 102.9 79.7998C104.3 78.9998 105.5 77.8998 106.1 76.4998L106.2 76.7998C104.7 75.8998 103.1 75.0998 101.4 74.5998C99.7 74.0998 98 73.8998 96.2 73.9998C94.4 74.1998 92.8 74.8998 91.5 76.0998C90.5 77.2998 89.5 78.7998 88.8 80.3998Z" fill="#9D6E59"/>
<path d="M88.8 80.3998C88.8 80.3998 90.7 75.2998 95.8 74.1998C98.3 73.6998 101.7 74.2998 106.1 76.7998C106.5 76.9998 107.7 76.9998 108.7 76.4998C107.4 76.2998 100.9 71.1998 95.2 73.0998C92.9 73.8998 90.5 75.8998 88.8 80.3998Z" fill="#312116"/>
<path d="M58.2 76.2999C58.2 76.2999 63.5 71.9999 68.1 73.3999C72.7 74.7999 75 77.8999 75.9 80.1999C75.9 80.1999 75.3 79.5999 72.9 80.2999C70.6 81.0999 63.2 82.9999 58.2 76.2999Z" fill="white"/>
<path d="M70.5 74.2998C70.5 74.2998 73 78.4998 68.8 80.9998C68.2 80.9998 65.1 81.2998 64.1 80.1998C63.1 79.0998 61.2 76.0998 64.7 73.3998C67 73.1998 68.5 73.1998 70.5 74.2998Z" fill="#366666"/>
<path d="M64.7 77.3C64.8 78.5 65.8 79.3 67.1 79.3C68.3 79.2 69.2 78.2 69.2 77C69.1 75.8 68.1 75 66.8 75C65.5 75.1 64.6 76.2 64.7 77.3Z" fill="#312116"/>
<path d="M68.4 76.5999C68.4 77.0999 68.8 77.3999 69.3 77.3999C69.8 77.3999 70.1 76.9999 70.1 76.4999C70.1 75.9999 69.7 75.7 69.2 75.7C68.8 75.7 68.4 76.0999 68.4 76.5999Z" fill="white"/>
<path opacity="0.5" d="M70.2 78.5999C70.2 78.5999 66.9 81.7999 63.6 78.3999C64.8 79.9999 67 82.2999 70.2 78.5999Z" fill="white"/>
<path opacity="0.7" d="M75.9 80.2C74.6 77.9 69 70.7 59.5 77.7C59.1 77 58.7 76.4 58.7 76.4C58.7 76.4 70.5 66.9 75.9 80.2Z" fill="#C1C4C9"/>
<path d="M75.9 80.1999C75.2 78.5999 74.2 77.0999 72.9 75.9999C71.6 74.7999 70 74.0999 68.2 73.8999C66.4 73.5999 64.7 73.9999 63 74.4999C61.3 74.9999 59.7 75.7999 58.2 76.6999L58.3 76.3999C59 77.7999 60.2 78.9999 61.5 79.7999C62.9 80.5999 64.5 80.9999 66 81.1999C67.7 81.3999 69.3 81.1999 70.8 80.8999C71.6 80.6999 72.4 80.4999 73.2 80.2999C74.3 79.8999 75.1 79.8999 75.9 80.1999ZM75.9 80.1999C75.1 79.8999 74.2 79.9999 73.5 80.1999C72.7 80.3999 72 80.6999 71.1 80.8999C69.5 81.2999 67.8 81.3999 66.2 81.2999C64.6 81.1999 62.9 80.7999 61.5 79.8999C60.1 78.9999 58.7 77.8999 58 76.3999L57.9 76.1999L58.1 76.0999C59.7 75.1999 61.3 74.3999 63 73.8999C64.7 73.3999 66.5 73.1999 68.3 73.3999C70.1 73.6999 71.8 74.4999 73.1 75.6999C74.4 76.9999 75.3 78.4999 75.9 80.1999Z" fill="#9D6E59"/>
<path d="M75.9 80.1999C75.9 80.1999 74 75.0999 68.9 73.9999C66.4 73.4999 63 74.0999 58.6 76.5999C58.2 76.7999 57 76.7999 56 76.2999C57.2 76.0999 63.8 70.9999 69.5 72.8999C71.9 73.6999 74.3 75.6999 75.9 80.1999Z" fill="#312116"/>
</svg>
