<svg width="160" height="200" viewBox="0 0 160 200" fill="none" xmlns="http://www.w3.org/2000/svg">
<ellipse cx="80" cy="100" rx="80" ry="100" fill="#F4F4F4"/>
<path d="M120.6 133.413C115.7 125.513 96.1001 117.513 83.0001 116.013V115.713C82.3001 115.713 81.6001 115.713 80.9001 115.813C80.2001 115.813 79.5001 115.713 78.8001 115.713V116.013C65.7001 117.513 46.1001 125.513 41.2001 133.413C35.7001 142.213 54.2001 162.913 54.2001 162.913L80.9001 161.313L107.6 162.913C107.6 162.913 126.1 142.213 120.6 133.413Z" fill="#00BEBC"/>
<path d="M102.1 133.113C99.4 128.013 88.6 122.913 81.4 121.913V121.713C81 121.713 80.7 121.713 80.3 121.713C79.9 121.713 79.5 121.713 79.2 121.713V121.913C72 122.913 61.2 128.013 58.5 133.113C55.5 138.813 65.7 152.113 65.7 152.113L80.4 151.013L95.1 152.113C95 152.113 105.2 138.713 102.1 133.113Z" fill="#008C87"/>
<path d="M99.5 189.013V188.413L99.6001 186.113L101.5 141.713L80.3 155.413L59.3 141.213L60.3 165.513L60.4 169.013L61.3 192.913L61.4 195.213L61.5 196.713C67.5 198.513 73.8001 199.513 80.2001 199.513C86.7001 199.513 93.1001 198.513 99.1001 196.713L99.3 191.513L99.5 189.013Z" fill="#DBE5EB"/>
<path d="M126.1 161.113C119.2 156.313 101.5 141.713 101.5 141.713L99.1 196.613C114.5 191.913 128.1 181.813 138.5 167.813C132.8 164.313 127.9 162.413 126.1 161.113Z" fill="#008C87"/>
<path d="M46 152.413C41.8 155.913 37.5 159.313 34.8 161.213C33 162.513 28 164.413 22 168.013C32.5 181.913 46.1 192.013 61.5 196.613L59.3 141.213C59.3 141.213 52.7 146.913 46 152.413Z" fill="#008C87"/>
<path d="M101.5 141.713C101.5 141.713 89.6001 173.213 80.1001 173.113C70.6001 173.013 59.3 141.213 59.3 141.213C59.6 140.613 60 140.013 60.3 139.413C65 129.313 64.6001 109.713 64.6001 109.713H95.9C95.9 109.713 95.5 129.313 100.2 139.413C100.6 140.213 101.1 141.013 101.5 141.713Z" fill="#FF9267"/>
<path d="M100.2 139.413C96.6001 142.013 93.1 144.013 90 145.513C87.1 147.613 83.7 148.613 80.3 148.613C76.9 148.613 73.5 147.613 70.5 145.513C67.4 144.013 63.8 142.013 60.3 139.413C65 129.313 64.6001 109.713 64.6001 109.713H95.9C95.9 109.713 95.5 129.313 100.2 139.413Z" fill="#F87948"/>
<path d="M51.7 86.3126C51.7 86.3126 48.2 67.4126 42.6 70.1126C37 72.9126 36.8 95.5126 51.7 101.613V86.3126Z" fill="#FF9267"/>
<path d="M48.2 92.8126C48.2 91.7126 48.0999 90.5126 47.8999 89.1126C47.6999 87.7126 47.4 86.2126 47 84.6126C46.1 81.5126 44.8 78.8126 43.7 77.0126C43.1 76.1126 42.6999 75.4126 42.2999 74.9126C41.8999 74.4126 41.7 74.2126 41.7 74.2126C41.7 74.2126 42.1999 75.4126 42.8999 77.4126C43.3999 78.8126 43.9999 80.5126 44.5999 82.4126C44.4999 82.4126 44.3999 82.5126 44.2999 82.5126C43.8999 82.7126 43.4 83.0126 43 83.5126C42.6 84.0126 42.2 84.6126 42 85.2126C41.6 86.6126 41.7999 87.9126 42.0999 88.7126C42.2999 89.1126 42.3999 89.4126 42.5999 89.7126C42.6999 89.9126 42.7999 90.0126 42.7999 90.0126C42.7999 90.0126 42.7999 89.9126 42.7999 89.6126C42.7999 89.4126 42.8999 89.0126 42.8999 88.6126C42.9999 87.8126 43.1999 86.7126 43.5999 85.7126C43.7999 85.2126 44 84.7126 44.2 84.2126C44.4 83.8126 44.5999 83.4126 44.8999 83.0126C45.0999 83.6126 45.3 84.3126 45.5 84.9126C45.9 86.4126 46.3 87.9126 46.7 89.2126C47 90.5126 47.3 91.7126 47.5 92.8126C47.7 93.8126 47.9 94.7126 48 95.2126C48.1 95.8126 48.2 96.1126 48.2 96.1126C48.2 96.1126 48.1999 95.8126 48.2999 95.2126C48.1999 94.7126 48.2 93.9126 48.2 92.8126Z" fill="#EE5C1D"/>
<path d="M108.8 86.3126C108.8 86.3126 112.3 67.4126 117.9 70.1126C123.5 72.9126 123.7 95.5126 108.8 101.613V86.3126Z" fill="#FF9267"/>
<path d="M112.3 92.8126C112.3 91.7126 112.4 90.5126 112.6 89.1126C112.8 87.7126 113.1 86.2126 113.5 84.6126C114.4 81.5126 115.7 78.8126 116.8 77.0126C117.4 76.1126 117.8 75.4126 118.2 74.9126C118.6 74.4126 118.8 74.2126 118.8 74.2126C118.8 74.2126 118.3 75.4126 117.6 77.4126C117.1 78.8126 116.5 80.5126 115.9 82.4126C116 82.4126 116.1 82.5126 116.2 82.5126C116.6 82.7126 117.1 83.0126 117.5 83.5126C117.9 84.0126 118.3 84.6126 118.5 85.2126C118.9 86.6126 118.7 87.9126 118.4 88.7126C118.2 89.1126 118.1 89.4126 117.9 89.7126C117.8 89.9126 117.7 90.0126 117.7 90.0126C117.7 90.0126 117.7 89.9126 117.7 89.6126C117.7 89.4126 117.6 89.0126 117.6 88.6126C117.5 87.8126 117.3 86.7126 116.9 85.7126C116.7 85.2126 116.5 84.7126 116.3 84.2126C116.1 83.8126 115.9 83.4126 115.6 83.0126C115.4 83.6126 115.2 84.3126 115 84.9126C114.6 86.4126 114.2 87.9126 113.8 89.2126C113.5 90.5126 113.2 91.7126 113 92.8126C112.8 93.8126 112.6 94.7126 112.5 95.2126C112.4 95.8126 112.3 96.1126 112.3 96.1126C112.3 96.1126 112.3 95.8126 112.2 95.2126C112.3 94.7126 112.3 93.9126 112.3 92.8126Z" fill="#EE5C1D"/>
<path d="M110 108.813C109 116.413 105.4 122.413 101 126.913C97.7 130.313 94 132.913 90.6 134.913C89.5 135.513 88.4 136.113 87.4 136.613C85.4 138.013 83.1 138.813 80.7 138.913C80.5 138.913 80.4 138.913 80.2 138.913C77.7 138.913 75.2 138.113 73 136.613C64.8 132.613 52.4 124.113 50.4 108.813C49 97.7127 49 83.5127 49.3 71.7127C49.5 64.5127 49.9 58.3127 50.1 54.2127C50.3 51.2127 50.4 49.4127 50.4 49.4127C50.4 49.4127 54.3 44.3127 60.7 39.8127C65.8 36.2127 72.6 33.0127 80.2 33.0127C86.9 33.0127 92.9 35.5127 97.7 38.5127C105.3 43.3127 109.9 49.4127 109.9 49.4127C109.9 49.4127 113.1 85.8127 110 108.813Z" fill="#FFBA83"/>
<path d="M104 94.5126C104.7 94.6126 105.6 94.8126 105.8 95.6126C105.9 96.4126 105.2 96.8126 104.5 97.0126C102.6 97.7126 100.6 98.3126 98.6 98.7126C97.1 99.0126 94.3 100.113 92.7 99.6126C91.2 99.1126 92.3 97.4126 93.1 96.8126C96.1 94.7126 100.5 94.0126 104 94.5126Z" fill="#FFDBB6"/>
<path d="M56.5 94.5126C55.8 94.6126 54.9 94.8126 54.7 95.6126C54.6 96.4126 55.3 96.8126 56 97.0126C57.9 97.7126 59.9 98.3126 61.9 98.7126C63.4 99.0126 66.2 100.113 67.8 99.6126C69.3 99.1126 68.2 97.4126 67.4 96.8126C64.4 94.7126 60 94.0126 56.5 94.5126Z" fill="#FFDBB6"/>
<path d="M110 108.813C109 116.413 105.4 122.413 101 126.913C97.7001 130.313 94.0001 132.913 90.6001 134.913C89.5001 135.513 88.4001 136.113 87.4001 136.613C85.4001 138.013 83.1001 138.813 80.7001 138.913C88.1001 135.413 97.9001 130.013 102.7 119.013C108.1 106.613 110.2 84.6125 107 71.4125C105.4 71.9125 103.5 72.4125 102.2 71.3125C101.1 70.4125 100.9 68.9125 100.9 67.6125C100.8 63.8125 101.1 60.1125 102.2 56.5125C91.5001 58.5125 80.7001 60.5125 69.9001 59.7125C63.1001 59.2125 56.2001 57.5125 50.2001 54.2125C50.4001 51.2125 50.5001 49.4125 50.5001 49.4125C50.5001 49.4125 54.4001 44.3125 60.8001 39.8125C73.1001 38.0125 85.6001 37.2125 97.8001 38.5125C105.4 43.3125 110 49.4125 110 49.4125C110 49.4125 113.1 85.8125 110 108.813Z" fill="#FF9267"/>
<path d="M84.5 127.013C81 125.613 76.9 125.613 73.4 127.213C74 128.413 74.9 129.713 75.9 130.613C76.9 131.513 78.2 132.213 79.5 132.013C80.5 131.813 81.5 131.213 82.2 130.513C83.1 129.613 83.8 128.113 84.5 127.013Z" fill="#FFDBB6"/>
<path d="M132.9 47.8126C130.3 51.0126 126.7 53.6126 123.4 56.1126C123.3 58.1126 122.5 62.4126 121.7 66.1126C120.9 69.8126 120.2 73.0126 120.2 73.0126C120.2 73.0126 119.4 71.2126 117.9 70.1126L111.4 81.7126L110 67.4126C110 67.4126 106.6 67.8126 105.5 67.4126C104.4 67.0126 107.3 53.1126 107.3 53.1126C102.7 54.6126 97.7 54.8126 92.8 54.9126C88.7 55.0126 84.5 54.9126 80.4 54.8126C76.3 54.9126 72.1 54.9126 68 54.9126C63.1 54.8126 58.1 54.5126 53.5 53.1126C53.5 53.1126 56.4 67.0126 55.3 67.4126C54.2 67.8126 50.8 67.4126 50.8 67.4126L49.1 81.7126L42.6 70.1126C41.1 71.2126 40.3 73.0126 40.3 73.0126C40.3 73.0126 39.4 69.8126 38.7 65.6126C37.3 58.3126 36.3 48.0126 40.4 45.4126C38.7 41.7126 40.1 36.6126 42.8 33.6126C45.5 30.6126 49.4 28.8126 53.2 27.3126C73.9 19.2126 96.5 17.1126 118.7 18.3126C120.3 18.4126 122.2 18.6126 123.1 20.0126C123.6 20.8126 123.1 22.0126 122.7 22.9126C121.5 25.4126 119.9 27.7126 118.2 29.8126C121.7 29.8126 125.7 30.3126 129.1 31.0126C129.9 31.2126 130.8 31.4126 131.2 32.2126C131.6 33.0126 131 34.0126 130.5 34.7126C128.3 37.9126 125.9 40.9126 123.3 43.8126C125.9 43.5126 128.5 43.6126 131.1 43.9126C132.2 44.0126 133.5 44.3126 133.8 45.4126C134.1 46.1126 133.5 47.1126 132.9 47.8126Z" fill="#893412"/>
<path d="M121.7 66.1125C120.9 69.8125 120.2 73.0125 120.2 73.0125C120.2 73.0125 119.4 71.2125 117.9 70.1125L111.4 81.7125L110 67.4125C110 67.4125 106.6 67.8125 105.5 67.4125C104.4 67.0125 107.3 53.1125 107.3 53.1125C102.7 54.6125 97.7001 54.8125 92.8001 54.9125C88.7001 55.0125 84.5001 54.9125 80.4001 54.8125C76.3001 54.9125 72.1001 54.9125 68.0001 54.9125C63.1001 54.8125 58.1001 54.5125 53.5001 53.1125C53.5001 53.1125 56.4001 67.0125 55.3001 67.4125C54.2001 67.8125 50.8001 67.4125 50.8001 67.4125L49.1001 81.7125L42.6001 70.1125C41.1001 71.2125 40.3001 73.0125 40.3001 73.0125C40.3001 73.0125 39.4001 69.8125 38.7001 65.6125C39.5001 64.7125 40.4001 63.8125 41.3001 62.9125C42.1001 64.5125 43.4001 65.8125 45.0001 66.5125C45.1001 64.6125 45.1001 62.7125 45.2001 60.8125C46.5001 61.0125 47.8001 61.1125 49.0001 61.3125C46.5001 57.8125 45.1001 53.5125 45.0001 49.2125C67.7001 50.9125 90.6001 49.6125 113 45.3125C112 50.7125 111 56.1125 110 61.5125C111.6 61.2125 113.2 60.9125 114.8 60.6125C114.4 62.4125 113.9 64.2125 113.4 66.0125C115 64.2125 117.9 64.0125 120.1 65.1125C120.7 65.4125 121.3 65.7125 121.7 66.1125Z" fill="#642308"/>
<path d="M87.3 37.1126C82.9 36.4126 78.6 35.1126 74.5 33.1126C77.2 31.2126 80 29.2126 82.7 27.3126C80.1 26.6126 77.5 25.3126 74.9 24.6126C85.7 21.7126 96.8 20.3126 108 20.6126C106.6 21.7126 105.2 22.9126 103.7 24.0126C105.7 24.0126 107.5 24.8126 109.5 24.8126C107.2 27.6126 105 30.5126 102.7 33.3126C105.4 33.3126 108.2 33.3126 110.9 33.4126C110.2 34.3126 109.4 35.2126 108.7 36.1126C112.9 36.1126 117.2 36.1126 121.4 36.1126C108 42.0126 93.5 45.3126 78.9 45.9126C81.1 45.1126 82.7 43.4126 84.9 42.6126C83.3 42.2126 81.6 41.7126 80 41.3126C82.3 39.8126 85 38.3126 87.3 37.1126Z" fill="#A84B1B"/>
<path d="M86.6001 100.313C86.1001 99.0128 84.8 98.1128 83.5 97.6128C82.5 98.2128 81.1001 98.9128 80.1001 99.4128C79.0001 98.9128 77.8001 98.3128 76.7001 97.7128C75.4001 98.3128 74.4 99.4128 73.8 100.713C75.6 102.313 77.6001 103.513 79.7001 104.613C81.9001 103.813 85.1001 101.913 86.6001 100.313Z" fill="#FF9267"/>
<path d="M79.4 96.0127C78.7 96.3127 78 96.7127 77.5 97.3127C78.3 97.7127 79.2 98.2127 79.9 98.6127C80.8 98.1127 81.8 97.5127 82.7 97.0127C81.9 96.4127 80.4 95.7127 79.4 96.0127Z" fill="#FFDBB6"/>
<path d="M76.4 101.413C76.2 101.213 76 101.113 75.8 100.813C75.7 100.613 75.6 100.313 75.8 100.013C76 99.8127 76.4 99.7127 76.6 99.8127C76.9 99.9127 77.1 100.213 77.3 100.413C77.9 101.113 78.6 102.013 78.9 102.813C78 102.713 77.1 101.913 76.4 101.413Z" fill="#893412"/>
<path d="M84.1001 101.413C84.3001 101.213 84.5001 101.113 84.7001 100.813C84.8001 100.613 84.9001 100.313 84.7001 100.013C84.5001 99.8127 84.1001 99.7127 83.9001 99.8127C83.6001 99.9127 83.4001 100.213 83.2001 100.413C82.6001 101.113 81.9001 102.013 81.6001 102.813C82.5001 102.713 83.4001 101.913 84.1001 101.413Z" fill="#893412"/>
<path d="M97.2 106.513C97.2 109.313 95.5 112.813 93.7 115.613C92 118.313 90.1999 120.313 89.7999 120.213C89.4 120.113 84.7999 120.113 80.3999 120.213C75.9999 120.213 71.3999 120.213 70.9999 120.213C70.5999 120.313 69.1 118.613 67.6 116.313C65.7 113.413 63.7 109.513 63.7 106.513C63.7 106.513 63.8999 106.613 64.2999 106.713C65.4999 107.113 68.2999 107.913 69.2999 108.013C69.8999 108.113 75.0999 108.013 80.4999 107.913C85.8999 108.013 90.8999 108.113 91.4999 108.013C92.5999 107.913 95.6 107.013 96.7 106.613C97 106.613 97.2 106.513 97.2 106.513Z" fill="#642308"/>
<path d="M96.7999 106.613C95.5999 108.513 93.8999 110.913 92.6999 111.313C90.7999 112.013 69.1999 112.413 67.5999 111.313C66.4999 110.613 65.0999 108.213 64.3999 106.713C65.5999 107.113 68.3999 107.913 69.3999 108.013C69.9999 108.113 75.1999 108.013 80.5999 107.913C85.9999 108.013 90.9999 108.113 91.5999 108.013C92.6999 107.913 95.6999 107.013 96.7999 106.613Z" fill="white"/>
<path d="M93.7 115.613C92 118.313 90.2 120.313 89.8 120.213C89.4 120.113 84.8 120.113 80.4 120.213C76 120.213 71.4 120.213 71 120.213C70.6 120.313 69.1 118.613 67.6 116.313C69.2 115.613 70.8 115.013 72.5 114.713C75.4 114.113 78.6 114.413 81 115.913C83.4 114.513 86.7 114.013 89.5 114.513C91 114.713 92.4 115.113 93.7 115.613Z" fill="#E80E22"/>
<path d="M104.9 84.7127C102.8 82.3127 99.4001 80.9127 96.1001 81.1127C92.8001 81.3127 89.6 83.0127 87.8 85.7127C89.2 82.4127 92.2 79.7127 95.9 79.0127C97.9 78.7127 100.2 79.2127 101.9 80.3127C103.6 81.4127 104.4 82.8127 104.9 84.7127Z" fill="#642308"/>
<path d="M100.1 85.0127C100.1 87.7127 98.6001 89.9126 96.9001 89.9126C95.1001 89.9126 93.7001 87.7127 93.7001 85.0127C93.7001 82.3127 95.2001 80.1127 96.9001 80.1127C98.6001 80.0127 100.1 82.2127 100.1 85.0127Z" fill="#642308"/>
<path d="M103.5 84.4128C101.5 83.7128 99 84.2128 97.3 85.6128C98.2 86.2128 99.3 86.6128 100.4 86.4128C101.5 86.3128 102.8 85.3128 103.5 84.4128Z" fill="white"/>
<path d="M56 84.7127C58.1 82.3127 61.5 80.9127 64.8 81.1127C68.1 81.3127 71.3 83.0127 73.1 85.7127C71.7 82.4127 68.7 79.7127 65 79.0127C63 78.7127 60.7 79.2127 59 80.3127C57.4 81.4127 56.6 82.8127 56 84.7127Z" fill="#642308"/>
<path d="M60.9 85.0127C60.9 87.7127 62.4 89.9126 64.1 89.9126C65.9 89.9126 67.3 87.7127 67.3 85.0127C67.3 82.3127 65.8 80.1127 64.1 80.1127C62.3 80.0127 60.9 82.2127 60.9 85.0127Z" fill="#642308"/>
<path d="M63.8 84.8127C65.8 84.1127 68.3 84.6127 70 86.0127C69.1 86.6127 68 87.0127 66.9 86.8127C65.7 86.7127 64.5 85.7127 63.8 84.8127Z" fill="white"/>
<path d="M71 71.4126C71.5 71.5126 72.1 71.6126 72.6 71.3126C73.2 70.9126 73.3 70.0126 73.2 69.3126C72.7 67.3126 70.4 66.0126 68.3 65.9126C66.2 65.8126 64.2 66.7126 62.3 67.8126C60.2 69.0126 58.2 70.4126 56.3 71.9126C55.8 72.3126 53.2 74.9126 54.6 75.6126C55.4 76.0126 57.3 74.3126 57.9 73.9126C61.5 71.2126 66.7 70.6126 71 71.4126Z" fill="#893412"/>
<path d="M89.3 78.8127C88.8 79.1127 88.3 79.4127 87.8 79.3127C87.1 79.2127 86.6 78.4127 86.5 77.6127C86.2 75.5127 87.8 73.5127 89.8 72.7127C91.7 71.9127 94.0001 71.9127 96.1001 72.2127C98.5001 72.5127 100.9 73.1127 103.2 73.8127C103.9 74.0127 107.2 75.5127 106.2 76.6127C105.6 77.3127 103.2 76.4127 102.5 76.2127C98 75.1127 93 76.4127 89.3 78.8127Z" fill="#893412"/>
<path d="M99.5 189.013L99.4 191.413C87 194.813 74.3 196.113 61.5 195.213L61.4 192.913C74.2 193.813 87.1 192.513 99.5 189.013Z" fill="#DBE5EB"/>
<path d="M99.6001 186.113L99.5 188.413C85.3 184.413 70.9 179.513 60.4 169.013L60.3 165.513C70.5 176.913 85.1001 182.013 99.6001 186.113Z" fill="#DBE5EB"/>
<path d="M114.6 152.313C107.9 146.813 101.3 141.213 101.3 141.213L99.1 196.613C103.9 195.113 108.6 193.113 113.1 190.613C116.4 182.513 119.6 172.913 120.5 169.013C121.7 163.913 119.1 159.513 114.6 152.313Z" fill="#00BEBC"/>
<path d="M46 152.413C41.5 159.613 38.9 163.913 40.1 169.013C41.1 172.913 44.2 182.613 47.6 190.713C52 193.213 56.7 195.213 61.5 196.613L59.3 141.213C59.3 141.213 52.7 146.913 46 152.413Z" fill="#00BEBC"/>
</svg>
