<svg width="160" height="200" viewBox="0 0 160 200" fill="none" xmlns="http://www.w3.org/2000/svg">
<ellipse cx="80" cy="100" rx="80" ry="100" fill="#F4F4F4"/>
<path d="M102.8 138.499C82.1 148.499 63.5 136.799 63.5 136.799C60.8 154.599 64.3 179.899 68.9 198.799C72.6 199.499 76.3999 199.799 80.1999 199.799C85.0999 199.799 89.8 199.299 94.4 198.199C100.2 180.399 103.5 159.899 102.8 138.499Z" fill="#E2EDF1"/>
<path d="M82.2001 16.5989C69.9001 16.2989 54.4001 21.8989 46.5001 29.2989C36.3001 38.7989 33.9001 55.9989 38.6001 76.0989C43.7001 98.5989 63.6001 122.599 95.1001 119.599C96.1001 119.499 99.7001 119.699 100.6 119.199C102.7 117.999 104.9 116.899 106.2 113.499C108.1 108.599 121.5 94.5989 124.3 76.0989C129.5 40.5989 110.3 17.3989 82.2001 16.5989Z" fill="#3C2415"/>
<path d="M94.8 108.199L81.5999 108.499L68.4 108.799C68.4 108.799 77.9 129.099 56.7 136.699C71.4 153.799 101.6 146.399 108.1 135.399C86.6999 128.999 94.8 108.199 94.8 108.199Z" fill="#FCBA9D"/>
<path d="M93.7 113.099L68.4 108.999C68.4 108.999 73.2 118.899 68.2 128.199C90.2 124.399 93.7 113.099 93.7 113.099Z" fill="#F4A487"/>
<path d="M62.8 136.299C62.8 136.299 60.4 166.499 61.1 171.899C61.8 177.199 66.9 182.699 69.9 183.699C76.2 184.599 79.4 176.399 91.8 183.199C97.2 186.199 103.2 175.799 104.1 171.499C105.2 152.699 102.6 144.899 102.8 136.399C81.2 151.999 62.8 136.299 62.8 136.299Z" fill="white"/>
<path d="M107.3 76.2989C106.1 82.1989 108.2 87.6989 112.2 88.4989C116.2 89.2989 120.4 85.0989 121.6 79.1989C122.8 73.2989 120.7 67.7989 116.7 66.9989C112.8 66.0989 108.6 70.2989 107.3 76.2989Z" fill="#EDA68E"/>
<path opacity="0.4" d="M107.9 75.7989C106.9 80.3989 108.6 84.4989 111.7 85.0989C114.8 85.6989 118.2 82.3989 119.3 77.8989C120.3 73.2989 118.6 69.1989 115.5 68.5989C112.3 67.8989 109 71.1989 107.9 75.7989Z" fill="#EDA68E"/>
<path opacity="0.4" d="M116.9 70.9989C116.6 70.7989 116.2 70.6989 115.8 70.6989C115.4 70.6989 115 70.6989 114.7 70.7989C114 70.9989 113.5 71.2989 113.2 71.4989C112.9 71.6989 112.7 71.8989 112.7 71.8989C112.7 71.8989 112.9 71.6989 113.2 71.4989C113.5 71.2989 114 70.8989 114.7 70.6989C115.4 70.4989 116.3 70.2989 117.2 70.7989C118.1 71.2989 118.5 72.1989 118.7 73.0989C119.1 74.8989 118.9 76.5989 118.5 77.8989C118 79.8989 116.3 84.6989 113.8 83.5989C111.7 81.6989 116.8 79.2989 116.9 79.1989C117.2 78.9989 117.2 78.2989 117.4 77.6989C117.8 76.4989 118.2 74.7989 118 73.1989C117.8 72.1989 117.5 71.3989 116.9 70.9989Z" fill="#EDA68E"/>
<path d="M58.4 76.299C59.6 82.199 57.5 87.699 53.5 88.499C49.5 89.299 45.3 85.099 44.1 79.199C42.8 73.099 45 67.699 49 66.899C52.9 66.099 57.1 70.299 58.4 76.299Z" fill="#EDA68E"/>
<path opacity="0.4" d="M57.8 75.7989C58.8 80.3989 57.1 84.4989 54 85.0989C50.9 85.6989 47.5 82.3989 46.4 77.8989C45.4 73.2989 47.1 69.1989 50.2 68.5989C53.4 67.8989 56.7 71.1989 57.8 75.7989Z" fill="#EDA68E"/>
<path opacity="0.4" d="M48.8 70.9989C49.1 70.7989 49.5 70.6989 49.9 70.6989C50.3 70.6989 50.7 70.6989 51 70.7989C51.7 70.9989 52.2 71.2989 52.5 71.4989C52.8 71.6989 53 71.8989 53 71.8989C53 71.8989 52.8 71.6989 52.5 71.4989C52.2 71.2989 51.7 70.8989 51 70.6989C50.3 70.4989 49.4 70.2989 48.5 70.7989C47.6 71.2989 47.2 72.1989 47 73.0989C46.6 74.8989 46.8 76.5989 47.2 77.8989C47.7 79.8989 49.4 84.6989 51.9 83.5989C54 81.6989 48.9 79.2989 48.8 79.1989C48.5 78.9989 48.5 78.2989 48.3 77.6989C47.9 76.4989 47.5 74.7989 47.7 73.1989C47.9 72.1989 48.2 71.3989 48.8 70.9989Z" fill="#EDA68E"/>
<path d="M82.8001 21.7991C65.7001 21.7991 49.6001 35.6991 49.6001 52.7991L51.8001 85.0991C51.8001 85.0991 51.8001 92.8991 59.5001 101.799C66.2001 109.499 75.1001 119.399 82.8001 119.399C90.5001 119.399 99.1001 109.599 106.1 101.799C113.3 93.8991 113.8 85.0991 113.8 85.0991L116 52.7991C116.1 35.5991 100 21.7991 82.8001 21.7991Z" fill="#FCBA9D"/>
<path d="M86.1001 78.2991C85.9001 79.3991 85.8001 80.4991 85.7001 81.5991C85.6001 82.6991 85.6001 83.7991 85.7001 84.8991C85.9001 87.0991 86.4001 89.2991 86.5001 91.5991C85.6001 89.4991 84.9001 87.2991 84.7001 84.9991C84.6001 83.8991 84.6001 82.6991 84.9001 81.4991C85.2001 80.3991 85.6001 79.2991 86.1001 78.2991Z" fill="#FFC7B6"/>
<path d="M79.9001 92.8991C81.4001 92.9991 84.8001 92.8991 86.2001 92.5991C88.1001 92.1991 85.2001 89.3991 82.9001 89.2991C81.4001 89.2991 77.2001 92.3991 79.9001 92.8991Z" fill="#F4A487"/>
<path d="M88.5 64.899C89.2 63.899 96.2 62.899 101.4 62.299C102.3 62.199 108.1 62.099 111.4 64.499C108.9 63.899 105.9 63.699 100.7 64.699C97.5 65.299 90.8 67.499 89.5 67.599C88.6 67.499 87.7 65.999 88.5 64.899Z" fill="#603913"/>
<path d="M77.2 64.899C76.5 63.899 69.5001 62.899 64.3001 62.299C63.4001 62.199 57.6 62.099 54.3 64.499C56.8 63.899 59.8 63.699 65 64.699C68.2 65.299 74.9 67.499 76.2 67.599C77.1 67.499 78 65.999 77.2 64.899Z" fill="#603913"/>
<path d="M107.8 71.699C107.8 71.699 102 67.599 97.3001 69.399C92.6001 71.199 90.5001 74.599 89.7001 76.999C89.7001 76.999 90.3001 76.299 92.8001 76.899C95.3001 77.499 103.1 78.999 107.8 71.699Z" fill="white"/>
<path d="M94.9001 70.4991C94.9001 70.4991 92.6001 74.9991 97.1001 77.2991C97.7001 77.2991 100.9 77.2991 101.9 76.0991C102.9 74.8991 104.6 71.5991 100.8 69.0991C98.4001 69.0991 96.9001 69.1991 94.9001 70.4991Z" fill="#512C0E"/>
<path d="M101.1 73.199C101.1 74.399 100.1 75.399 98.8001 75.399C97.6001 75.399 96.5001 74.399 96.5001 73.199C96.5001 71.999 97.5001 70.999 98.8001 70.999C100.1 70.999 101.1 71.999 101.1 73.199Z" fill="#331B0E"/>
<path d="M97.2 72.6991C97.2 73.1991 96.8 73.5991 96.3 73.5991C95.8 73.5991 95.4 73.1991 95.4 72.6991C95.4 72.1991 95.8 71.7991 96.3 71.7991C96.8 71.7991 97.2 72.1991 97.2 72.6991Z" fill="white"/>
<path opacity="0.5" d="M95.5001 74.899C95.5001 74.899 99.1001 77.999 102.3 74.199C101.2 75.899 99.1001 78.499 95.5001 74.899Z" fill="white"/>
<path opacity="0.7" d="M89.7001 76.9992C90.9001 74.4992 96.1001 66.6992 106.5 73.1992C106.9 72.4992 107.3 71.7992 107.3 71.7992C107.3 71.7992 94.4001 62.7992 89.7001 76.9992Z" fill="#C2C6CC"/>
<path d="M89.7001 76.999C90.2001 75.199 91.1001 73.599 92.3001 72.199C93.6001 70.799 95.2001 69.899 97.1001 69.499C98.9001 69.099 100.8 69.199 102.6 69.599C104.4 69.999 106.1 70.699 107.8 71.499L108 71.599L107.9 71.799C107.2 73.399 106 74.799 104.5 75.699C103.1 76.699 101.4 77.199 99.7001 77.499C98.0001 77.699 96.3001 77.699 94.6001 77.399C93.7001 77.299 92.9001 76.999 92.1001 76.799C91.4001 76.699 90.5001 76.599 89.7001 76.999ZM89.7001 76.999C90.5001 76.599 91.4001 76.599 92.2001 76.699C93.0001 76.799 93.9001 77.099 94.7001 77.099C96.4001 77.299 98.1001 77.299 99.7001 77.099C101.3 76.799 103 76.299 104.3 75.299C105.7 74.399 106.8 73.099 107.4 71.599L107.5 71.899C105.9 71.099 104.2 70.399 102.4 69.999C100.6 69.599 98.8001 69.499 97.0001 69.799C95.2001 70.099 93.6001 70.999 92.3001 72.299C91.3001 73.599 90.3001 75.199 89.7001 76.999Z" fill="#AF6E58"/>
<path d="M89.7001 76.9991C89.7001 76.9991 91.3001 71.5991 96.5001 70.0991C99.1001 69.3991 102.6 69.7991 107.3 71.9991C107.7 72.1991 109 72.0991 110 71.4991C108.6 71.3991 101.5 66.5991 95.8001 68.9991C93.4001 69.9991 91.1001 72.1991 89.7001 76.9991Z" fill="#331B0E"/>
<path d="M57.9 71.699C57.9 71.699 63.7 67.599 68.4 69.399C73.1 71.199 75.2 74.599 76 76.999C76 76.999 75.4 76.299 72.9 76.899C70.4 77.499 62.6 78.999 57.9 71.699Z" fill="white"/>
<path d="M70.8001 70.4991C70.8001 70.4991 73.1001 74.9991 68.6001 77.2991C68.0001 77.2991 64.8001 77.2991 63.8001 76.0991C62.8001 74.8991 61.1001 71.5991 64.9001 69.0991C67.3001 69.0991 68.8001 69.1991 70.8001 70.4991Z" fill="#512C0E"/>
<path d="M64.6001 73.199C64.6001 74.399 65.6001 75.399 66.9001 75.399C68.1001 75.399 69.2001 74.399 69.2001 73.199C69.2001 71.999 68.2001 70.999 66.9001 70.999C65.6001 70.999 64.6001 71.999 64.6001 73.199Z" fill="#331B0E"/>
<path d="M68.5001 72.6991C68.5001 73.1991 68.9001 73.5991 69.4001 73.5991C69.9001 73.5991 70.3001 73.1991 70.3001 72.6991C70.3001 72.1991 69.9001 71.7991 69.4001 71.7991C68.9001 71.7991 68.5001 72.1991 68.5001 72.6991Z" fill="white"/>
<path opacity="0.5" d="M70.2 74.899C70.2 74.899 66.6 77.999 63.4 74.199C64.5 75.899 66.6 78.499 70.2 74.899Z" fill="white"/>
<path opacity="0.7" d="M76 76.9992C74.8 74.4992 69.6 66.6992 59.2 73.1992C58.8 72.4992 58.4 71.7992 58.4 71.7992C58.4 71.7992 71.3 62.7992 76 76.9992Z" fill="#C2C6CC"/>
<path d="M76.0001 76.999C75.4001 75.299 74.5001 73.699 73.2001 72.399C71.9001 71.099 70.3001 70.199 68.5001 69.899C66.7001 69.499 64.9001 69.699 63.1001 70.099C61.3001 70.499 59.6001 71.199 58.0001 71.999L58.1001 71.699C58.7001 73.199 59.9001 74.499 61.2001 75.399C62.6001 76.299 64.2001 76.899 65.8001 77.199C67.5001 77.499 69.2001 77.399 70.8001 77.199C71.6001 77.099 72.5001 76.899 73.3001 76.799C74.3001 76.599 75.2001 76.599 76.0001 76.999ZM76.0001 76.999C75.2001 76.599 74.3001 76.699 73.5001 76.799C72.7001 76.899 71.9001 77.199 71.0001 77.399C69.3001 77.699 67.6001 77.699 65.9001 77.499C64.2001 77.299 62.5001 76.699 61.1001 75.699C59.7001 74.699 58.4001 73.399 57.7001 71.799L57.6001 71.599L57.8001 71.499C59.5001 70.699 61.2001 69.999 63.0001 69.599C64.8001 69.199 66.7001 69.099 68.5001 69.499C70.3001 69.899 72.0001 70.899 73.3001 72.199C74.6001 73.599 75.5001 75.199 76.0001 76.999Z" fill="#AF6E58"/>
<path d="M76.0001 76.9991C76.0001 76.9991 74.4001 71.5991 69.2001 70.0991C66.6001 69.3991 63.1001 69.7991 58.4001 71.9991C58.0001 72.1991 56.7001 72.0991 55.7001 71.4991C57.0001 71.3991 64.2001 66.5991 69.9001 68.9991C72.3001 69.9991 74.6001 72.1991 76.0001 76.9991Z" fill="#331B0E"/>
<path d="M82.9 102.999C86.6 102.899 90.6 101.899 93.7 98.8989C93.7 98.8989 91.3 99.6989 89.7 99.6989C88.2 99.6989 83.9 97.7989 82.8 99.6989C81.7 97.7989 77.5 99.6989 75.9 99.6989C74.3 99.6989 71.9 98.8989 71.9 98.8989C75 101.899 78.9 102.899 82.7 102.999C82.8 102.999 82.8 102.999 82.9 102.999Z" fill="#EF5B50"/>
<path d="M72 98.8989C73.3 99.9989 75.8 106.499 82.9 106.499C88.6 106.499 91.2 102.599 93.6 98.8989C92.3 100.099 88.9 102.499 83.2 102.399C79.9 102.299 76 102.299 72 98.8989Z" fill="#E54B48"/>
<path opacity="0.2" d="M89.5 48.0991C81.9 35.9991 69.4 36.9991 61 38.9991C49.6 41.6991 48.1 49.2991 48.1 53.3991L51.9 84.8991C51.9 84.8991 51.9 92.6991 59.6 101.599C66.2 109.299 75.2 119.099 82.9 119.099C83.8 119.099 84.7 118.999 85.6 118.699C83 118.699 81.4 118.199 79.9 117.399C68.6 111.499 60.3 99.9991 58.8 92.7991C57.2 84.8991 59.5 80.0991 57.1 70.3991C55.4 63.4991 51.4 48.4991 58.4 45.6991C59.7 45.1991 63.4 45.8991 64.3 45.7991C65.2 45.6991 67.2 43.4991 69.3 42.8991C72.6 41.9991 77.3 42.7991 83.5 48.8991C88.5 53.7991 98.6 77.9991 120.1 74.4991C115.1 72.1991 101.2 66.8991 89.5 48.0991Z" fill="#F4A487"/>
<path d="M138.8 146.599C133.5 145.999 124.3 142.499 116 138.999C111 136.899 106.5 134.499 103.2 132.999C100.2 131.599 98.4 129.999 98.4 129.999C98.7 131.999 98.6 134.999 98.3 136.999C94.9 154.899 90.8 176.799 89.1 199.199C113.3 195.899 134.2 179.099 147 154.999C145.7 150.999 143.3 148.199 138.8 146.599Z" fill="#ED673E"/>
<path d="M62.9 133.199C62.9 133.199 61.3 133.799 58.5 134.799C51.3 137.299 36.4 142.299 20.9 146.599C16.7 148.099 14.4 150.599 13 154.099C26.2 179.599 48.5 197.099 74.1 199.499C69.7 172.599 60.6 135.899 62.9 133.199Z" fill="#ED673E"/>
<path d="M96.9 158.999L109.6 162.999C109.6 162.999 117.1 144.899 111.9 137.499C109.7 134.299 102.1 128.799 98.4 129.999C100.6 133.899 90.5 172.399 86.2 199.499C88.6 199.299 90.9 198.899 93.2 198.499C100.4 184.599 108.5 174.499 108.5 174.499L96.9 158.999Z" fill="#F28268"/>
<path d="M65 131.799C61.3 130.599 52.3 133.999 50.6 137.499C48.1 142.799 51.3 161.399 51.3 161.399L65.6 158.999L54 174.399C54 174.399 62.6 184.799 69.9 198.899C72.1 199.299 74.4 199.499 76.7 199.599C72.7 172.999 63.5 136.499 65 131.799Z" fill="#F28268"/>
<path d="M63.7 44.7989C52.6 40.7989 49.8 51.5989 52.6 63.6989C55.4 75.7989 57 93.8989 43.3 101.499C48.6 94.2989 48.9 87.0989 46.5 78.9989C45.1 74.2989 41.9 67.6989 40.8 62.0989C38.9 52.0989 38.7 32.2989 58.8 26.8989C59 36.4989 61.9 41.5989 63.7 44.7989Z" fill="#512C0E"/>
<path d="M48.6 96.2989C61 87.8989 55.3 72.0989 52.6 61.6989C49.8 50.5989 54.2 41.1989 63.7 44.7989C60.9 39.6989 55.9 38.8989 50.9 42.6989C45.9 46.4989 45.1 55.4989 48.7 64.5989C53 75.3989 54 88.0989 48.6 96.2989Z" fill="#3C2415"/>
<path d="M52.8 34.999C50.2 35.899 48.1 37.899 46.7 40.199C45.3 42.499 44.4 45.199 44 47.899C43.1 53.299 43.8 58.899 45.6 64.099C46 65.399 46.6 66.599 47.2 67.899C47.5 68.499 47.8 69.099 48.1 69.799C48.4 70.399 48.6 71.099 48.8 71.799C49.5 74.499 49.8 77.299 49.9 79.999C50 85.499 49.6 90.999 48.7 96.499C49.3 90.999 49.6 85.499 49.4 80.099C49.3 77.399 49 74.599 48.3 71.999C48.1 71.299 47.9 70.699 47.6 70.099C47.3 69.499 47 68.899 46.7 68.299C46.1 67.099 45.5 65.799 45.1 64.499C43.3 59.299 42.7 53.599 43.6 48.099C44.1 45.399 45 42.699 46.5 40.399C48 37.799 50.1 35.799 52.8 34.999Z" fill="#3C2415"/>
<path d="M63.7001 44.799C63.7001 44.799 75.1001 34.199 86.3001 48.599C97.5001 62.999 119.1 77.099 129.7 75.299C122 64.799 128.6 51.599 119.6 34.899C113 22.799 97.6001 6.49896 69.4001 15.699C58.7001 19.199 50.8001 32.999 63.7001 44.799Z" fill="#603913"/>
<path d="M107.4 41.399C87.5001 17.399 66.3001 28.499 63.7001 32.099C59.3001 38.299 60.8001 42.499 63.7001 44.799C68.6001 38.199 77.9001 36.899 90.3001 52.699C101.7 67.299 124.3 79.199 134.7 73.499C131.5 73.699 128.6 72.099 126.7 71.799C128.8 72.199 131.8 72.599 132.6 71.299C118.7 69.899 120 56.599 107.4 41.399Z" fill="#512C0E"/>
<path d="M94.2 50.8989C83.2 33.9989 71.6 35.5989 68.3 36.0989C62.7 36.9989 60.5 42.7989 63.8 44.7989C69.9 37.9989 82.5 40.4989 90.7 54.3989C100.1 70.2989 120.7 82.8989 134.7 73.4989C118.5 75.8989 106.5 69.6989 94.2 50.8989Z" fill="#3C2415"/>
<path d="M67.3 34.3989C70.1 33.0989 73.2 32.4989 76.3 32.3989C79.4 32.2989 82.6 32.9989 85.5 34.0989C88.4 35.2989 91.1 36.9989 93.4 39.0989C95.7 41.1989 97.8 43.5989 99.6 46.1989C101.4 48.7989 102.8 51.5989 104.3 54.2989C105.8 56.9989 107.3 59.6989 109.1 62.1989C110.9 64.6989 113 66.9989 115.6 68.5989C118.2 70.2989 121.1 71.2989 124.2 71.6989C121.1 71.3989 118.1 70.5989 115.3 68.9989C112.6 67.3989 110.3 65.0989 108.5 62.5989C106.6 60.0989 105.1 57.3989 103.5 54.6989C102 51.9989 100.6 49.1989 98.8 46.7989C95.4 41.7989 90.9 37.2989 85.2 34.8989C79.7 32.3989 73.1 32.1989 67.3 34.3989Z" fill="#3C2415"/>
<path d="M60.9 33.2989C61.6 31.8989 62.5 30.6989 63.5 29.5989L64.3 28.7989C64.6 28.4989 64.9 28.2989 65.2 27.9989C65.8 27.4989 66.4 26.9989 67 26.5989C69.5 24.7989 72.6 23.6989 75.6 23.3989C78.7 22.9989 81.8 23.4989 84.8 24.3989C85.5 24.6989 86.3 24.7989 87 25.0989L89.1 25.9989C89.8 26.2989 90.5 26.6989 91.1 27.0989C91.8 27.4989 92.4 27.8989 93.1 28.1989C90.3 26.9989 87.6 25.6989 84.6 25.0989C81.7 24.3989 78.7 23.9989 75.8 24.3989C72.9 24.6989 70 25.6989 67.5 27.2989C64.9 28.6989 62.7 30.7989 60.9 33.2989Z" fill="#512C0E"/>
<path d="M60.9 27.8989C61.5 26.7989 62.3 25.7989 63.2 24.8988C64.1 23.9988 65.1 23.1989 66.2 22.4989C68.3 21.0989 70.6 19.9989 73.1 19.1989C78 17.5989 83.2 17.2989 88.3 18.1989C93.3 19.0989 98.2 20.8988 102.6 23.3988C104.8 24.5989 106.9 25.9989 109 27.4989C110 28.2989 111 28.9988 112 29.7989C113 30.5989 113.9 31.3989 114.9 32.2989L111.9 29.9989C110.9 29.2989 109.8 28.5989 108.8 27.8989C106.7 26.4989 104.5 25.1989 102.3 24.0989C97.9 21.7989 93.1 19.9989 88.2 19.1989C83.3 18.2989 78.2 18.5989 73.4 19.9989C71 20.6989 68.7 21.6989 66.6 22.9989C65.5 23.5989 64.5 24.3988 63.5 25.1988C62.5 25.8988 61.6 26.7989 60.9 27.8989Z" fill="#512C0E"/>
<path d="M95.2001 26.3989C99.1001 28.0989 102.7 30.5989 106 33.2989C109.3 36.0989 112.3 39.1989 114.7 42.6989C116 44.3989 117.1 46.2989 118.2 48.0989C119.3 49.9989 120.2 51.8989 120.9 53.9989C121.6 55.9989 122.3 57.9989 123.1 59.9989C123.9 61.9989 124.8 63.8989 125.8 65.7989C124.7 63.9989 123.6 62.0989 122.7 60.1989C121.8 58.2989 121.1 56.1989 120.3 54.2989C118.7 50.3989 116.4 46.7989 113.9 43.3989C111.4 39.9989 108.6 36.7989 105.4 33.9989C103.9 32.5989 102.2 31.1989 100.5 29.9989C98.9001 28.5989 97.1001 27.3989 95.2001 26.3989Z" fill="#512C0E"/>
<path d="M105.6 113.999C105.6 113.999 153.9 143.699 100.2 185.999C101.6 181.899 108.2 174.699 103.7 165.299C99.1 155.899 84.4 151.199 95 119.199C103.2 120.299 105.6 113.999 105.6 113.999Z" fill="#512C0E"/>
<path d="M101.9 156.299C91.8 136.799 94.6 126.899 98.8 119.299C98.2 119.199 96.6 119.599 95 119.599C83.7 145.999 97.2 157.299 100.3 167.299C102.5 174.299 102.7 177.799 99.9 181.499C107.1 175.999 107.2 166.699 101.9 156.299Z" fill="#3C2415"/>
<path d="M100.4 120.099C99.1 125.099 98.4 130.199 98.5 135.199C98.6 140.299 99.7 145.299 101.9 149.899C104.2 154.399 106.9 158.899 108 163.999C108.6 166.499 108.5 169.199 107.8 171.699C107.1 174.199 106.1 176.499 105 178.899C105.8 176.499 106.8 174.099 107.3 171.599C107.6 170.399 107.7 169.099 107.7 167.799C107.7 166.499 107.5 165.299 107.2 164.099C105.9 159.199 103.4 154.799 100.9 150.199C98.6 145.499 97.6 140.299 97.5 135.099C97.5 132.499 97.8 129.899 98.2 127.399C98.9 124.999 99.6 122.499 100.4 120.099Z" fill="#28150B"/>
<path d="M105.6 119.199C108 121.599 109.9 124.599 111.5 127.699C113.1 130.799 114.3 133.999 115.2 137.399C116.1 140.699 116.7 144.099 117 147.599C117.1 148.499 117.1 149.299 117.2 150.199L117.3 152.799C117.3 154.499 117.2 156.199 117.1 157.999C117 156.299 116.9 154.599 116.8 152.899L116.6 150.299C116.5 149.399 116.4 148.599 116.3 147.799L115.9 145.299C115.8 144.499 115.6 143.599 115.4 142.799C115.1 141.099 114.7 139.499 114.2 137.799C113.3 134.499 112.1 131.299 110.7 128.199C110.3 127.399 110 126.599 109.6 125.899C109.2 125.099 108.8 124.399 108.4 123.699C107.6 121.999 106.7 120.599 105.6 119.199Z" fill="#28150B"/>
<path d="M120.4 133.799C121.3 135.499 121.9 137.399 122.4 139.299C122.6 140.299 122.8 141.199 122.9 142.199L123.1 143.699C123.2 144.199 123.2 144.699 123.2 145.199C123.4 149.099 122.9 153.099 121.8 156.899C121.1 158.799 120.6 160.599 119.7 162.399L119.1 163.699C118.9 164.099 118.7 164.599 118.4 164.999C117.9 165.799 117.4 166.699 116.9 167.499C116.4 168.399 115.8 169.099 115.2 169.899L113.4 172.199C112.1 173.699 110.8 175.099 109.4 176.499C110.6 174.899 111.8 173.499 113 171.899L114.6 169.499C115.1 168.699 115.7 167.899 116.1 167.099C116.6 166.299 117 165.399 117.5 164.599C117.8 164.199 118 163.799 118.1 163.299L118.7 161.999C119.6 160.299 120.1 158.399 120.7 156.599C121.8 152.899 122.3 149.099 122.2 145.199C122.4 141.299 121.8 137.399 120.4 133.799Z" fill="#28150B"/>
<path d="M94.6 119.299C95.1 118.399 97 119.599 100.9 117.599C103 116.499 105.2 113.899 105.9 113.399C106.8 112.799 105.8 117.399 101.8 118.999C97.9 120.499 94.1 120.299 94.6 119.299Z" fill="#ED673E"/>
</svg>
