<svg width="160" height="200" viewBox="0 0 160 200" fill="none" xmlns="http://www.w3.org/2000/svg">
<ellipse cx="80" cy="100" rx="80" ry="100" fill="#F4F4F4"/>
<path d="M58.8378 142.605C58.7399 142.703 52.3716 148.189 45.9054 153.48C41.7905 156.909 37.5777 160.24 34.9324 162.004C33.0709 163.277 28.0743 165.237 22 168.96C36.8919 187.77 57.4662 199.331 80.2939 199.331C102.828 199.331 123.206 187.966 138 169.645C131.534 165.531 125.851 163.375 123.99 162.004C117.23 157.301 99.9865 142.997 99.9865 142.997C99.4966 142.311 99.1047 141.527 98.7128 140.743C94.1081 130.848 94.5 111.743 94.5 111.743H64.0304C64.0304 111.743 64.4223 130.848 59.8176 140.743C59.5237 141.429 59.2297 142.017 58.8378 142.605Z" fill="#353636"/>
<path d="M98.1249 186.399V187.966V188.26L98.027 190.416L98.1249 186.399Z" fill="#353636"/>
<path d="M98.8108 140.841C95.2838 143.388 91.8547 145.348 88.8176 146.817C85.9763 148.777 82.6453 149.855 79.3142 149.855C75.9831 149.855 72.652 148.875 69.8108 146.817C66.7736 145.348 63.3446 143.388 59.8176 140.841C64.4223 130.946 64.0304 111.841 64.0304 111.841H94.598C94.598 111.841 94.2061 130.946 98.8108 140.841Z" fill="#1F1F1F"/>
<path d="M51.4899 89.0136C51.4899 89.0136 48.0608 70.4967 42.5743 73.2399C37.1858 75.9831 36.8919 98.0271 51.4899 104.003V89.0136Z" fill="#FE8E6A"/>
<path d="M48.0608 95.3819C48.0608 94.4022 47.9628 93.1285 47.7669 91.7569C47.571 90.3853 47.277 88.9157 46.7872 87.3481C45.9054 84.311 44.6318 81.6657 43.5541 79.9022C42.9662 79.0204 42.5743 78.3346 42.1824 77.8447C41.8885 77.3549 41.5946 77.1589 41.5946 77.1589C41.5946 77.1589 41.9865 78.3346 42.7703 80.2941C43.2601 81.6657 43.848 83.3312 44.4358 85.1927C44.3378 85.1927 44.2399 85.2907 44.1419 85.2907C43.75 85.4866 43.2601 85.7806 42.8683 86.2704C42.4764 86.6623 42.0845 87.2502 41.8885 87.936C41.4966 89.2096 41.6926 90.5812 41.9865 91.365C42.1824 91.7569 42.2804 92.0508 42.4764 92.3447C42.5743 92.5407 42.6723 92.6387 42.6723 92.6387C42.6723 92.6387 42.6723 92.5407 42.6723 92.2468C42.6723 92.0508 42.6723 91.6589 42.7703 91.267C42.8683 90.4833 43.0642 89.4056 43.4561 88.4258C43.652 87.936 43.848 87.4461 44.0439 86.9562C44.2399 86.5643 44.5338 86.1724 44.7297 85.8785C44.9257 86.5643 45.1216 87.1522 45.3176 87.74C45.7095 89.2096 46.1014 90.6792 46.4933 91.9529C46.7872 93.2265 47.0811 94.4022 47.277 95.3819C47.473 96.3616 47.6689 97.2434 47.7669 97.7333C47.8649 98.3211 47.9628 98.615 47.9628 98.615C47.9628 98.615 47.9629 98.3211 48.0608 97.7333C48.0608 97.2434 48.0608 96.4596 48.0608 95.3819Z" fill="#EB5829"/>
<path d="M107.139 89.0136C107.139 89.0136 110.568 70.4967 115.956 73.2399C121.443 75.9831 121.639 98.0271 107.139 104.003V89.0136Z" fill="#FE8E6A"/>
<path d="M110.568 95.3819C110.568 94.4022 110.666 93.1285 110.862 91.7569C111.057 90.3853 111.351 88.9157 111.743 87.3481C112.625 84.311 113.997 81.6657 114.976 79.9022C115.564 79.0204 115.956 78.3346 116.348 77.8447C116.74 77.3549 116.838 77.1589 116.838 77.1589C116.838 77.1589 116.446 78.3346 115.76 80.2941C115.27 81.6657 114.78 83.3312 114.193 85.1927C114.291 85.1927 114.389 85.2907 114.487 85.2907C114.878 85.4866 115.368 85.7806 115.76 86.2704C116.152 86.6623 116.544 87.2502 116.74 87.936C117.132 89.2096 117.034 90.5812 116.642 91.365C116.544 91.7569 116.348 92.0508 116.25 92.3447C116.152 92.5407 116.054 92.6387 116.054 92.6387C116.054 92.6387 116.054 92.5407 116.054 92.2468C116.054 92.0508 115.956 91.6589 115.956 91.267C115.858 90.4833 115.662 89.4056 115.27 88.4258C115.074 87.936 114.878 87.4461 114.682 86.9562C114.487 86.5643 114.291 86.1724 113.997 85.8785C113.801 86.5643 113.703 87.1522 113.409 87.74C113.017 89.2096 112.625 90.6792 112.331 91.9529C112.037 93.2265 111.743 94.4022 111.547 95.3819C111.351 96.3616 111.155 97.2434 111.057 97.7333C110.96 98.3211 110.862 98.615 110.862 98.615C110.862 98.615 110.862 98.3211 110.764 97.7333C110.568 97.2434 110.568 96.4596 110.568 95.3819Z" fill="#EB5829"/>
<path d="M108.412 110.959C107.432 118.405 103.905 124.186 99.5946 128.692C96.3615 132.023 92.7365 134.571 89.5034 136.432C88.4257 137.118 87.348 137.608 86.3682 138.098C84.4088 139.469 82.1554 140.253 79.8041 140.351C79.7061 140.351 79.5101 140.351 79.4122 140.351C76.9628 140.351 74.5135 139.567 72.3581 138.098C64.4223 134.179 52.2736 125.851 50.3142 110.959C48.8446 100.084 48.8446 86.1721 49.1385 74.8072C49.3345 67.7532 49.6284 61.6789 49.9223 57.7599C50.1182 54.8208 50.2162 53.0572 50.2162 53.0572C50.2162 53.0572 54.0372 48.1586 60.2095 43.7498C65.2061 40.2228 71.7703 37.0876 79.2162 37.0876C85.6824 37.0876 91.5608 39.537 96.2635 42.4762C103.611 47.0809 108.216 53.0572 108.216 53.0572C108.216 53.0572 111.253 88.5235 108.412 110.959Z" fill="#FEB885"/>
<path d="M102.534 97.0474C103.22 97.1453 104.101 97.3413 104.297 98.1251C104.395 98.9088 103.709 99.3007 103.024 99.4967C101.162 100.182 99.2027 100.77 97.2433 101.162C95.7737 101.456 93.0304 102.436 91.5608 102.044C90.0912 101.554 91.1689 99.8886 91.8547 99.3007C94.7939 97.2433 99.1047 96.5575 102.534 97.0474Z" fill="#FEDAB6"/>
<path d="M56.0946 97.0474C55.4088 97.1453 54.527 97.3413 54.4291 98.1251C54.3311 98.9088 55.0169 99.3007 55.7027 99.4967C57.5642 100.182 59.4257 100.77 61.3851 101.162C62.8547 101.456 65.598 102.436 67.1656 102.044C68.6351 101.554 67.5574 99.8886 66.7737 99.3007C63.9324 97.2433 59.5237 96.5575 56.0946 97.0474Z" fill="#FEDAB6"/>
<path d="M108.412 110.96C107.432 118.405 103.905 124.186 99.5946 128.693C96.3615 132.024 92.7365 134.571 89.5034 136.432C88.4257 137.118 87.348 137.608 86.3683 138.098C84.4088 139.47 82.1554 140.253 79.8041 140.351C87.0541 136.922 96.6554 131.632 101.26 121.051C106.453 108.902 108.51 87.446 105.473 74.6115C103.905 75.1014 102.044 75.5913 100.77 74.6115C99.7905 73.7298 99.4966 72.2602 99.4966 70.9865C99.3987 67.3615 99.6926 63.7365 100.77 60.2095C90.3851 62.169 79.8041 64.0305 69.223 63.3446C62.4628 62.6588 55.7027 60.9933 49.9223 57.7602C50.1182 54.821 50.2162 53.0575 50.2162 53.0575C50.2162 53.0575 54.0372 48.1588 60.2095 43.75C72.1622 42.0845 84.4088 41.2027 96.2635 42.4764C103.611 47.0811 108.216 53.0575 108.216 53.0575C108.216 53.0575 111.253 88.5237 108.412 110.96Z" fill="#FE8E6A"/>
<path d="M83.429 128.693C80 127.321 75.9831 127.419 72.554 128.889C73.2398 130.064 74.0236 131.338 75.0033 132.22C75.9831 133.2 77.2567 133.787 78.5304 133.591C79.5101 133.395 80.4898 132.808 81.1756 132.122C82.1554 131.24 82.8412 129.77 83.429 128.693Z" fill="#FEDAB6"/>
<path d="M85.4865 102.632C84.9966 101.358 83.8209 100.476 82.5473 100.084C81.5676 100.672 80.2939 101.358 79.3142 101.848C78.2365 101.358 77.0608 100.77 76.0811 100.28C74.8074 100.868 73.8277 101.946 73.2399 103.22C75.0034 104.787 76.9628 105.963 79.0203 107.041C80.9797 106.159 84.0169 104.199 85.4865 102.632Z" fill="#FE8E6A"/>
<path d="M78.5304 98.5171C77.8446 98.811 77.1587 99.2029 76.6689 99.7908C77.4527 100.281 78.2365 100.673 79.0202 101.064C79.902 100.575 80.9797 99.9867 81.7635 99.4968C80.8817 98.909 79.5101 98.1252 78.5304 98.5171Z" fill="#FEDAB6"/>
<path d="M75.5912 103.709C75.3953 103.513 75.1993 103.415 75.0034 103.122C74.9054 102.926 74.8074 102.632 75.0034 102.436C75.1993 102.142 75.5912 102.142 75.7872 102.24C76.0811 102.338 76.277 102.632 76.473 102.828C77.0608 103.513 77.7466 104.395 77.9426 105.179C77.1588 104.983 76.277 104.199 75.5912 103.709Z" fill="#87341A"/>
<path d="M83.0372 103.709C83.2331 103.513 83.429 103.415 83.625 103.122C83.723 102.926 83.8209 102.632 83.625 102.436C83.429 102.142 83.1351 102.142 82.8412 102.24C82.5473 102.338 82.3513 102.632 82.1554 102.828C81.5676 103.513 80.8817 104.395 80.5878 105.179C81.4696 104.983 82.3513 104.199 83.0372 103.709Z" fill="#87341A"/>
<path d="M104.101 88.3275C102.044 85.9762 98.7128 84.6046 95.4797 84.8005C92.2466 84.9965 89.1115 86.76 87.4459 89.3073C88.8175 86.0742 91.6588 83.4289 95.3817 82.8411C97.3412 82.5471 99.5946 83.135 101.162 84.1147C102.828 85.0944 103.611 86.4661 104.101 88.3275Z" fill="#632612"/>
<path d="M99.3986 88.6217C99.3986 91.267 98.027 93.4224 96.2635 93.4224C94.5 93.4224 93.0304 91.267 93.0304 88.6217C93.0304 85.9765 94.402 83.821 96.2635 83.821C97.929 83.821 99.3986 85.9765 99.3986 88.6217Z" fill="#632612"/>
<path d="M102.632 88.0338C100.672 87.348 98.223 87.8379 96.5574 89.2095C97.4392 89.7974 98.5169 90.1892 99.5946 89.9933C100.77 89.8953 101.946 88.9156 102.632 88.0338Z" fill="white"/>
<path d="M56.6824 90.0912C58.152 87.3479 61.0912 85.2905 64.2264 84.8006C67.4595 84.2128 70.8885 85.1925 73.1419 87.3479C71.0845 84.5067 67.6554 82.5473 63.9324 82.7432C61.973 82.8412 59.9155 83.9189 58.5439 85.2905C57.2703 86.7601 56.7804 88.3277 56.6824 90.0912Z" fill="#632612"/>
<path d="M61.2872 89.4054C61.875 91.9527 63.7365 93.7162 65.5 93.3243C67.1655 92.9324 68.1453 90.4831 67.5574 87.9358C66.9696 85.3885 65.1081 83.527 63.3446 83.9189C61.6791 84.4088 60.7973 86.7601 61.2872 89.4054Z" fill="#632612"/>
<path d="M64.7162 88.8178C66.5777 87.7401 69.027 87.6421 70.8885 88.6218C70.2027 89.4056 69.2229 89.9935 68.1452 90.0914C66.9696 90.0914 65.5979 89.4056 64.7162 88.8178Z" fill="white"/>
<path d="M88.5236 79.51C88.0338 79.608 87.5439 79.804 86.9561 79.608C86.2702 79.3141 86.0743 78.4323 86.1723 77.7465C86.4662 75.6891 88.5236 74.2195 90.5811 73.9256C92.6385 73.6317 94.6959 74.2195 96.5574 75.1013C98.7128 76.081 100.77 77.1587 102.828 78.4323C103.416 78.8242 106.061 80.9796 104.885 81.8614C104.101 82.3513 102.142 80.8817 101.554 80.5877C97.7331 78.3344 92.6385 78.2364 88.5236 79.51Z" fill="#87341A"/>
<path d="M70.1047 79.51C70.5946 79.608 71.1824 79.804 71.6723 79.608C72.3581 79.3141 72.5541 78.4323 72.4561 77.7465C72.1622 75.6891 70.2027 74.2195 68.1453 73.9256C66.0878 73.6317 64.0304 74.2195 62.0709 75.1013C59.9155 76.081 57.8581 77.1587 55.8986 78.4323C55.3108 78.8242 52.5676 80.9796 53.8412 81.8614C54.625 82.3513 56.5845 80.8817 57.2703 80.5877C60.8953 78.3344 65.9899 78.2364 70.1047 79.51Z" fill="#87341A"/>
<path d="M95.5777 108.902C95.5777 111.547 94.0101 115.074 92.2466 117.818C90.5811 120.463 88.9155 122.422 88.4257 122.324C88.0338 122.324 83.527 122.324 79.3142 122.324C75.0034 122.324 70.5946 122.324 70.1047 122.324C69.8108 122.422 68.3412 120.757 66.7736 118.503C64.9122 115.662 62.9527 111.841 62.9527 108.902C62.9527 108.902 63.1486 109 63.5405 109.098C63.8345 109.196 64.1284 109.294 64.4223 109.392C65.6959 109.784 67.6554 110.372 68.4392 110.372C69.125 110.372 74.1216 110.372 79.4122 110.274C84.6047 110.372 89.5034 110.47 90.0912 110.372C90.6791 110.274 91.7568 110.078 92.7365 109.686C93.7162 109.392 94.6959 109.098 95.1858 109C95.4797 108.902 95.5777 108.902 95.5777 108.902Z" fill="#632612"/>
<path d="M90.973 114.683C90.973 114.683 90.973 114.878 90.973 115.27C90.973 115.662 90.973 116.25 90.8751 117.034C90.5811 118.797 89.9933 121.247 88.5237 122.324C88.1318 122.324 83.6251 122.324 79.4122 122.324C75.1014 122.324 70.6926 122.324 70.2028 122.324C70.2028 122.324 67.4595 119.189 67.3615 116.25C67.3615 115.956 67.3615 115.564 67.4595 115.27C67.3615 115.172 67.2636 114.976 67.1656 114.976C65.892 113.311 65.0102 111.449 64.5203 109.49C65.794 109.882 67.7534 110.47 68.5372 110.47C69.223 110.47 74.2197 110.47 79.5102 110.372C84.7028 110.47 89.6014 110.568 90.1892 110.47C90.7771 110.372 91.8548 110.176 92.8345 109.784C92.3447 111.351 91.6588 113.115 90.973 114.683Z" fill="white"/>
<path fill-rule="evenodd" clip-rule="evenodd" d="M55.5068 81.4696C53.3514 77.4527 53.2534 72.0642 55.1149 65.2061C51.7838 72.5541 50.6081 80.4899 51.5878 89.0135C42.5743 75.7872 41.3007 55.1149 47.9628 26.8986C48.1588 30.5236 49.0405 33.1689 50.6081 34.7365C51.098 29.8378 53.0574 26.0169 56.4865 23.4696C55.8007 26.7027 56.0946 29.4459 57.1723 31.7973C58.4459 27.5845 60.6014 24.7432 63.6385 23.0777C62.9527 25.8209 63.4426 28.2703 64.9122 30.5237C65.1081 27.3885 66.4797 24.8412 68.8311 22.7838C68.6351 25.9189 69.4189 28.6622 71.0845 31.1115C72.0642 27.1926 74.0237 24.4493 76.9628 22.9797C76.7669 25.625 77.6487 28.2703 79.3142 30.9155C80 27.3885 82.2534 24.4493 86.3682 22C85.4865 25.9189 86.0743 29.0541 88.0338 31.6014C88.8176 27.3885 91.2669 24.2534 95.3818 22.2939C94.8919 26.9966 95.6757 30.4257 97.7331 32.3851C99.2027 27.5845 101.456 24.3514 104.591 22.3919C104.199 26.6047 104.885 30.1318 106.551 32.777C114.193 44.2399 114.878 63.0507 108.608 89.1115C108.706 76.6689 106.453 67.4595 101.75 61.5811C92.0507 73.5338 76.5709 80.098 55.5068 81.4696Z" fill="#BF4C16"/>
<path fill-rule="evenodd" clip-rule="evenodd" d="M55.5067 81.4694C53.3513 77.4525 53.2534 72.064 55.1149 65.2059C51.7838 72.5538 50.6081 80.4897 51.5878 89.0133C46.7872 81.9593 44.2399 72.9457 43.848 61.6788C48.9426 57.662 54.0372 55.7025 59.1317 55.6045C56.8784 61.189 56.5844 66.8714 58.054 72.7498C72.75 72.3579 87.6419 65.7937 102.73 53.2532C106.453 55.2126 109.882 58.5437 113.017 63.0505C112.625 70.7903 111.253 79.412 108.902 89.2093C109 76.7667 106.747 67.5572 102.044 61.6788C92.0507 73.5336 76.5709 80.0978 55.5067 81.4694Z" fill="#A34112"/>
<path fill-rule="evenodd" clip-rule="evenodd" d="M53.0574 47.5708C52.8615 48.0607 61.777 41.0066 69.223 42.3783C64.9122 46.0033 63.8345 51.3918 63.8345 51.3918C65.402 48.1587 73.3378 47.2769 75.8851 42.9661C77.0608 46.885 76.277 50.2161 71.0845 58.9357C80.2939 54.6249 83.1351 49.4323 83.625 42.4762C84.8986 44.8276 89.7973 47.6688 89.7973 47.2769C89.6993 44.6316 90.777 43.0641 93.3243 41.6924C99.3007 42.3783 99.3987 42.2803 105.081 46.2972C104.885 41.1046 90.875 34.4425 80.4899 36.4019C80.4899 36.4019 79.2162 34.9323 80.7838 33.1688C78.5304 32.8749 74.0237 35.5202 72.946 37.1857C63.5405 35.912 56.3885 37.9695 53.0574 47.5708Z" fill="#CF6C37"/>
</svg>
