<svg width="160" height="200" viewBox="0 0 160 200" fill="none" xmlns="http://www.w3.org/2000/svg">
<ellipse cx="80" cy="100" rx="80" ry="100" fill="#F4F4F4"/>
<path fill-rule="evenodd" clip-rule="evenodd" d="M43.8 92.3999C70 101.5 94.7 109.3 114 100.5C109.7 111.8 106 153.1 120.9 158.6C99.5 169.2 66.2 172.8 42 162.3C59.6 150.3 33.4 123.2 43.8 92.3999Z" fill="#1F1F1F"/>
<path fill-rule="evenodd" clip-rule="evenodd" d="M40.7 177.7C40.8 167.7 39.7 158.5 39.7 158.5L39.2 152.3C38.7 152.5 38.2 152.7 37.7 152.9C34.1 154.5 31.1 156.3 28.5 158.3C25.2 160.9 22.7 163.8 20.7 167.1C26.4 174.7 33 181.1 40.3 186.3C40.4 185.2 40.5 184.2 40.6 183.1C40.6 181.5 40.7 179.6 40.7 177.7Z" fill="#FEBF97"/>
<path fill-rule="evenodd" clip-rule="evenodd" d="M133.5 167.4C133.5 180.6 106 200 79.8 200C57.4 200 26.9 180.7 26.9 167.4C26.9 160.8 32.7 154.9 42.2 150.6C48.6 147.7 66.2 143.7 66.2 140.9C66.2 140.2 66.2 138.5 66.2 136.4C66.3 130.4 66.4 120.9 66.4 120.9H93.3C93.3 120.9 93.5 124.2 93.6 128.2C93.8 133.3 94.1 139.6 94.1 141.3C94.2 144.2 111.6 147.7 117.9 150.6C127.6 154.8 133.5 160.8 133.5 167.4Z" fill="#FEBF97"/>
<path fill-rule="evenodd" clip-rule="evenodd" d="M127.1 60.6C127.1 86.2 106.6 107 81.3 107C56 107 35.4 86.3 35.4 60.6C35.4 34.9 59.5 17 84.8 17C95.2 17 103.7 21.6 107 33.3C121.2 33.5 127.1 45.6 127.1 60.6Z" fill="#1F1F1F"/>
<path fill-rule="evenodd" clip-rule="evenodd" d="M113 80.7999C121.8 72.0999 123 85.2999 120.6 91.5999C116.8 102.2 108.4 104.2 98.2 102.5L113 80.7999Z" fill="#FE966C"/>
<path fill-rule="evenodd" clip-rule="evenodd" d="M47.4 80.7999C38.7 72.0999 37.4 85.2999 39.8 91.5999C43.6 102.2 52 104.1 62.2 102.5L47.4 80.7999Z" fill="#FE966C"/>
<path fill-rule="evenodd" clip-rule="evenodd" d="M93.7 128.1C87.6 139.4 77.7 145.4 71.2 142.1C69.4 141.3 67.5 139.2 66.4 136.7V136.3C66.5 130.3 66.6 120.8 66.6 120.8H93.4C93.3 120.8 93.5 124.2 93.7 128.1Z" fill="#FE966C"/>
<path fill-rule="evenodd" clip-rule="evenodd" d="M113.9 87.7C113.9 112.1 91.5 131.9 80.2 131.9C69 131.9 46.5 112.1 46.5 87.7C46.5 63.3 48.9 39.3 80.2 39.3C111.5 39.3 113.9 63.4 113.9 87.7Z" fill="#FEBF97"/>
<path fill-rule="evenodd" clip-rule="evenodd" d="M101.6 48.8C99.6 34.2 88.2 25.8 75.9 28.5C58.5 32.2 21.3 54.6 46.5 84C47.3 52.1 100.8 61.2001 100.3 50.4001L101.6 48.8Z" fill="#353636"/>
<path fill-rule="evenodd" clip-rule="evenodd" d="M99.7 44.1C111.5 41 126.8 55.4 124.9 67.3C123.8 73.9 119 78.5 113.9 84.1C113 78.4 112.7 67.5 103.3 58.2C99.5 54.5 100.5 50.7 99.7 45.7V44.1Z" fill="#353636"/>
<path fill-rule="evenodd" clip-rule="evenodd" d="M84.8 102C84.8 103.4 82.7 104.5 80.1 104.5C77.5 104.5 75.4 103.4 75.4 102C75.4 100.7 77.4 101.1 80.1 101.1C82.8 101.1 84.8 100.7 84.8 102Z" fill="#FE966C"/>
<path fill-rule="evenodd" clip-rule="evenodd" d="M86.5 31.3999C81.7 38.4999 83.8 43.6999 87.8 49.8999C76.1 52.1999 57 58.3999 51 66.0999C48.2 54.8999 59.5 31.3999 86.5 31.3999Z" fill="#4E4E4E"/>
<path fill-rule="evenodd" clip-rule="evenodd" d="M113.2 48.7C112.9 53.4 110.3 54.8999 106.6 56.2999C110.8 61.1999 117 70.2 117 75.5C121.9 71.6 124.8 57.6 113.2 48.7Z" fill="#4E4E4E"/>
<path fill-rule="evenodd" clip-rule="evenodd" d="M109.9 75.2C107.5 72.2 104.4 69.9 100.6 69.2C96.9 68.5 93.3 70.3 89.6 70.4C87.1 70.5 87.4 74.5 89.8 74.4C93.1 74.3 96.2 72.9 99.5 72.9C103 72.9 106.6 74 109.7 75.8C110.1 76 110.1 75.3 109.9 75.2Z" fill="#1F1F1F"/>
<path fill-rule="evenodd" clip-rule="evenodd" d="M88.1 90.1C90.2 82.2 98.9 74.8 106.6 78.9C111.5 81.5 110.4 87.3 107.2 89.7C102.3 93.5 95.5 93 89.9 91L88.1 90.1Z" fill="#1F1F1F"/>
<path fill-rule="evenodd" clip-rule="evenodd" d="M107.7 87.5999C106.9 92.8999 100.6 94.3999 95.8 93.6999C93 93.2999 88.9 90.5999 88.9 90.5999C89.4 88.2999 91 85.9999 93.1 84.2999C92.8 85.0999 92.6 85.8999 92.6 86.8999C92.6 90.3999 95.5 93.2999 99 93.2999C102.5 93.2999 105.4 90.3999 105.4 86.8999C105.4 84.4999 104.1 82.4999 102.3 81.3999C106 81.8999 108.3 84.5999 107.7 87.5999Z" fill="#E8EDEF"/>
<path fill-rule="evenodd" clip-rule="evenodd" d="M105.4 86.8999C105.4 90.3999 102.5 93.2999 98.9 93.2999C95.4 93.2999 92.5 90.3999 92.5 86.8999C92.5 85.9999 92.7 85.0999 93 84.2999C94.2 83.2999 95.7 82.2999 97.2 81.8999C99 81.3999 100.6 81.1999 102.1 81.3999C104.1 82.4999 105.4 84.4999 105.4 86.8999Z" fill="#3C2516"/>
<path fill-rule="evenodd" clip-rule="evenodd" d="M50 74.7999C52.4 71.7999 55.4 69.3999 59.3 68.5999C63 67.8999 66.7 69.7999 70.3 69.7999C72.8 69.7999 72.6 73.7999 70.1 73.6999C66.8 73.5999 63.8 72.1999 60.4 72.3999C56.9 72.4999 53.3 73.4999 50.3 75.3999C50 75.5999 49.9 74.9999 50 74.7999Z" fill="#1F1F1F"/>
<path fill-rule="evenodd" clip-rule="evenodd" d="M72 90.1C69.9 82.2 61.2 74.8 53.5 78.9C48.6 81.5 49.7 87.3 52.9 89.7C57.8 93.5 64.6 93 70.2 91L72 90.1Z" fill="#1F1F1F"/>
<path fill-rule="evenodd" clip-rule="evenodd" d="M71 90.5999C71 90.5999 67 93.2999 64.1 93.6999C59.3 94.3999 53 92.8999 52.2 87.5999C51.7 84.5999 54 81.8999 57.7 81.3999C55.8 82.4999 54.5 84.4999 54.5 86.8999C54.5 90.3999 57.4 93.2999 60.9 93.2999C64.4 93.2999 67.3 90.3999 67.3 86.8999C67.3 85.9999 67.1 85.0999 66.8 84.2999C68.9 86.0999 70.6 88.2999 71 90.5999Z" fill="#E8EDEF"/>
<path fill-rule="evenodd" clip-rule="evenodd" d="M67.5 86.8999C67.5 90.3999 64.6 93.2999 61.1 93.2999C57.6 93.2999 54.7 90.3999 54.7 86.8999C54.7 84.4999 55.9 82.4999 57.9 81.3999C59.4 81.1999 61 81.3999 62.8 81.8999C64.3 82.3999 65.7 83.2999 67.1 84.2999C67.3 85.0999 67.5 85.9999 67.5 86.8999Z" fill="#3C2516"/>
<path fill-rule="evenodd" clip-rule="evenodd" d="M64.9 86.8999C64.9 88.8999 63.4 90.3999 61.4 90.3999C59.4 90.3999 57.9 88.8999 57.9 86.8999C57.9 84.8999 59.4 83.3999 61.4 83.3999C63.3 83.3999 64.9 84.9999 64.9 86.8999Z" fill="black"/>
<path fill-rule="evenodd" clip-rule="evenodd" d="M102.8 86.8999C102.8 88.8999 101.3 90.3999 99.3 90.3999C97.3 90.3999 95.8 88.8999 95.8 86.8999C95.8 84.8999 97.3 83.3999 99.3 83.3999C101.2 83.3999 102.8 84.9999 102.8 86.8999Z" fill="black"/>
<path fill-rule="evenodd" clip-rule="evenodd" d="M68.7 87.9C68.4 88.8 66.9 89 65.2 88.4C63.5 87.9 62.5 86.7 62.7 85.8C63 84.9 64.5 84.7 66.2 85.3C67.9 85.9 68.9 87 68.7 87.9Z" fill="white"/>
<path fill-rule="evenodd" clip-rule="evenodd" d="M106.1 87.9C105.8 88.8 104.3 89 102.6 88.4C100.9 87.8 99.9 86.7 100.1 85.8C100.4 84.9 101.9 84.7 103.6 85.3C105.4 85.8 106.4 87 106.1 87.9Z" fill="white"/>
<path fill-rule="evenodd" clip-rule="evenodd" d="M80.4 110.8C75.9 110.9 72.9 112.9 69.4 113.5C72.1 116.7 74.3 119.7 79.4 121.2C79.7 121.2 80 121.2 80.4 121.1C80.7 121.1 81.1 121.2 81.5 121.2C86.6 119.7 88.5 116.8 91.2 113.5C87.5 113.1 84.8 110.8 80.4 110.8Z" fill="#CA643A"/>
<path fill-rule="evenodd" clip-rule="evenodd" d="M80.6 115.9C75.5 115.9 69.5 113.7 69.5 113.7C71.4 117.6 75.3 121.7 80.2 121.7C80.3 121.7 80.5 121.7 80.6 121.7C85.4 121.8 90.4 116.8 91.1 113.5C91.1 113.6 85.7 115.9 80.6 115.9Z" fill="#AD451D"/>
<path fill-rule="evenodd" clip-rule="evenodd" d="M107.8 147.2C105.5 123.8 113.4 93.5999 120.6 76.4999C119.5 76.5999 114.3 75.0999 113.1 78.4999C114.9 89.8999 106 109.3 102.8 133.1C100.6 150 105.9 161.8 105.4 177.6C108.3 170.7 109 160.6 107.8 147.2Z" fill="#353636"/>
<path fill-rule="evenodd" clip-rule="evenodd" d="M19 165.5C32.2 184.3 50 195.6 72.5 199.4C70.9 181.5 67.1 163.1 61.1 144.2C53.3 146.5 45.8 148.6 39.4 151.6C31.3 155.4 24.8 160.5 19 165.5Z" fill="#396696"/>
<path fill-rule="evenodd" clip-rule="evenodd" d="M141.6 166.1C128.1 185.5 109.7 196.6 86.5 199.6C87.7 179.4 94.5 164.5 97.6 143.8C114.4 147.6 129.1 155 141.6 166.1Z" fill="#396696"/>
<path d="M66.7 140.8C71.1 172.2 75.4 187.9 79.8 188C84.2 188 88.8 172.5 93.7 141.2L94.5 141.3C89.6 173 84.7 188.8 79.8 188.8C74.9 188.7 70.3 172.8 65.9 140.9L66.7 140.8Z" fill="white"/>
<path d="M79.8 188.1C80.7 188.1 81.4 188.5 82 189C82.6 189.6 82.9 190.4 82.9 191.3C82.9 192.2 82.5 192.9 82 193.5C81.4 194.1 80.6 194.4 79.8 194.4C78.9 194.4 78.1 194 77.5 193.5C77 192.9 76.6 192.1 76.6 191.3C76.6 190.4 77 189.6 77.5 189C78.2 188.4 78.9 188.1 79.8 188.1ZM81.5 189.5C81.1 189.1 80.5 188.8 79.8 188.8C79.1 188.8 78.5 189.1 78.1 189.5C77.7 189.9 77.4 190.5 77.4 191.2C77.4 191.9 77.7 192.5 78.1 192.9C78.5 193.3 79.1 193.6 79.8 193.6C80.5 193.6 81.1 193.3 81.5 192.9C81.9 192.5 82.2 191.9 82.2 191.2C82.2 190.6 82 190 81.5 189.5Z" fill="white"/>
</svg>
