<svg width="160" height="200" viewBox="0 0 160 200" fill="none" xmlns="http://www.w3.org/2000/svg">
<ellipse cx="80" cy="100" rx="80" ry="100" fill="#F4F4F4"/>
<path fill-rule="evenodd" clip-rule="evenodd" d="M102.3 139.8C82.1 149.5 64.1 138.1 64.1 138.1C61.5 155.4 64.9 180 69.3 198.3C72.9 199 76.6 199.3 80.3 199.3C85 199.3 89.6 198.8 94.1 197.8C99.7 180.5 102.9 160.5 102.3 139.8Z" fill="#DE5180"/>
<path fill-rule="evenodd" clip-rule="evenodd" d="M94.5 110.3L81.7 110.6L68.9 110.9C68.9 110.9 78.2 130.6 57.6 138C71.9 154.6 101.2 147.4 107.5 136.8C86.6 130.6 94.5 110.3 94.5 110.3Z" fill="#FBB89E"/>
<path fill-rule="evenodd" clip-rule="evenodd" d="M93.4 115.1L68.8 111.1C68.8 111.1 73.5 120.7 68.6 129.7C90 126.1 93.4 115.1 93.4 115.1Z" fill="#ECA48B"/>
<path fill-rule="evenodd" clip-rule="evenodd" d="M63.4 137.6C63.4 137.6 61.0999 166.9 61.6999 172.2C62.3999 177.3 67.3999 182.7 70.2999 183.7C76.3999 184.6 79.5 176.6 91.6 183.2C96.7999 186.1 102.7 176 103.5 171.8C104.6 153.6 102 146 102.3 137.7C81.2999 152.9 63.4 137.6 63.4 137.6Z" fill="#FE6397"/>
<path fill-rule="evenodd" clip-rule="evenodd" d="M106.6 79.3C105.4 85 107.4 90.4 111.3 91.2C115.2 92 119.3 87.9 120.4 82.2C121.6 76.5 119.5 71.1 115.6 70.3C111.9 69.4 107.9 73.5 106.6 79.3Z" fill="#ECA48B"/>
<path fill-rule="evenodd" clip-rule="evenodd" d="M59.1001 79.3C60.3001 85 58.2001 90.4 54.3001 91.2C50.4001 92 46.3001 87.9 45.2001 82.2C44.0001 76.3 46.1001 71 50.0001 70.3C53.8001 69.4 57.8001 73.5 59.1001 79.3Z" fill="#ECA48B"/>
<path fill-rule="evenodd" clip-rule="evenodd" d="M82.8 26.3999C66.2 26.3999 50.6 39.8999 50.6 56.4999L52.7 87.8999C52.7 87.8999 52.7 95.4999 60.2 104.1C66.7 111.6 75.4 121.2 82.8 121.2C90.3 121.2 98.7 111.7 105.5 104.1C112.5 96.3999 113 87.8999 113 87.8999L115.1 56.4999C115.1 39.7999 99.5 26.3999 82.8 26.3999Z" fill="#FBB89E"/>
<path fill-rule="evenodd" clip-rule="evenodd" d="M80 95.5C81.4 95.6 84.7 95.5 86.1 95.2C88 94.8 85.1 92.1 82.9 92C81.4 92 77.4 95 80 95.5Z" fill="#ECA48B"/>
<path fill-rule="evenodd" clip-rule="evenodd" d="M88.3 68.3001C89 67.3001 95.8001 66.4001 100.9 65.8001C101.7 65.7001 107.4 65.6001 110.6 67.9001C108.2 67.3001 105.3 67.1001 100.2 68.1001C97.1001 68.7001 90.6 70.8001 89.3 70.9001C88.5 70.8001 87.6 69.4001 88.3 68.3001Z" fill="#353636"/>
<path fill-rule="evenodd" clip-rule="evenodd" d="M77.4 68.3001C76.7 67.3001 69.9 66.4001 64.9 65.8001C64 65.7001 58.4 65.6001 55.2 67.9001C57.7 67.3001 60.6 67.1001 65.6 68.1001C68.7 68.7001 75.2 70.8001 76.5 70.9001C77.3 70.8001 78.1 69.4001 77.4 68.3001Z" fill="#353636"/>
<path fill-rule="evenodd" clip-rule="evenodd" d="M93.4 101.3C93.4 101.3 91.1 102.1 89.5 102.1C85.4 101.1 81 101.1 76.1 102.1C74.6 102.1 72.2 101.3 72.2 101.3C77.9 108.9 88 108.3 93.4 101.3Z" fill="#CA6496"/>
<path fill-rule="evenodd" clip-rule="evenodd" d="M72.3 101.3C73.5 102.7 76.0001 110.6 82.9001 110.6C88.4001 110.6 91 105.8 93.3 101.3C92.1 102.8 88.8 104.6 83.3 104.5C80 104.4 76.2 105.4 72.3 101.3Z" fill="#A94D7B"/>
<path fill-rule="evenodd" clip-rule="evenodd" d="M137.2 147.6C132.1 147 123.1 143.6 115.1 140.2C110.3 138.2 105.8 135.8 102.7 134.4C99.8 133 98 131.5 98 131.5C98.3 133.4 98.2 136.3 97.9 138.3C94.6 155.7 90.6 177 88.9 198.7C112.4 195.5 132.7 179.2 145.1 155.8C143.9 151.9 141.6 149.2 137.2 147.6Z" fill="#1F1F1F"/>
<path fill-rule="evenodd" clip-rule="evenodd" d="M63.5 134.6C63.5 134.6 62 135.2 59.2 136.1C52.2 138.5 37.8 143.4 22.7 147.6C18.6 149.1 16.4 151.5 15 154.9C27.8 179.7 49.5 196.7 74.4 199C70.1 172.9 61.2 137.2 63.5 134.6Z" fill="#1F1F1F"/>
<path fill-rule="evenodd" clip-rule="evenodd" d="M105.5 55.2C105.8 61.6 110.6 58.7 110.9 65.1C112.7 58.8 109.9 64.9 112 64.7C113.6 64.9 114.3 67.3 114.3 71.8C119.3 62.5 119.1 28.9 101.1 23.6C100.8 21.8 101.2 20.3 102.4 19.1C100.7 19.5 99.4001 20.9 98.6001 23.1C97.7001 20.5 98.2001 16.8 100 12C95.7001 15.7 93.8001 19.2 94.3001 22.5C80.5001 20.5 70.0001 22 63.0001 27.1C43.9001 42.1 41.2001 62.3 54.8001 87.9C53.1001 70.9 60.0001 60 75.4001 55.3C74.1001 57.7 72.2001 59.7 69.6001 61.3C84.4001 59 95.8001 53.8 104 46.1C103.1 50.4 100.3 54 95.7001 56.9C99.5001 56.9 102.7 56.4 105.5 55.2Z" fill="#E6E6E6"/>
<path fill-rule="evenodd" clip-rule="evenodd" d="M105.5 55.2C104.3 62.5 110.2 71.5 109.8 78.6C111.8 73.9 112.5 70.2 113 65.6C114.1 69.5 115 84.5 109.6 98.2C118.8 84.1 121.6 45.6 112.8 34.7C114.9 42.6 113.5 50.3 108.4 57.5C109.7 49.2 108.9 43.3 105.8 39.5C98.0001 48.2 89.1001 53.3 79.2001 55.2C80.6001 53.5 81.4001 51.7999 81.8001 50C69.5001 49.7 59.7001 54.3 52.3001 63.7C50.0001 59.4 48.6001 53.6999 48.3001 46.7999C44.3001 58.5 46.5001 72.2 54.8001 88C53.1001 71 60.0001 60.1 75.4001 55.4C74.1001 57.8 72.2001 59.8 69.6001 61.4C84.4001 59.1 95.8001 53.9 104 46.2C103.1 50.5 100.3 54.1 95.7001 57C99.5001 56.9 102.7 56.4 105.5 55.2Z" fill="#CBCBCB"/>
<path fill-rule="evenodd" clip-rule="evenodd" d="M87.4 29C76.1 25 64.2 34 60.4 42.5C65 38.4 69.9 35.6 75.3 34.2C72.5 35.6 70.4 37.8 69.1 40.7C77 35.3 84.3 32.4 90.8 32.4C88 30.5 84.7 30.1 81.1 31.2C83.1 29.4 85.2 28.7 87.4 29Z" fill="white"/>
<path fill-rule="evenodd" clip-rule="evenodd" d="M89.8 99.1C90.2 99.1 90.5 98.7999 90.5 98.3999C90.5 97.9999 90.2 97.7 89.8 97.7C89.4 97.7 89.1 97.9999 89.1 98.3999C89.1 98.7999 89.4 99.1 89.8 99.1Z" fill="#ECA48B"/>
<path fill-rule="evenodd" clip-rule="evenodd" d="M89.4 98.7999C89.8 98.7999 90.1 98.4999 90.1 98.0999C90.1 97.6999 89.8 97.3999 89.4 97.3999C89 97.3999 88.7 97.6999 88.7 98.0999C88.7 98.3999 89 98.7999 89.4 98.7999Z" fill="#CBCBCB"/>
<path fill-rule="evenodd" clip-rule="evenodd" d="M90 97.6001C90.1 97.7001 90.1 97.9001 90.1 98.0001C90.1 98.4001 89.8 98.7001 89.4 98.7001C89 98.7001 88.7 98.4001 88.7 98.1001C88.8 98.3001 88.9999 98.4001 89.2999 98.4001C89.6999 98.4001 90.1 98.1001 90 97.6001C90.1 97.7001 90.1 97.7001 90 97.6001Z" fill="#989798"/>
<path fill-rule="evenodd" clip-rule="evenodd" d="M89.3001 97.5C89.5001 97.4 89.6001 97.5 89.7001 97.5C89.7001 97.6 89.6001 97.7 89.4001 97.8C89.2001 97.9 89.1001 97.9 89.1001 97.8C88.9001 97.7 89.1001 97.5 89.3001 97.5Z" fill="white"/>
<path d="M107.2 75.5999C107.2 75.5999 101.9 71.1999 97.2001 72.6999C92.5001 74.0999 90.3 77.2999 89.3 79.4999C89.3 79.4999 89.9 78.8999 92.3 79.5999C94.8 80.2999 102.2 82.2999 107.2 75.5999Z" fill="white"/>
<path d="M94.9 73.5C94.9 73.5 92.4 77.7 96.6 80.2C97.2 80.2 100.3 80.5 101.3 79.4C102.3 78.3 104.2 75.2 100.7 72.6C98.3 72.4 96.9 72.4 94.9 73.5Z" fill="#417293"/>
<path d="M100.7 76.6001C100.6 77.8001 99.6 78.7001 98.3 78.6001C97.1 78.5001 96.1 77.5001 96.2 76.3001C96.3 75.1001 97.3 74.2001 98.6 74.3001C99.9 74.4001 100.8 75.4001 100.7 76.6001Z" fill="#232323"/>
<path d="M96.9 75.7999C96.9 76.2999 96.5 76.5999 96 76.5999C95.5 76.5999 95.2 76.1999 95.2 75.6999C95.2 75.1999 95.6 74.8999 96.1 74.8999C96.6 74.8999 97 75.2999 96.9 75.7999Z" fill="white"/>
<path opacity="0.5" d="M95 77.8001C95 77.8001 98.3 81.0001 101.6 77.6001C100.6 79.3001 98.4 81.6001 95 77.8001Z" fill="white"/>
<path opacity="0.7" d="M89.4 79.5001C90.7 77.2001 96.3 70.0001 105.9 77.0001C106.3 76.4001 106.8 75.7001 106.8 75.7001C106.8 75.7001 94.9 66.1001 89.4 79.5001Z" fill="#C1C4C9"/>
<path d="M89.4 79.4999C89.4 79.4999 91.3 74.3999 96.4 73.2999C99 72.7999 102.3 73.3999 106.7 75.8999C107.1 76.0999 108.3 76.0999 109.3 75.5999C108 75.3999 101.4 70.2999 95.8 72.1999C93.5 72.9999 91.1 74.8999 89.4 79.4999Z" fill="#1F1F1F"/>
<path d="M58.6 75.4C58.6 75.4 63.9 71 68.6 72.5C73.3 73.9 75.5 77.1 76.5 79.3C76.5 79.3 75.9 78.7 73.5 79.4C71.1 80.1 63.6 82.1 58.6 75.4Z" fill="white"/>
<path d="M71 73.3C71 73.3 73.5 77.5 69.3 80C68.7 80 65.6 80.3 64.6 79.2C63.6 78.1 61.7 75 65.2 72.4C67.5 72.2 69 72.2 71 73.3Z" fill="#417293"/>
<path d="M65.2 76.3999C65.3 77.5999 66.3 78.4999 67.6 78.3999C68.8 78.2999 69.8 77.2999 69.7 76.0999C69.6 74.8999 68.6 73.9999 67.3 74.0999C66 74.1999 65.1 75.1999 65.2 76.3999Z" fill="#232323"/>
<path d="M68.9 75.6C68.9 76.1 69.3 76.3999 69.8 76.3999C70.3 76.3999 70.6 76 70.6 75.5C70.6 75 70.2 74.7 69.7 74.7C69.2 74.7 68.9 75.1 68.9 75.6Z" fill="white"/>
<path opacity="0.5" d="M70.7 77.5999C70.7 77.5999 67.4 80.7999 64.1 77.3999C65.3 79.0999 67.5 81.3999 70.7 77.5999Z" fill="white"/>
<path opacity="0.7" d="M76.4 79.2999C75.1 76.9999 69.5 69.7999 59.9 76.7999C59.5 76.1999 59 75.4999 59 75.4999C59 75.4999 70.9 65.8999 76.4 79.2999Z" fill="#C1C4C9"/>
<path d="M76.4 79.3C76.4 79.3 74.5 74.2 69.4 73.1C66.8 72.6 63.5 73.2 59.1 75.7C58.7 75.9 57.5 75.9 56.5 75.4C57.7 75.2 64.4 70.1 70 72C72.4 72.8 74.8 74.7 76.4 79.3Z" fill="#1F1F1F"/>
</svg>
