<svg width="160" height="200" viewBox="0 0 160 200" fill="none" xmlns="http://www.w3.org/2000/svg">
<ellipse cx="80" cy="100" rx="80" ry="100" fill="#F4F4F4"/>
<path d="M105.9 150.1C105.9 150.1 89.3 178.8 79.9 178.7C70.5 178.6 54.9 158.3 59.5 141.3C59.8 140.7 60.1 140.1 60.4 139.5C65.1 129.5 64.7 110.1 64.7 110.1H95.6C95.6 110.1 95.2 129.5 99.9 139.5C100.3 140.3 105.4 149.4 105.9 150.1Z" fill="#FE966C"/>
<path d="M99.9 139.4C96.4 141.9 92.8 143.9 89.8 145.4C86.9 147.4 83.6 148.5 80.2 148.5C76.8 148.5 73.4 147.5 70.6 145.4C67.5 143.9 64 141.9 60.5 139.4C65.2 129.4 64.8 110 64.8 110H95.7C95.7 110.1 95.2 129.5 99.9 139.4Z" fill="#EB7C51"/>
<path d="M125.5 160.9C123 159.2 105.3 146.9 102.7 144.5L99 196.2C114.2 191.4 127.7 181.4 138.3 167.8C132.3 164.1 127.3 162.2 125.5 160.9Z" fill="#003636"/>
<path d="M80 172.7L63.2 171.7L58.9 143.9C58.9 143.9 53 146.8 46.3 152.2C42.1 155.6 37.9 159 35.2 160.9C33.1 162.3 27 164.7 20 169.2C35 187.8 55.7 199.3 78.4 199.3C88.1 199.3 97.3 197.2 105.9 193.4L98.6 175.4L80 172.7Z" fill="#003636"/>
<path d="M52 86.6999C52 86.6999 48.5 67.9999 43 70.6999C37.5 73.4999 37.3 95.7999 52 101.8V86.6999Z" fill="#FE966C"/>
<path d="M48.6 93.1C48.6 92.1 48.4999 90.7999 48.2999 89.3999C48.0999 87.9999 47.8 86.5 47.4 85C46.5 81.9 45.2 79.3 44.1 77.5C43.5 76.6 43.1 75.9 42.7 75.4C42.4 74.9 42.2 74.7 42.2 74.7C42.2 74.7 42.6 75.9 43.4 77.9C43.9 79.2 44.5 80.8999 45.1 82.7999C45 82.7999 44.8999 82.8999 44.7999 82.8999C44.3999 83.0999 43.9 83.3999 43.6 83.8999C43.2 84.2999 42.8 84.9 42.6 85.6C42.2 87 42.4 88.3 42.7 89.1C42.9 89.5 43 89.8 43.2 90C43.3 90.2 43.4 90.2999 43.4 90.2999C43.4 90.2999 43.4 90.1999 43.4 89.8999C43.4 89.6999 43.4 89.3 43.5 89C43.6 88.2 43.8 87.1 44.2 86.1C44.4 85.6 44.4999 85.1 44.7999 84.7C44.9999 84.2 45.3 83.8 45.5 83.5C45.7 84.1 45.9 84.6999 46.1 85.3999C46.5 86.8999 46.8999 88.3 47.2999 89.7C47.5999 91 47.9 92.2 48.1 93.2C48.3 94.2 48.5 95 48.6 95.6C48.7 96.2 48.7999 96.5 48.7999 96.5C48.7999 96.5 48.8 96.2 48.9 95.6C48.5 95 48.6 94.2 48.6 93.1Z" fill="#EB7C51"/>
<path d="M108.4 86.6999C108.4 86.6999 111.9 67.9999 117.4 70.6999C122.9 73.4999 123.1 95.7999 108.4 101.8V86.6999Z" fill="#FE966C"/>
<path d="M111.8 93.1C111.8 92.1 111.9 90.7999 112.1 89.3999C112.3 87.9999 112.6 86.5 113 85C113.9 81.9 115.2 79.3 116.3 77.5C116.9 76.6 117.3 75.9 117.7 75.4C118 74.9 118.2 74.7 118.2 74.7C118.2 74.7 117.8 75.9 117 77.9C116.5 79.2 116 80.8999 115.4 82.7999C115.5 82.7999 115.6 82.8999 115.7 82.8999C116.1 83.0999 116.6 83.3999 117 83.8999C117.4 84.2999 117.8 84.9 118 85.6C118.4 87 118.2 88.3 117.9 89.1C117.8 89.5 117.6 89.8 117.5 90C117.4 90.2 117.3 90.2999 117.3 90.2999C117.3 90.2999 117.3 90.1999 117.3 89.8999C117.3 89.6999 117.2 89.3 117.2 89C117.1 88.2 116.9 87.1 116.6 86.1C116.4 85.6 116.2 85.1 116 84.7C115.8 84.2 115.6 83.8 115.4 83.5C115.2 84.1 115.1 84.6999 114.8 85.3999C114.4 86.8999 114 88.3 113.7 89.7C113.4 91 113.1 92.2 112.9 93.2C112.7 94.2 112.5 95 112.4 95.6C112.3 96.2 112.2 96.5 112.2 96.5C112.2 96.5 112.2 96.2 112.1 95.6C111.8 95 111.8 94.2 111.8 93.1Z" fill="#EB7C51"/>
<path d="M109.6 108.9C108.6 116.4 105 122.3 100.7 126.8C97.5 130.2 93.8 132.8 90.5 134.7C89.4 135.3 88.2999 135.9 87.2999 136.4C85.2999 137.8 83 138.6 80.7 138.6C80.6 138.6 80.3999 138.6 80.2999 138.6C77.7999 138.6 75.4 137.8 73.2 136.4C65.2 132.4 52.9 124 50.9 108.9C49.4 97.9 47.7 83.9 48 72.3C48.5 55.9 50.3 48 61 40.8C66 37.3 72.7 34 80.2 34C86.7999 34 92.7 36.5 97.5 39.5C107.1 45.5 108.8 53.7 110 65.1C111.5 78.9 111.2 96.4 109.6 108.9Z" fill="#FEBF97"/>
<path d="M103.7 94.8C104.4 94.9 105.3 95.1 105.5 95.9C105.6 96.7 104.9 97.1 104.3 97.3C102.4 98 100.5 98.5 98.5 99C97 99.3 94.2 100.3 92.7 99.9C91.2 99.4 92.3 97.7 93 97.1C95.8 95 100.2 94.3 103.7 94.8Z" fill="#FEDAB6"/>
<path d="M56.7 94.8C56 94.9 55.1 95.1 54.9 95.9C54.8 96.7 55.5 97.1 56.1 97.3C58 98 59.9 98.5 61.9 99C63.4 99.3 66.2 100.3 67.7 99.9C69.2 99.4 68.1 97.7 67.3 97.1C64.6 95 60.2 94.3 56.7 94.8Z" fill="#FEDAB6"/>
<path d="M104.3 84.7001C102.3 82.3001 98.9 81.0001 95.6 81.1001C92.3 81.3001 89.2 83.0001 87.5 85.6001C88.9 82.4001 91.8 79.7001 95.5 79.0001C97.5 78.7001 99.8 79.3001 101.4 80.3001C103 81.5001 103.8 82.9001 104.3 84.7001Z" fill="black"/>
<path d="M96.5 85.0001C96.5 87.7001 95.1 89.9001 93.3 89.9001C91.5 89.9001 90.1 87.7001 90.1 85.0001C90.1 82.3001 91.6 80.1001 93.3 80.1001C95.1 80.2001 96.5 82.4001 96.5 85.0001Z" fill="black"/>
<path d="M99.8999 84.4999C97.8999 83.7999 95.4 84.2999 93.7 85.6999C94.6 86.2999 95.5999 86.6999 96.7999 86.4999C97.8999 86.2999 99.1999 85.2999 99.8999 84.4999Z" fill="white"/>
<path d="M56.1 84.7001C58.2 82.3001 61.5 81.0001 64.8 81.1001C68.1 81.3001 71.3 83.0001 73 85.6001C71.6 82.4001 68.7 79.7001 65 79.0001C63 78.7001 60.8 79.3001 59.1 80.3001C57.4 81.5001 56.6 82.9001 56.1 84.7001Z" fill="black"/>
<path d="M58.3 85.0001C58.3 87.7001 59.8 89.9001 61.5 89.9001C63.3 89.9001 64.7001 87.7001 64.7001 85.0001C64.7001 82.3001 63.3 80.1001 61.5 80.1001C59.8 80.2001 58.3 82.4001 58.3 85.0001Z" fill="black"/>
<path d="M61.4 84.8C63.4 84.2 65.9 84.6 67.6 86C66.7 86.6 65.7 87 64.5 86.8C63.4 86.6 62.1 85.6 61.4 84.8Z" fill="white"/>
<path d="M86.5 100.4C86 99.2 84.8 98.3 83.5 97.8C82.5 98.4 81.2 99.1001 80.2 99.6001C79.1 99.1001 77.9 98.5001 76.9 98.0001C75.6 98.6001 74.6 99.7001 74 101C75.8 102.6 77.7 103.8 79.9 104.8C81.9 104 85 102.1 86.5 100.4Z" fill="#FE8E6A"/>
<path d="M79.4 96.2999C78.7 96.5999 78 96.9999 77.5 97.5999C78.3 97.9999 79.1 98.4999 79.9 98.8999C80.8 98.3999 81.8 97.7999 82.7 97.3999C81.8 96.6999 80.4 95.8999 79.4 96.2999Z" fill="#FEDAB6"/>
<path d="M76.4 101.6C76.2 101.5 76 101.3 75.8 101C75.7 100.8 75.6 100.5 75.8 100.3C76 100 76.4 100 76.6 100.1C76.9 100.2 77.1 100.5 77.3 100.7C77.9 101.4 78.5 102.2 78.8 103.1C78 102.9 77.1 102.1 76.4 101.6Z" fill="#87341A"/>
<path d="M84 101.6C84.2 101.5 84.4 101.3 84.6 101C84.7 100.8 84.8 100.5 84.6 100.3C84.4 100 84.0999 100 83.7999 100.1C83.4999 100.2 83.3 100.5 83.2 100.7C82.6 101.4 81.9 102.2 81.7 103.1C82.4 102.9 83.3 102.1 84 101.6Z" fill="#87341A"/>
<path fill-rule="evenodd" clip-rule="evenodd" d="M96.4 109.7C91.8 113.3 86.3 115.5 80.5 115.6C75.1 115.7 68.2 114 64 110.5C64 110.5 64.5 110.7 65.3 110.9C65.8 111.1 66.2 111.1 66.9 111.3C67.4 111.5 68.1 111.7 68.9 111.8C69.7 112 70.5 112.1 71.3 112.2C72.2 112.3 73.1 112.4 74 112.5C75.9 112.6 78.1 112.8 80.3 112.7C82.5 112.6 84.7 112.4 86.6 112.2C87.5 112.1 88.5 111.9 89.3 111.7C90.1 111.6 90.9 111.4 91.7 111.2C92.4 111.1 93.1 110.8 93.6 110.6C94.2 110.4 94.7 110.3 95 110.1C95.9 109.8 96.4 109.7 96.4 109.7Z" fill="#FE8F6A"/>
<path fill-rule="evenodd" clip-rule="evenodd" d="M84.9 120.1C82.1 119 78.8 119 76 120.3C76.6 121.2 77.2 122.3 78 123.1C78.8 123.8 79.8 124.4 80.8 124.2C81.6 124.1 82.4 123.6 83 123C83.8 122.2 84.4 121 84.9 120.1Z" fill="#FEDAB7"/>
<path fill-rule="evenodd" clip-rule="evenodd" d="M99.5 130.4C110.2 119.1 116.2 99.8001 111 77.1001C109.2 92.9001 109.5 104.1 101.5 106.5C89.8 104.2 68.2 103.9 58.8 105.9C51.1 100.2 46.7 88.7 47.9 73.8C43 99.1 49.2 119.5 60.4 130.9C73.8 145.1 86.9 144.9 99.5 130.4ZM61.9 108.8C68.3 111 84.6 108.1 97.9 108.8C99.8 114.7 91.4 123.4 85.5 123C81.7 122.1 80.6 123 76.3 123.6C68.4 124.4 59.3 114.3 61.9 108.8Z" fill="#54311F"/>
<path fill-rule="evenodd" clip-rule="evenodd" d="M99.5 130.4C106.9 122.6 113 111.7 112.7 98.3C108.5 129.7 77.7 143.2 56.1 125.5C57.3 127.4 58.8 129.2 60.4 130.9C73.8 145.1 86.9 144.9 99.5 130.4Z" fill="#3C2516"/>
<path d="M88.4 75.2999C87.9 75.4999 87.3 75.5999 86.8 75.3999C86.2 75.0999 85.9 74.1999 86.1 73.4999C86.4 71.3999 88.4 69.8999 90.5 69.5999C92.6 69.2999 94.7 69.9999 96.6 70.7999C98.8 71.6999 100.9 72.8999 102.9 74.1999C103.5 74.5999 106.3 76.8999 105 77.5999C104.2 78.0999 102.2 76.6999 101.6 76.2999C97.7 74.0999 92.6 73.9999 88.4 75.2999Z" fill="#54311F"/>
<path d="M69.6999 75.2999C70.1999 75.4999 70.7999 75.5999 71.2999 75.3999C71.8999 75.0999 72.1999 74.1999 71.9999 73.4999C71.6999 71.3999 69.6999 69.8999 67.5999 69.5999C65.4999 69.2999 63.3999 69.9999 61.4999 70.7999C59.2999 71.6999 57.1999 72.8999 55.1999 74.1999C54.5999 74.5999 51.7999 76.8999 53.0999 77.5999C53.8999 78.0999 55.8999 76.6999 56.4999 76.2999C60.3999 74.0999 65.4999 73.9999 69.6999 75.2999Z" fill="#54311F"/>
<path fill-rule="evenodd" clip-rule="evenodd" d="M80 172.7C80 172.7 73.6 183.7 71.1 192.6C58.1 184.3 49.4 174.9 40.9 156.7C46.2 149.5 51.8 147.1 58.9 143.9C62.2 155.9 68.7 165.6 80 172.7Z" fill="#001F1F"/>
<path fill-rule="evenodd" clip-rule="evenodd" d="M80 172.7C80 172.7 87.2 183.9 89.8 192.9C102.8 184.6 114.9 172.8 119.8 157.2C114.6 150 109.9 147.6 102.7 144.5C100.5 157 91 166.9 80 172.7Z" fill="#001F1F"/>
<path fill-rule="evenodd" clip-rule="evenodd" d="M80.0001 172.7C80.0001 172.7 73.3 179.4 70.8 188.3C57.8 180.1 52.5 174.7 40.8 156.7C46.1 149.5 51.7 147.1 58.8 143.9C62.2 155.9 68.7001 165.6 80.0001 172.7Z" fill="#003636"/>
<path fill-rule="evenodd" clip-rule="evenodd" d="M80 172.7C80 172.7 87.3 179.9 89.8 188.8C102.8 180.6 108 175.2 119.7 157.2C114.5 150 109.8 147.6 102.6 144.5C100.5 157 91 166.9 80 172.7Z" fill="#003636"/>
<path fill-rule="evenodd" clip-rule="evenodd" d="M79.3999 193.3C80.5999 193.3 81.5 192.4 81.5 191.2C81.5 190 80.5999 189 79.3999 189C78.1999 189 77.2 189.9 77.2 191.2C77.3 192.4 78.1999 193.3 79.3999 193.3Z" fill="#001F1F"/>
<path fill-rule="evenodd" clip-rule="evenodd" d="M79.0001 192.9C80.2001 192.9 81.1001 192 81.1001 190.8C81.1001 189.6 80.2001 188.6 79.0001 188.6C77.8001 188.6 76.8 189.5 76.8 190.8C76.9 191.9 77.8001 192.9 79.0001 192.9Z" fill="black"/>
<path fill-rule="evenodd" clip-rule="evenodd" d="M83.7 178.8V199.1C84.3 199.1 85 199 85.6 198.9V178.8H83.7Z" fill="#001F1F"/>
</svg>
