<svg width="160" height="200" viewBox="0 0 160 200" fill="none" xmlns="http://www.w3.org/2000/svg">
<ellipse cx="80" cy="100" rx="80" ry="100" fill="#F4F4F4"/>
<path d="M40.9 177.8V177.7C41 168.2 39.9 159.3 39.9 159.3L39.4 153.3C38.9 153.5 38.4 153.7 38 153.9C34.5 155.4 31.6 157.2 29.1 159.1C25.9 161.6 23.5 164.4 21.6 167.6C27.1 174.9 33.5 181.1 40.5 186.1C40.6 185.1 40.7 184.1 40.8 183C40.8 181.4 40.9 179.6 40.9 177.8Z" fill="#FFC195"/>
<path d="M129 159.2C126.6 157.3 123.7 155.6 120.2 154C120.2 154 120.2 154 120.1 154C119.6 153.7 119.1 153.5 118.6 153.3L118.1 159.3C118.1 159.3 117 168.2 117.1 177.8C117.1 177.9 117.1 178.1 117.1 178.2C117.1 179.8 117.2 181.5 117.3 183.1C117.4 184.4 117.5 185.7 117.7 186.9C124.9 182 131.4 175.8 137 168.6C135 165 132.4 161.9 129 159.2Z" fill="#FFC195"/>
<path d="M130.3 167.8C130.3 180.5 107.3 190.9 79 190.9C50.7 190.9 27.7 180.6 27.7 167.8C27.7 161.5 33.3 155.8 42.5 151.6C48.6 148.8 65.6 144.9 65.6 142.3C65.6 141.6 65.6 140 65.6 138C65.7 132.2 65.8 123.1 65.8 123.1H91.6C91.6 123.1 91.8 126.3 91.9 130.1C92.1 135 92.4 141.1 92.4 142.7C92.5 145.5 109.3 148.9 115.3 151.7C124.6 155.7 130.3 161.5 130.3 167.8Z" fill="#FFC195"/>
<path d="M137.1 164.5C136.9 164.1 136.6 163.7 136.4 163.3C136.2 163 136 162.7 135.8 162.5C135.5 162.1 135.2 161.7 134.8 161.3C133.2 159.4 131.3 158.2 129.5 158.9C129.4 158.9 129.2 159 129.1 159.1C129.1 159.1 129 159.1 128.9 159.2C128.8 159.2 128.6 159.3 128.5 159.4C128.4 159.5 128.2 159.6 128.1 159.8C128 159.9 127.8 160.1 127.7 160.3L127.6 160.4C127.3 160.8 126.9 161.3 126.6 161.8C126.1 162.5 125.6 163.3 125.1 164.2C124.8 164.6 124.6 165 124.3 165.5C122.9 167.9 121.3 170.6 120 172.9C119.8 173.2 119.6 173.6 119.4 173.9C119.4 173.9 119.3 174 119.3 174.1C119.1 174.4 118.9 174.8 118.7 175.1C118.3 175.8 118 176.3 117.6 176.8C117.5 177 117.3 177.2 117.2 177.4C117.1 177.5 117 177.7 116.9 177.7C116.8 177.8 116.7 177.9 116.7 178C116.6 178.1 116.5 178.2 116.4 178.4C113.6 181.6 109.9 183.9 106.9 187C106.5 187.4 106.2 187.8 105.8 188.2L105.3 189.3L103 194.5C116.6 189.3 128.7 179.6 138.2 166.8C138.2 166.7 138.1 166.6 138.1 166.6C137.8 165.9 137.5 165.2 137.1 164.5Z" fill="#C545C1"/>
<path d="M36.6 109.7C36.6 95.5 48.8 84 64 84C79.1 84 91.4 95.5 91.4 109.7C91.4 123.9 79.1 135.4 64 135.4C48.8 135.3 36.6 123.8 36.6 109.7Z" fill="#5B191E"/>
<path d="M124.1 65C124.1 89.7 104.3 109.7 80 109.7C55.7 109.7 35.8 89.7 35.8 65C35.8 40.3 59 23 83.4 23C93.4 23 101.6 27.4 104.8 38.7C118.5 38.8 124.1 50.5 124.1 65Z" fill="#5B191E"/>
<path d="M110.6 84.4C119 76 120.2 88.7 117.9 94.8C114.2 105 106.1 106.9 96.3 105.3L110.6 84.4Z" fill="#FF9969"/>
<path d="M47.4 84.4C39 76 37.8 88.7 40.1 94.8C43.7 105 51.8 106.9 61.6 105.3L47.4 84.4Z" fill="#FF9969"/>
<path d="M92 130C86.1 140.9 76.6 146.7 70.3 143.5C68.6 142.7 66.7 140.7 65.7 138.3V137.9C65.8 132.1 65.9 123 65.9 123H91.7C91.6 123 91.8 126.2 92 130Z" fill="#FF9969"/>
<path d="M111.4 91.1C111.4 114.6 89.8 133.7 78.9 133.7C68.1 133.7 46.4 114.6 46.4 91.1C46.4 67.6 48.7 44.5 78.9 44.5C109.1 44.5 111.4 67.6 111.4 91.1Z" fill="#FFC195"/>
<path d="M99.6 53.6002C97.7 39.5002 86.7 31.4002 74.8 34.0002C58.1 37.6002 22.2 59.2002 46.5 87.5002C47.3 56.8002 98.8 65.5002 98.3 55.2002L99.6 53.6002Z" fill="#772023"/>
<path d="M97.7 49.1002C109.1 46.1002 123.8 60.0002 122 71.4002C121 77.8002 116.3 82.2002 111.4 87.6002C110.5 82.1002 110.2 71.6002 101.2 62.7002C97.6 59.1002 98.5 55.5002 97.7 50.7002V49.1002Z" fill="#772023"/>
<path d="M83.4 104.9C83.4 106.2 81.4 107.3 78.9 107.3C76.4 107.3 74.4 106.2 74.4 104.9C74.4 103.6 76.4 104 78.9 104C81.4 104 83.4 103.6 83.4 104.9Z" fill="#FF9969"/>
<path d="M85 36.7998C80.4 43.6998 82.4 48.6998 86.2 54.5998C74.9 56.7998 56.5 62.7998 50.8 70.1998C48.1 59.4998 59 36.7998 85 36.7998Z" fill="#91352C"/>
<path d="M110.7 53.5C110.4 58 107.9 59.5 104.3 60.8C108.4 65.5 114.3 74.2 114.3 79.3C119.1 75.5 121.9 62.1 110.7 53.5Z" fill="#91352C"/>
<path d="M79 115.1C74.7 115.2 69.3 116.3 66.5 114.8C69.1 117.9 73.1 120.5 78 121.9C78.3 121.9 78.6 121.9 79 121.8C79.3 121.8 79.7 121.9 80 121.9C84.9 120.5 88.9 118 91.5 114.8C88.6 116.3 83.3 115.1 79 115.1Z" fill="#C81F34"/>
<path d="M79.3 118.5C74.4 118.5 67.2 115.6 67.2 115.6C70.2 118.7 74.2 122.4 78.9 122.4C79 122.4 79.2 122.4 79.3 122.4C83.9 122.5 89.1 117.8 90.7 115.6C90.7 115.7 84.2 118.5 79.3 118.5Z" fill="#E81E30"/>
<path d="M107.6 79.0003C105.3 76.1003 102.3 73.9003 98.7 73.2003C95.1 72.5003 91.7 74.3003 88.1 74.4003C85.7 74.5003 86 78.3003 88.3 78.2003C91.5 78.1003 94.4 76.8003 97.6 76.8003C101 76.8003 104.4 77.9003 107.4 79.6003C107.7 79.8003 107.8 79.1003 107.6 79.0003Z" fill="#5B191E"/>
<path d="M86.6 93.4001C88.6 85.8001 97 78.6001 104.4 82.6001C109.1 85.1001 108 90.7001 105 93.0001C100.3 96.7001 93.7 96.2001 88.3 94.3001L86.6 93.4001Z" fill="#5B191E"/>
<path d="M88.2 93.6003C92.3 99.9003 103.5 98.3003 104.7 93.4003C105.1 91.7003 104.4 89.7003 103.8 89.3003L88.2 93.6003Z" fill="#5B191E"/>
<path d="M105.5 91C104.7 96.1 98.6 97.6 94 96.9C91.3 96.5 87.4 93.9 87.4 93.9C87.9 91.7 89.4 89.5 91.4 87.8C91.1 88.6 90.9 89.4 90.9 90.3C90.9 93.7 93.7 96.5 97.1 96.5C100.5 96.5 103.3 93.7 103.3 90.3C103.3 88 102.1 86.1 100.3 85C103.8 85.5 106 88.1 105.5 91Z" fill="#E8EDEF"/>
<path d="M103.2 90.3005C103.2 93.7005 100.4 96.5005 97 96.5005C93.6 96.5005 90.8 93.7005 90.8 90.3005C90.8 89.4005 91 88.6005 91.3 87.8005C92.5 86.8005 93.9 85.9005 95.4 85.5005C97.1 85.0005 98.7 84.8005 100.1 85.0005C102 86.1005 103.2 88.0005 103.2 90.3005Z" fill="#45800A"/>
<path d="M104.1 90.3002C104.1 91.2002 103.4 91.9002 102.5 91.9002C101.6 91.9002 100.9 91.2002 100.9 90.3002C100.9 89.4002 101.6 88.7002 102.5 88.7002C103.4 88.7002 104.1 89.4002 104.1 90.3002Z" fill="white"/>
<path d="M49.9 78.6002C52.2 75.7002 55.1 73.4002 58.8 72.7002C62.4 72.0002 65.9 73.8002 69.4 73.8002C71.8 73.8002 71.6 77.7002 69.2 77.6002C66 77.5002 63.1 76.2002 59.9 76.3002C56.5 76.4002 53.1 77.4002 50.2 79.2002C49.9 79.4002 49.8 78.8002 49.9 78.6002Z" fill="#5B191E"/>
<path d="M71 93.4001C69 85.8001 60.6 78.6001 53.2 82.6001C48.5 85.1001 49.6 90.7001 52.6 93.0001C57.3 96.7001 63.9 96.2001 69.3 94.3001L71 93.4001Z" fill="#5B191E"/>
<path d="M69.4 93.6003C65.3 99.9003 54.1 98.3003 52.9 93.4003C52.5 91.7003 53.2 89.7003 53.8 89.3003L69.4 93.6003Z" fill="#5B191E"/>
<path d="M70.1 93.9C70.1 93.9 66.3 96.5 63.5 96.9C58.9 97.6 52.8 96.1 52 91C51.5 88.1 53.7 85.5 57.3 85C55.5 86.1 54.2 88 54.2 90.3C54.2 93.7 57 96.5 60.4 96.5C63.8 96.5 66.6 93.7 66.6 90.3C66.6 89.4 66.4 88.5 66.1 87.8C68.1 89.5 69.7 91.7 70.1 93.9Z" fill="#E8EDEF"/>
<path d="M66.7 90.3005C66.7 93.7005 63.9 96.5005 60.5 96.5005C57.1 96.5005 54.3 93.7005 54.3 90.3005C54.3 88.0005 55.5 86.1005 57.4 85.0005C58.8 84.8005 60.4 85.0005 62.1 85.5005C63.5 86.0005 64.9 86.8005 66.2 87.8005C66.5 88.6005 66.7 89.4005 66.7 90.3005Z" fill="#45800A"/>
<path d="M68.2 90.3002C68.2 91.2002 67.5 91.9002 66.6 91.9002C65.7 91.9002 65 91.2002 65 90.3002C65 89.4002 65.7 88.7002 66.6 88.7002C67.5 88.7002 68.2 89.4002 68.2 90.3002Z" fill="white"/>
<path d="M126.2 166.1C126.2 165.3 126.3 164.4 126.4 163.6C126.4 163 126.5 162.5 126.6 161.9C126.1 162.6 125.6 163.4 125.1 164.3C124.8 164.7 124.6 165.1 124.3 165.6C122.9 168 121.3 170.7 120 173C119.8 173.3 119.6 173.7 119.4 174C119.4 174 119.3 174.1 119.3 174.2C119.1 174.5 118.9 174.9 118.7 175.2C118.3 175.9 118 176.4 117.6 176.9C117.5 177.1 117.3 177.3 117.2 177.5C117.1 177.6 117 177.8 116.9 177.8C116.8 177.9 116.7 178 116.7 178.1C116.6 178.2 116.5 178.3 116.4 178.5C113.6 181.7 109.9 184 106.9 187.1C106.5 187.5 106.2 187.9 105.8 188.3L105.3 189.4L103 194.6C111.9 191.2 120.1 185.9 127.3 179.1C127.2 178.6 127.1 178.1 127 177.6C126.9 177.1 126.8 176.6 126.7 176.1C126.2 172.8 126 169.5 126.2 166.1Z" fill="#A61FAF"/>
<path d="M52 188.3C51.6 187.9 51.3 187.5 50.9 187.1C47.8 183.9 44 181.6 41.1 178.2C41 178.1 40.9 178 40.9 177.9C40.8 177.8 40.8 177.8 40.7 177.7C40.5 177.4 40.3 177.1 40.1 176.7C39.9 176.8 39.8 177 39.6 177.1C39.4 177.3 39.2 177.4 39.1 177.5C37.9 178.4 36.7 179.3 35.5 180.1C35 180.5 34.5 180.8 33.9 181.2C40.2 186.7 47.2 191.1 54.6 194.1L52.5 189.5L52 188.3Z" fill="#A61FAF"/>
<path d="M39 177.4C39.2 177.3 39.4 177.1 39.5 177C39.7 176.9 39.9 176.8 40 176.6C38.7 174.6 36.8 171.1 34.9 167.9C34.7 167.6 34.5 167.3 34.3 167C34.2 166.8 34.1 166.6 33.9 166.4C33.7 166.1 33.6 165.9 33.5 165.7C32.2 163.6 31.1 161.7 30.2 160.5C29.8 160 29.5 159.7 29.3 159.5C29.2 159.4 29 159.3 28.9 159.3C25.6 157.3 22.2 161.7 20 166C24.1 171.7 28.7 176.8 33.8 181.2C34.3 180.8 34.8 180.5 35.4 180.1C36.6 179.2 37.8 178.3 39 177.4Z" fill="#C545C1"/>
<path d="M118.9 177.3C118.3 177.6 117.7 177.9 117 178.3C116.8 178.4 116.6 178.5 116.4 178.6C107.1 183 94 185.7 79.4 185.7C64 185.7 50.2 182.6 40.8 177.8C40.8 177.8 40.7 177.8 40.6 177.7C40.2 177.5 39.8 177.3 39.4 177.1C39.3 177.1 39.2 177 39.2 177C39.1 177.2 39 177.3 38.9 177.5C38.2 178.6 37.6 179.9 37.1 181.3C36.8 182 36.6 182.6 36.3 183.3C48.8 193.3 63.6 199.1 79.5 199.1C95.1 199.1 109.7 193.5 122 183.8C121.7 182.9 121.3 182 120.9 181.2C120.3 179.8 119.6 178.5 118.9 177.3Z" fill="#C545C1"/>
</svg>
