<svg width="102" height="61" viewBox="0 0 102 61" fill="none" xmlns="http://www.w3.org/2000/svg">
<path d="M36.7357 30.9985C33.4324 30.9985 30.7297 28.3076 30.7297 25.0188C30.7297 21.7299 33.4324 19.0391 36.7357 19.0391" stroke="#BBD141" stroke-miterlimit="10" stroke-linecap="round" stroke-linejoin="round"/>
<path d="M65.5646 30.9985C68.8679 30.9985 71.5706 33.6894 71.5706 36.9783C71.5706 40.2671 68.8679 42.958 65.5646 42.958" stroke="#BBD141" stroke-miterlimit="10" stroke-linecap="round" stroke-linejoin="round"/>
<path d="M39.2382 21.4308C40.5395 21.4308 41.7407 20.3345 41.7407 19.0389C41.7407 17.6436 40.6396 16.5474 39.2382 16.5474C37.8368 16.5474 36.7357 17.6436 36.7357 19.0389C36.7357 20.3345 37.8368 21.4308 39.2382 21.4308Z" stroke="#BBD141" stroke-miterlimit="10" stroke-linecap="round" stroke-linejoin="round"/>
<path d="M69.1682 21.4308C70.5696 21.4308 71.6707 20.3345 71.6707 19.0389C71.6707 17.6436 70.5696 16.5474 69.1682 16.5474C67.8669 16.5474 66.6656 17.6436 66.6656 19.0389C66.7657 20.3345 67.8669 21.4308 69.1682 21.4308Z" stroke="#BBD141" stroke-miterlimit="10" stroke-linecap="round" stroke-linejoin="round"/>
<path d="M51.05 33.4899C52.3514 33.4899 53.4525 32.3937 53.4525 30.9984C53.4525 29.6031 52.3514 28.5068 51.05 28.5068C49.6486 28.5068 48.5475 29.6031 48.5475 30.9984C48.5475 32.294 49.6486 33.4899 51.05 33.4899Z" stroke="#BBD141" stroke-miterlimit="10" stroke-linecap="round" stroke-linejoin="round"/>
<path d="M63.0621 45.4494C64.4635 45.4494 65.5646 44.3531 65.5646 42.9579C65.5646 41.6623 64.4635 40.4663 63.0621 40.4663C61.7608 40.4663 60.5596 41.5626 60.5596 42.9579C60.6597 44.3531 61.7608 45.4494 63.0621 45.4494Z" stroke="#BBD141" stroke-miterlimit="10" stroke-linecap="round" stroke-linejoin="round"/>
<path d="M41.6406 19.0391H66.7657" stroke="#BBD141" stroke-miterlimit="10" stroke-linecap="round" stroke-linejoin="round"/>
<path d="M36.7357 30.9985H48.5475" stroke="#BBD141" stroke-miterlimit="10" stroke-linecap="round" stroke-linejoin="round"/>
<path d="M53.4525 30.9985H65.5646" stroke="#BBD141" stroke-miterlimit="10" stroke-linecap="round" stroke-linejoin="round"/>
<path d="M60.6597 42.958H35.6346" stroke="#BBD141" stroke-miterlimit="10" stroke-linecap="round" stroke-linejoin="round"/>
<path d="M33.1321 45.4494C34.4334 45.4494 35.6346 44.3531 35.6346 42.9579C35.6346 41.6623 34.5335 40.4663 33.1321 40.4663C31.7307 40.4663 30.6296 41.5626 30.6296 42.9579C30.7297 44.3531 31.8308 45.4494 33.1321 45.4494Z" stroke="#BBD141" stroke-miterlimit="10" stroke-linecap="round" stroke-linejoin="round"/>
<path d="M69.1682 16.5471V5.98291L62.6617 9.67041L69.1682 13.3579" stroke="#BBD141" stroke-miterlimit="10" stroke-linecap="round" stroke-linejoin="round"/>
<path d="M4.4034 60.0004H97.5966C99.4985 60.0004 101 58.4058 101 56.5122H1C1 58.5055 2.5015 60.0004 4.4034 60.0004Z" stroke="#BBD141" stroke-miterlimit="10" stroke-linecap="round" stroke-linejoin="round"/>
<path d="M43.0421 53.4224H59.0581" stroke="#BBD141" stroke-miterlimit="10" stroke-linecap="round" stroke-linejoin="round"/>
<path d="M51.0501 7.97636C51.6507 7.97636 52.2513 7.47805 52.2513 6.78042C52.2513 6.18245 51.7508 5.58447 51.0501 5.58447C50.4495 5.58447 49.8489 6.08278 49.8489 6.78042C49.8489 7.47805 50.4495 7.97636 51.0501 7.97636Z" stroke="#BBD141" stroke-miterlimit="10" stroke-linecap="round" stroke-linejoin="round"/>
<path d="M8.00702 49.8345H94.0931" stroke="#BBD141" stroke-miterlimit="10" stroke-linecap="round" stroke-linejoin="round"/>
<path d="M94.0931 56.6115V3.69088C94.0931 2.19595 92.8919 1 91.3904 1H10.7097C9.20822 1 8.00702 2.19595 8.00702 3.69088V56.6115" stroke="#BBD141" stroke-miterlimit="10" stroke-linecap="round" stroke-linejoin="round"/>
</svg>
