<svg width="102" height="75" viewBox="0 0 102 75" fill="none" xmlns="http://www.w3.org/2000/svg">
<path d="M73.3724 27.7098C80.6797 27.7098 86.6857 21.7854 86.6857 14.3549C86.6857 6.92435 80.7798 1 73.3724 1C66.0651 1.10041 60.0591 7.12517 60.0591 14.4553C60.0591 21.7854 66.0651 27.7098 73.3724 27.7098Z" stroke="#BBD141" stroke-miterlimit="10" stroke-linecap="round" stroke-linejoin="round"/>
<path d="M82.4815 24.0947V39.1566L73.3724 34.9393L64.2633 39.1566V24.0947" stroke="#BBD141" stroke-miterlimit="10" stroke-linecap="round" stroke-linejoin="round"/>
<path d="M66.0651 14.4555L70.97 19.2754L80.5796 9.63574" stroke="#BBD141" stroke-miterlimit="10" stroke-linecap="round" stroke-linejoin="round"/>
<path d="M4.4034 74H97.5966C99.4985 74 101 72.4938 101 70.5859H1C1 72.3934 2.5015 74 4.4034 74Z" stroke="#BBD141" stroke-miterlimit="10" stroke-linecap="round" stroke-linejoin="round"/>
<path d="M43.042 67.2725H59.058" stroke="#BBD141" stroke-miterlimit="10" stroke-linecap="round" stroke-linejoin="round"/>
<path d="M51.0501 21.4841C51.6507 21.4841 52.2513 20.9821 52.2513 20.2792C52.2513 19.6767 51.7508 19.0742 51.0501 19.0742C50.4495 19.0742 49.8489 19.5763 49.8489 20.2792C49.8489 20.9821 50.4495 21.4841 51.0501 21.4841Z" stroke="#BBD141" stroke-miterlimit="10" stroke-linecap="round" stroke-linejoin="round"/>
<path d="M8.00708 63.7578H94.0932" stroke="#BBD141" stroke-miterlimit="10" stroke-linecap="round" stroke-linejoin="round"/>
<path d="M60.0591 14.4551H10.7098C9.20828 14.4551 8.00708 15.66 8.00708 17.1662V70.4853" stroke="#BBD141" stroke-miterlimit="10" stroke-linecap="round" stroke-linejoin="round"/>
<path d="M94.0931 70.4853V17.1662C94.0931 15.66 92.8919 14.4551 91.3904 14.4551H86.6857" stroke="#BBD141" stroke-miterlimit="10" stroke-linecap="round" stroke-linejoin="round"/>
</svg>
