<svg width="102" height="67" viewBox="0 0 102 67" fill="none" xmlns="http://www.w3.org/2000/svg">
<path d="M51.0501 1H35.0341L51.0501 20.278L38.6377 26.8385L32.6317 5.94565L35.0341 1" stroke="#BBD141" stroke-miterlimit="10" stroke-linecap="round" stroke-linejoin="round"/>
<path d="M51.05 1H67.0661L51.05 20.278L63.4625 26.8385L69.3684 5.94565L67.0661 1" stroke="#BBD141" stroke-miterlimit="10" stroke-linecap="round" stroke-linejoin="round"/>
<path d="M44.8439 23.6084L48.2473 29.8662L40.3394 55.7047" stroke="#BBD141" stroke-miterlimit="10" stroke-linecap="round" stroke-linejoin="round"/>
<path d="M57.2562 23.6084L53.8528 29.8662L61.7608 55.7047" stroke="#BBD141" stroke-miterlimit="10" stroke-linecap="round" stroke-linejoin="round"/>
<path d="M48.2473 29.8667H53.8529" stroke="#BBD141" stroke-miterlimit="10" stroke-linecap="round" stroke-linejoin="round"/>
<path d="M40.5396 7.66162H61.5606" stroke="#BBD141" stroke-miterlimit="10" stroke-linecap="round" stroke-linejoin="round"/>
<path d="M4.4034 65.9999H97.5966C99.4985 65.9999 101 64.4859 101 62.4673H1C1 64.4859 2.5015 65.9999 4.4034 65.9999Z" stroke="#BBD141" stroke-miterlimit="10" stroke-linecap="round" stroke-linejoin="round"/>
<path d="M43.0421 59.3384H59.0581" stroke="#BBD141" stroke-miterlimit="10" stroke-linecap="round" stroke-linejoin="round"/>
<path d="M8.00702 55.7051H94.0931" stroke="#BBD141" stroke-miterlimit="10" stroke-linecap="round" stroke-linejoin="round"/>
<path d="M32.7317 6.14746H10.7097C9.20822 6.14746 8.00702 7.35864 8.00702 8.87262V62.4673" stroke="#BBD141" stroke-miterlimit="10" stroke-linecap="round" stroke-linejoin="round"/>
<path d="M94.0931 62.4675V8.97369C94.0931 7.45972 92.8919 6.24854 91.3904 6.24854C84.0831 6.24854 76.6757 6.24854 69.3683 6.24854" stroke="#BBD141" stroke-miterlimit="10" stroke-linecap="round" stroke-linejoin="round"/>
</svg>
