<svg width="102" height="61" viewBox="0 0 102 61" fill="none" xmlns="http://www.w3.org/2000/svg">
<path d="M4.4034 59.9998H97.5966C99.4985 59.9998 101 58.5049 101 56.6113H1C1 58.5049 2.5015 59.9998 4.4034 59.9998Z" stroke="#BBD141" stroke-miterlimit="10" stroke-linecap="round" stroke-linejoin="round"/>
<path d="M43.042 53.4224H59.058" stroke="#BBD141" stroke-miterlimit="10" stroke-linecap="round" stroke-linejoin="round"/>
<path d="M51.0501 7.97636C51.6507 7.97636 52.2513 7.47805 52.2513 6.78042C52.2513 6.08278 51.7508 5.58447 51.0501 5.58447C50.4495 5.58447 49.8489 6.08278 49.8489 6.78042C49.8489 7.47805 50.4495 7.97636 51.0501 7.97636Z" stroke="#BBD141" stroke-miterlimit="10" stroke-linecap="round" stroke-linejoin="round"/>
<path d="M8.00696 49.8345H94.093" stroke="#BBD141" stroke-miterlimit="10" stroke-linecap="round" stroke-linejoin="round"/>
<path d="M94.093 56.6115V3.69088C94.093 2.19595 92.8918 1 91.3903 1H10.7097C9.20816 1 8.00696 2.19595 8.00696 3.69088V56.6115" stroke="#BBD141" stroke-miterlimit="10" stroke-linecap="round" stroke-linejoin="round"/>
<path d="M44.8438 21.0322H57.2562C58.9579 21.0322 60.3593 22.4275 60.3593 24.1218V37.9748C60.3593 39.6691 58.9579 41.0643 57.2562 41.0643H44.8438C43.1421 41.0643 41.7407 39.6691 41.7407 37.9748V24.1218C41.7407 22.4275 43.1421 21.0322 44.8438 21.0322Z" stroke="#BBD141" stroke-miterlimit="10" stroke-linecap="round" stroke-linejoin="round"/>
<path d="M51.0501 26.2144C52.4515 26.2144 53.6527 27.4103 53.6527 28.8056C53.6527 29.8022 53.0521 30.6992 52.2513 31.0978V34.4863C52.2513 35.1839 51.6507 35.6823 51.0501 35.6823C50.3494 35.6823 49.8489 35.1839 49.8489 34.4863V31.0978C49.0481 30.6992 48.4475 29.8022 48.4475 28.8056C48.4475 27.4103 49.6487 26.2144 51.0501 26.2144Z" stroke="#BBD141" stroke-miterlimit="10" stroke-linecap="round" stroke-linejoin="round"/>
<path d="M54.2532 18.2414C54.2532 16.4475 52.8518 15.0522 51.05 15.0522C49.2482 15.0522 47.8468 16.4475 47.8468 18.2414V21.032" stroke="#BBD141" stroke-miterlimit="10" stroke-linecap="round" stroke-linejoin="round"/>
</svg>
