<svg width="102" height="61" viewBox="0 0 102 61" fill="none" xmlns="http://www.w3.org/2000/svg">
<path d="M4.4034 60.0004H97.5966C99.4985 60.0004 101 58.5055 101 56.5122H1C1 58.5055 2.5015 60.0004 4.4034 60.0004Z" stroke="#BBD141" stroke-miterlimit="10" stroke-linecap="round" stroke-linejoin="round"/>
<path d="M43.0421 53.4224H59.0581" stroke="#BBD141" stroke-miterlimit="10" stroke-linecap="round" stroke-linejoin="round"/>
<path d="M51.0501 7.97636C51.6507 7.97636 52.2513 7.47805 52.2513 6.78042C52.2513 6.18245 51.7508 5.58447 51.0501 5.58447C50.4495 5.58447 49.8489 6.08278 49.8489 6.78042C49.8489 7.47805 50.4495 7.97636 51.0501 7.97636Z" stroke="#BBD141" stroke-miterlimit="10" stroke-linecap="round" stroke-linejoin="round"/>
<path d="M8.00702 49.8345H94.0931" stroke="#BBD141" stroke-miterlimit="10" stroke-linecap="round" stroke-linejoin="round"/>
<path d="M94.0931 56.6115V3.69088C94.0931 2.19595 92.8919 1 91.3904 1H10.7097C9.20822 1 8.00702 2.19595 8.00702 3.69088V56.6115" stroke="#BBD141" stroke-miterlimit="10" stroke-linecap="round" stroke-linejoin="round"/>
<path d="M30.5295 20.8325L32.1311 26.015H37.6366L33.2322 29.2041L34.9339 34.2869L30.5295 31.0977L26.1251 34.2869L27.8268 29.2041L23.3223 26.015H28.8278L30.5295 20.8325Z" stroke="#BBD141" stroke-miterlimit="10" stroke-linecap="round" stroke-linejoin="round"/>
<path d="M51.05 20.8325L52.7517 26.015H58.1571L53.7527 29.2041L55.4544 34.2869L51.05 31.0977L46.6456 34.2869L48.3473 29.2041L43.9429 26.015H49.3483L51.05 20.8325Z" stroke="#BBD141" stroke-miterlimit="10" stroke-linecap="round" stroke-linejoin="round"/>
<path d="M71.5705 20.8325L73.2722 26.015H78.6777L74.2732 29.2041L75.975 34.2869L71.5705 31.0977L67.1661 34.2869L68.8678 29.2041L64.4634 26.015H69.8688L71.5705 20.8325Z" stroke="#BBD141" stroke-miterlimit="10" stroke-linecap="round" stroke-linejoin="round"/>
</svg>
