<svg width="26" height="23" viewBox="0 0 26 23" fill="none" xmlns="http://www.w3.org/2000/svg">
<path d="M22.5966 6.89753L15.9209 6.31536L13.2691 0.525524C13.0835 0.120114 12.4721 0.120114 12.2865 0.525524L9.63473 6.31532L2.95906 6.89753C2.49161 6.93826 2.30273 7.48494 2.65538 7.77626L7.69219 11.9367L6.21816 18.0863C6.11493 18.517 6.60954 18.8548 7.01315 18.6295L12.7778 15.411L18.5425 18.6295C18.9462 18.8548 19.4407 18.517 19.3375 18.0863L17.8634 11.9367L22.9003 7.77626C23.2529 7.48494 23.064 6.93826 22.5966 6.89753Z" fill="#FFA40D"/>
<path d="M5.95388 0.326247C6.29418 0.770682 7.25469 2.67936 7.80383 3.79172C7.89018 3.96658 7.65684 4.12455 7.50785 3.99206C6.56016 3.14956 4.93976 1.68757 4.59946 1.24309C4.33018 0.891435 4.41508 0.401101 4.78913 0.147909C5.16312 -0.105283 5.6846 -0.0254064 5.95388 0.326247Z" fill="#FFA40D"/>
<path d="M19.6024 0.326277C19.2621 0.770712 18.3015 2.67939 17.7524 3.79175C17.6661 3.96661 17.8994 4.12458 18.0484 3.99209C18.9961 3.14959 20.6164 1.68755 20.9568 1.24312C21.2261 0.891465 21.1412 0.401132 20.7671 0.14794C20.3931 -0.105252 19.8716 -0.0253759 19.6024 0.326277Z" fill="#FFA40D"/>
<path d="M24.9804 13.3598C24.4266 13.19 22.2007 12.9095 20.9067 12.7556C20.7033 12.7314 20.6142 12.9884 20.7936 13.0816C21.9353 13.6746 23.9091 14.682 24.4628 14.8518C24.901 14.9862 25.372 14.7611 25.515 14.3491C25.6579 13.9371 25.4185 13.4942 24.9804 13.3598Z" fill="#FFA40D"/>
<path d="M0.575946 13.3598C1.1297 13.19 3.35566 12.9095 4.6496 12.7556C4.85301 12.7314 4.94215 12.9884 4.76271 13.0816C3.62101 13.6746 1.64722 14.682 1.09346 14.8518C0.65531 14.9862 0.184263 14.7611 0.0413568 14.3491C-0.10155 13.9371 0.137792 13.4942 0.575946 13.3598Z" fill="#FFA40D"/>
<path d="M11.9686 22.2154C11.9686 21.6677 12.3752 19.5909 12.6208 18.3864C12.6594 18.1971 12.9469 18.1971 12.9855 18.3864C13.2311 19.5909 13.6376 21.6677 13.6376 22.2154C13.6376 22.6487 13.264 23 12.8032 23C12.3422 23 11.9686 22.6487 11.9686 22.2154Z" fill="#FFA40D"/>
<path d="M14.2334 2.63095L13.2691 0.525524C13.0834 0.120113 12.4721 0.120113 12.2865 0.525524L9.63468 6.31532L2.95906 6.89752C2.49161 6.93826 2.30273 7.48494 2.65538 7.77626L7.69219 11.9367L6.21816 18.0863C6.11493 18.517 6.60954 18.8548 7.01315 18.6295L7.78039 18.2011C9.0382 10.5453 12.5743 4.92543 14.2334 2.63095Z" fill="#FFA400"/>
</svg>
