<svg width="27" height="26" viewBox="0 0 27 26" fill="none" xmlns="http://www.w3.org/2000/svg">
<path fill-rule="evenodd" clip-rule="evenodd" d="M7.47949 6.581L7.98279 8.24635C7.77154 8.44579 7.59035 8.68427 7.45094 8.95799C6.79863 10.2387 7.30804 11.8057 8.58874 12.458C9.86943 13.1103 11.4364 12.6009 12.0887 11.3202C12.741 10.0395 12.2316 8.47249 10.9509 7.82019C10.7648 7.72537 10.5726 7.6551 10.378 7.60818L10.0219 6.42988L13.9633 6.34538C15.0785 6.17826 16.1324 6.73248 16.5199 7.03048L24.2532 12.9769C24.8991 13.4736 25.8815 14.8694 24.6436 16.4792L19.0733 23.7233C18.3252 24.4289 16.8284 25.1992 15.5883 24.2456L7.855 18.2991C7.46745 18.0011 6.66112 17.125 6.53619 16.0042L5.19686 10.4915C5.18776 10.4099 5.17592 10.321 5.16328 10.226C5.06742 9.50583 4.92535 8.43859 5.58152 7.58524C6.101 6.90967 6.81419 6.69281 7.47949 6.581Z" fill="#FFA40D"/>
<path d="M9.76983 11.1917C9.26984 7.19171 7.26984 -0.308281 3.76985 1.69171C0.269856 3.6917 2.26982 12.1917 4.76982 12.1917" stroke="#FFA40D" stroke-width="1.3"/>
</svg>
