<?xml version="1.0" encoding="utf-8"?>
<!-- Generator: Adobe Illustrator 24.0.1, SVG Export Plug-In . SVG Version: 6.00 Build 0)  -->
<svg version="1.1" id="Слой_1" xmlns="http://www.w3.org/2000/svg" xmlns:xlink="http://www.w3.org/1999/xlink" x="0px" y="0px"
	 viewBox="0 0 24 24" style="enable-background:new 0 0 24 24;" xml:space="preserve">
<style type="text/css">
	.st0{fill:#FFA400;}
</style>
<path class="st0" d="M2,17.5c1.5-1.5,2-1,2.7,0c-1.2,1-1.7,2-1.7,3.5c1.5,0,2.5-0.5,3.5-1.5c1,1,1.5,1.5-0.4,2.7
	c-1.5,1-4.7,0.9-5,0.6C0.9,22.4,0.4,19.1,2,17.5z"/>
<path class="st0" d="M23.9,0C13.3,0.4,9,5.9,8.1,8.6C6.4,8.1,5.9,8.8,4.6,9.8c-1.8,1.5-5.3,5.8-4.5,6.1c0.8,0.3,2-0.3,5.3-1
	c-0.8,0.8-0.5,1.5-0.3,1.8l2,2c0.6,0.6,1.8,0.3,2.3,0l-0.8,3c-0.3,1-1,2.5,0.3,2.3c1.3-0.3,5.3-3.8,6-4.8c0.8-1,0.8-1.8,0.8-3.5
	C22.7,12.6,24.4,0.3,23.9,0z M17.5,8.5C16.1,8.5,15,7.4,15,6s1.1-2.5,2.5-2.5S20,4.6,20,6S18.9,8.5,17.5,8.5z"/>
</svg>
