<?xml version="1.0" encoding="utf-8"?>
<!-- Generator: Adobe Illustrator 24.0.1, SVG Export Plug-In . SVG Version: 6.00 Build 0)  -->
<svg version="1.1" id="Слой_1" xmlns="http://www.w3.org/2000/svg" xmlns:xlink="http://www.w3.org/1999/xlink" x="0px" y="0px"
	 viewBox="0 0 22 23" style="enable-background:new 0 0 22 23;" xml:space="preserve">
<style type="text/css">
	.st0{fill:#FFA40D;}
</style>
<path class="st0" d="M20.8,11.8c-0.1-0.2-0.1-0.4,0-0.6l0.9-1.8c0.5-1,0.1-2.1-0.9-2.7l-1.7-0.9c-0.2-0.1-0.3-0.3-0.3-0.5l-0.3-1.9
	c-0.2-1.1-1.2-1.8-2.2-1.6l-1.9,0.3c-0.2,0-0.4,0-0.6-0.2l-1.4-1.4c-0.8-0.8-2-0.8-2.8,0L8.2,1.9C8,2.1,7.8,2.1,7.6,2.1L5.7,1.8
	c-1.1-0.2-2,0.6-2.2,1.6L3.1,5.4c0,0.2-0.2,0.4-0.3,0.5L1.1,6.8c-1,0.5-1.3,1.7-0.9,2.7l0.9,1.8c0.1,0.2,0.1,0.4,0,0.6l-0.9,1.8
	c-0.5,1-0.1,2.1,0.9,2.7l1.7,0.9c0.2,0.1,0.3,0.3,0.3,0.5l0.3,1.9c0.2,1,1,1.7,2,1.7c0.1,0,0.2,0,0.3,0l1.9-0.3c0.2,0,0.4,0,0.6,0.2
	l1.4,1.4c0.4,0.4,0.9,0.6,1.4,0.6c0.5,0,1-0.2,1.4-0.6l1.4-1.4c0.2-0.1,0.4-0.2,0.6-0.2l1.9,0.3c1.1,0.2,2-0.6,2.2-1.6l0.3-1.9
	c0-0.2,0.2-0.4,0.3-0.5l1.7-0.9c1-0.5,1.3-1.7,0.9-2.7L20.8,11.8z M9.6,7.7c-0.1,2.4-3.4,2.2-3.5,0C6.3,5.3,9.6,5.5,9.6,7.7z
	 M8.1,16.2c-0.4,0.4-1,0.4-1.4,0s-0.4-1,0-1.4l7.6-8c0.4-0.4,1-0.4,1.4,0c0.4,0.4,0.4,1,0,1.4L8.1,16.2z M13.5,15.1
	c0.1-2.4,3.4-2.2,3.5,0C16.9,17.5,13.6,17.4,13.5,15.1z"/>
</svg>
