<?xml version="1.0" encoding="utf-8"?>
<!-- Generator: Adobe Illustrator 24.0.1, SVG Export Plug-In . SVG Version: 6.00 Build 0)  -->
<svg version="1.1" id="Слой_1" xmlns="http://www.w3.org/2000/svg" xmlns:xlink="http://www.w3.org/1999/xlink" x="0px" y="0px"
	 viewBox="0 0 28 25" style="enable-background:new 0 0 28 25;" xml:space="preserve">
<style type="text/css">
	.st0{fill:#FF5B56;}
</style>
<g>
	<path class="st0" d="M20.2,2c1.6,0,3.1,0.6,4.1,1.8C25.4,5,26,6.6,26,8.4c0,1.9-0.7,3.6-2.3,5.6c-1.6,1.9-4,3.9-6.7,6.3
		C16,21.1,15,22,14,22.9c-1.1-0.9-2.1-1.8-3-2.6C8.3,18,5.9,15.9,4.3,14C2.7,12.1,2,10.4,2,8.4C2,6.6,2.6,5,3.7,3.8
		C4.8,2.6,6.2,2,7.8,2C9,2,10,2.4,11,3.1c0.5,0.4,1,0.9,1.4,1.5L14,6.8l1.6-2.3C16,4,16.5,3.5,17,3.1C18,2.4,19,2,20.2,2 M20.2,0
		c-1.6,0-3.1,0.5-4.4,1.5C15.1,2,14.5,2.7,14,3.4c-0.5-0.7-1.1-1.4-1.8-1.9C10.9,0.5,9.4,0,7.8,0C5.7,0,3.7,0.9,2.2,2.4
		C0.8,4,0,6.1,0,8.4c0,2.4,0.9,4.6,2.8,6.8c1.7,2.1,4.1,4.1,7,6.5c1,0.8,2.1,1.8,3.2,2.8c0.3,0.3,0.7,0.4,1.1,0.4
		c0.4,0,0.8-0.1,1.1-0.4c1.1-1,2.2-1.9,3.2-2.8c2.8-2.4,5.3-4.5,7-6.5C27.1,13,28,10.8,28,8.4c0-2.3-0.8-4.4-2.2-6
		C24.3,0.9,22.3,0,20.2,0L20.2,0z"/>
</g>
</svg>
