<svg width="183" height="379" viewBox="0 0 183 379" fill="none" xmlns="http://www.w3.org/2000/svg">
<path fill-rule="evenodd" clip-rule="evenodd" d="M71.4931 362.472C74.6954 370.367 80.2993 376.661 82.9297 364.074C81.2142 354.004 79.6131 344.049 77.8976 334.208C71.2644 329.288 66.6897 329.517 63.9449 335.009C66.461 344.735 68.977 353.89 71.4931 362.472Z" fill="#E0B289"/>
<path fill-rule="evenodd" clip-rule="evenodd" d="M82.9297 364.074C77.6689 364.532 73.7804 363.96 71.4931 362.472C68.5196 366.592 68.1765 371.169 70.3495 376.203C99.5128 381.009 112.093 379.636 108.09 371.97C96.3105 367.393 87.9618 364.761 82.9297 364.074Z" fill="black"/>
<path fill-rule="evenodd" clip-rule="evenodd" d="M22.5445 363.159C19.1135 371.054 15.4538 371.741 11.9085 363.159C11.3366 353.547 10.7648 344.278 10.4217 335.238C15.4538 330.204 19.9141 329.975 23.8025 334.666C23.3451 345.88 22.8876 355.492 22.5445 363.159Z" fill="#E0B289"/>
<path fill-rule="evenodd" clip-rule="evenodd" d="M22.5445 363.158C18.9991 364.646 15.4538 364.646 11.9084 363.158C3.78845 369.337 1.2724 374.258 4.36028 378.263C10.3073 378.263 16.3687 378.263 22.5445 378.263C25.0605 374.716 25.0605 369.681 22.5445 363.158Z" fill="black"/>
<path fill-rule="evenodd" clip-rule="evenodd" d="M60.514 171.15C48.6199 163.713 39.3563 164.742 32.6087 174.354C15.4538 167.031 5.73268 164.628 3.331 166.688C-1.70111 177.215 -1.01491 206.165 5.27522 253.652C7.44817 277.796 9.16366 305.03 10.3073 335.238C15.9113 337.641 20.3715 337.527 23.6881 334.666C28.1484 286.607 31.3507 249.99 33.2949 224.816C33.2949 224.931 33.2949 224.931 33.2949 225.045C37.9839 240.951 48.1625 277.682 63.8306 335.009C68.2909 336.039 72.9799 335.81 77.7833 334.208C72.7512 307.547 67.0329 253.194 60.514 171.15Z" fill="#B8E8AC"/>
<path d="M33.4093 225.045L35.6966 195.523L51.8222 289.925L33.4093 225.045Z" fill="#92D069"/>
<path fill-rule="evenodd" clip-rule="evenodd" d="M60.514 171.15C48.6199 163.713 39.3563 164.742 32.6087 174.354C15.4538 167.031 5.73269 164.628 3.331 166.688C2.75917 167.832 2.3017 169.205 1.84424 170.807C9.27803 184.882 28.949 187.742 61.0858 179.16C60.9715 176.643 60.7427 173.897 60.514 171.15Z" fill="#92D069"/>
<path fill-rule="evenodd" clip-rule="evenodd" d="M57.9979 128.813C52.7371 111.877 52.8514 97.6884 58.341 86.4746C62.5726 104.211 65.8892 117.599 68.4052 126.982C63.9449 128.813 60.514 129.499 57.9979 128.813Z" fill="#536193"/>
<path d="M110.492 130.758H69.0914V140.141H110.492V130.758Z" fill="#353636"/>
<path fill-rule="evenodd" clip-rule="evenodd" d="M58.4554 143.116C47.3619 127.897 50.221 122.748 67.0328 127.44C69.892 133.046 73.2086 135.678 76.9827 135.793C108.548 135.221 127.418 134.992 133.823 135.335C138.855 132.245 142.972 132.131 146.174 134.763C152.464 134.648 157.153 134.648 160.012 134.648C158.64 132.36 159.555 131.444 162.414 131.902C165.731 133.847 164.13 136.594 157.954 139.912C150.177 141.514 140.456 142.658 128.905 143.574C83.6159 148.952 60.1709 148.837 58.4554 143.116Z" fill="#DC946D"/>
<path fill-rule="evenodd" clip-rule="evenodd" d="M183 93.3403H125.359L102.143 135.449H159.784L183 93.3403Z" fill="#353636"/>
<path fill-rule="evenodd" clip-rule="evenodd" d="M142.057 138.767C130.277 141.17 126.503 140.942 130.62 138.195C134.394 132.932 139.77 131.559 146.746 134.076C147.89 135.449 146.289 136.937 142.057 138.767Z" fill="#DC946D"/>
<path fill-rule="evenodd" clip-rule="evenodd" d="M53.4233 30.5198C37.2977 35.7834 30.0926 45.052 31.8081 58.3255C29.4064 54.3206 25.9755 51.0022 21.2865 48.1415C9.50675 36.2411 7.21943 26.0572 14.4245 17.5896C28.034 1.4554 39.9281 -3.57938 50.3354 2.48524C58.4554 9.46528 59.4847 18.7338 53.4233 30.5198Z" fill="#422F1F"/>
<path fill-rule="evenodd" clip-rule="evenodd" d="M29.1777 23.7686C37.7552 22.0522 44.8458 22.3954 50.5641 24.7984C58.4554 43.2211 58.4554 53.2907 50.6785 55.2359C48.6199 55.2359 47.0188 55.2359 45.7608 55.3503C44.1597 56.609 43.7022 59.3553 44.6171 63.4747C42.2154 77.5491 38.327 78.1213 32.723 65.4199C32.8374 62.6737 32.6087 60.1563 31.9225 57.9822C31.6938 51.0021 30.8932 45.5096 29.4064 41.7336C28.034 42.5345 26.8904 42.3057 26.0898 41.1614C21.7439 33.8381 22.5445 30.1765 28.2628 30.1765C29.6352 27.8879 29.9783 25.7138 29.1777 23.7686Z" fill="#F8CB9C"/>
<path fill-rule="evenodd" clip-rule="evenodd" d="M60.514 171.15C27.1191 180.076 7.10508 176.872 0.128754 161.653C-0.557442 93.4544 10.3073 61.4149 32.4943 65.4199C36.7259 66.5641 40.7287 65.992 44.3884 63.4746C53.309 64.1612 57.998 71.8278 58.1123 86.4744C57.083 116.34 57.8836 144.603 60.514 171.15Z" fill="#3E466A"/>
<path fill-rule="evenodd" clip-rule="evenodd" d="M36.3828 126.524C29.1777 121.947 25.1749 123.435 24.0312 130.987C24.4887 139.912 29.6352 146.892 39.2419 151.469C62.0008 161.653 81.3286 171.265 97.1111 180.305C95.9675 189.459 101.228 194.494 112.779 195.409C114.495 195.066 114.609 194.265 113.465 192.892C108.09 189.459 105.231 184.996 105.231 179.389C105.117 176.529 99.9703 172.524 89.4486 167.603C53.0802 146.549 35.3535 132.932 36.3828 126.524Z" fill="#F8CB9C"/>
<path fill-rule="evenodd" clip-rule="evenodd" d="M38.4413 125.38C31.9225 129.613 24.3743 131.673 16.14 131.788C13.7383 100.32 17.2836 84.6437 26.6616 84.5293C33.1805 84.4149 37.0689 98.0316 38.4413 125.38Z" fill="#536193"/>
<path fill-rule="evenodd" clip-rule="evenodd" d="M54.91 40.7037C54.6813 40.8181 49.7636 37.8431 49.1917 36.0122C48.8486 34.7535 48.3912 31.2063 49.9923 30.5197C50.221 30.4053 49.9923 30.2909 50.3354 30.4053C51.4791 35.2112 56.7399 38.5296 56.8543 38.644C57.1974 39.2162 55.0244 40.5893 54.91 40.7037Z" fill="#F8CB9C"/>
<path fill-rule="evenodd" clip-rule="evenodd" d="M54.2239 39.4451C52.2796 39.1018 48.5056 43.7933 53.1946 41.3903C54.2239 40.9326 56.0537 39.7883 54.2239 39.4451Z" fill="#DC946D"/>
<path fill-rule="evenodd" clip-rule="evenodd" d="M50.6785 29.1465C51.2503 29.0321 51.8222 29.7186 52.0509 30.6341C52.1653 31.5495 51.9365 32.4649 51.3647 32.5793C50.7929 32.6937 50.221 32.0072 49.9923 31.0918C49.7636 30.0619 50.1067 29.2609 50.6785 29.1465Z" fill="#444444"/>
<path fill-rule="evenodd" clip-rule="evenodd" d="M39.6994 33.6094C40.2712 33.495 40.843 34.1815 41.0718 35.0969C41.3005 36.0124 40.9574 36.8134 40.3856 36.9278C39.8137 37.0422 39.2419 36.3556 39.0132 35.4402C38.7844 34.5248 39.1275 33.7238 39.6994 33.6094Z" fill="#444444"/>
<path d="M41.1861 29.3755C41.5292 29.3755 41.7579 29.6043 41.7579 29.9476C41.7579 30.2909 41.5292 30.5198 41.1861 30.5198C40.3855 30.5198 38.8988 31.3207 37.6408 32.3506C36.7258 33.1516 35.9253 34.067 35.9253 34.7535C35.9253 35.0968 35.6965 35.3257 35.3534 35.3257C35.0103 35.3257 34.7816 35.0968 34.7816 34.7535C34.7816 33.6093 35.6965 32.465 36.9546 31.4352C38.327 30.2909 40.1568 29.3755 41.1861 29.3755Z" fill="#422F1F"/>
<path d="M49.0774 28.0016C48.8486 28.116 48.3912 28.0016 48.2768 27.7729C48.1624 27.5442 48.2768 27.0867 48.5055 26.9723C49.6492 26.4005 50.4498 26.4005 51.5934 26.6292H51.7078C52.0509 26.6292 52.2796 26.9723 52.2796 27.3154C52.2796 27.6585 51.9365 27.8873 51.5934 27.8873H51.4791C50.5641 27.6585 49.9923 27.5442 49.0774 28.0016Z" fill="#422F1F"/>
<path fill-rule="evenodd" clip-rule="evenodd" d="M53.9951 49.0569C51.1359 49.2858 49.0774 48.7137 47.8193 47.3405C50.5641 47.1117 52.7371 46.3107 54.6813 45.052C54.7957 46.4251 54.5669 47.7982 53.9951 49.0569Z" fill="#E0785C"/>
</svg>
