<svg width="135" height="221" viewBox="0 0 135 221" fill="none" xmlns="http://www.w3.org/2000/svg">
<path d="M86.5789 4.77282C52.0599 -13.0443 38.0095 22.5899 48.2438 52.8618C58.1311 81.5767 112.425 175.506 116.935 219.27L128.73 216.676C144.342 155.959 130.985 27.6064 86.5789 4.77282Z" fill="#B8E8AC"/>
<path d="M124.22 217.541C131.679 125.687 68.3653 15.1519 68.1918 14.8059C67.8449 14.114 66.8041 13.941 65.9368 14.287C65.0695 14.633 64.7226 15.4979 65.0695 16.1898C65.243 16.5358 128.73 127.244 120.751 218.406L124.22 217.541Z" fill="white"/>
<path d="M28.1222 74.1384C-5.35596 67.5651 -6.22327 98.3558 11.2964 119.806C25.8672 137.623 83.2831 186.75 108.608 221L124.047 217.54C112.945 165.127 67.6715 81.9226 28.1222 74.1384Z" fill="#738693"/>
<path d="M118.496 218.751C91.6093 150.251 16.5003 86.0744 16.1534 85.7284C15.633 85.3824 14.7657 85.2095 14.0718 85.7284C13.378 86.0744 13.5514 86.9393 13.8983 87.2852C14.0718 87.4582 88.8339 151.288 115.547 219.27L118.496 218.751Z" fill="white"/>
</svg>
