<svg width="156" height="188" viewBox="0 0 156 188" fill="none" xmlns="http://www.w3.org/2000/svg">
<path d="M73.6588 122.278C69.0289 126.329 64.9778 131.683 60.782 136.024C55.4287 141.957 49.9307 147.6 44.5774 153.532C42.2624 156.281 43.2752 159.754 39.2241 159.899C35.4623 160.188 27.5047 158.452 24.0323 157.005C11.8788 151.941 5.07869 142.101 1.75096 131.104C-3.31297 114.175 3.34248 105.348 12.3129 95.5091C22.2961 84.3675 15.6406 80.4607 8.11705 68.885C0.59349 57.454 5.94679 45.5889 19.113 39.8011C32.4239 33.8685 32.7133 30.5405 32.7133 19.3989C32.7133 8.25732 37.9219 -4.33125 52.535 1.4566C59.3351 4.20582 63.965 10.7171 67.0034 17.2285C68.3055 20.4118 69.6077 23.7398 70.3311 27.3572C70.9098 30.5405 70.6205 33.5791 72.646 36.3284C74.0929 38.6435 76.6972 40.0905 78.8674 41.6821C83.2079 44.4313 87.5485 47.3253 91.0209 51.3768C94.4933 55.4283 96.5189 60.6373 95.9401 65.7017C95.2167 71.4895 91.1656 75.6857 87.9825 80.4607C87.2591 81.763 86.391 82.9205 86.2463 84.5122C86.1016 87.2614 88.1272 89.2871 89.2847 91.6023C92.323 97.3901 90.8762 105.059 86.9697 110.268C85.5229 112.873 83.642 114.609 81.3271 116.345C78.5781 118.371 75.8291 120.397 73.6588 122.278Z" fill="#738693"/>
<path d="M38.2113 160.333C38.79 160.623 39.6581 160.333 39.9475 159.61C72.5013 88.2745 52.1009 27.7915 51.8115 27.2127C51.6669 26.634 50.9434 26.3446 50.3647 26.4893C49.786 26.634 49.4966 27.3574 49.6413 27.9362C49.786 28.515 69.897 88.1298 37.7772 158.597C37.6325 158.886 37.7772 159.465 38.0666 159.754C38.5006 160.044 38.5006 160.044 38.2113 160.333Z" fill="white"/>
<path d="M57.8884 89.2869C58.3224 88.7082 58.4671 88.2741 58.1777 87.5506C48.918 73.6598 29.241 57.7432 28.3729 57.1644C27.7941 56.7303 27.0707 56.7303 26.6367 57.3091C26.2026 57.8879 26.2026 58.6114 26.7814 59.0454C26.926 59.0454 46.8924 75.3961 56.1522 89.1422C56.0075 89.1422 56.1522 89.1422 56.1522 89.1422C56.7309 89.5763 57.165 89.5763 57.8884 89.2869Z" fill="white"/>
<path d="M58.3224 77.5668C67.4374 68.885 78.144 63.5312 78.144 63.5312C78.7228 63.3865 78.8675 62.663 78.7228 61.9396C78.5781 61.3608 77.8547 61.2161 77.1313 61.3608C76.6972 61.6502 65.8459 66.8592 56.7308 75.8304C56.2968 76.1198 56.1521 76.988 56.7308 77.4221C57.1649 78.0008 57.7436 78.0008 58.3224 77.5668Z" fill="white"/>
<path d="M38.6453 122.567C45.7348 106.94 60.4925 98.9816 60.4925 98.9816C56.7307 114.175 65.2671 127.053 65.2671 127.053C63.0968 117.792 64.833 104.046 67.148 95.6536C69.897 93.0491 73.8034 90.734 80.4589 88.7082C87.259 86.5378 97.6763 87.2613 97.6763 87.2613C92.6123 98.5476 95.6507 109.689 95.6507 109.689C95.6507 109.689 99.2678 93.6279 104.91 88.9976C110.553 84.512 136.741 89.7211 145.133 92.4703C153.38 95.2195 157.865 95.2196 155.26 106.361C152.656 117.213 144.554 140.799 143.107 140.22C122.417 133.998 107.659 136.892 107.659 136.892C131.388 143.982 137.898 155.558 137.898 155.558C132.256 173.934 120.102 173.066 120.102 173.066C105.344 162.069 86.6803 157.294 86.6803 157.294C97.5316 163.082 113.302 179.433 113.302 179.433C113.302 179.433 94.7826 191.298 75.5396 187.102C56.2967 182.905 45.156 172.053 45.156 172.053C33.1473 157.005 31.1217 140.365 38.6453 122.567Z" fill="#B6E6AE"/>
<path d="M42.8411 169.159C42.407 169.015 42.2624 168.147 42.407 167.568C60.2031 134.288 122.562 97.969 144.409 94.7856C144.988 94.7856 145.422 95.075 145.567 95.7985C145.567 96.3773 145.133 96.6667 144.554 96.9561C123.141 100.284 61.9394 136.024 44.1432 168.581C43.9986 169.015 43.7092 169.304 43.1305 169.159C43.1305 169.304 42.9858 169.304 42.8411 169.159Z" fill="white"/>
</svg>
