<svg width="278" height="283" viewBox="0 0 278 283" fill="none" xmlns="http://www.w3.org/2000/svg">
<path fill-rule="evenodd" clip-rule="evenodd" d="M125.007 42.9159C131.025 54.1859 138.195 58.7963 146.518 56.7472C154.457 58.284 160.859 56.8753 165.596 52.521C165.724 58.4121 167.133 64.8155 169.694 71.9873C174.047 84.0256 181.858 98.1131 192.997 113.865C210.795 139.607 261.884 140.631 274.56 110.023C285.572 83.5134 269.438 42.2756 236.276 41.6353C236.66 7.82543 194.278 3.85534 177.12 27.1636C176.096 28.0601 175.071 28.9566 174.047 29.8531C174.175 19.2234 170.846 10.8991 163.932 4.87988C150.487 -2.80417 138.707 -1.39543 128.72 8.97804C122.19 17.8147 121.038 29.0846 125.007 42.9159Z" fill="#D1764F"/>
<path fill-rule="evenodd" clip-rule="evenodd" d="M180.961 89.6608C177.12 84.2819 173.663 78.9031 170.334 73.9084C174.815 85.5626 182.37 98.8816 192.869 113.866C210.667 139.607 261.756 140.632 274.432 110.024C275.2 108.231 275.713 106.438 276.225 104.645C248.696 124.367 200.424 117.708 180.961 89.6608Z" fill="#B26246"/>
<path fill-rule="evenodd" clip-rule="evenodd" d="M69.8208 177.003C58.2971 159.97 54.7119 169.831 59.0653 206.97C66.4917 222.851 73.1499 238.347 79.1679 253.715C83.7774 253.971 86.5944 252.691 87.6187 249.617C81.7288 206.586 75.8388 182.381 69.8208 177.003Z" fill="#3E466A"/>
<path fill-rule="evenodd" clip-rule="evenodd" d="M90.6919 259.862C88.8993 273.309 86.0824 273.822 82.1131 261.143C81.0887 258.197 80.0644 255.636 79.1681 253.587C83.0094 254.227 85.8263 252.819 87.6189 249.489C88.7712 252.69 89.7956 256.02 90.6919 259.862Z" fill="#E0B289"/>
<path fill-rule="evenodd" clip-rule="evenodd" d="M90.6917 259.862C88.2589 262.296 85.57 263.32 82.625 262.808C67.6441 271.901 61.8822 278.176 65.0833 282.018C67.388 285.22 77.7594 280.609 96.3255 267.931C95.0451 261.527 93.1245 258.838 90.6917 259.862Z" fill="#353535"/>
<path fill-rule="evenodd" clip-rule="evenodd" d="M34.9937 258.838C26.799 267.547 23.982 266.138 26.5429 254.868C27.1831 252.435 27.8233 249.745 28.3355 246.8C33.8413 243.854 37.4265 245.007 39.3471 250.001C37.1704 253.331 35.7619 256.277 34.9937 258.838Z" fill="#E0B289"/>
<path fill-rule="evenodd" clip-rule="evenodd" d="M26.0305 257.173C28.2072 258.966 31.1522 259.478 34.9934 258.71C35.6336 261.143 34.2252 264.985 30.5119 270.364C5.67177 265.497 -3.93139 260.759 1.44638 256.405C4.13527 255.124 12.2019 255.38 26.0305 257.173Z" fill="#353535"/>
<path fill-rule="evenodd" clip-rule="evenodd" d="M141.268 146.651C157.018 151.005 171.998 158.049 186.339 167.654C182.626 181.485 172.383 187.504 155.609 185.711C101.191 183.919 70.333 179.948 63.1627 173.801C68.2843 184.687 60.2177 210.172 39.2188 250.129C35.2495 250.514 31.5362 249.489 28.2072 246.928C35.6336 225.669 42.0357 199.671 47.5415 168.678C51.3828 151.902 82.6251 144.602 141.268 146.651Z" fill="#536193"/>
<path fill-rule="evenodd" clip-rule="evenodd" d="M182.626 175.978C184.163 173.545 185.443 170.855 186.339 167.526C171.999 157.921 157.018 151.005 141.269 146.523C139.988 146.523 138.58 146.395 137.299 146.395C137.427 148.444 137.811 150.237 138.324 151.773C157.914 168.038 172.767 175.978 182.626 175.978Z" fill="#3E466A"/>
<path fill-rule="evenodd" clip-rule="evenodd" d="M154.969 53.9298C158.938 56.235 161.755 53.5456 163.548 45.9896C162.651 39.9704 158.682 35.488 151.768 32.7986C143.701 30.7495 136.403 26.1391 129.745 18.7112C127.568 23.8339 127.952 30.6215 131.025 38.8178C132.946 40.6107 133.97 43.6844 134.226 48.0387C135.891 48.2948 137.171 48.1667 138.195 47.5264C142.805 50.2158 147.158 50.7281 151.384 49.3193C153.176 50.4719 154.457 52.0087 154.969 53.9298Z" fill="#F8CB9C"/>
<path fill-rule="evenodd" clip-rule="evenodd" d="M143.445 49.5755C142.165 49.1913 140.884 48.8071 139.86 48.2948C140.5 46.758 141.652 45.3492 143.573 44.3247C144.341 45.8615 144.213 47.6545 143.445 49.5755Z" fill="#E0785C"/>
<path fill-rule="evenodd" clip-rule="evenodd" d="M131.281 32.9268C133.074 31.6462 135.122 30.1094 136.915 31.9023C137.043 32.0304 136.275 31.6462 135.25 31.7742C134.098 32.0304 132.433 33.8233 131.921 34.4637C131.921 34.5917 130.897 33.4391 131.281 32.9268Z" fill="black"/>
<path fill-rule="evenodd" clip-rule="evenodd" d="M135.379 47.0142C134.738 46.63 137.939 44.0686 138.195 45.4773C138.58 46.758 137.811 46.63 136.915 47.0142C136.531 47.0142 135.507 47.0142 135.379 47.0142Z" fill="#E0B289"/>
<path fill-rule="evenodd" clip-rule="evenodd" d="M151.255 49.1913C150.743 49.3194 150.231 49.5755 149.463 49.7036C150.615 48.679 151.384 46.758 151.768 44.0686C153.56 46.2458 153.944 48.4229 153.176 50.7281C152.536 50.2158 151.896 49.5755 151.255 49.1913Z" fill="#E0B289"/>
<path d="M141.012 38.9459C142.214 38.9459 143.189 37.9711 143.189 36.7687C143.189 35.5663 142.214 34.5916 141.012 34.5916C139.81 34.5916 138.835 35.5663 138.835 36.7687C138.835 37.9711 139.81 38.9459 141.012 38.9459Z" fill="#E0B289"/>
<path d="M135.859 37.6186C136.14 37.4032 136.088 36.8648 135.743 36.4161C135.399 35.9674 134.892 35.7783 134.611 35.9937C134.331 36.2091 134.383 36.7475 134.728 37.1962C135.072 37.645 135.579 37.8341 135.859 37.6186Z" fill="black"/>
<path fill-rule="evenodd" clip-rule="evenodd" d="M148.695 35.36C156.121 38.3055 160.475 43.044 161.499 49.7035C161.243 51.1123 160.859 52.393 160.475 53.4175C161.755 52.0087 162.779 49.5755 163.548 45.9896C162.651 39.9704 158.682 35.488 151.768 32.7986C143.701 30.7495 136.403 26.1391 129.744 18.7112C129.104 20.248 128.72 21.9129 128.464 23.8339C134.61 29.5969 141.396 33.567 148.695 35.36Z" fill="#E0B289"/>
<path fill-rule="evenodd" clip-rule="evenodd" d="M72.6381 91.0693C73.2783 84.2817 71.3576 80.5677 67.2603 79.7993C46.0053 84.6659 75.0709 120.141 72.6381 91.0693Z" fill="#E0B289"/>
<path fill-rule="evenodd" clip-rule="evenodd" d="M144.982 125.135C149.079 119.244 149.591 115.914 146.518 115.018C123.855 112.329 104.52 106.694 88.5152 97.8569C85.8263 103.748 87.6189 107.974 93.8929 110.792C122.19 120.525 139.22 125.263 144.982 125.135Z" fill="#E0B289"/>
<path fill-rule="evenodd" clip-rule="evenodd" d="M186.339 167.526C189.54 160.354 191.717 150.364 192.613 137.43C195.046 79.0308 185.443 48.4227 163.548 45.8613C159.578 48.5507 156.761 51.2402 154.969 53.8015C150.359 66.096 148.567 80.1834 149.719 96.0638C149.847 102.979 148.695 109.895 145.878 116.683C140.5 130.386 139.092 140.247 141.268 146.394C163.548 167.013 178.529 173.929 186.339 167.526Z" fill="#92D069"/>
<path fill-rule="evenodd" clip-rule="evenodd" d="M169.437 47.5263C173.279 40.2264 174.687 32.5423 173.663 24.7302C176.223 25.3706 177.76 27.6758 178.016 31.3897C178.272 37.4089 176.48 43.3 172.382 49.0631C171.358 48.2947 170.334 47.7824 169.437 47.5263Z" fill="#B8E8AC"/>
<path fill-rule="evenodd" clip-rule="evenodd" d="M57.6572 70.0664H62.6509L90.308 127.697H85.4424L57.6572 70.0664Z" fill="#464646"/>
<path fill-rule="evenodd" clip-rule="evenodd" d="M159.45 119.5C166.109 115.274 171.23 116.17 174.943 122.318C173.407 134.228 169.694 139.863 163.932 138.966C136.787 132.947 113.739 125.519 95.0452 116.939C81.2167 118.988 74.9426 114.249 76.6071 103.108C76.223 97.6007 76.223 94.9112 76.223 94.9112C78.0156 90.0447 85.8262 94.2709 99.6547 107.846C120.141 115.402 137.299 120.397 151 122.702C156.633 123.598 159.45 122.574 159.45 119.5Z" fill="#F8CB9C"/>
<path fill-rule="evenodd" clip-rule="evenodd" d="M155.353 117.707C164.188 122.062 173.023 122.83 182.114 120.269C181.986 107.334 180.321 92.0939 177.12 74.2925C174.688 62.5103 169.438 57.5157 161.755 59.4367C153.433 61.3577 151.256 80.6959 155.353 117.707Z" fill="#B8E8AC"/>
</svg>
