<svg width="60" height="97" viewBox="0 0 60 97" fill="none" xmlns="http://www.w3.org/2000/svg">
<path d="M38.4795 94.9051C23.1378 102.725 16.8932 87.085 21.4417 73.7982C25.8361 61.1948 49.9666 19.968 51.971 0.759247L57.2134 1.89811C64.1519 28.5475 58.2156 84.8832 38.4795 94.9051Z" fill="#B8E8AC"/>
<path d="M55.2088 1.51843C58.5238 41.8341 30.3845 90.3496 30.3074 90.5015C30.1532 90.8052 29.6906 90.8811 29.3052 90.7293C28.9197 90.5774 28.7655 90.1978 28.9197 89.8941C28.9968 89.7422 57.2132 41.1508 53.6669 1.13881L55.2088 1.51843Z" fill="white"/>
<path d="M12.4987 64.4595C-2.38042 67.3447 -2.7659 53.8302 5.02061 44.4156C11.4965 36.5954 37.0147 15.033 48.2704 -1.52588e-05L55.1318 1.51847C50.1978 24.5235 30.0762 61.043 12.4987 64.4595Z" fill="#738693"/>
<path d="M52.6647 0.986973C40.7151 31.0529 7.33332 59.2208 7.17913 59.3726C6.94785 59.5245 6.56238 59.6004 6.254 59.3726C5.94563 59.2208 6.02272 58.8411 6.17691 58.6893C6.254 58.6134 39.4816 30.5974 51.3541 0.759197L52.6647 0.986973Z" fill="white"/>
</svg>
