<svg width="160" height="200" viewBox="0 0 160 200" fill="none" xmlns="http://www.w3.org/2000/svg">
<g clip-path="url(#clip0)">
<path d="M111.558 114.864C108.485 114.343 105.326 114.749 102.482 116.031C99.6377 117.312 97.236 119.412 95.5805 122.064C93.9249 124.717 93.0899 127.802 93.1811 130.931C93.2722 134.06 94.2853 137.091 96.0924 139.642C97.8995 142.193 100.419 144.148 103.333 145.26C106.247 146.373 109.424 146.593 112.462 145.892C115.5 145.192 118.264 143.602 120.402 141.325C122.541 139.047 123.958 136.184 124.476 133.097C125.123 128.966 124.134 124.744 121.719 121.336C119.305 117.928 115.658 115.605 111.558 114.864Z" fill="#00B6C5"/>
<path d="M68.2609 122.883C67.294 131.553 59.1721 137.621 50.383 136.602L50.0736 136.544C46.0539 135.87 42.4463 133.67 39.9985 130.398C41.17 130.913 42.4011 131.278 43.6631 131.485L43.9725 131.544C52.7616 132.573 60.8545 126.495 61.8311 117.825C62.3483 113.758 61.243 109.65 58.7563 106.398C61.9006 107.747 64.5255 110.082 66.2387 113.054C67.9519 116.025 68.6613 119.474 68.2609 122.883Z" fill="#009CA0"/>
<path d="M124.534 132.456C123.567 141.126 115.446 147.204 106.656 146.175L106.395 146.116C102.378 145.443 98.7718 143.246 96.3203 139.981C97.4937 140.488 98.7243 140.85 99.9849 141.058L100.294 141.116C109.083 142.146 117.176 136.068 118.153 127.398C118.674 123.334 117.568 119.228 115.078 115.981C118.213 117.336 120.827 119.673 122.531 122.642C124.235 125.611 124.938 129.053 124.534 132.456Z" fill="#009CA0"/>
<path d="M61.8309 117.825C60.864 126.495 52.7614 132.573 43.9723 131.544L43.6629 131.485C42.401 131.278 41.1699 130.913 39.9984 130.398C37.5381 127.138 36.4576 123.036 36.9913 118.981C37.5888 114.773 39.8185 110.972 43.1945 108.408C46.5705 105.844 50.8191 104.723 55.0143 105.291C56.3007 105.511 57.5567 105.882 58.7562 106.398C61.2429 109.65 62.3481 113.758 61.8309 117.825Z" fill="#00B6C5"/>
<path d="M158.163 52.8252L139.579 100.184C137.983 103.858 135.199 106.883 131.676 108.769C128.154 110.654 124.101 111.29 120.174 110.573L54.0186 99.3689C49.8984 98.6815 46.1412 96.586 43.3828 93.4369C40.7526 90.3633 39.2811 86.4598 39.2251 82.4078L39.3701 71.068L104.877 82.6602C108.061 83.2193 111.339 82.6033 114.106 80.926C116.872 79.2487 118.942 76.6232 119.932 73.534C123.426 62.6214 126.913 51.7184 130.394 40.8252L153 44.6602C153.474 44.7476 153.967 44.9806 154.247 45.0291C155.021 45.2728 155.738 45.6697 156.356 46.1965C156.974 46.7234 157.481 47.3693 157.846 48.0962C158.211 48.8231 158.427 49.6162 158.482 50.4285C158.536 51.2407 158.428 52.0557 158.163 52.8252Z" fill="#FFA40D"/>
<path d="M130.403 40.8252C126.916 51.7314 123.426 62.6343 119.932 73.534C118.942 76.6252 116.871 79.2521 114.102 80.9296C111.333 82.6071 108.053 83.2218 104.868 82.6602L39.3508 71.068C39.3508 70.7184 39.3508 70.3689 39.3508 70.0194C39.5828 52.3495 39.8084 34.6667 40.0276 16.9709C40.0232 16.5912 39.8908 16.2241 39.652 15.9297C39.4132 15.6352 39.0821 15.4307 38.7126 15.3495L25.7949 13.1651C24.1497 12.9268 22.6652 12.0448 21.6653 10.7115C20.6653 9.37829 20.2312 7.70202 20.4576 6.04855C20.7824 4.40864 21.7411 2.96479 23.1238 2.03312C24.5066 1.10146 26.2006 0.7579 27.835 1.07768L40.7044 3.26214C47.8691 4.47573 53.071 10.4854 52.9067 17.2913L52.8003 27.6893L130.403 40.8252Z" fill="#FFC100"/>
</g>
<path d="M144.653 154.98C141.481 150.536 135.238 149.457 130.709 152.568L100.016 173.649C98.8132 174.475 97.3812 174.917 95.9137 174.917H73.2319V194.559H97.7173C102.12 194.559 106.417 193.231 110.023 190.753L142.194 168.657C146.724 165.546 147.825 159.423 144.653 154.98Z" fill="#FABE8C"/>
<path d="M100.157 173.425C98.9487 174.254 97.5091 174.698 96.0338 174.698L73.2319 172.967V183.142H96.5259C106.833 183.142 115.219 174.934 115.219 164.847C115.219 164.278 115.188 163.716 115.136 163.16L100.157 173.425Z" fill="#E6A578"/>
<path d="M144.668 155.085C141.521 150.654 135.326 149.577 130.832 152.68L105.218 170.362C106.173 168.858 106.727 167.081 106.727 165.175C106.727 159.766 102.279 155.38 96.7921 155.38H72.6651L69.8879 153.327C64.3572 149.237 57.504 146.985 50.5903 146.985C44.7621 146.985 39.0403 148.547 34.0429 151.504C34.0429 151.504 29.3081 154.305 26.4778 155.979C25.1954 156.737 24.4111 158.104 24.4111 159.578V190.362C24.4111 192.68 26.3174 194.559 28.6688 194.559H98.0961C102.465 194.559 106.728 193.234 110.307 190.764L142.228 168.727C146.722 165.624 147.815 159.517 144.668 155.085Z" fill="#FFD2AA"/>
<path d="M73.2319 194.559H97.7175C102.121 194.559 106.417 193.231 110.023 190.753L142.194 168.657C146.724 165.546 147.824 159.423 144.653 154.98C141.481 150.536 135.238 149.457 130.709 152.568L104.895 170.298C105.857 168.789 106.416 167.007 106.416 165.096C106.416 159.672 101.933 155.275 96.4033 155.275H73.2319V194.559Z" fill="#FABE8C"/>
<path d="M115.138 163.16L105.155 170.064C105.093 170.161 105.031 170.259 104.966 170.355C103.173 172.975 100.137 174.698 96.6942 174.698H66.7679C64.4068 174.698 62.4927 176.588 62.4927 178.92C62.4927 181.251 64.4068 183.142 66.7679 183.142H96.6942C106.909 183.142 115.22 174.934 115.22 164.847C115.22 164.278 115.19 163.716 115.138 163.16Z" fill="#FABE8C"/>
<path d="M115.136 163.16L105.063 170.064C105 170.161 104.938 170.259 104.872 170.355C103.063 172.975 100 174.698 96.5259 174.698H73.2319V183.142H96.5259C106.833 183.142 115.219 174.934 115.219 164.847C115.219 164.278 115.188 163.716 115.136 163.16Z" fill="#E6A578"/>
<path d="M29.73 200H4.59743C2.05842 200 0 198.119 0 195.799L0 148.183C0 145.863 2.05842 143.982 4.59743 143.982H29.73C32.269 143.982 34.3275 145.863 34.3275 148.183V195.799C34.3275 198.119 32.269 200 29.73 200Z" fill="#C251C0"/>
<defs>
<clipPath id="clip0">
<rect x="19.3745" width="140.625" height="146.874" fill="white"/>
</clipPath>
</defs>
</svg>
